<svg id="Layer_1" data-name="Layer 1" xmlns="http://www.w3.org/2000/svg" viewBox="0 0 708.66 283.46"><defs><style>.cls-1{fill:#8eb5d3;}.cls-2{fill:#93b7d6;}.cls-3{fill:#7dafd5;}.cls-4{fill:#a4cfef;}.cls-5{fill:#97c4eb;}.cls-6{fill:#9dc2e1;}.cls-7{fill:#97bbd9;}.cls-8{fill:#b3d8f2;}.cls-9{fill:#9bbdd9;}.cls-10{fill:#aac5dd;}.cls-11{fill:#a4d1ee;}.cls-12{fill:#f0f0f4;}.cls-13{fill:#a5d2ef;}.cls-14{fill:#a4ceee;}.cls-15{fill:#9cc7ec;}.cls-16{fill:#bbd8f1;}.cls-17{fill:#b6cce3;}.cls-18{fill:#add2ef;}.cls-19{fill:#b0d3ec;}.cls-20{fill:#adc9e0;}.cls-21{fill:#accce4;}.cls-22{fill:#9bbcd6;}.cls-23{fill:#a2c3df;}.cls-24{fill:#96b8d1;}.cls-25{fill:#9ac9ed;}.cls-26{fill:#93bfe7;}.cls-27{fill:#a2cfef;}.cls-28{fill:#adcfee;}.cls-29{fill:#a8cded;}.cls-30{fill:#b6d3ef;}.cls-31{fill:#b3d3ef;}</style></defs><title>02_watercolor</title><g id="Group_187" data-name="Group 187"><path id="Path_10232" data-name="Path 10232" class="cls-1" d="M291.7,16.46l6-.68c3.76-2.64,8.75.72,12.34-2.77,12.41.51,24.6-2.51,36.7-4.18,17-2.34,33.88-1.64,50.82-2.22,7.67,4.93,16.68,4.12,25,5.5,10.6,1.76,20.69,5.5,31.25,7,2.09-1.66,4.2-1.44,6.34-.1l18.78.08c3.23-2.28,6.37-2.43,9.35.49l3.8,2.79c-5.19,6.64-13.4,3.95-19.74,7.05-24.24,2.46-46.78-8.56-70.57-9.71-8.32-3-16.91-2.31-25.47-2.08a57,57,0,0,1-7.73-.07c-8.5.15-17,.19-25.5,0-15.17,2.62-30.11,6.58-45.41,8.49-4.06.5-8,2.24-11.83-.74a6.24,6.24,0,0,1-2.05-4.4C285.06,16.91,289.45,18.73,291.7,16.46Z"/><path id="Path_10233" data-name="Path 10233" class="cls-2" d="M607.11,72.06c11.54,7,25,8.21,37.18,13.15,15.76,11.78,33.15,21.14,47.77,34.55,4.76,4.36,13.78,7.5,8.75,17.63l.11-.09a19.64,19.64,0,0,1-3.25,3.32l.1-.13c-1.58,2-3.77,1.78-5.89,1.82-3.66.07-7.38.14-7.21-5.36.23-7.32-4.91-11.15-9.13-15.57a53.09,53.09,0,0,0-4.93-3.77c-1.22-.69-2.37-1.47-3.52-2.27-12.15-7.07-23.53-15.41-35.25-23.2-24.29-6.78-45.78-19.77-67.18-33-3.56-2.2-7.35-4.12-8.88-8.61a5.91,5.91,0,0,1,1.25-4.5l3.21,0a33.8,33.8,0,0,0,3.35,2.61c10.3,3.58,19.72,8.92,28.87,15C597.12,66.82,600.86,72,607.11,72.06Z"/><path id="Path_10234" data-name="Path 10234" class="cls-3" d="M557,46.06c0,1,0,2,.05,3-13.39,7.46-26,7.26-37.5-4.12a27.42,27.42,0,0,1-3-3.17,24.56,24.56,0,0,0-4.89-4.32c-12.52-5.71-27.4-2.5-39.05-11.41,5.67-6,13.06-1.83,19.45-3.61,18.81,1.94,35.33,11.6,53.07,17.16,3,.92,5.87,2,8.8,2.94l0,0Z"/><path id="Path_10235" data-name="Path 10235" class="cls-4" d="M563.59,48.71l-3.35-2.62Z"/><path id="Path_10236" data-name="Path 10236" class="cls-4" d="M550.92,271.54,538.49,262c-7.38,2.78-14.13,2.39-19.61-4.3,1.66-8.73,1.5-15.6-9.44-18-15.62-3.46-29.69-9.4-33.76-28.89-1.64-7.87-10.11-7-15.94-7.12-14.39-.33-24-8.94-33.15-18.85-2.91-3.16-6.61-6.94-5.41-11.22,3.66-13.06-4.2-19.82-11.52-27.87-12.31-13.56-10.7-25.34,3.37-32.41,10.06,5.13,20.44-10.58,30.92,1.48-3.22-11.15-7.57-21.43,2.62-30.17,2.4-2.06,4.58-5.6,7.52-5.24,13.38,1.62,23.14-7.2,34.23-12.18,11.23,1.29,14.15,8.42,18.78,19.21,8.9,20.77,4.7,41.57,6,62.07.84,13.36,1.18,29.4-11.75,40.89,17.12-13.41,19.77,8.12,29.6,12,10.93,2.12,17.62,8.29,18.47,20.5.78,11.24,10.87,23.44,21,23.14,13.32-.4,27,.6,39.81-5.11a14.8,14.8,0,0,1,4.64-.35c9.35,8.28,9.33,8.33-6.52,16.17-5.14,3.29-11.71-1.61-16.63,3.12q-4.79,4.86-9.56,9.74c-3,9-9.66,8.94-17,7.67C560.21,275.37,556.62,270,550.92,271.54Z"/><path id="Path_10237" data-name="Path 10237" class="cls-4" d="M519.64,42.38C527.38,42,531.4,54.51,537.78,51c7-3.8,13-.85,19.3-2,24.76,16,49.19,32.64,78.18,39.38,3.5,4.58,5.42,9.09.46,14.11a32.45,32.45,0,0,0-7.45,12.14c-1.3,3.71-2,7.55,1.13,10.49,3.82,3.57,5.8.7,8.5-2.51,4.93-5.87,7.89-1.6,9.87,3.36s3.79,10.84,10.58,9c6.51-1.74,5.56-8,6.16-13.28.37-3.29-.85-8.32,5.24-7.29,1,0,2,.06,3.07.11.95,1.17,2.19,2,3.14,3.21,5.6,3,8.7,9.19,13.68,12.56s-7.12,8.92,1.94,10.4c1.07.82,1.38,1.55.92,2.2s-.84.9-1.26.9a12.23,12.23,0,0,0-2.77.2c-8.25-.05-12.4,7.19-18.19,11.41-4.64,3.37-8.69,7.64-13,11.51-2.43,1.86-.9,6-3.91,7.51a5.4,5.4,0,0,1-4-1.27c-3.39-4-6.9-7.88-12.1-9.4-5.89-1.73-12.3-4.67-16.93,1.73S611.27,179,618.27,187c1.08,3.21,1.05,6.31-.87,9.22-12.26,1.89-15-9.87-21.42-16.36a14.3,14.3,0,0,1,2-16.13c4.11-4.94,15.66-6.19,11.53-14.67-3.79-7.79-14.85-6.25-22.58-6.83-6.06-.45-12.68,6.24-18.12-1.94-6-9.05-7.39-19-5-29.67.85-3.75,3.34-6.86,4.2-10.56,2.56-11-4.75-18.9-15.39-18.32-13.85.76-26.76-7.23-41.08-5.33-3.85.51-5.76-5.6-6.3-10.16,2.41-9.51-1-20.67,7.26-28.55C516.53,36.55,516.73,41.69,519.64,42.38Z"/><path id="Path_10238" data-name="Path 10238" class="cls-5" d="M607.14,255.34c2-3.49,5.93-4.08,8.66-6.43,5.23-4.5,1.85-5.8-2.4-6.66a5.33,5.33,0,0,1,2.26-7c7.41-4.39,7.6-9,1.86-15.31-4.17-4.62-5.52-10.47-2.11-16.59,2.67-2.54,5.48-1.45,8.3-.39,7.83,5,12.64,12,13.91,21.5,3.52-3.43,6.63-9.54,13.59-5.63.06,16-13.73,21.07-22.05,30.46-4.23,4.64-9.55,6.32-15.51,6.23a6.31,6.31,0,0,1-5.2,1.18Z"/><path id="Path_10239" data-name="Path 10239" class="cls-6" d="M629.16,249.29c5.44-11.44,18.23-17,21.74-30-4.62-5.54-2.93-11.7-1.64-17.83,1.89-9.22-4.27-19,1.72-28l3.06,0q1.59-2.42,3.1.06c5,17,4.75,33.48-2.57,50C649.13,235.73,641.73,245.11,629.16,249.29Z"/><path id="Path_10240" data-name="Path 10240" class="cls-7" d="M591.75,258.82c-1.27-.72-4.89-2.15-2.41-2.81,5.62-1.51,11.84-.6,17.8-.67h0c1,.72,1.38,1.42,1,2.12s-.71,1-1.07,1Z"/><path id="Path_10241" data-name="Path 10241" class="cls-4" d="M607.11,258.51c0-1.05,0-2.11,0-3.16l6.49.18C612.06,257.94,609.75,258.63,607.11,258.51Z"/><path id="Path_10242" data-name="Path 10242" class="cls-8" d="M657.14,173.52l-3.1-.05c.09-2.71.66-5.17,3.24-6.52Q657.22,170.24,657.14,173.52Z"/><path id="Path_10243" data-name="Path 10243" class="cls-9" d="M285,19.79c0,1,0,2,0,3-6.24,12.82-19.81,8-29.15,13.39C238.78,43.24,221,48,203.62,54a25.46,25.46,0,0,1-4.26,1.28,22.36,22.36,0,0,1-4.31.45,21.62,21.62,0,0,1-6.24-1c-1.94-.58-3.86-1.3-5.8-1.94a59.65,59.65,0,0,1-5.8-1.92c-3.74-1.76-8.14-2.66-9.4-7.72a6,6,0,0,1,1.46-4h6.46a6.53,6.53,0,0,0,2.66,2.39C185.54,45,192.88,47,200.78,44.9a7.93,7.93,0,0,0,2.76-2.45l16-4.06A15.86,15.86,0,0,0,222.66,36l9.42-.92a11.93,11.93,0,0,0,3-2.38c5.71,1,10.38-2.8,15.65-3.82a34.31,34.31,0,0,0,3.18-2.72l9.4-.76a13.46,13.46,0,0,0,3-2.55l6.34-.59a7.64,7.64,0,0,1,3.76-1c2,0,3.94,0,5.52-1.54v-.53Q283.81,17.66,285,19.79Z"/><path id="Path_10244" data-name="Path 10244" class="cls-10" d="M169.27,39.16l0,3.33a12.13,12.13,0,0,1-4.31,3c-10.69.88-21.4,1.76-23.64-13.55,4.18-1.12,8.38-2.74,12.37.58l.06.1a11.43,11.43,0,0,0,2.84,2.62C160.9,36.19,166,34.53,169.27,39.16Z"/><path id="Path_10245" data-name="Path 10245" class="cls-11" d="M281.9,19.7c-1.62,2.57-4,3-6.72,2.77a2.39,2.39,0,0,1,.46-2.92Z"/><path id="Path_10246" data-name="Path 10246" class="cls-12" d="M203.54,42.45l-2.76,2.45Z"/><path id="Path_10247" data-name="Path 10247" class="cls-12" d="M178.39,41.56l-2.66-2.39Z"/><path id="Path_10248" data-name="Path 10248" class="cls-12" d="M222.66,36l-3.12,2.41Z"/><path id="Path_10249" data-name="Path 10249" class="cls-12" d="M235.07,32.68l-3,2.38Z"/><path id="Path_10250" data-name="Path 10250" class="cls-12" d="M156.56,35.25l-2.84-2.63Z"/><path id="Path_10251" data-name="Path 10251" class="cls-12" d="M253.9,26.14l-3.17,2.73Z"/><path id="Path_10252" data-name="Path 10252" class="cls-12" d="M266.28,22.83l-3,2.55Z"/><path id="Path_10253" data-name="Path 10253" class="cls-13" d="M516.44,39.19c-3.18.45-5.21,1.29-5.31,5.69-.15,7,.66,14.43-4.07,20.51-2.7,1.87-5.08.2-7.54-.7s-4.86-1.64-7.14.38c-1.29,1.28-2.71,2.41-4.09,3.6-3.13,2.73-6.4,5.32-9.37,8.24-4.76,4.69-9.65,7.44-16.65,5.28-5.21-1.61-9.63.07-13.19,5.47-3.78,5.72-9.94,9.85-2.31,17.43,2.21,2.2,2,7,2.92,10.7.64,2.6,1.44,5.4-1.58,6.95-2.26,1.16-3.89-.72-5.4-2.08-2.35-2.11-4.47-4.48-6.81-6.59s-5-2.52-6.42.57c-5.64,12.64-10.87,4.56-16.24-.12-1.88-5.79,1.4-12.4-2.63-17.85-3.37-15.12-3.42-31-14.3-44-5-5.94-8.75-12.1-15.41-17.05-6-4.46-20.95-7.86-11.49-22.45l6.31-.15c8,4.37,17.09-1.05,25.09,3.17,17.33-1.5,33.66,4.73,50.37,7.64A136.57,136.57,0,0,0,472.62,26c14.85,2.12,30.42.77,43.8,9.94l1.32,1.6Z"/><path id="Path_10254" data-name="Path 10254" class="cls-14" d="M369.4,13.19c-1.38,3.07-2.67,6.77.87,8.55,7.44,3.75,9.62,16.44,21.11,13.35,2.78-.74,2.5,2.54,3.15,4.43,2.8,8,5.75,15.88,12.38,21.6,3.81,3.29,5.62,9.2,4.92,13.13-1.48,8.35,2.49,15.89,1.4,23.89-5,1.14-9-3.92-15.32.67-20.81,15-34.21.69-42.65-15.07-2.51-4.68-3.8-9.88-8.14-13.48-9.59-8-12.59-7.41-15.37,4.68-1.68,7.3-5.14,8.79-11.13,6.25-4.8-2-9.79-3.84-14.11-6.74-7.78-5.22-7.51-14.9,1.05-16.8,12.54-2.78,16.85-11.06,18.85-22.47a5.92,5.92,0,0,1,1.72-2.6c12.16-8,12.17-8,13.16-19.48Z"/><path id="Path_10255" data-name="Path 10255" class="cls-11" d="M341.28,13.1a17.84,17.84,0,0,0,.46,3.16c4.34,13,4.36,13-7.9,16.45a8.52,8.52,0,0,0-5.06,3.2c-6.29,3.22-14.86-1.33-19.77,6.43a50.78,50.78,0,0,0-2.8,5.44,17,17,0,0,1-2.29,3.57,10.81,10.81,0,0,1-5.42,3.3,10.31,10.31,0,0,1-6.33-.83c-6.92-6-15.4-5.42-23.52-5.73-9.76-.38-15.53-4.33-14.91-15.4C263.39,26.74,275.39,29,285,22.8c2.39.83,4.59,2,7.35,1C308.15,17.79,325.32,18.46,341.28,13.1Z"/><path id="Path_10256" data-name="Path 10256" class="cls-14" d="M400.81,16.21c-8.33-1.3-17.34,3.25-25.09-3.17C384.06,14.34,393.05,10,400.81,16.21Z"/><path id="Path_10257" data-name="Path 10257" class="cls-15" d="M669.75,114.47c-5.9,4.91,1.7,10.8-1.33,16.67-2.92,5.66-4.67,10.35-12.08,9.69-6.5-.58-11.11-2.33-11.6-10.06-.16-2.6.47-5.46-2.56-8.3-3.08,2.63.45,7-1.88,9.4-3.4,3.5-6.68,1.14-10-.17-8.41-3.3-10.12-7.85-6.26-17.24,2.22-5.38,3.1-11.87,8.8-14.77s2.37-7.35,2.41-11.26C645.08,99.55,659.8,103.54,669.75,114.47Z"/><path id="Path_10258" data-name="Path 10258" class="cls-15" d="M676,117.79l-3.13-3.21Z"/><path id="Path_10259" data-name="Path 10259" class="cls-13" d="M519.64,42.38c-4.65,2.9-2.43-1.8-3.2-3.19h0a1.86,1.86,0,0,1,2.58-.42,1.9,1.9,0,0,1,.42.43C519.53,40.25,519.6,41.31,519.64,42.38Z"/><path id="Path_10260" data-name="Path 10260" class="cls-4" d="M519.44,39.19h-3c0-1.07,0-2.14,0-3.21Z"/><path id="Path_10261" data-name="Path 10261" class="cls-16" d="M141.22,29.32c0,1,0,2-.09,3,6.46,8.41,15,11.31,25,10.16a17.32,17.32,0,0,1,3.66,8.87c.62,6.28,4,13-1.09,18.73-5.78,6.54-9.72-4.74-17.24-1.19,5.3,16.37,4,34.67,10.38,51,3.23,8.32,14.09,9.6,21.92,13.08,6.89,3.05,15.37,5.08,10.72,15.49-4,8.88-10.37,7.92-18.1,3-8.8-5.59-36.53,6.07-39.38,15-1.86,5.83-2.46,10.61,4,13.51,5.69,2.56,10.1.47,13.83-4.08a17.66,17.66,0,0,0,2.88-5.73c7.35-22.12,14.5-23.06,30.1-6.66,9.4,9.89,22.32,15.36,34.59,21.06a20,20,0,0,0,13.11-3.79c8.23-6.14,16.25-8.35,25.18-.73,4.24,3.62,9.88,1.6,14.93.55,10.38-2,18.68,7.17,30.16,4.43s13.79-16.8,25.46-18.27c2.1-.26-1.07-6.65-2.11-10.18-3.11-10.52-1.5-19.3,8.86-24.58,8.94-2.52,12.86,3.38,17.13,10.19,8.27,13.2,13.57,14.29,25.36,5.92,3.5-2.47,6.55-3.12,10-.88,4.54,3,9.14,7,7.5,13-1.93,7,.29,12,2.8,18.25,4.33,10.75-5.72,14.3-11.47,19.75-21.92,1.49-42.86,8-64,13.58-6.43,1.5-12.34,4.9-19.63,2.56-13.95-4.48-28.47-.28-35.35,12.2C264.23,237.61,257,241,246,237.89c-6.09-1.71-11.2.94-16.43,3.35a21.62,21.62,0,0,1-10.92.31,27.41,27.41,0,0,1-3.84-1.9c-.61-.33-1.22-.68-1.84-1-1.6-.69-3-2.78-5.08-.77a12.83,12.83,0,0,1-4.27,1c-30.89-1.58-61-8.79-91.27-14.15-6-1.06-11.88-3.7-18.18-2.12-6.44.61-12.32-1.11-17.91-4.43C58.81,207.8,42.8,195.47,29.47,179.63c-3.2-3.8-5.56-4.4-10.47-2-7.69,3.82-11.3.89-12.22-8-.34-3.23-.77-6.78.13-9.76,4.8-16,2.11-32.45,2.95-48.67,4.4-8,4.46-17.15,6.14-25.85.52-2.7,1-5.18,3.2-6.92C21.6,76.07,22,73,22.28,69.63c2-25.3,14-41.69,38.11-47.9a42,42,0,0,0,14.06-6.55c23.13-7.31,43.5.24,62.89,12.93a4.93,4.93,0,0,1,3.79,1.15Z"/><path id="Path_10262" data-name="Path 10262" class="cls-17" d="M75.46,16.29A28.38,28.38,0,0,1,59.4,25.5c-22.12,4.72-31.65,20.11-33.93,42-.5,4.83.41,10.18-6.28,11C16,53.33,29.36,36.92,46.33,22.39c4-3.44,8.69-2.82,13.28-3,1.81-1.77,4.7-1,6.42-3,1-.09,2-.16,3-.2a5.48,5.48,0,0,1,3.32-1.44A3.27,3.27,0,0,1,75.46,16.29Z"/><path id="Path_10263" data-name="Path 10263" class="cls-10" d="M75.46,16.29l-3.15,0a2,2,0,0,1-.71-2.13q.36-1,.72-1L75.45,9.8c12.17.58,24.33-1.61,36.55,2a65.35,65.35,0,0,1,16.6,7.5,7.8,7.8,0,0,0,2.83.37,15.12,15.12,0,0,1,6.49,6.49l0,0c.84.67,1.14,1.35.9,2.06s-.49,1.1-.75,1.1c-.46,2.68-2.45,7-4.23,4.64-14.66-19.55-34.7-19.14-55.23-17.66C77.55,16.35,76.5,16.29,75.46,16.29Z"/><path id="Path_10264" data-name="Path 10264" class="cls-16" d="M66,16.38c-1.47,2.57-3.81,3.1-6.42,3C61.16,17,63.44,16.31,66,16.38Z"/><path id="Path_10265" data-name="Path 10265" class="cls-16" d="M72.33,13.06c0,1.07,0,2.13,0,3.19l-3.25-.07Z"/><path id="Path_10266" data-name="Path 10266" class="cls-18" d="M391.33,196.37c.17-2.66-.7-6.42,1.62-7.6,10.44-5.3,6.19-9.92-.23-14.58-2.93-2.12-5.09-4.81-1.93-7.79,10.23-9.65,1-13.22-4.21-18.23-1.46.62-2.8.74-3.22,1.44-2.82,4.76-3.74,13.93-10.56,11.43-7.72-2.84-17.68-5.13-20.77-15-2.39-7.64-5.36-12.85-13.87-11.87-6.62,4.65-9.4-4.64-14.8-4.38-5.37,1.35-10.92,4-15.36-2.08-1.37-1.6-2.39-3.46-3.85-5-16-17-15.86-18.18,2.8-29.2-19.75-12-24.71-28.22-12.57-41.21h6.25c1-1.14,2.14-2.12,3.13-3.27,1.88-2.18,2-4.37,0-6.55,9.72-11.81,10-11.89,25-6.55-1.23,18.92-2.36,20.6-19.74,25.18-2.73.72-5,.56-5,4.13,0,2.2.51,4.3,2.47,5.61a2.45,2.45,0,0,0,1.42.55c7.69-.88,11.83,8.53,19.34,7.91,3-4.86,0-8.75-.51-12.87-.57-4.43,2.63-6.84,5.71-8.86,2.85-1.87,4.49.64,6.59,2.26,3.73,2.86,8.09,4.86,11.74,7.82,3.17,2.57,7.54,5.06,7.43,9.82-.34,14.52,11,19.71,20.07,23.54,6.1,2.58,15.5-1.75,21.5-7.9,1.76-1.8,2.23-4.92,5.26-5.84,2.9,3.41,3,9.34,8.2,10.88,10.06,5.45.94,10.91,0,16.37-1.74,5.1-6.46,6.34-10.5,7.72.79,5.51,9.12,5.81,5.66,12.86-2.16,4.39,1.34,7.11,4.72,8.76,6.63,3.25,9.07,10.16,13.15,15.65,1.67,2.24,3.37,5.54,1.66,7.4-9.25,10,1,13.72,5.33,19.2,7.58,9.57,17.69,13.63,29.34,13.51,4.81-.05,9.11,1.52,13.56,3,4.14,1.37,6.25,3.62,5,8.31-2.66,9.69,4.48,14.13,10.29,17.38,7,3.91,14,8.77,23.08,7.92,5.5-.51,9.4,4.23,10.8,10,1.2,4.9-.19,8.61-5.73,9.19-10,4.93-15.59-8.8-25-6.63-12.82-15.35-32-17.8-48.35-25.94-6-3-12.54-4.62-17.44-9.66-6.29-6.3-15.87-5-22.41-10.57.4-5.05-2.16-2.55-4.14-1.66C398.57,199.42,394.06,200.26,391.33,196.37Z"/><path id="Path_10267" data-name="Path 10267" class="cls-19" d="M228.66,238.9c5.56-6.11,11.74-7.07,19.65-4.76,12,3.5,13.27,2.28,17.77-10.56.87-2.48.63-5.88,3.55-6.57,6.71-1.56,15.3,0,14.13-12-.14-1.42,3.35-1.78,5.45-1.18,4.45,1.28,10,1.22,13.12,4.08,6.83,6.27,13.34,3.4,20.2,1.65,1.31,1.11,3.2,1.41,4.05,3.16a3.32,3.32,0,0,1-1,3.21c-15.8,3.66-28.51,14.86-43.81,19.74-2.08-1.16-4.22-3.39-6,.44-4.75,3.7-10.27,5.2-16,6.08C249.79,237.47,238.68,243.9,228.66,238.9Z"/><path id="Path_10268" data-name="Path 10268" class="cls-20" d="M94.2,222.58a6.94,6.94,0,0,1,8.24-2.89c17.7,5.37,36.19,5.76,54.11,9.85,17.53,4,35.32,6.52,53.36,6.17,1.86,3.63-1.23,4.69-3,6.42C168.61,240,131.29,232.06,94.2,222.58Z"/><path id="Path_10269" data-name="Path 10269" class="cls-21" d="M325.65,212.8l-3.11-3.29c7.77-4.85,16-7.67,25.21-6.64,2.54.29,6,.77,7.63-.62,11-9.21,23.86-4.82,35.95-5.88,4.55-.46,8.62,1.09,12.55,3.26,1-1.14,2.07-1.07,3.08.05,3.7,4.39,9.17,4.67,14,6.38,3.7,1.33,6.54,3.12,7.88,7.06l-6.22-.47a29,29,0,0,0-3.27-3.1c-3-.57-6.38-.45-9-1.84-16.91-8.92-34.1-6.09-51.23-1.49-10,2.68-19.42,7.69-30.11,6.76C327.79,214.1,326.69,214,325.65,212.8Z"/><path id="Path_10270" data-name="Path 10270" class="cls-22" d="M206.87,242.13q1.53-3.21,3-6.42l0,0a2.15,2.15,0,0,1,3-.05l.06.06,0,0c1,1.1,2.06,2.19,3.16,3.2l12.46,0c10.35,1.46,21.29-3.2,31.17,3.24-9.62.77-19.33-.4-28.86,2.66C222.81,247.42,215,242.63,206.87,242.13Z"/><path id="Path_10271" data-name="Path 10271" class="cls-23" d="M494.59,248.72c5.12-5.49,9.48.46,14,1.43,3.77.81,6.42,5.39,11,5.2,5,6.44,11.89,6.7,18.94,6.61-6.43,6-13.24,3.78-20,.85A109.59,109.59,0,0,1,494.59,248.72Z"/><path id="Path_10272" data-name="Path 10272" class="cls-24" d="M275.84,236.06c-1.06-1.13-1.9-2.57.11-3.23,2.5-.81,4.57.32,5.85,2.79Z"/><path id="Path_10273" data-name="Path 10273" class="cls-16" d="M325.65,212.8l3.3.18-3.33,2.91Z"/><path id="Path_10274" data-name="Path 10274" class="cls-18" d="M419.31,209.55l3.27,3.1Z"/><path id="Path_10275" data-name="Path 10275" class="cls-25" d="M500.8,62.11l6.26,3.28c2.83,7.54,6.74,12.51,15.05,6.86,7.25-4.93,12.52,2.68,18.7,3.94s10.48,4.52,16.15-1.63c4.21-4.56,7-2,9.85,4.07,5.3,11.35,10.62,21.1.56,33.08-3.09,3.69-2,11.77.2,17.39,5.67,14.63,7.35,17,18.67,6.53,1.44-1.32,3.52-4,4.72-.78,2.95,7.91,9.19,5.35,14.52,5.87,4,.38,8.69-1.05,10.53,4.53,1.56,4.7-2.35,15.39-7.27,16.19-4.6.74-7.16,4.13-11,5.48.2,4.37-12,8.73,0,13.1,9,2,10.51,13.43,18.76,16.37,7.06-.2,9.38,2.92,6.26,9.83L616.52,203a12.64,12.64,0,0,1-5.83,3.47c-8.23,1.43-14.57-1.44-21.2-7.09-8.18-7-15.71-14.6-26.86-18.43-10.12-3.47-14.73-16.35-18-27-3.76-12.12-11-20.28-20.11-27.77-5.52,5-4,11-2.3,15.55,4.2,11.14,12.14,19.33,14.69,33,2.21,11.79,3.34,18.28-4.69,26-1.49,1.43-2.16,3.69-3.24,5.54-7.87-.17-6.31-8.84-10.33-12.73-6.28-6.08-7-6.6-11.87,1.77-1.75,3-3.43,3.65-6.12,2.47-3.52-1.55-6.93-3.82-5.26-8.39a15.31,15.31,0,0,1,5.76-7.33c5.42-3.39,9.95-6.29,4.06-13.32-.82-1-1.15-3.88-.5-4.5,12.53-12-.1-26.84,4.15-40,1.21-3.76-.86-9.32,1-14a2.37,2.37,0,0,0,.18-1.59c-4.52-10.3-9.67-20.16-9.42-32.33.05-2.46-8-5.11-12.33-7.67V62.12A11.83,11.83,0,0,1,500.8,62.11Z"/><path id="Path_10276" data-name="Path 10276" class="cls-5" d="M529,206.22c-2.28-4.62-3.59-8.45,2-12.39,9.42-6.66,9.5-7.82,2.39-14.62-4.4-4.21-7.94-7.15-.8-12,1.9-1.29.6-3.85-.87-5.61-2-2.46-3.47-6.1-6-7.35-12.39-6.1-7.52-18-8.89-27.69a6.78,6.78,0,0,1,4.87-7.44c2.87-.91,5.28.91,6.68,3.1,7,10.8,19.31,17.1,20.65,33,.58,6.94,8.78,13.78,11.91,21.73.31.78,1.84,1.77,2.47,1.56,15.81-5.25,18,15.63,30.23,17.18,2.71,9.7,10.4,6.75,16.74,7.25-3,10.76-10.67,9.25-18.23,7.33-4.68-1.18-9.69-5.88-11,4.16-1,7.87.26,12.7,8.72,13,1,0,2.15.73,3,.4,13.15-4.84,15.35,4.7,17.44,14.44-3.59,4.29-8.07,7.31-13.49,5.72-4.87-1.43-9.67-.28-13.59,1.1-16.29,5.76-26.13-5.76-37.26-13.91a7.51,7.51,0,0,1-3.1-8.31C545.87,212.5,542.43,207.64,529,206.22Z"/><path id="Path_10277" data-name="Path 10277" class="cls-26" d="M610.28,242.26c-12.7,1.86-3.65-8.45-6.37-13.81-6.71,6.57-13.92,2.28-20.83,2-6.13-.26-13.26-2.07-6-11.68,3.64-4.79-5.37-13.27,2.89-17.18,6.24-3,9.41,5.33,14.88,6.29,5.93,1,10.92-1,15.38-4.91h6.24c-.6,7.46,1.3,13.33,7.14,18.61,8.2,7.42,7.35,9.83-3.5,14.41a12,12,0,0,0-6.75,6.27Z"/><path id="Path_10278" data-name="Path 10278" class="cls-8" d="M651,173.51c.51,9.82,4.81,19.23,2.9,29.31a8.45,8.45,0,0,1-4,2.31c-24.79,6.52-28.39,2.89-22.86-23.34-4.63-1-6.23,5.23-10.48,4.78-6.45-1.28-11.5-3.34-6.18-11.57,1.43-2.22,3.22-4.43,3.87-6.92,2.24-8.58,7.19-13.75,15.56-10.59S650.91,158.17,651,173.51Z"/><path id="Path_10279" data-name="Path 10279" class="cls-27" d="M616.53,186.57c2.92-4.45,5.44-9.27,8.88-13.24,2.71-3.14,5.82-2.18,6.41,2.33.61,4.79,1.51,10.1-1.79,14.11-5.5,6.69-2.38,11.79,2,17.23,4.8.45,5-7.12,9.78-6.32,4,.68,7.85,2.91,12.13,2.14-2.65,5.16-3.33,10.72-3,16.47-7.74,0-10.27,7.56-15.57,12.8-.2-11.67-4.48-19.86-12.55-25.87,0-4.72-2.12-8-6.25-9.84Z"/><path id="Path_10280" data-name="Path 10280" class="cls-5" d="M597.76,180c-4,4.2-7.91,8.56-14.08.66,7.07-2.1,5.93-12.46,14.08-13.76Z"/><path id="Path_10281" data-name="Path 10281" class="cls-28" d="M310,127.62c5.45,4.27,8.5-1.53,12.51-3.28,4.15,5.88,1.65,12.57,1.79,18.84.1,4.66-4.09,10.16-7.61,6.9-8.75-8.09-16.5-1.74-24.9-.47-2.17,6.81,15.89,15.55-1,20.89-7.23,2.28-4.76,15.76-15.2,12.8-5.91,5.34-14.16,5.72-18.11.7-7.54-9.57-13.1-4.12-19.61-.26-2.65,1.56-3.9,5.07-7.26,5.66s-6.13.24-8.19-2.83c-13.41-5.92-14.81-9.28-6.71-20.52,5.12-7.12,3.79-16.69,9.7-23.46,2.25-2.57-1.07-4.65-3.62-5.59s-6.29-1.68-6.27-4.1c.08-17-11.6-14.23-21.55-14.74-21-1.08-27.1-7.48-21.36-28.32,3.76-13.66,4.66-27.15,6-40.86l6.25.07c.93,1.21,2.17,2.07,3.13,3.24l6.25,0c1.05,1.18,2.09,1.18,3.13,0,1,0,2.06,0,3.1,0,5.17-1.15,9.64,0,10.34,6.1.58,5.11-4.32,5.47-7.56,6.4-9.08,2.62-10.12,7.17-4.26,14.64,3,3.78.42,9.67,4.39,14.53,15.37-11.34,26.2-4.32,35.11,10.35,4.74,7.79,10.1,1.26,14.4-.66,8.16-3.61,15.75-9.35,23.74,0,1.51,7.41-2.35,18.47,11.08,17.72C295.09,123.75,303.63,121.54,310,127.62Z"/><path id="Path_10282" data-name="Path 10282" class="cls-29" d="M275.61,104.69c-5.78-3-10.82-4.79-16.93.85-4,3.66-10.28,4.64-15.64,6.51-6,2.07-6.29,2-7-5.65-.92-9.23-11.1-7.8-14.63-14.62-2.09-4-6.17,1-9.29,2.1a10.05,10.05,0,0,0-2.67,1.64c-3.1,2.41-5.14,7.48-10.33,4.67-5.51-3-2.34-7.86-1.56-11.5,2.29-10.64-8.23-12.57-11.81-19,2.68-5.43,9.05-2.1,11.75-7.12,2.11-3.92,7.38-2.27,11.25-3.38-1.09-4.74-5.32-4.91-8.18-6.9,4.82-4.38,11-5.32,16.79-7.27l36.43-12.31c4.95,16.34,19.29,11.14,29.39,12,6.72.61,7.8,4.74,11.24,7.58-8.45,11.4-.29,21,3.4,30.89,1.29,3.44,5,5.38,9.2,3.5,3.85-1.71,5.77.68,7,4,1.71,4.78-1.81,6.8-4.65,9-3.88,3.08-9.34.12-13.83,4.19C297,110,299.85,115.35,306,118c4.41,1.93,3.81,5.87,4,9.57-8.41-.5-17.15,1.77-25-3.28-4.48-13.33,1.25-27.74-5.66-40.14C276.26,89.63,289.53,101,275.61,104.69Z"/><path id="Path_10283" data-name="Path 10283" class="cls-30" d="M178.66,49c7.12,9.06.1,20.41,4.11,30.37.67,1.67-8.78,6-7.44,13.71,1,5.77.2,11.88.2,17.37,10.79,5.71,22.78,5.79,32,4,12.19-2.41,10.37,4,11.13,10.54.23,1.94-1.06,4.07-1.57,5.84,3.22,4.94,6.92-.36,10.26,1.35,5.83,3,8,8.73,3.17,12.9-6.35,5.5-10.27,10.67-6.22,19.37.75,1.61-.13,2.55-1.62,3.63-11.11,8.05-11.07,8.11-1.14,17.24a8,8,0,0,1,.94,1.3c-3.8,4-7.69,8.38-11.27-.11-2.85-6.76-6.65-10.56-14.69-10.17-6.78.33-11.49-5.8-13.68-11.81-2.1-5.73-5.24-7.23-10.32-7.86-8-1-10,.44-10.28,8.77-.31,8.6-5.94,18.75-11.79,20.57-8.2,2.56-13.9-1.82-19-7.88-3-3.55-6.35-6.56.86-9,1.05-.35,2.46-3,2.1-3.84-6.4-15.13,5.68-12.07,12.43-13.72s14.05-1.55,19.47-6.23,9-4.56,12.36,1.84c1.8,3.37,3.87,7.15,8.37,5,3.28-1.57,6.47-4.13,6.08-8.59-.33-3.81-3.43-6.12-6.54-5.64-11.41,1.72-17-12.89-28.43-10.6,2.12-6.61-4.06-10.86-4.34-16.77-.16-3.26-.09-6.54-.1-9.81,0-6.51.65-13.09-3.92-18.67a10.06,10.06,0,0,1-2.07-6c.1-5.19-2.81-12.55,2.41-14.89,4.86-2.18,11.27,0,13.56,7.16.43,1.36,1.42,1.58,3.8,0-.4-8-.85-16.88-1.29-25.73,1,0,2.08,0,3.12,0C171.16,46.6,176.68,45,178.66,49Z"/><path id="Path_10284" data-name="Path 10284" class="cls-29" d="M197.41,52.3c-1,1.85-2.07,1.87-3.12,0C195.33,52.29,196.37,52.29,197.41,52.3Z"/><path id="Path_10285" data-name="Path 10285" class="cls-29" d="M188,52.28l-3.13-3.23Z"/><path id="Path_10286" data-name="Path 10286" class="cls-4" d="M500.8,62.11H488.29Q494.54,55.18,500.8,62.11Z"/><path id="Path_10287" data-name="Path 10287" class="cls-29" d="M303.76,42.46c3.16,2.19,3.15,4.37,0,6.55Z"/><path id="Path_10288" data-name="Path 10288" class="cls-29" d="M303.76,49l-3.13,3.27Z"/><path id="Path_10289" data-name="Path 10289" class="cls-31" d="M275.61,183.29c2.71-3.64,14.38-4.93,2.91-12.35-1.31-.86-1.39-2.82-.37-4.27,1.38-2,3.56-2.89,5.29-1.19,4.45,4.37,8.15,2,12.16-.6-2.81-7.35-13.17-10.48-9.7-21.18,4.31-1.51,8,4.92,13.64.32,8.66-7.09,10.89-5.79,20,5,2.58-8.54-1.2-17.31,2.94-24.68,4.26-.07,8.31.11,9.68,5.66.76,3.07,3.32,3.79,6,4.17-7.56,8.28-10.36,16.26-2.13,26.68,5.13,6.51,1.25,15-6,13.62-13.94-2.65-9.2,6.59-8.87,13.12-4.92,2.43-9.15-2-14,.27-8.32,4-16.74,4.95-24.05-3.34C281.76,183,278.16,183.65,275.61,183.29Z"/><path id="Path_10290" data-name="Path 10290" class="cls-20" d="M216.21,238.92l-3.16-3.2Z"/><path id="Path_10291" data-name="Path 10291" class="cls-20" d="M213,235.7h-1.55l-1.54,0C211,233.83,212,233.83,213,235.7Z"/><path id="Path_10292" data-name="Path 10292" class="cls-16" d="M407,199.68l-3.08-.05a26.8,26.8,0,0,1,.92-4.62c.79-2,2.24-3.83,4.54-2.91a5,5,0,0,1,2.75,3.33C412.31,199,409.48,199.31,407,199.68Z"/><path id="Path_10293" data-name="Path 10293" class="cls-18" d="M275.61,104.69c4-3.28,3.49-7.54,2-11.75-1.28-3.64-2.92-7.36-.19-10.69,2.2-2.69,3.2-8.76,6.87-7.46,5.75,2,1.52,5.59-.51,8.52s1.16,4.88,1.43,7.22c1.3,11.24,4.8,22.6-.24,33.81-3-.07-6.19.35-8.73-1.67-4.27-3.39-9.53-6.77-1.22-11.94C276,110.12,275.45,106.77,275.61,104.69Z"/></g></svg>
