<svg id="Layer_1" data-name="Layer 1" xmlns="http://www.w3.org/2000/svg" viewBox="0 0 396.85 311.81"><defs><style>.cls-1{isolation:isolate;}.cls-2{fill:none;stroke:#717070;}</style></defs><title>02_web</title><g id="_02" data-name=" 02" class="cls-1"><g class="cls-1"><path d="M31.79,123.11a41.65,41.65,0,0,1-14.28-18.34q-5-11.76-5-26.88t5.25-26.32A41.27,41.27,0,0,1,32.42,34a37.84,37.84,0,0,1,21.42-6.23A38.36,38.36,0,0,1,75.54,34,40.44,40.44,0,0,1,90,51.57q5.1,11.34,5.11,26.32a69.5,69.5,0,0,1-4.9,26.88A41.09,41.09,0,0,1,76,123.11q-9.39,6.58-22.12,6.58T31.79,123.11Zm42.14-15.82Q81,96.92,81,77.89q0-18.77-7.21-28.42t-20-9.66a23.59,23.59,0,0,0-19.67,9.8q-7.5,9.8-7.49,28.28,0,19,7.07,29.4t20.09,10.36Q66.86,117.65,73.93,107.29Z"/><path d="M137.42,87a148.88,148.88,0,0,0,10.64-18.06,31,31,0,0,0,3.36-13q0-7.27-4.13-11.55t-11.13-4.27q-13,0-23.8,11.06l-1.68-14a46.51,46.51,0,0,1,12.18-6.86,40.35,40.35,0,0,1,14.7-2.66q13,0,20.16,7.56t7.14,19.32A43.65,43.65,0,0,1,161.29,72q-3.57,8.26-12.11,21.14l-14.84,22.4h34.3v12h-58Z"/></g></g><g id="Grundlæggende_web" data-name="Grundlæggende web" class="cls-1"><g class="cls-1"><path d="M25.38,228.23a18.69,18.69,0,0,1-7.15-1.35,17,17,0,0,1-9.5-9.5,19.61,19.61,0,0,1,0-14.3,17.05,17.05,0,0,1,9.5-9.5,18.69,18.69,0,0,1,7.15-1.35,20.69,20.69,0,0,1,5.12.63,14.82,14.82,0,0,1,4.43,1.87,1.67,1.67,0,0,1,.52.58,1.35,1.35,0,0,1,.18.67,1.49,1.49,0,0,1-.45,1.13,1.39,1.39,0,0,1-1,.42,1.27,1.27,0,0,1-.48-.08,1.94,1.94,0,0,1-.42-.17,17.07,17.07,0,0,0-3.7-1.5,15.87,15.87,0,0,0-4.25-.55,14.91,14.91,0,0,0-7.65,2,13.84,13.84,0,0,0-5.25,5.35,16.55,16.55,0,0,0,0,15.4,13.84,13.84,0,0,0,5.25,5.35,14.91,14.91,0,0,0,7.65,1.95,16.46,16.46,0,0,0,4.52-.65,13.92,13.92,0,0,0,3.93-1.75l-.25,1v-11.5l.75.7H25.68a1.49,1.49,0,0,1-1.1-.45,1.44,1.44,0,0,1-.45-1,1.4,1.4,0,0,1,.45-1.1,1.57,1.57,0,0,1,1.1-.4h9.55a1.47,1.47,0,0,1,1.5,1.5v12a1.5,1.5,0,0,1-.2.75,2.09,2.09,0,0,1-.55.6,19.25,19.25,0,0,1-4.93,2.38A18.51,18.51,0,0,1,25.38,228.23Z"/><path d="M45.18,227.73a1.38,1.38,0,0,1-1.1-.45,1.52,1.52,0,0,1-.4-1.05v-22.4a1.49,1.49,0,0,1,.42-1.05,1.51,1.51,0,0,1,2.15,0,1.5,1.5,0,0,1,.43,1.05v7.5l-.75.15A11.49,11.49,0,0,1,46.8,208a11.75,11.75,0,0,1,2-3.18,9.87,9.87,0,0,1,3-2.35,8.25,8.25,0,0,1,3.88-.9,4.3,4.3,0,0,1,1.75.37,1.28,1.28,0,0,1,.85,1.23,1.59,1.59,0,0,1-.4,1.15,1.3,1.3,0,0,1-.95.4,2.26,2.26,0,0,1-1-.25,3.17,3.17,0,0,0-1.37-.25,5.45,5.45,0,0,0-2.8.83,9.48,9.48,0,0,0-2.55,2.22,11.39,11.39,0,0,0-1.83,3.13,9.42,9.42,0,0,0-.67,3.47v12.35a1.54,1.54,0,0,1-1.5,1.5Z"/><path d="M82,202.33a1.4,1.4,0,0,1,1.07.45,1.5,1.5,0,0,1,.43,1.05v14.1c0,3.3-.94,5.82-2.8,7.55a10.69,10.69,0,0,1-7.55,2.6,10.51,10.51,0,0,1-7.48-2.6q-2.78-2.59-2.77-7.55v-14.1a1.49,1.49,0,0,1,.42-1.05,1.51,1.51,0,0,1,2.15,0,1.5,1.5,0,0,1,.43,1.05v14.1a6.61,6.61,0,0,0,7.25,7.35,7.47,7.47,0,0,0,5.4-1.87,7.26,7.26,0,0,0,2-5.48v-14.1a1.52,1.52,0,0,1,.4-1.05A1.38,1.38,0,0,1,82,202.33Z"/><path d="M103.43,201.58a9.27,9.27,0,0,1,5.27,1.33,7.37,7.37,0,0,1,2.85,3.6,13.92,13.92,0,0,1,.88,5v14.7a1.54,1.54,0,0,1-1.5,1.5,1.38,1.38,0,0,1-1.1-.45,1.52,1.52,0,0,1-.4-1.05V211.68a10,10,0,0,0-.65-3.65,5.71,5.71,0,0,0-2.13-2.65,6.73,6.73,0,0,0-3.87-1,8.67,8.67,0,0,0-4.08,1A8.87,8.87,0,0,0,95.58,208a6.07,6.07,0,0,0-1.2,3.65v14.55a1.54,1.54,0,0,1-1.5,1.5,1.38,1.38,0,0,1-1.1-.45,1.52,1.52,0,0,1-.4-1.05v-22.4a1.49,1.49,0,0,1,.42-1.05,1.51,1.51,0,0,1,2.15,0,1.5,1.5,0,0,1,.43,1.05V208l-1.15,1.8a6.33,6.33,0,0,1,1-3.07,10.63,10.63,0,0,1,2.38-2.65,11.21,11.21,0,0,1,3.22-1.85A10,10,0,0,1,103.43,201.58Z"/><path d="M141,190.73a1.42,1.42,0,0,1,1.07.43,1.46,1.46,0,0,1,.43,1.07v34a1.54,1.54,0,0,1-1.5,1.5,1.38,1.38,0,0,1-1.1-.45,1.52,1.52,0,0,1-.4-1.05v-5.95l.85-.7a6.67,6.67,0,0,1-.75,2.93,10,10,0,0,1-2.13,2.82,11,11,0,0,1-3.2,2.1,9.85,9.85,0,0,1-4,.8,10.66,10.66,0,0,1-6-1.75,12.31,12.31,0,0,1-4.22-4.75,15.85,15.85,0,0,1,0-13.67,12,12,0,0,1,4.2-4.75,10.66,10.66,0,0,1,6-1.73,10.44,10.44,0,0,1,3.95.75,10.83,10.83,0,0,1,3.27,2,10,10,0,0,1,2.25,3,7.74,7.74,0,0,1,.83,3.47l-1.05-.75V192.23a1.52,1.52,0,0,1,.4-1A1.38,1.38,0,0,1,141,190.73Zm-10.4,34.7a8.31,8.31,0,0,0,4.7-1.37,9.52,9.52,0,0,0,3.22-3.75,12.17,12.17,0,0,0,1.18-5.43,12,12,0,0,0-1.18-5.37,9.38,9.38,0,0,0-3.22-3.75,8.66,8.66,0,0,0-9.38,0,9.3,9.3,0,0,0-3.25,3.75,12,12,0,0,0-1.17,5.37,12.16,12.16,0,0,0,1.17,5.4,9.39,9.39,0,0,0,3.25,3.78A8.32,8.32,0,0,0,130.63,225.43Z"/><path d="M153.67,226.23a1.54,1.54,0,0,1-1.5,1.5,1.4,1.4,0,0,1-1.07-.45,1.5,1.5,0,0,1-.43-1.05v-34a1.54,1.54,0,0,1,1.5-1.5,1.41,1.41,0,0,1,1.08.45,1.49,1.49,0,0,1,.42,1Z"/><path d="M168.22,228.23a9.12,9.12,0,0,1-3.72-.82,7.68,7.68,0,0,1-3.05-2.5,7,7,0,0,1-1.23-4.23,7.19,7.19,0,0,1,3.23-6.15q3.23-2.29,9.62-2.3h24.8l-.6.6v-1a7.24,7.24,0,0,0-1.5-4,8.4,8.4,0,0,0-3.15-2.5,9,9,0,0,0-3.85-.85,8.58,8.58,0,0,0-3.07.6,8.2,8.2,0,0,0-2.85,1.87,9.93,9.93,0,0,0-2.08,3.25,12.52,12.52,0,0,0-.8,4.68,11.78,11.78,0,0,0,1.2,5.35,9.18,9.18,0,0,0,3.48,3.8,10.17,10.17,0,0,0,5.42,1.4,9.38,9.38,0,0,0,3.15-.5,8.45,8.45,0,0,0,2.45-1.32,9.9,9.9,0,0,0,1.75-1.73,1.76,1.76,0,0,1,1.1-.45,1.15,1.15,0,0,1,.88.4,1.29,1.29,0,0,1,.37.9,1.35,1.35,0,0,1-.5,1.05,13.6,13.6,0,0,1-3.9,3.13,10.71,10.71,0,0,1-5.25,1.32,13.72,13.72,0,0,1-6.8-1.65,11.76,11.76,0,0,1-4.6-4.6,13.92,13.92,0,0,1-1.65-6.9,14.64,14.64,0,0,1,1.68-7.25,12.38,12.38,0,0,1,4.35-4.63,10.75,10.75,0,0,1,5.67-1.62,12.05,12.05,0,0,1,4.28.78,10.81,10.81,0,0,1,3.7,2.3,11.26,11.26,0,0,1,2.6,3.72,13.57,13.57,0,0,1,1.07,5.1,1.56,1.56,0,0,1-.5,1,1.49,1.49,0,0,1-1,.42H173a17.84,17.84,0,0,0-5.42.7,7.15,7.15,0,0,0-3.28,2,4.33,4.33,0,0,0-1.1,2.92,4.57,4.57,0,0,0,.8,2.75,4.92,4.92,0,0,0,2,1.63,5.94,5.94,0,0,0,2.4.52,8.88,8.88,0,0,0,4.13-1,13.64,13.64,0,0,0,3.35-2.34,9.14,9.14,0,0,0,2-2.53l1.5,2.2a16.73,16.73,0,0,1-2.37,2.8,14.33,14.33,0,0,1-3.7,2.58A11.41,11.41,0,0,1,168.22,228.23Zm3-26.65a14.85,14.85,0,0,1,3.25.35,8.81,8.81,0,0,1,2.8,1.13,5.47,5.47,0,0,1,2,2.07,6.53,6.53,0,0,1,.72,3.2v6.6l-2.8.15v-5.6a4.8,4.8,0,0,0-.92-3.22,4.71,4.71,0,0,0-2.3-1.48,9.65,9.65,0,0,0-2.73-.4A8.42,8.42,0,0,0,168,205a12.3,12.3,0,0,0-2.8,1.63,9.46,9.46,0,0,0-2,2.07,1.5,1.5,0,0,1-1.2.6,1.3,1.3,0,0,1-.9-.38,1.23,1.23,0,0,1-.4-.92,1.65,1.65,0,0,1,.08-.45,1.54,1.54,0,0,1,.27-.5,16,16,0,0,1,2.6-2.6,14.5,14.5,0,0,1,3.5-2.07A10.43,10.43,0,0,1,171.22,201.58Z"/><path d="M217,201.58a10.65,10.65,0,0,1,4.1.78,11.76,11.76,0,0,1,3.33,2,10.16,10.16,0,0,1,2.22,2.59,5.21,5.21,0,0,1,.8,2.63l-.8-1.2v-4.65a1.57,1.57,0,0,1,.43-1.1,1.51,1.51,0,0,1,2.15,0,1.56,1.56,0,0,1,.42,1.1v21.65a12.89,12.89,0,0,1-1.65,6.75,10.84,10.84,0,0,1-4.47,4.18,14.08,14.08,0,0,1-6.43,1.42,16.13,16.13,0,0,1-3.67-.45,14.59,14.59,0,0,1-3.3-1.15c-.92-.47-1.44-.95-1.58-1.45a1.29,1.29,0,0,1-.32-.87,1,1,0,0,1,.42-.73.92.92,0,0,1,1-.07c.38.18.94.42,1.67.72l1.33.45a13.86,13.86,0,0,0,2.05.52,12,12,0,0,0,2.42.23,8.75,8.75,0,0,0,9.5-9.35v-4.8l.55.15a8.37,8.37,0,0,1-1.5,3.15,10.2,10.2,0,0,1-2.45,2.28,11.56,11.56,0,0,1-12.42.12,12.46,12.46,0,0,1-4.38-4.75,15.4,15.4,0,0,1,0-13.67,12.19,12.19,0,0,1,4.35-4.75A11.44,11.44,0,0,1,217,201.58Zm.3,2.8a8.89,8.89,0,0,0-4.87,1.38,9.42,9.42,0,0,0-3.4,3.75,11.48,11.48,0,0,0-1.23,5.37,11.67,11.67,0,0,0,1.23,5.4,9.51,9.51,0,0,0,3.4,3.78,9.45,9.45,0,0,0,9.77,0,9.48,9.48,0,0,0,3.4-3.72,12.62,12.62,0,0,0,0-11,9.32,9.32,0,0,0-3.4-3.71A9.15,9.15,0,0,0,217.32,204.38Z"/><path d="M248,201.58a10.65,10.65,0,0,1,4.1.78,11.76,11.76,0,0,1,3.33,2,10.16,10.16,0,0,1,2.22,2.59,5.21,5.21,0,0,1,.8,2.63l-.8-1.2v-4.65a1.57,1.57,0,0,1,.43-1.1,1.51,1.51,0,0,1,2.15,0,1.56,1.56,0,0,1,.42,1.1v21.65a12.89,12.89,0,0,1-1.65,6.75,10.84,10.84,0,0,1-4.47,4.18,14.08,14.08,0,0,1-6.43,1.42,16.13,16.13,0,0,1-3.67-.45,14.59,14.59,0,0,1-3.3-1.15c-.92-.47-1.44-.95-1.58-1.45a1.29,1.29,0,0,1-.32-.87,1,1,0,0,1,.42-.73.92.92,0,0,1,1-.07c.38.18.94.42,1.67.72l1.33.45a13.86,13.86,0,0,0,2.05.52,12,12,0,0,0,2.42.23,8.75,8.75,0,0,0,9.5-9.35v-4.8l.55.15a8.37,8.37,0,0,1-1.5,3.15,10.2,10.2,0,0,1-2.45,2.28,11.56,11.56,0,0,1-12.42.12,12.46,12.46,0,0,1-4.38-4.75,15.4,15.4,0,0,1,0-13.67,12.19,12.19,0,0,1,4.35-4.75A11.44,11.44,0,0,1,248,201.58Zm.3,2.8a8.89,8.89,0,0,0-4.87,1.38,9.42,9.42,0,0,0-3.4,3.75,11.48,11.48,0,0,0-1.23,5.37,11.67,11.67,0,0,0,1.23,5.4,9.51,9.51,0,0,0,3.4,3.78,9.45,9.45,0,0,0,9.77,0,9.48,9.48,0,0,0,3.4-3.72,12.62,12.62,0,0,0,0-11,9.32,9.32,0,0,0-3.4-3.71A9.15,9.15,0,0,0,248.32,204.38Z"/><path d="M278.92,228.23a13.72,13.72,0,0,1-6.8-1.65,11.76,11.76,0,0,1-4.6-4.6,13.92,13.92,0,0,1-1.65-6.9,14.64,14.64,0,0,1,1.68-7.25,12.38,12.38,0,0,1,4.35-4.63,10.75,10.75,0,0,1,5.67-1.62,12.05,12.05,0,0,1,4.28.78,10.5,10.5,0,0,1,3.67,2.3,11.56,11.56,0,0,1,2.6,3.72,12.67,12.67,0,0,1,1.05,5.1,1.38,1.38,0,0,1-.45,1,1.49,1.49,0,0,1-1.05.42H267.62l-.6-2.7h19.7l-.65.6v-1a7.52,7.52,0,0,0-1.55-4,8.46,8.46,0,0,0-3.12-2.5,8.92,8.92,0,0,0-3.83-.85,8.58,8.58,0,0,0-3.07.6,8.2,8.2,0,0,0-2.85,1.87,9.93,9.93,0,0,0-2.08,3.25,12.52,12.52,0,0,0-.8,4.68,11.78,11.78,0,0,0,1.2,5.35,9.25,9.25,0,0,0,3.45,3.8,10.15,10.15,0,0,0,5.45,1.4,9.2,9.2,0,0,0,3.1-.5,8.89,8.89,0,0,0,2.48-1.32,9.41,9.41,0,0,0,1.77-1.73,1.71,1.71,0,0,1,1-.45,1.21,1.21,0,0,1,.93.4,1.29,1.29,0,0,1,.37.9,1.35,1.35,0,0,1-.5,1.05,13.6,13.6,0,0,1-3.9,3.13A10.71,10.71,0,0,1,278.92,228.23Z"/><path d="M307.42,201.58a9.3,9.3,0,0,1,5.28,1.33,7.37,7.37,0,0,1,2.85,3.6,13.92,13.92,0,0,1,.87,5v14.7a1.54,1.54,0,0,1-1.5,1.5,1.41,1.41,0,0,1-1.1-.45,1.56,1.56,0,0,1-.4-1.05V211.68a9.76,9.76,0,0,0-.65-3.65,5.63,5.63,0,0,0-2.12-2.65,6.77,6.77,0,0,0-3.88-1,8.66,8.66,0,0,0-4.07,1,8.9,8.9,0,0,0-3.13,2.65,6.07,6.07,0,0,0-1.2,3.65v14.55a1.54,1.54,0,0,1-1.5,1.5,1.41,1.41,0,0,1-1.1-.45,1.56,1.56,0,0,1-.4-1.05v-22.4a1.5,1.5,0,0,1,.43-1.05,1.51,1.51,0,0,1,2.15,0,1.49,1.49,0,0,1,.42,1.05V208l-1.15,1.8a6.45,6.45,0,0,1,1-3.07,10.78,10.78,0,0,1,2.37-2.65,11.39,11.39,0,0,1,3.23-1.85A10,10,0,0,1,307.42,201.58Z"/><path d="M345,190.73a1.43,1.43,0,0,1,1.08.43,1.45,1.45,0,0,1,.42,1.07v34a1.54,1.54,0,0,1-1.5,1.5,1.41,1.41,0,0,1-1.1-.45,1.56,1.56,0,0,1-.4-1.05v-5.95l.85-.7a6.67,6.67,0,0,1-.75,2.93,10,10,0,0,1-2.12,2.82,11,11,0,0,1-3.2,2.1,9.86,9.86,0,0,1-4,.8,10.63,10.63,0,0,1-6-1.75,12.41,12.41,0,0,1-4.23-4.75,15.85,15.85,0,0,1,0-13.67,12.15,12.15,0,0,1,4.2-4.75,10.68,10.68,0,0,1,5.95-1.73,10.4,10.4,0,0,1,4,.75,10.75,10.75,0,0,1,3.28,2,10,10,0,0,1,2.25,3,7.73,7.73,0,0,1,.82,3.47l-1.05-.75V192.23a1.56,1.56,0,0,1,.4-1A1.41,1.41,0,0,1,345,190.73Zm-10.4,34.7a8.26,8.26,0,0,0,4.7-1.37,9.46,9.46,0,0,0,3.23-3.75,12.17,12.17,0,0,0,1.17-5.43,12,12,0,0,0-1.17-5.37,9.33,9.33,0,0,0-3.23-3.75,8.64,8.64,0,0,0-9.37,0,9.3,9.3,0,0,0-3.25,3.75,12,12,0,0,0-1.18,5.37,12.17,12.17,0,0,0,1.18,5.4,9.39,9.39,0,0,0,3.25,3.78A8.31,8.31,0,0,0,334.62,225.43Z"/><path d="M365.72,228.23a13.72,13.72,0,0,1-6.8-1.65,11.76,11.76,0,0,1-4.6-4.6,13.92,13.92,0,0,1-1.65-6.9,14.64,14.64,0,0,1,1.68-7.25,12.23,12.23,0,0,1,4.35-4.63,10.75,10.75,0,0,1,5.67-1.62,12.09,12.09,0,0,1,4.28.78,10.5,10.5,0,0,1,3.67,2.3,11.56,11.56,0,0,1,2.6,3.72,12.67,12.67,0,0,1,1.05,5.1,1.38,1.38,0,0,1-.45,1,1.49,1.49,0,0,1-1,.42H354.42l-.6-2.7h19.7l-.65.6v-1a7.52,7.52,0,0,0-1.55-4,8.54,8.54,0,0,0-3.12-2.5,8.92,8.92,0,0,0-3.83-.85,8.58,8.58,0,0,0-3.07.6,8.2,8.2,0,0,0-2.85,1.87,9.93,9.93,0,0,0-2.08,3.25,12.52,12.52,0,0,0-.8,4.68,11.78,11.78,0,0,0,1.2,5.35,9.25,9.25,0,0,0,3.45,3.8,10.15,10.15,0,0,0,5.45,1.4,9.2,9.2,0,0,0,3.1-.5,8.89,8.89,0,0,0,2.48-1.32,9.72,9.72,0,0,0,1.77-1.73,1.71,1.71,0,0,1,1.05-.45,1.21,1.21,0,0,1,.93.4,1.29,1.29,0,0,1,.37.9,1.35,1.35,0,0,1-.5,1.05,13.6,13.6,0,0,1-3.9,3.13A10.71,10.71,0,0,1,365.72,228.23Z"/></g><g class="cls-1"><path d="M39.28,266.43a1.53,1.53,0,0,1,1,.4,1.35,1.35,0,0,1,.48,1.1,1.63,1.63,0,0,1-.05.35c0,.13-.07.23-.1.3l-7.7,23a1.71,1.71,0,0,1-.63.73,1.33,1.33,0,0,1-.87.22,1.54,1.54,0,0,1-1.35-.95L23,275l.9.2-6.25,16.4a1.48,1.48,0,0,1-1.35.95,1.44,1.44,0,0,1-.9-.22,1.37,1.37,0,0,1-.6-.73l-7.9-23a1.65,1.65,0,0,1-.15-.65,1.45,1.45,0,0,1,.42-1.07,1.51,1.51,0,0,1,1.13-.43,1.42,1.42,0,0,1,.82.25,1.35,1.35,0,0,1,.53.75l7.1,21.3-1-.05,6.45-16.25a1.53,1.53,0,0,1,2.25-.7,1.77,1.77,0,0,1,.55.7l6.85,16.3-1.1,0,7.05-21.35A1.31,1.31,0,0,1,39.28,266.43Z"/><path d="M57.88,293a13.67,13.67,0,0,1-6.8-1.65,11.7,11.7,0,0,1-4.6-4.6,13.92,13.92,0,0,1-1.65-6.9,14.74,14.74,0,0,1,1.67-7.25A12.38,12.38,0,0,1,50.85,268a10.81,10.81,0,0,1,5.68-1.62,12,12,0,0,1,4.27.78,10.66,10.66,0,0,1,3.68,2.29,12,12,0,0,1,2.6,3.73,13,13,0,0,1,1,5.1,1.38,1.38,0,0,1-.45,1,1.49,1.49,0,0,1-1.05.42h-20L46,277h19.7l-.65.6v-1a7.69,7.69,0,0,0-1.55-4,8.57,8.57,0,0,0-3.13-2.5,8.87,8.87,0,0,0-3.82-.85,8.63,8.63,0,0,0-3.08.6,8.2,8.2,0,0,0-2.85,1.87A9.75,9.75,0,0,0,48.53,275a12.33,12.33,0,0,0-.8,4.68,11.78,11.78,0,0,0,1.2,5.35,9.25,9.25,0,0,0,3.45,3.8,10.13,10.13,0,0,0,5.45,1.4,9.29,9.29,0,0,0,3.1-.5,9.1,9.1,0,0,0,2.47-1.32,9.8,9.8,0,0,0,1.78-1.73,1.66,1.66,0,0,1,1-.45,1.21,1.21,0,0,1,.92.4,1.3,1.3,0,0,1,.38.9,1.38,1.38,0,0,1-.5,1.05,13.41,13.41,0,0,1-3.9,3.12A10.62,10.62,0,0,1,57.88,293Z"/><path d="M86.48,266.38a10.86,10.86,0,0,1,6,1.7,12.15,12.15,0,0,1,4.18,4.67,14.75,14.75,0,0,1,1.55,6.88,14.94,14.94,0,0,1-1.55,6.85,12.44,12.44,0,0,1-4.2,4.8,10.54,10.54,0,0,1-6,1.75,9.94,9.94,0,0,1-3.33-.55A11.29,11.29,0,0,1,80.33,291a11,11,0,0,1-2.3-2.17,10.87,10.87,0,0,1-1.6-2.7l.9-.65v5.65a1.46,1.46,0,0,1-.43,1.07,1.42,1.42,0,0,1-1.07.43,1.45,1.45,0,0,1-1.5-1.5V257.08a1.52,1.52,0,0,1,.4-1.08,1.43,1.43,0,0,1,1.1-.42,1.45,1.45,0,0,1,1.07.42,1.5,1.5,0,0,1,.43,1.08v16.75l-.7-.4a9.14,9.14,0,0,1,1.47-2.82,10.71,10.71,0,0,1,2.28-2.23,10.14,10.14,0,0,1,2.85-1.47A10,10,0,0,1,86.48,266.38Zm-.25,2.8a8.42,8.42,0,0,0-4.75,1.35,9.32,9.32,0,0,0-3.23,3.7,12,12,0,0,0-1.17,5.4,12.36,12.36,0,0,0,1.17,5.43,9.49,9.49,0,0,0,3.23,3.8,8.36,8.36,0,0,0,4.75,1.37,8,8,0,0,0,4.67-1.4A9.83,9.83,0,0,0,94.13,285a11.9,11.9,0,0,0,1.2-5.37,11.73,11.73,0,0,0-1.2-5.4,9.56,9.56,0,0,0-3.23-3.7A8.23,8.23,0,0,0,86.23,269.18Z"/></g></g><line id="Line_11" data-name="Line 11" class="cls-2" x1="5.48" y1="165.23" x2="357.48" y2="165.23"/></svg>
