<svg id="Layer_1" data-name="Layer 1" xmlns="http://www.w3.org/2000/svg" viewBox="0 0 396.85 311.81"><defs><style>.cls-1{isolation:isolate;}.cls-2{fill:none;stroke:#717070;}</style></defs><title>03_ux</title><g id="Grundlæggende_ux" data-name="Grundlæggende ux" class="cls-1"><g class="cls-1"><path d="M25.38,226.73a18.69,18.69,0,0,1-7.15-1.35,17,17,0,0,1-9.5-9.5,19.61,19.61,0,0,1,0-14.3,17.05,17.05,0,0,1,9.5-9.5,18.69,18.69,0,0,1,7.15-1.35,20.69,20.69,0,0,1,5.12.63,14.82,14.82,0,0,1,4.43,1.87,1.67,1.67,0,0,1,.52.58,1.35,1.35,0,0,1,.18.67,1.49,1.49,0,0,1-.45,1.13,1.39,1.39,0,0,1-1,.42,1.27,1.27,0,0,1-.48-.08,1.94,1.94,0,0,1-.42-.17,17.07,17.07,0,0,0-3.7-1.5,15.87,15.87,0,0,0-4.25-.55,14.91,14.91,0,0,0-7.65,2A13.84,13.84,0,0,0,12.48,201a16.55,16.55,0,0,0,0,15.4,13.84,13.84,0,0,0,5.25,5.35,14.91,14.91,0,0,0,7.65,1.95,16.46,16.46,0,0,0,4.52-.65,13.92,13.92,0,0,0,3.93-1.75l-.25,1v-11.5l.75.7H25.68a1.49,1.49,0,0,1-1.1-.45,1.44,1.44,0,0,1-.45-1,1.4,1.4,0,0,1,.45-1.1,1.57,1.57,0,0,1,1.1-.4h9.55a1.47,1.47,0,0,1,1.5,1.5v12a1.5,1.5,0,0,1-.2.75,2.09,2.09,0,0,1-.55.6,19.25,19.25,0,0,1-4.93,2.38A18.51,18.51,0,0,1,25.38,226.73Z"/><path d="M45.18,226.23a1.38,1.38,0,0,1-1.1-.45,1.52,1.52,0,0,1-.4-1.05v-22.4a1.49,1.49,0,0,1,.42-1.05,1.51,1.51,0,0,1,2.15,0,1.5,1.5,0,0,1,.43,1.05v7.5l-.75.15a11.49,11.49,0,0,1,.87-3.47,11.75,11.75,0,0,1,2-3.18,9.87,9.87,0,0,1,3-2.35,8.25,8.25,0,0,1,3.88-.9,4.3,4.3,0,0,1,1.75.37,1.28,1.28,0,0,1,.85,1.23,1.59,1.59,0,0,1-.4,1.15,1.3,1.3,0,0,1-.95.4,2.26,2.26,0,0,1-1-.25,3.17,3.17,0,0,0-1.37-.25,5.45,5.45,0,0,0-2.8.83,9.48,9.48,0,0,0-2.55,2.22,11.39,11.39,0,0,0-1.83,3.13,9.42,9.42,0,0,0-.67,3.47v12.35a1.54,1.54,0,0,1-1.5,1.5Z"/><path d="M82,200.83a1.4,1.4,0,0,1,1.07.45,1.5,1.5,0,0,1,.43,1.05v14.1c0,3.3-.94,5.82-2.8,7.55a10.69,10.69,0,0,1-7.55,2.6A10.51,10.51,0,0,1,65.7,224q-2.78-2.59-2.77-7.55v-14.1a1.49,1.49,0,0,1,.42-1.05,1.51,1.51,0,0,1,2.15,0,1.5,1.5,0,0,1,.43,1.05v14.1a6.61,6.61,0,0,0,7.25,7.35,7.47,7.47,0,0,0,5.4-1.87,7.26,7.26,0,0,0,2-5.48v-14.1a1.52,1.52,0,0,1,.4-1.05A1.38,1.38,0,0,1,82,200.83Z"/><path d="M103.43,200.08a9.27,9.27,0,0,1,5.27,1.33,7.37,7.37,0,0,1,2.85,3.6,13.92,13.92,0,0,1,.88,5v14.7a1.54,1.54,0,0,1-1.5,1.5,1.38,1.38,0,0,1-1.1-.45,1.52,1.52,0,0,1-.4-1.05V210.18a10,10,0,0,0-.65-3.65,5.71,5.71,0,0,0-2.13-2.65,6.73,6.73,0,0,0-3.87-1,8.67,8.67,0,0,0-4.08,1,8.87,8.87,0,0,0-3.12,2.65,6.07,6.07,0,0,0-1.2,3.65v14.55a1.54,1.54,0,0,1-1.5,1.5,1.38,1.38,0,0,1-1.1-.45,1.52,1.52,0,0,1-.4-1.05v-22.4a1.49,1.49,0,0,1,.42-1.05,1.51,1.51,0,0,1,2.15,0,1.5,1.5,0,0,1,.43,1.05v4.2l-1.15,1.8a6.33,6.33,0,0,1,1-3.07,10.63,10.63,0,0,1,2.38-2.65,11.21,11.21,0,0,1,3.22-1.85A10,10,0,0,1,103.43,200.08Z"/><path d="M141,189.23a1.42,1.42,0,0,1,1.07.43,1.46,1.46,0,0,1,.43,1.07v34a1.54,1.54,0,0,1-1.5,1.5,1.38,1.38,0,0,1-1.1-.45,1.52,1.52,0,0,1-.4-1.05v-5.95l.85-.7a6.67,6.67,0,0,1-.75,2.93,10,10,0,0,1-2.13,2.82,11,11,0,0,1-3.2,2.1,9.85,9.85,0,0,1-4,.8,10.66,10.66,0,0,1-6-1.75,12.31,12.31,0,0,1-4.22-4.75,15.85,15.85,0,0,1,0-13.67,12,12,0,0,1,4.2-4.75,10.66,10.66,0,0,1,6-1.73,10.44,10.44,0,0,1,3.95.75,10.83,10.83,0,0,1,3.27,2,10,10,0,0,1,2.25,3,7.74,7.74,0,0,1,.83,3.47l-1.05-.75V190.73a1.52,1.52,0,0,1,.4-1A1.38,1.38,0,0,1,141,189.23Zm-10.4,34.7a8.31,8.31,0,0,0,4.7-1.37,9.52,9.52,0,0,0,3.22-3.75,12.17,12.17,0,0,0,1.18-5.43,12,12,0,0,0-1.18-5.37,9.38,9.38,0,0,0-3.22-3.75,8.66,8.66,0,0,0-9.38,0A9.3,9.3,0,0,0,122.7,208a12,12,0,0,0-1.17,5.37,12.16,12.16,0,0,0,1.17,5.4,9.39,9.39,0,0,0,3.25,3.78A8.32,8.32,0,0,0,130.63,223.93Z"/><path d="M153.67,224.73a1.54,1.54,0,0,1-1.5,1.5,1.4,1.4,0,0,1-1.07-.45,1.5,1.5,0,0,1-.43-1.05v-34a1.54,1.54,0,0,1,1.5-1.5,1.41,1.41,0,0,1,1.08.45,1.49,1.49,0,0,1,.42,1Z"/><path d="M168.22,226.73a9.12,9.12,0,0,1-3.72-.82,7.68,7.68,0,0,1-3.05-2.5,7,7,0,0,1-1.23-4.23,7.19,7.19,0,0,1,3.23-6.15q3.23-2.29,9.62-2.3h24.8l-.6.6v-1a7.24,7.24,0,0,0-1.5-4,8.4,8.4,0,0,0-3.15-2.5,9,9,0,0,0-3.85-.85,8.58,8.58,0,0,0-3.07.6,8.2,8.2,0,0,0-2.85,1.87,9.93,9.93,0,0,0-2.08,3.25,12.52,12.52,0,0,0-.8,4.68,11.78,11.78,0,0,0,1.2,5.35,9.18,9.18,0,0,0,3.48,3.8,10.17,10.17,0,0,0,5.42,1.4,9.38,9.38,0,0,0,3.15-.5,8.45,8.45,0,0,0,2.45-1.32,9.9,9.9,0,0,0,1.75-1.73,1.76,1.76,0,0,1,1.1-.45,1.15,1.15,0,0,1,.88.4,1.29,1.29,0,0,1,.37.9,1.35,1.35,0,0,1-.5,1.05,13.6,13.6,0,0,1-3.9,3.13,10.71,10.71,0,0,1-5.25,1.32,13.72,13.72,0,0,1-6.8-1.65,11.76,11.76,0,0,1-4.6-4.6,13.92,13.92,0,0,1-1.65-6.9,14.64,14.64,0,0,1,1.68-7.25,12.38,12.38,0,0,1,4.35-4.63,10.75,10.75,0,0,1,5.67-1.62,12.05,12.05,0,0,1,4.28.78,10.81,10.81,0,0,1,3.7,2.3,11.26,11.26,0,0,1,2.6,3.72,13.57,13.57,0,0,1,1.07,5.1,1.56,1.56,0,0,1-.5,1,1.49,1.49,0,0,1-1,.42H173a17.84,17.84,0,0,0-5.42.7,7.15,7.15,0,0,0-3.28,2,4.33,4.33,0,0,0-1.1,2.92,4.57,4.57,0,0,0,.8,2.75,4.92,4.92,0,0,0,2,1.63,5.94,5.94,0,0,0,2.4.52,8.88,8.88,0,0,0,4.13-1,13.64,13.64,0,0,0,3.35-2.34,9.14,9.14,0,0,0,2-2.53l1.5,2.2a16.73,16.73,0,0,1-2.37,2.8,14.33,14.33,0,0,1-3.7,2.58A11.41,11.41,0,0,1,168.22,226.73Zm3-26.65a14.85,14.85,0,0,1,3.25.35,8.81,8.81,0,0,1,2.8,1.13,5.47,5.47,0,0,1,2,2.07,6.53,6.53,0,0,1,.72,3.2v6.6l-2.8.15V208a4.8,4.8,0,0,0-.92-3.22,4.71,4.71,0,0,0-2.3-1.48,9.65,9.65,0,0,0-2.73-.4,8.42,8.42,0,0,0-3.25.65,12.3,12.3,0,0,0-2.8,1.63,9.46,9.46,0,0,0-2,2.07,1.5,1.5,0,0,1-1.2.6,1.3,1.3,0,0,1-.9-.38,1.23,1.23,0,0,1-.4-.92,1.65,1.65,0,0,1,.08-.45,1.54,1.54,0,0,1,.27-.5,16,16,0,0,1,2.6-2.6,14.5,14.5,0,0,1,3.5-2.07A10.43,10.43,0,0,1,171.22,200.08Z"/><path d="M217,200.08a10.65,10.65,0,0,1,4.1.78,11.76,11.76,0,0,1,3.33,2,10.16,10.16,0,0,1,2.22,2.59,5.21,5.21,0,0,1,.8,2.63l-.8-1.2v-4.65a1.57,1.57,0,0,1,.43-1.1,1.51,1.51,0,0,1,2.15,0,1.56,1.56,0,0,1,.42,1.1v21.65a12.89,12.89,0,0,1-1.65,6.75,10.84,10.84,0,0,1-4.47,4.18,14.08,14.08,0,0,1-6.43,1.42,16.13,16.13,0,0,1-3.67-.45,14.59,14.59,0,0,1-3.3-1.15c-.92-.47-1.44-.95-1.58-1.45a1.29,1.29,0,0,1-.32-.87,1,1,0,0,1,.42-.73.92.92,0,0,1,1-.07c.38.18.94.42,1.67.72l1.33.45a13.86,13.86,0,0,0,2.05.52,12,12,0,0,0,2.42.23,8.75,8.75,0,0,0,9.5-9.35v-4.8l.55.15a8.37,8.37,0,0,1-1.5,3.15,10.2,10.2,0,0,1-2.45,2.28,11.56,11.56,0,0,1-12.42.12,12.46,12.46,0,0,1-4.38-4.75,15.4,15.4,0,0,1,0-13.67,12.19,12.19,0,0,1,4.35-4.75A11.44,11.44,0,0,1,217,200.08Zm.3,2.8a8.89,8.89,0,0,0-4.87,1.38,9.42,9.42,0,0,0-3.4,3.75,11.48,11.48,0,0,0-1.23,5.37,11.67,11.67,0,0,0,1.23,5.4,9.51,9.51,0,0,0,3.4,3.78,9.45,9.45,0,0,0,9.77,0,9.48,9.48,0,0,0,3.4-3.72,12.62,12.62,0,0,0,0-11,9.32,9.32,0,0,0-3.4-3.71A9.15,9.15,0,0,0,217.32,202.88Z"/><path d="M248,200.08a10.65,10.65,0,0,1,4.1.78,11.76,11.76,0,0,1,3.33,2,10.16,10.16,0,0,1,2.22,2.59,5.21,5.21,0,0,1,.8,2.63l-.8-1.2v-4.65a1.57,1.57,0,0,1,.43-1.1,1.51,1.51,0,0,1,2.15,0,1.56,1.56,0,0,1,.42,1.1v21.65a12.89,12.89,0,0,1-1.65,6.75,10.84,10.84,0,0,1-4.47,4.18,14.08,14.08,0,0,1-6.43,1.42,16.13,16.13,0,0,1-3.67-.45,14.59,14.59,0,0,1-3.3-1.15c-.92-.47-1.44-.95-1.58-1.45a1.29,1.29,0,0,1-.32-.87,1,1,0,0,1,.42-.73.92.92,0,0,1,1-.07c.38.18.94.42,1.67.72l1.33.45a13.86,13.86,0,0,0,2.05.52,12,12,0,0,0,2.42.23,8.75,8.75,0,0,0,9.5-9.35v-4.8l.55.15a8.37,8.37,0,0,1-1.5,3.15,10.2,10.2,0,0,1-2.45,2.28,11.56,11.56,0,0,1-12.42.12,12.46,12.46,0,0,1-4.38-4.75,15.4,15.4,0,0,1,0-13.67,12.19,12.19,0,0,1,4.35-4.75A11.44,11.44,0,0,1,248,200.08Zm.3,2.8a8.89,8.89,0,0,0-4.87,1.38,9.42,9.42,0,0,0-3.4,3.75,11.48,11.48,0,0,0-1.23,5.37,11.67,11.67,0,0,0,1.23,5.4,9.51,9.51,0,0,0,3.4,3.78,9.45,9.45,0,0,0,9.77,0,9.48,9.48,0,0,0,3.4-3.72,12.62,12.62,0,0,0,0-11,9.32,9.32,0,0,0-3.4-3.71A9.15,9.15,0,0,0,248.32,202.88Z"/><path d="M278.92,226.73a13.72,13.72,0,0,1-6.8-1.65,11.76,11.76,0,0,1-4.6-4.6,13.92,13.92,0,0,1-1.65-6.9,14.64,14.64,0,0,1,1.68-7.25,12.38,12.38,0,0,1,4.35-4.63,10.75,10.75,0,0,1,5.67-1.62,12.05,12.05,0,0,1,4.28.78,10.5,10.5,0,0,1,3.67,2.3,11.56,11.56,0,0,1,2.6,3.72,12.67,12.67,0,0,1,1.05,5.1,1.38,1.38,0,0,1-.45,1,1.49,1.49,0,0,1-1.05.42H267.62l-.6-2.7h19.7l-.65.6v-1a7.52,7.52,0,0,0-1.55-4,8.46,8.46,0,0,0-3.12-2.5,8.92,8.92,0,0,0-3.83-.85,8.58,8.58,0,0,0-3.07.6,8.2,8.2,0,0,0-2.85,1.87,9.93,9.93,0,0,0-2.08,3.25,12.52,12.52,0,0,0-.8,4.68,11.78,11.78,0,0,0,1.2,5.35,9.25,9.25,0,0,0,3.45,3.8,10.15,10.15,0,0,0,5.45,1.4,9.2,9.2,0,0,0,3.1-.5,8.89,8.89,0,0,0,2.48-1.32,9.41,9.41,0,0,0,1.77-1.73,1.71,1.71,0,0,1,1-.45,1.21,1.21,0,0,1,.93.4,1.29,1.29,0,0,1,.37.9,1.35,1.35,0,0,1-.5,1.05,13.6,13.6,0,0,1-3.9,3.13A10.71,10.71,0,0,1,278.92,226.73Z"/><path d="M307.42,200.08a9.3,9.3,0,0,1,5.28,1.33,7.37,7.37,0,0,1,2.85,3.6,13.92,13.92,0,0,1,.87,5v14.7a1.54,1.54,0,0,1-1.5,1.5,1.41,1.41,0,0,1-1.1-.45,1.56,1.56,0,0,1-.4-1.05V210.18a9.76,9.76,0,0,0-.65-3.65,5.63,5.63,0,0,0-2.12-2.65,6.77,6.77,0,0,0-3.88-1,8.66,8.66,0,0,0-4.07,1,8.9,8.9,0,0,0-3.13,2.65,6.07,6.07,0,0,0-1.2,3.65v14.55a1.54,1.54,0,0,1-1.5,1.5,1.41,1.41,0,0,1-1.1-.45,1.56,1.56,0,0,1-.4-1.05v-22.4a1.5,1.5,0,0,1,.43-1.05,1.51,1.51,0,0,1,2.15,0,1.49,1.49,0,0,1,.42,1.05v4.2l-1.15,1.8a6.45,6.45,0,0,1,1-3.07,10.78,10.78,0,0,1,2.37-2.65,11.39,11.39,0,0,1,3.23-1.85A10,10,0,0,1,307.42,200.08Z"/><path d="M345,189.23a1.43,1.43,0,0,1,1.08.43,1.45,1.45,0,0,1,.42,1.07v34a1.54,1.54,0,0,1-1.5,1.5,1.41,1.41,0,0,1-1.1-.45,1.56,1.56,0,0,1-.4-1.05v-5.95l.85-.7a6.67,6.67,0,0,1-.75,2.93,10,10,0,0,1-2.12,2.82,11,11,0,0,1-3.2,2.1,9.86,9.86,0,0,1-4,.8,10.63,10.63,0,0,1-6-1.75,12.41,12.41,0,0,1-4.23-4.75,15.85,15.85,0,0,1,0-13.67,12.15,12.15,0,0,1,4.2-4.75,10.68,10.68,0,0,1,5.95-1.73,10.4,10.4,0,0,1,4,.75,10.75,10.75,0,0,1,3.28,2,10,10,0,0,1,2.25,3,7.73,7.73,0,0,1,.82,3.47l-1.05-.75V190.73a1.56,1.56,0,0,1,.4-1A1.41,1.41,0,0,1,345,189.23Zm-10.4,34.7a8.26,8.26,0,0,0,4.7-1.37,9.46,9.46,0,0,0,3.23-3.75,12.17,12.17,0,0,0,1.17-5.43,12,12,0,0,0-1.17-5.37,9.33,9.33,0,0,0-3.23-3.75,8.64,8.64,0,0,0-9.37,0A9.3,9.3,0,0,0,326.7,208a12,12,0,0,0-1.18,5.37,12.17,12.17,0,0,0,1.18,5.4,9.39,9.39,0,0,0,3.25,3.78A8.31,8.31,0,0,0,334.62,223.93Z"/><path d="M365.72,226.73a13.72,13.72,0,0,1-6.8-1.65,11.76,11.76,0,0,1-4.6-4.6,13.92,13.92,0,0,1-1.65-6.9,14.64,14.64,0,0,1,1.68-7.25,12.23,12.23,0,0,1,4.35-4.63,10.75,10.75,0,0,1,5.67-1.62,12.09,12.09,0,0,1,4.28.78,10.5,10.5,0,0,1,3.67,2.3,11.56,11.56,0,0,1,2.6,3.72A12.67,12.67,0,0,1,376,212a1.38,1.38,0,0,1-.45,1,1.49,1.49,0,0,1-1,.42H354.42l-.6-2.7h19.7l-.65.6v-1a7.52,7.52,0,0,0-1.55-4,8.54,8.54,0,0,0-3.12-2.5,8.92,8.92,0,0,0-3.83-.85,8.58,8.58,0,0,0-3.07.6,8.2,8.2,0,0,0-2.85,1.87,9.93,9.93,0,0,0-2.08,3.25,12.52,12.52,0,0,0-.8,4.68,11.78,11.78,0,0,0,1.2,5.35,9.25,9.25,0,0,0,3.45,3.8,10.15,10.15,0,0,0,5.45,1.4,9.2,9.2,0,0,0,3.1-.5,8.89,8.89,0,0,0,2.48-1.32,9.72,9.72,0,0,0,1.77-1.73,1.71,1.71,0,0,1,1.05-.45,1.21,1.21,0,0,1,.93.4,1.29,1.29,0,0,1,.37.9,1.35,1.35,0,0,1-.5,1.05,13.6,13.6,0,0,1-3.9,3.13A10.71,10.71,0,0,1,365.72,226.73Z"/></g><g class="cls-1"><path d="M28,265.63a1.4,1.4,0,0,1,1.07.45,1.46,1.46,0,0,1,.43,1.05v14.1c0,3.3-.94,5.82-2.8,7.55a10.69,10.69,0,0,1-7.55,2.6,10.51,10.51,0,0,1-7.48-2.6q-2.77-2.59-2.77-7.55v-14.1a1.49,1.49,0,0,1,.42-1.05,1.43,1.43,0,0,1,1.08-.45,1.4,1.4,0,0,1,1.07.45,1.46,1.46,0,0,1,.43,1.05v14.1a7.3,7.3,0,0,0,1.92,5.47,7.33,7.33,0,0,0,5.33,1.88,7.47,7.47,0,0,0,5.4-1.88,7.24,7.24,0,0,0,2-5.47v-14.1a1.52,1.52,0,0,1,.4-1.05A1.38,1.38,0,0,1,28,265.63Z"/><path d="M36.68,265.23a1.4,1.4,0,0,1,1.2.65l17.7,22.9a1.36,1.36,0,0,1,.35.9,1.54,1.54,0,0,1-1.5,1.5,1.61,1.61,0,0,1-1.25-.65l-17.75-22.9a1.32,1.32,0,0,1-.3-.9,1.35,1.35,0,0,1,.47-1.07A1.56,1.56,0,0,1,36.68,265.23Zm0,25.95a1.66,1.66,0,0,1-1-.35,1.16,1.16,0,0,1-.47-1,1.36,1.36,0,0,1,.35-.95L44,278l1.65,2.4-7.8,10.15A1.43,1.43,0,0,1,36.68,291.18Zm17.75-25.95a1.38,1.38,0,0,1,1,.38,1.24,1.24,0,0,1,.38.92,1.74,1.74,0,0,1-.08.5,1,1,0,0,1-.27.45L47,278.58l-1.55-2.4,7.7-10.3A1.61,1.61,0,0,1,54.43,265.23Z"/></g></g><g id="_03" data-name=" 03" class="cls-1"><g class="cls-1"><path d="M31.79,124.61a41.65,41.65,0,0,1-14.28-18.34q-5-11.76-5-26.88t5.25-26.32A41.27,41.27,0,0,1,32.42,35.5a37.84,37.84,0,0,1,21.42-6.23,38.36,38.36,0,0,1,21.7,6.23A40.44,40.44,0,0,1,90,53.07q5.1,11.34,5.11,26.32a69.5,69.5,0,0,1-4.9,26.88A41.09,41.09,0,0,1,76,124.61q-9.39,6.58-22.12,6.58T31.79,124.61Zm42.14-15.82Q81,98.42,81,79.39,81,60.62,73.79,51t-20-9.66a23.59,23.59,0,0,0-19.67,9.8q-7.5,9.8-7.49,28.28,0,19,7.07,29.4t20.09,10.36Q66.86,119.15,73.93,108.79Z"/><path d="M170,102.35a26.67,26.67,0,0,1-4.41,15.33,28.59,28.59,0,0,1-12,10,41.08,41.08,0,0,1-17.29,3.5,57.63,57.63,0,0,1-28-7.42l3.22-12.32a70,70,0,0,0,12.39,5.74,38.85,38.85,0,0,0,12.53,2q9,0,14.21-4.48a14.86,14.86,0,0,0,5.25-11.9q0-8.4-5.81-13.16T132.8,84.85h-6.16v-12h6.16q9.09,0,14.35-4.27t5.25-11.69q0-7.85-4-11.69t-11.69-3.85a27.36,27.36,0,0,0-10.64,2.1,61.45,61.45,0,0,0-10.64,5.88L113.2,35.71a50.42,50.42,0,0,1,25.34-6.44q13.44,0,20.93,7.14T167,55.17A24.77,24.77,0,0,1,163,69.1,23.62,23.62,0,0,1,152,78Q170,83.87,170,102.35Z"/></g></g><line id="Line_12" data-name="Line 12" class="cls-2" x1="5.48" y1="163.73" x2="357.48" y2="163.73"/></svg>
