<svg id="Layer_1" data-name="Layer 1" xmlns="http://www.w3.org/2000/svg" viewBox="0 0 737.01 283.46"><defs><style>.cls-1{fill:#7eb6e1;}.cls-2{fill:#75addc;}.cls-3{fill:#7096ba;}.cls-4{fill:#8badd1;}.cls-5{fill:#789ec1;}.cls-6{fill:#83a9ce;}.cls-7{fill:#79a1ca;}.cls-8{fill:#82abce;}.cls-9{fill:#82a6c8;}.cls-10{fill:#7f9ebd;}.cls-11{fill:#82a5cc;}.cls-12{fill:#6f97ba;}.cls-13{fill:#7ea3c6;}.cls-14{fill:#7c9dc0;}.cls-15{fill:#78a5ce;}.cls-16{fill:#67a2d6;}.cls-17{fill:#83afd5;}.cls-18{fill:#6ea0c8;}.cls-19{fill:#6a9fcc;}.cls-20{fill:#779bbb;}.cls-21{fill:#81b9e3;}.cls-22{fill:#6b91af;}.cls-23{fill:#83a6c5;}.cls-24{fill:#82acd2;}.cls-25{fill:#7da2c4;}.cls-26{fill:#779aba;}.cls-27{fill:#6994bd;}.cls-28{fill:#7796b5;}.cls-29{fill:#77b2e1;}.cls-30{fill:#6ca6da;}.cls-31{fill:#70aedd;}.cls-32{fill:#63a0d7;}.cls-33{fill:#7bb5e1;}.cls-34{fill:#70a9da;}.cls-35{fill:#81b5df;}.cls-36{fill:#75a9d9;}.cls-37{fill:#5382ad;}.cls-38{fill:#648db9;}.cls-39{fill:#64a9dc;}.cls-40{fill:#6facdf;}.cls-41{fill:#60a2d8;}.cls-42{fill:#71aee0;}.cls-43{fill:#6cabdc;}.cls-44{fill:#8bb4d7;}.cls-45{fill:#97b9d8;}.cls-46{fill:#5498d3;}.cls-47{fill:#6faadd;}.cls-48{fill:#64a4da;}.cls-49{fill:#6e97bc;}.cls-50{fill:#64a2d6;}.cls-51{fill:#75b3e2;}.cls-52{fill:#7db7e2;}.cls-53{fill:#86bbe4;}.cls-54{fill:#89bee6;}.cls-55{fill:#72b3de;}.cls-56{fill:#7db8df;}.cls-57{fill:#80bbe3;}.cls-58{fill:#71abdd;}.cls-59{fill:#6aa6da;}.cls-60{fill:#5998d2;}.cls-61{fill:#629fd6;}.cls-62{fill:#81bbe2;}.cls-63{fill:#75b4dc;}.cls-64{fill:#7cb4db;}.cls-65{fill:#6bacdd;}.cls-66{fill:#69a2cc;}.cls-67{fill:#a5cce7;}.cls-68{fill:#7bb3dc;}.cls-69{fill:#72b1e2;}.cls-70{fill:#599dd6;}.cls-71{fill:#4a92cf;}.cls-72{fill:#6caadd;}.cls-73{fill:#5499d3;}.cls-74{fill:#81bce6;}.cls-75{fill:#7fbce6;}.cls-76{fill:#408ac9;}</style></defs><title>03_watercolor</title><g id="Group_189" data-name="Group 189"><path id="Path_10422" data-name="Path 10422" class="cls-1" d="M337.62,231.65l-5-.77c-2.48-2-6-.14-8.45-2.21a8.69,8.69,0,0,1-2.57-.51,11.21,11.21,0,0,1-1.84-3.13c-4.68-3.81-11-1.48-15.95-4.27-6.84-3-14.36-3-21.39-5.09a123.21,123.21,0,0,0-46-7.57c-14.84.44-28.79,3.6-42.77,7.69-1.78.52-2.63,1.39-.9.72,0,0,.36.8.54,1.22-.18.71-.33,1.44-.45,2.16-1.67,1.91-3.51,1.82-5.46.46-5.86-1.25-9.61,2.68-13.77,5.62-8.7,4.58-18.94,6.11-26.35,13.28a32.1,32.1,0,0,0-3.55,1.82,16.74,16.74,0,0,1-3.88,1.43c-10.45.33-21.85,4-28.76-8.15a7.66,7.66,0,0,1-.12-4.27,12.5,12.5,0,0,1,2-3.75c16.53-5.39,27.89-20.64,45.72-23.83,5.6-1,8.62-6.61,12.76-10.2,6.94-6,16.21-8.77,22.43-15.9,1.94-2.23,5.65-3.78,7.34-1.66,6.88,8.61,17.56,3.67,25.5,7.92,5.26,14.62,5.28,14.72,21.69,10.76,4.52-1.09,7.95.15,11.59,2.75,8.12,5.79,18.23,6.42,27.29,9.83,3.78,1.42,7.28.29,10.3-2.38A21.39,21.39,0,0,1,306,199c4.56-1.27,9.55-2.47,12.91,1.79,3.73,4.72-2.77,6.93-3.75,10.73,4.15.69,8.05-3,12.1-.45a20.19,20.19,0,0,1,2.1,2.52c1.61.08-.3,2.53,1.63,2.45-1-1.85-2.41-3.45-3-5.52-1.12-6.46,1.76-10.79,7.26-13.74,17.89,2.38,19.85.76,15.41,22.73-2.25,3.26-5.29,6.13-5.43,10.53a4.48,4.48,0,0,1-2.31,2.65A6,6,0,0,1,337.62,231.65Z"/><path id="Path_10423" data-name="Path 10423" class="cls-2" d="M111.8,231.26c3.21,6.58,8.56,8.93,15.7,8.45,5-.34,10-.05,15.06,0,.89,6.21-4.48,5.41-7.76,6.73-3.1,1.26-7.32.32-8.7,4.74l-5.59,5.51c-9.44,1-17.66-2.18-25.29-7.38-7.08-7.71-19.93-10.3-20.86-23.49,3.78-6,9.45-7.72,16.12-7.22a11,11,0,0,1,3.45,2C98.24,226.86,104.93,229.22,111.8,231.26Z"/><path id="Path_10424" data-name="Path 10424" class="cls-3" d="M129,18.78l24.79-.34c18.47,2.23,37.18-1.23,55.6,2.38a3.26,3.26,0,0,1-.52,4.58l0,0c-8.54,5-18,3-27.05,3.17q-25.56.38-51.12,0c-10.84-1.49-21.3,1.44-31.9,2.84-5.49.72-11,2.54-16.47-.1a2.89,2.89,0,0,1-1.42-3.83l.14-.27c4.9-4.08,12-1.73,16.91-5.79a5.14,5.14,0,0,0,2.66-.39C109.91,18,119.78,22.23,129,18.78Z"/><path id="Path_10425" data-name="Path 10425" class="cls-4" d="M10.67,147.13c-3.74-6.91-5.81-14.39-7.24-22C2.5,120.16,1.7,115,4.67,110.4c3.11-4.84,2.06-9.73.18-14.45-3.23-8.12-1-14.23,6.14-18.83a6.51,6.51,0,0,1,2,3.71C12.27,90,15,99,14.84,108.14c-2.25,13.4,2.6,26.47,1.83,39.79A4.93,4.93,0,0,1,10.67,147.13Z"/><path id="Path_10426" data-name="Path 10426" class="cls-5" d="M193.26,217.73l-5.72-.81c21.2-11.33,24.92-9.93,60.72-11,12.41-.37,23.92,1.54,34.41,8.38-3.94,2.51-8,1.88-12.08.44a4.18,4.18,0,0,1-2.2-.37c-1.54-1.66-4.06-1.15-5.7-2.58l.12.06c-5.3-3.92-11.9.42-17.32-2.74l-4.53,0a9.82,9.82,0,0,1-9.42,0C219.17,213.69,206,214.58,193.26,217.73Z"/><path id="Path_10427" data-name="Path 10427" class="cls-6" d="M66.9,226c-4.44-2.67-7.6-6.57-10.59-10.68-1.61-2.23-2.8-5.45-5-6.44-12.46-5.62-17.41-18.26-26-27.43-5.57-5.94-7.37-14.55-9.35-22.56a4.06,4.06,0,0,1,3.49-1.26c8.13,8.59,12.6,19.75,20.27,28.71,2.64,3.07,4.26,7,8,9.11a63.22,63.22,0,0,1,12.54,13.28,30.19,30.19,0,0,0,5.11,6.58,37.6,37.6,0,0,1,5,4.32,5.44,5.44,0,0,1,.37,3.33A5.11,5.11,0,0,1,66.9,226Z"/><path id="Path_10428" data-name="Path 10428" class="cls-7" d="M81.05,27.26c0,.87,0,1.73,0,2.59.1.46.43,1.17.25,1.33-14.06,13-28.41,25.63-47.95,29.9a2.15,2.15,0,0,1-.53-3,2,2,0,0,1,.55-.54c8.21-11,21.21-15.34,32.12-22.5C70.21,31.93,74.58,27.23,81.05,27.26Z"/><path id="Path_10429" data-name="Path 10429" class="cls-8" d="M145.35,236.85c6.86-6.23,16.25-7.78,23.75-12.89,1.65-1.12,3.37.4,4.47,2-.5,4-2.68,7.92-6.45,7.54-8.38-.86-13,5.42-19.23,8.5-1.3-.6-2.75-1-3.41-2.49A3.41,3.41,0,0,1,145.35,236.85Z"/><path id="Path_10430" data-name="Path 10430" class="cls-9" d="M66.9,226l2.92-3.1,1.15-1.2,1.66.17a6.76,6.76,0,0,1,2.43,2.23c.12.55.24,1.1.35,1.65.22,5.3,3.63,8.4,7.77,10.78A32.2,32.2,0,0,1,95.07,248a2.2,2.2,0,0,1-3,.86,2.27,2.27,0,0,1-.61-.5C79.66,244.84,74.53,234,66.9,226Z"/><path id="Path_10431" data-name="Path 10431" class="cls-10" d="M91.46,248.31l3.6-.36,25.44,8.7C108.22,262.93,99.66,256.27,91.46,248.31Z"/><path id="Path_10432" data-name="Path 10432" class="cls-11" d="M33.36,57.54c0,1,.09,2,.13,3.07C30,71.61,22.13,77.7,11.14,80.19L11,77.13C15.25,67,25,63.07,33.36,57.54Z"/><path id="Path_10433" data-name="Path 10433" class="cls-12" d="M145.33,239.6l2.56,2.4c-5.73,6.7-14.52,6.1-21.8,9.13-1.71-.46-4-.58-4.32-2.61s1.47-3,3.44-3.12c6.33-.28,12.8-.07,17.35-5.73l0,0a1.64,1.64,0,0,1,2.28-.49A1.6,1.6,0,0,1,145.33,239.6Z"/><path id="Path_10434" data-name="Path 10434" class="cls-13" d="M19.48,158.51l-3.51.34c-3.07-3.32-9.91-4.93-5.29-11.72l5.95.2c3.07,1.73,4.25,4.53,4.49,7.88A5.63,5.63,0,0,1,19.48,158.51Z"/><path id="Path_10435" data-name="Path 10435" class="cls-14" d="M245.49,209.1c5.83.6,12.25-2.6,17.33,2.74l-16.3-.39A23.25,23.25,0,0,0,245.49,209.1Z"/><path id="Path_10436" data-name="Path 10436" class="cls-14" d="M231.54,209.09H241C237.83,212.43,234.69,212.42,231.54,209.09Z"/><path id="Path_10437" data-name="Path 10437" class="cls-15" d="M682.06,44.35l3.05-.23c5.92,6.08,13.2,9.89,21.54,10.3,7.86.39,15.37,2.18,23,3.53,4.29,17.38,6.59,34.88,3,52.71-3.47,2.39-6.82,5.33-11.46,2.57a6.83,6.83,0,0,1-.6-6.09c4.35-8.37,2.4-17.44,2.82-26.24,0-2,0-4-.06-6,.16-7.76-4.81-9.93-11.36-10.8-12.32-1.64-24.06-5-34.33-12.4a6.4,6.4,0,0,1-1.82-3.49C676.38,44.41,680.08,45.79,682.06,44.35Z"/><path id="Path_10438" data-name="Path 10438" class="cls-16" d="M637.27,256.27a9.21,9.21,0,0,0-2.49.42c-10.1,2.34-20-1.12-30.1-.8-4.5-1.94-8.58-4.44-7.08-10.23,1.13-4.35,4.72-8.34,8.8-7.75,13.08,1.87,25.42-4.87,38.39-2.55C650.91,245.42,639.69,249.27,637.27,256.27Z"/><path id="Path_10439" data-name="Path 10439" class="cls-17" d="M433.51,261.58c-.91-.1-2.44.09-2.64-.34-3.69-7.86-8.66-10.35-16.83-5.54-3,1.77-6.41-.64-7.92-3.87-2.21-4.76-5-5.81-9.88-3.4-8.66,4.31-17.4,3.41-24.75-2.62-4.24-3.47-10-2.11-13.78-5.91,1.26-2.7,3.59-4,6.3-4.78,12.47,2.47,24.53,7,37.82,1.92,6.4-2.45,11,6.27,17.62,7.1,7.54.79,15.09,1.54,16.56,11.25A9,9,0,0,1,433.51,261.58Z"/><path id="Path_10440" data-name="Path 10440" class="cls-18" d="M433.51,261.58l0-5.13c6.6-8.07,15.22-12.63,25.37-14.53,4.37-.39,8.73-.47,13,.84,4.17,2.21,6,4.67.79,7.83-12.62-.38-24.25,2.15-33.57,11.44Z"/><path id="Path_10441" data-name="Path 10441" class="cls-19" d="M542.58,264.8c-2,3.36-5.42,2.73-8.47,3.2a6.57,6.57,0,0,0-2.47-.54l-.48-2.31c-2.8-4.91-7.13-9.41-4.35-15.87C540.5,245.87,539.78,257.13,542.58,264.8Z"/><path id="Path_10442" data-name="Path 10442" class="cls-14" d="M270.59,214.73l12.08-.44c7.91,0,15.65.63,22.3,5.61a5.43,5.43,0,0,1-2.88,2.62L299,222a9,9,0,0,1-2.65-1.74l-11.24-.63a14.63,14.63,0,0,0-3.06-1.84C278.07,217.38,273.85,217.88,270.59,214.73Z"/><path id="Path_10443" data-name="Path 10443" class="cls-20" d="M302.09,222.52,305,219.9l10.7.23c3.78.08,5.64,2.13,5.93,5.8a2.52,2.52,0,0,1-3.07.12A49.64,49.64,0,0,1,302.09,222.52Z"/><path id="Path_10444" data-name="Path 10444" class="cls-21" d="M337.62,231.65l6.34-.38c1.89,1.8,2.12,4.27,2.66,6.61.07.6.12,1.2.17,1.8-4.27,3.9-7.27,3.74-8.3-2.62Z"/><path id="Path_10445" data-name="Path 10445" class="cls-22" d="M363.49,236.9c-1.23,2.35-3.56,2.57-5.78,3l-8-.58a2.7,2.7,0,0,1,.67-3.76,2.61,2.61,0,0,1,.28-.17C355.21,233.2,359.6,232.94,363.49,236.9Z"/><path id="Path_10446" data-name="Path 10446" class="cls-21" d="M324.15,228.67c3.05-.13,6.22-.75,8.46,2.21C329.53,231.13,326.45,231.39,324.15,228.67Z"/><path id="Path_10447" data-name="Path 10447" class="cls-14" d="M262.69,211.78c2.32-.06,4.41.37,5.7,2.58A6.84,6.84,0,0,1,262.69,211.78Z"/><path id="Path_10448" data-name="Path 10448" class="cls-21" d="M282.06,217.74l3.07,1.85Z"/><path id="Path_10449" data-name="Path 10449" class="cls-21" d="M296.36,220.2,299,222Z"/><path id="Path_10450" data-name="Path 10450" class="cls-21" d="M318.53,226l3.08-.12c0,.75,0,1.5,0,2.24Z"/><path id="Path_10451" data-name="Path 10451" class="cls-21" d="M349.28,236.86c.14.82.27,1.65.38,2.47l-2.87.35-.17-.24C346.07,237.1,347.08,236.37,349.28,236.86Z"/><path id="Path_10452" data-name="Path 10452" class="cls-23" d="M276.76,16.17c24.48-.2,48.66,1.51,72.73,7,20.15,4.6,40.88,6.7,61.35,9.91-1.95,7.74-8.59,5.15-13.58,6.21-8.58-.18-16.8-2.62-25.23-3.86-14.52-1.44-28.37-6.4-42.86-8-10.49-2.43-21.17-1.77-31.79-2-6.92-.14-14,.09-19.74-4.89A3.61,3.61,0,0,1,276.76,16.17Z"/><path id="Path_10453" data-name="Path 10453" class="cls-24" d="M397.05,35.49c4.61-.7,9.75,1.57,13.79-2.4,22.68,4.07,45.36,8.1,68.52,8.09,2.83,0,5.53.39,7.78,2.32-2.38,3.64-6.28,4.65-10.06,5.9-12,3.21-23.53-2.68-35.42-1.49-13.14.1-25.43-4.82-38.28-6.48C400.31,41,396.87,39.89,397.05,35.49Z"/><path id="Path_10454" data-name="Path 10454" class="cls-25" d="M478.24,46.56c2.15-3.37,5.76-2.52,8.9-3.06,12-.55,23.46,3.48,35.53,3,16-.62,32.05.44,47.93-2.44a3.41,3.41,0,0,1,.06,3.94c-2.85,3.78-7,4.47-11.33,4.87a122.4,122.4,0,0,0-12.52,1.31c-13.09-.26-26.15-1.48-39.26-.91C497.34,52.91,487,53.29,478.24,46.56Z"/><path id="Path_10455" data-name="Path 10455" class="cls-26" d="M209.68,21.56c4.7-1,10.07,1.24,14.14-2.88,9.42.39,18.29-4.48,27.83-2.9a2.86,2.86,0,0,1-.45,4c-8.83,4.77-18.62,6.12-28.28,8-4.71,0-9.56.48-13.21-3.51Z"/><path id="Path_10456" data-name="Path 10456" class="cls-27" d="M570.49,46.69c0-.88,0-1.75.1-2.62,3.78-1,8.12.44,11.45-2.58l13.78-.24c2.18,2.83,8.11-1.28,8.6,4.66C593.25,52,582,54.17,570.49,46.69Z"/><path id="Path_10457" data-name="Path 10457" class="cls-28" d="M251.65,18.65V15.78l25.1.39q.06,1.23.09,2.46Q264.26,27.47,251.65,18.65Z"/><path id="Path_10458" data-name="Path 10458" class="cls-29" d="M349.27,236.86l-2.66,2.58c-7.35-.62-1.47-5.54-2.65-8.17h0c12-3,24.18-3,36.47-1.54,17.49,2.11,19.07.51,18.18-16.27a333,333,0,0,1,29.95-22.68c-12.53,3.67-20.66,13.34-29.64,21.87-7.51,2.44-15.2,2.84-21.18,10.41-5.47,6.9-20.16,4.1-28.2-3-1.65-3.64-4-7.08-1-11.32,4.21-6,1.94-8.12-4.71-7.05-3.71.6-5.2-3.27-8.23-4-1.43-3.14-5.81-4-6.21-7.91a5.78,5.78,0,0,1,2.67-2.5c3.6-2.43,10.34,2.48,11.7-4.11,1.28-6.24-5.36-5.95-8.7-8.58-8.23-6.44-20.34-9.76-20.69-23.3,10.92-1.4,20.66-10.24,32.6-5.2,11.84,1.88,12.34,17.63,23.15,19.72,9.8,1.9,20.19-.93,29.36,6.21,5.95,4.64,13.73-.27,19.93-1.3,12.25-2,24.34,2.23,36.26-1.12,3.86,11.34-3.43,18-10.17,25.16-6.36,6.78-13.93,11.28-11.2,24.75,2.05,10-4.9,23.14-17.6,28.52-3.1-.12-4.87-2-6.6-4.4-3.6-5-10.07-5.94-13.58-2.86-9.36,8.22-17.2,1.4-25.43-1-2.49-.72-4.63-2.92-7.58-2.88Z"/><path id="Path_10459" data-name="Path 10459" class="cls-21" d="M330,189.29c.83,3.49,9.75,1.58,5.61,8.39-3.71,5-6.85,10.15-5.6,16.79h0c-2.54-.86-4.84-3.14-7.82-1.38-2,1.19-3.78,2.91-5.91,3.59-3.16,1-7,1.2-8.9-1.93-2.4-3.94,1.63-5.58,4-7.5,1.77-1.41,4.6-1,5.92-3.3-7.13-4-12.07-3.73-17.77,3.5-3.42,4.35-6.42,4.34-10.69,3.14-8.9-2.52-17.2-7.14-26.7-7.5-.45,0-1.16-.06-1.32-.34-6.1-10.53-11.93-7-19.58-1-5.8,4.52-15.78-3.26-15.41-11.12.1-2.31.45-4.61.68-6.91a7.16,7.16,0,0,1,3-5c17.2.32,34.3-1.9,51.49-2.17,1.86,0,4.19-.76,5.43.42,11.15,10.67,25.39,8.46,38.83,9.66A6.73,6.73,0,0,1,330,189.29Z"/><path id="Path_10460" data-name="Path 10460" class="cls-30" d="M111.8,231.27c-9.83,4.9-14.73-1.7-19.58-8.4a9.78,9.78,0,0,1,7.35-3.1c10.8,1.81,19.65,1.2,23.12-12.27,1.54-5.94,7.88-9.88,12.84-14,7.4-3.79,11.11-11.69,17.92-16.16,5.36-.21,11,2.35,16-1.56a15.3,15.3,0,0,1,8.08-.44c3.26.7,6.16,2.17,7.1,5.58,1.1,4-2,5.59-4.84,7.09s-4.75,4.15-6.49,6.82c-3.94,3.11-5.21,9.76-10.57,10.41-18.81,2.27-30.25,19.41-48.17,23.19a26.34,26.34,0,0,0-2.79,2.8Z"/><path id="Path_10461" data-name="Path 10461" class="cls-31" d="M173.33,194.86c-.13-5.51,4.34-7.2,7.84-9.94,3-2.32,1.63-5.22-1.45-5.93-3.86-.89-8-.65-12-.9,8.87-10.48,22.26-12.62,33.92-17.64,6.27-2.7,12.52-8,20.83-4.65,7.56,3.09,14.26,5.66,8.63,15.66-1.63,2.9-.53,6.42-1.83,9.44l-2.8,2.82c-3.71.13-7.72-.59-11.06.58-6.14,2.15-10.71,2.94-12.65-5.09-.5-2.06-4.13-4.4-5.3-2.05C192.38,187.41,180.42,187.73,173.33,194.86Z"/><path id="Path_10462" data-name="Path 10462" class="cls-21" d="M349.55,220.07c6.72,4.12,14.18,2.69,21.4,2.69,5,0,9-1.44,8.39-7.95-.46-5.17,3.28-6.38,7.17-5.17a38.35,38.35,0,0,0,13.4,2c0,3.91,2.45,7,3.71,10.43,2.82,7.83.66,12.14-7.7,11.66-17.31-1-34.77,1-51.94-2.5C340.07,221.65,340.19,221.43,349.55,220.07Z"/><path id="Path_10463" data-name="Path 10463" class="cls-21" d="M330,217.27v-2.8c1.1.4,1.52,1.09,1.07,2C330.85,216.81,330.34,217,330,217.27Z"/><path id="Path_10464" data-name="Path 10464" class="cls-21" d="M330,217.27l-.62,1.14-.51-.51Z"/><path id="Path_10465" data-name="Path 10465" class="cls-2" d="M111.8,231.26l2.8-2.8Z"/><path id="Path_10466" data-name="Path 10466" class="cls-2" d="M145.33,239.6q-1.37.08-2.73.06l2.75-2.81C145.35,237.77,145.34,238.68,145.33,239.6Z"/><path id="Path_10467" data-name="Path 10467" class="cls-32" d="M58.7,211.69l-11.3-14c-6.8-9.22-14.44-18.15-5.59-30.44,1.57-2.19.43-6-2.05-7.39-11.85-6.68-12.59-19.47-17.17-30.17-1.44-9.19-1.4-18.53-2.7-27.72-1.32-9.37,3.84-14.87,11.1-19.1,7.5-4.37,15.12-4.13,22.47.36,4.13,2.52,8.11,6,6,11.26-3.52,9,2.07,11.57,8.66,13.86a11.68,11.68,0,0,1,3.33,2.59c3,4.24,4.75,8.7,2.23,13.83-3.86,2.62-6.25,6.64-9.39,9.92-6,6.23-12.12,4.42-13.55-4.23-1.13-6.77-2.77-12.63-8.94-16.28-2.37-1.4-5-3-7.77-1.22s-2.37,4.73-2.07,7.51c.2,1.86.53,4,1.79,5.18,17.53,17.19,23.7,43.46,45.61,57.12,7.18,3,13.38,9.29,8.67,15.73-7.37,10.06-.1,14,4.63,19.75-.17.63-.34,1.25-.52,1.88a69.36,69.36,0,0,0-16.77,5.6v0a28.26,28.26,0,0,0-2.78-2.8h0a15.35,15.35,0,0,1-2.8-2.78c-2.3-.08-4.36-.63-5.56-2.86C66.46,211.33,60,214.11,58.7,211.69Z"/><path id="Path_10468" data-name="Path 10468" class="cls-32" d="M100.61,222.86H92.22l0-2.76,0,0C96.05,217.9,99.58,216.65,100.61,222.86Z"/><path id="Path_10469" data-name="Path 10469" class="cls-33" d="M229.29,180.9c-6.42-6.19-2.28-11.2,2.75-16.26-4.15-4.23-9.19-4.88-13.81-6.32-1.27-.39-3.66-.91-3.84-.54-5,10.3-17.28,4-24.58,11.1-5.34,5.16-14.57,6.29-22.07,9.22-.51,4.64-2.86,6.55-7.28,4.43a54.3,54.3,0,0,1-6.7-4.43,15.26,15.26,0,0,1-5.76-1c-9.11-1.46-18.59.39-27.47-2.56-9.83-3.27-19.52-7.08-19-20.25,0-1.5,1.59-4-1.59-3.85-19.87,1.21-16.83-17.77-23.72-27.69-2.32-3.35-3.66-8.14-6.38-11.8h0c-6.6-3.74-7.69-10.37-4.62-15.67,6.2-10.7,3.58-21.49,2.87-32.41C67.26,50.32,72.56,46.65,83.8,52c1.26.6,2.41,1.41,3.6,2.13,17.63,10.69,16.8,10.33,25-8.77,3.33-7.8,7-17,16.2-21l81.15-.1,13.9.08c-.76,8.08-9.57,5.67-13.14,10.09,6.63,12.68,8.08,13,15.4,1.95,3.62-5.47,8.32-8.18,14-6.53,19.23,5.6,39.18,10.1,53,26.54,2.82,3.36,5.88,5.91,10.59,5.42,6.67-1.83,14-5,14,6.83a15.09,15.09,0,0,1-3,5.24,159.85,159.85,0,0,1-12,11.6c-8.3,7.27-7.75,10.79,2.7,15.1A38.25,38.25,0,0,0,331,102c14.19-4,41.43,13.55,44.6,27.75,1,4.39-.09,7.56-4.45,8.65-5.55,1.4-12.78,2.23-14.23-4.37-2-9.1-5.52-13.25-14.93-11.34s-7.1,9.22-7.29,15.46a4.44,4.44,0,0,1-1.93,3.64c4.66-2.23,9.52-4.27,13.94-.25,2.73,2.48,2.7,5.73,0,8.62-4.12-2.06-8.8-4.63-12.8-1.46-6.44,5.11-13.6,4.15-20.77,4.27-11.76-6.62-22.75-1.91-33.8,2.24-4.62,1.74-8.53,4.13-8.14,9.76.45,6.43,5.66,6.55,10.24,6.77,16,.77,30,8.78,45.17,12.59,2.25.57,4.17,2,3.33,5h0c-8.8-.72-18.11,4-26.37-2.48-8.17,6.4-11.93.43-15.67-5.6-1.52-2.43-3.58-2-6-1.55-7.59,1.29-15.25,4.28-22.81-.37-1.71-1-3.72-.39-5.27.64-7.36,4.89-14.61,5.32-22,0C231.41,179.67,230.16,180.56,229.29,180.9Z"/><path id="Path_10470" data-name="Path 10470" class="cls-34" d="M128.56,24.38c-1.86,2.41-4.69,4.06-4.27,8,.21,2,1.19,5.8-1.16,6.36-10.41,2.45-7.7,10.74-8.92,17.67-1.58,9-11.47,12.69-19.55,7.57-4.67-3-8.94-6.56-13.42-9.81-2.85-2.07-6.16-2.71-9.1-.81s-2.06,5-.73,7.48c3.32,6.31-2.4,14.51,4.76,20.36,1.87,1.52-2.32,4.38-3.91,6.5C66.76,95,65,102.61,69.84,111a59.56,59.56,0,0,1-8.17-1.38c-11.12-3.41-11.52-3.72-5.91-13.59,2.6-4.57,1.27-6.16-2.18-8.89-6.2-4.89-13.1-6.1-19.45-2.36S20.66,92.66,23.2,103c2.2,8.94,2.43,18.3,1.88,27.57a3.2,3.2,0,0,1-3.64-.23c-4-7.14-2-17-10.3-22.17-.14-5,.46-10-1.76-14.86-2.13-4.63-.51-8.94,1.77-13.07L33.49,60.61C50.11,51.54,65.25,40.2,81,29.85c8.59-1.15,17.41-1.47,25.71-3.7C114.08,24.17,121.25,24.44,128.56,24.38Z"/><path id="Path_10471" data-name="Path 10471" class="cls-35" d="M11.14,108.13c8.18-.48,11.61,3.55,11.17,11.52-.2,3.62,0,7.25,0,10.88,6.23,5.42,6,12.68,5.32,19.86-.45,4.59-2.57,7.81-8.06,5.27-1.28-2.67-3-5.18-2.93-8.33C8.88,135.09,11.11,121.46,11.14,108.13Z"/><path id="Path_10472" data-name="Path 10472" class="cls-36" d="M19.56,155.66c3-.4,5.23-1.77,5.34-5.09.21-6.81,1.21-13.74-2.6-20h2.77c2.94,5,7,9.44,6.44,15.9-.35,4,3,5.17,5.7,7,11.37,7.51,11.65,8.82,5.39,20.57-4.26,8-4.28,8.81,6.14,17.83,4.37,3.78-1.64,3.79-1.34,5.86-2.35-.19-5.09-.44-6.15-2.6C35,182.29,22.4,173.27,19.48,158.52,19.51,157.56,19.53,156.61,19.56,155.66Z"/><path id="Path_10473" data-name="Path 10473" class="cls-2" d="M58.7,211.69c3.52.18,8.61-1.21,5.56,5.55A9.49,9.49,0,0,1,58.7,211.69Z"/><path id="Path_10474" data-name="Path 10474" class="cls-2" d="M69.82,220.1l2.8,2.78-2.8,0Q69.84,221.48,69.82,220.1Z"/><path id="Path_10475" data-name="Path 10475" class="cls-2" d="M72.63,222.88c.92.93,1.85,1.87,2.78,2.79Z"/><path id="Path_10476" data-name="Path 10476" class="cls-37" d="M682.06,44.35c-1.23,2-3.26,2.25-5.31,2.48-8.32,6.23-16.94,1.12-25.4.51-5.5-.4-10.92-1.75-16.43-2.42-3.62-1.21-8.56-.82-8.44-6.73,10.57-1.34,21-.19,31.34,2C665.85,41.85,674,43,682.06,44.35Z"/><path id="Path_10477" data-name="Path 10477" class="cls-38" d="M626.48,38.19c2,3.31,5.39,2.7,8.46,3-8.45,9.25-18.43,10.15-30.77,2.77-3-.25-6.26.38-8.34-2.69C606,39.66,616.12,37.81,626.48,38.19Z"/><path id="Path_10478" data-name="Path 10478" class="cls-39" d="M604.17,43.94c10.46,1.28,20.86,2,30.77-2.77l41.82,5.66c0,.85.06,1.71.07,2.56-1.83,4.79-.29,10.27-3,14.89-3.59,2.83-9.64-2.74-12.91,5.12-1.38,3.3-11.83-4.23-17.39,2.48-4.39,5.3-11.69,5.23-17.35,8.25-4.68,2.5-9.5,3.74-14.71,2.82-5.64-1-12.43-2.82-11.88,6,.4,6.36,3.48,12.78,11.93,12.64,2.28,0,4.5-1.08,6.86-1.1a14.37,14.37,0,0,1,4,.81c10.88,8.94,8.59,19.4-6.65,30.54-13.8-1.42-27.54-1.27-41.94,2.69,6.16,6.07,11.54,13.15,19.55,17.6a12.45,12.45,0,0,1,1.7,2.12c3.14,5.29,8.79,10.53,3.25,17s-12.06,4.6-18.3.55c-5.5-4.07-14.3-5.4-11.64-16,1.06-4.18-3.68-4.69-6.77-5.3A23.13,23.13,0,0,1,545.78,140c-3.8-6-3.7-11.58,2.48-15.82,16.37-11.2,17.56-32,29.34-46.18,2.82-3.39-1.89-6.42-3.42-9.64-3.58-7.5-14.27-9.21-14.87-18.87,4,.28,7.67-1,11.18-2.8C581.73,45.88,593.3,49.19,604.17,43.94Z"/><path id="Path_10479" data-name="Path 10479" class="cls-40" d="M674,63.38c-1.57-5.17-7.21-11.16,2.81-14,13.76,4.69,26.79,11.49,41.95,11.91,7.38.2,9.16,6.53,8.38,13.25-3.65,3.41-7.6,2.23-11.58.82-3.59-1.49-7.25-2.57-11.21-1.76C687.93,80.29,686.46,79.8,674,63.38Z"/><path id="Path_10480" data-name="Path 10480" class="cls-41" d="M716,71.78c3.49,1.89,7.11,3.23,11.18,2.77,0,1.88,0,3.77,0,5.65-4.3,8.83-5.08,18.36-5.55,28,0,1.91.06,3.82.1,5.73l0,0c-2.75,3.14-1.88,8.72-6.92,10.34-9.26,2.42-15.4-2.1-19.23-9.74-3.64-7.27-.63-15.69,4.94-18.64C711,90.31,712.71,81,716,71.78Z"/><path id="Path_10481" data-name="Path 10481" class="cls-42" d="M721.6,108.15c-4.63-4.07-6.79-8.43-2-13.91,2.29-2.58,1.79-6,2.06-9.1.28-3.35,2.45-4.59,5.44-4.94,0,6.75-.06,13.5,0,20.26C727.22,104.48,726.23,107.59,721.6,108.15Z"/><path id="Path_10482" data-name="Path 10482" class="cls-43" d="M472.64,250.59c.42-1.8,3-3.6,0-5.39.49-7.3,6.56-6.46,10.22-5.33,13.79,4.25,24-2.11,34.09-9.8,2.16-1.65,4.5-3.5,7.23-.76,2.5,9.66-.22,16.57-10.32,19.58-10.7,2.14-20.17,9.57-31.87,7.5-3.24-.52-4.8-3.27-6.92-5.26A9,9,0,0,1,472.64,250.59Z"/><path id="Path_10483" data-name="Path 10483" class="cls-19" d="M481,253.66c11.73,2.56,20.9-4.32,30.83-8.41,1.88,3.38,9.68-1.47,8.53,6.14-4.46,2.24-9.8-1-14.1,2.27-5.89,3.94-12.53,5.33-19.46,5.76C481,261.39,478.91,259.6,481,253.66Z"/><path id="Path_10484" data-name="Path 10484" class="cls-44" d="M506.22,253.66c3.78-4.69,9.19-2.07,13.79-3.08,2-1.51,3.91-1.27,5.76.28,4,3.94,4.11,9.34,5.39,14.29-.88-.28-2.35-.34-2.55-.88C524.57,253.41,515.84,252.64,506.22,253.66Z"/><path id="Path_10485" data-name="Path 10485" class="cls-45" d="M481,253.66c.07,3.8,2.27,5.45,5.8,5.75-1.78,2.82-3.78,5.63-7.57,5-4.48-.77-3.59-4.63-3.8-7.74-.13-1.84-.22-3.69-.33-5.54Z"/><path id="Path_10486" data-name="Path 10486" class="cls-46" d="M648.39,237.1l-1,.11-1-.12c-6.84,1-13.83,1.53-20.47,3.31-5.11,1.37-9.68,2.48-14.83.21-4.68-2.06-8.11.86-10.64,4.43-3.47,4.91,2.66,5.9,4,8.89l-.21-.08c-2.7.89-4.24,3.09-5.85,5.2l-8,3.69a10.13,10.13,0,0,1-4.7-3.49c-2.77-5.75-8.58-4.6-13.3-5.66-15.67-3.54-22.75-11.94-23.18-27.94-.48-18.13,3-27.57,19.55-30.9,11.09-2.23,20.79-.9,23.5-14.5,16.11-1.28,21.86-19.75,37.14-22.46,5.7-.36,10.54-3.59,16-4.68a18.47,18.47,0,0,1,14.63,2.69c4.82,3.25,6.57,12.33,15.76,7.77,1.58-.78,3.41,3.77,3.67,6.64-.23,8-.68,15.92-5.46,22.81-2.43,3.87-2.09,8.36-2.76,12.63a18.75,18.75,0,0,1-1,3.6c-5.14,6.08-4.16,12.72-1.72,19.48-4.32,3.24-7.85,7.77-13.78,8.36A5.91,5.91,0,0,1,648.39,237.1Z"/><path id="Path_10487" data-name="Path 10487" class="cls-47" d="M416.67,248c8-7.39,10.32-18.18,15.82-27.08,2.64-4.26-2.49-6.05-4.8-8.67-2.83-3.2-3.4-6,1.3-8.76,13.1-7.85,23.52-18.07,26.85-33.8l1.43-1.16a7.17,7.17,0,0,1,3.65,0c2.38,1,4.21,2.53,4.86,5.16.21,3.5-1.2,5.66-4.9,5.9-1.19-.12-1.66-.69-1.39-1.72-1.1,1.7,1.2,2.3,1.18,3.69-.8,8.53-4,16.51-5.48,25-1.84,10.65-.17,19.66,3.35,29.06.75,3.2,2,6.41.1,9.63-9.7.83-16,9.33-25.16,11.26C432.08,245.24,423.32,248.74,416.67,248Z"/><path id="Path_10488" data-name="Path 10488" class="cls-48" d="M629.26,161.3a22,22,0,0,0-16,12c-3.2,6.19-7,7.73-13.05,7.73-6.7,0-11,2.17-8,10.21,1.64,4.43.34,8-4.29,10.33-4.85,2.4-7,.75-9.83-3.66-3.1-4.75-7.77-5-9.28,2.06-.91,4.25-3.32,1.4-5.19,1.6-8.11.86-10.66,3.08-9.16,10.15,1,4.48-.24,7.51-1.44,11.55-2.1,7.08,4.37,13.26,5,20.6.36,4.1,5.83,3.46,9.23,4.69,5.36,1.94,10.85,2,16.36,2.63,5,.54,5.89,3.76,3.71,8-.42.47-.84.94-1.25,1.42-4,2.32-8.71.71-12.85,2.3-3.33.09-5.7-2.17-8.46-3.48l.07,0c-3.59-4.67-7.28-4.43-11-.22l-11.17,5.58c-2.5-3.29-8.89-2.79-7.15-10.56,1.12-5-6.15-2.53-9.66-3.38l-5.77-.28c-1.73-3.34-6.6-1.83-8.22-5.33,12.2.05,9.45-9.87,11.19-16.79-3.06-3.5-5.75-7.15-5.44-12.16,5.9-13.48,6.7-13.74,18.31-5.13,1.94,1.43,3.91,2.92,6,1.26,2.45-1.9.63-4.15-.42-6.1-2.41-4.5-4.61-9-2.91-14.33a16.55,16.55,0,0,1,1.84-3.22c.7-1,1.5-1.88,2.29-2.78.35-.48.74-.93,1.09-1.4.63-1,1.3-2,2-3a24,24,0,0,1,2.12-3,17.74,17.74,0,0,1,9.31-5.95,20.3,20.3,0,0,1,9.17.33c2,.44,4,1.56,6.2.6.78-.65,1.58-1.26,2.34-1.92a11.44,11.44,0,0,1,2.52-1.74l1.52-.24c2.22.6,4.46,1.13,6.66,1.82,4.23,1.32,8.41,1.68,11.28-2.4,3.67-5.2-1.08-7.13-4.12-9.82-2.19-1.94-.55-4.24.17-6.36,2.9-6.68,8.63-6,14.31-5.57,2.18-.53,5.49,3.54,6.47-1.67-.36-1.1-.62-2.17-.87-3.27a18.56,18.56,0,0,1,.2-9,6.7,6.7,0,0,1,2.25-2.93c3.64-4.17,6.11-9.1,9-13.7,4.45-7,2-10.56-3.45-14.29,3.71-3.78,9.21-6.71,6.84-13.49a3.07,3.07,0,0,0-3.82-2,3.2,3.2,0,0,0-.6.26c-8.79,3.78-.93,10.29-2.42,15.29a12.79,12.79,0,0,0-2.75.42c-12.28,4.67-11.84,4.33-20.06-6-4.6-5.82-4.87-9.92-.34-15.79,3.1-4,4.68-5.67,9.79-2.71,5.33,3.08,10.77,1.59,16.91-1.22,8.33-3.81,17.22-5.93,23.19-13.7,1.83-2.37,4.13-1.18,6,.52s3.88,4,6.28,4.1c2.56-1.6,2.71-3.32,2.38-5.24-.43-2.46-3.34-5.7.72-7.08,5-1.68,2.88,2.95,3.74,5,1.41,3.41,4.67,2.18,7.28,2.54,3.07.22,5.85.07,8.14,3.35,7.05,10.12,8.06,10.09,18.78,3.43A15.3,15.3,0,0,1,704.79,69c2.74,10.44-3.2,16.18-11.81,18.65-8.18,2.35-11.86,7-14.46,14.77a41.64,41.64,0,0,1-18.79,23.31c-6.35,3.68-10.77,8.81-12.57,15.89C644.66,151.42,638.34,157.57,629.26,161.3Z"/><path id="Path_10489" data-name="Path 10489" class="cls-49" d="M564.74,259.41c3.2-.34,5.8,1.45,8.63,2.44,4.23-3,9.73.78,13.88-2.62l0-.05,3.17,3.56C581.44,265.18,572.25,268.79,564.74,259.41Z"/><path id="Path_10490" data-name="Path 10490" class="cls-46" d="M553.76,259.23c.21-3.45,1.18-7,5-7.3,4.88-.39,5.84,3.53,6,7.51Z"/><path id="Path_10491" data-name="Path 10491" class="cls-50" d="M668.65,228.73c-10.25-7.09-10.25-7.09-.24-19.86,6.55,7.83,13.07-2,19.61,0v0a4.21,4.21,0,0,1,.16,5.67L685.07,220C678.41,220.68,673.91,225.42,668.65,228.73Z"/><path id="Path_10492" data-name="Path 10492" class="cls-51" d="M567.73,175.32l-11.19,0c-7.08-4.55-6,3.1-8.38,5.6,0,.93,0,1.87,0,2.81a38.37,38.37,0,0,0-2.77,2.79h0c-1,.91-1.89,1.85-2.8,2.8-14.17,4-20.63,14.1-22.39,28-1.7,4.4,6,6.41,2.81,11.18-4.18,10.69-16.63,10.25-23.53,17.43-3.14,3.27-6.91-.41-10.21-1.22-5.7-1.39-11.2-4.55-16.6.54l-14,0c-1.2-2.69-2.93-5.2-2.79-8.34,1.6-6.72,3.86-13.27,3-20.46a13,13,0,0,1,7.32-13.9c1.6-1-.21.69,1.32-.37,6.64-4.56,21.09-6.74,31.37-4.86,6.15,1.12,9.8-2.18,11.44-7.6,2-6.62,4.12-13.23,6.12-19.86,3.33-3.53,8.08-5.39,11-9.37,4.27-3.44,8.54-6.89,13.52-9.29,5.28-2.37,2.83-9.29,7.16-12.21,5.8,10.3,18.66,6,26.58,12.61a16.15,16.15,0,0,1-1.26,3.84c-3.56,5.47-6.44,10.06,4.34,9.18,3.57-.29,1.5,3.2,1.12,5.15h0a36.72,36.72,0,0,0-2.79,2.79h0C574,175.39,571.88,178.43,567.73,175.32Z"/><path id="Path_10493" data-name="Path 10493" class="cls-52" d="M478.24,46.56c10.43-.88,20.27,4.25,30.73,3,2.77,3,1.16,6,.15,9-3.78,11.18-7.79,21.92,5.81,30.32,4.68,2.89,6.54,9.1.59,14-8-1.35-15.9-2.6-24.13-1.36-9.46,1.43-13.88-8.1-22.61-11.44,0,15-12.16,13.9-21.6,16.61a10.2,10.2,0,0,1-4.07-.85c-13.62-7.63-26.76-13.73-43.74-14a134.81,134.81,0,0,1-52.05-11.2c-3-1.32-6.31-1.3-9.57-1.57-13.63-1.12-15.79-5.77-8-17.54,2.08-3.15,3.2-6.69,5.09-9.87,4.28-6.07,4.17-11.84-.52-17.83-2.14-2.73-5.63-5.19-4.34-9.6,14.51.05,28,5.42,41.94,8.27,2.87,6.57-1.07,11.62-4.15,16.59-3.35,5.4-1.64,8.16,3.57,10.7,18.89,9.2,38.56,8.5,58,3.5,8.61-2.22,12.28-10.46,12.51-19.53C454.15,42.53,465.91,48.38,478.24,46.56Z"/><path id="Path_10494" data-name="Path 10494" class="cls-53" d="M330,24.31c2.92,3.39,5.82,6.79,8.76,10.16,5.24,6,5.47,11.94-.38,17.72-11.12,17-26.06,4-39.15,4.82,5.62.77,8.66,3.05,5.58,9.17-3.8.18-8.85.21-10.31-2.82-4.85-10.07-16.43-11.24-23-18.78a27.76,27.76,0,0,0-3.95-3.79c-5.65-4.36-11.44-.67-17.24-.54-5.16.11-5.37-8.94-13.11-8-7,.85-7.82,5.19-9.78,9.74-2.87,6.65-7,8.83-12.42,6.82-6.33-2.36-6.49-8.56-7.9-13.58-1.26-4.5,4.11-4.92,6.53-7,2.7-2.34,7.54-.14,10-3.87,9.35-1.88,18.23-6.09,28-5.7l25.19,0c11.17,4,22.79,2.62,34.27,2.83C317.53,21.58,324.12,20.57,330,24.31Z"/><path id="Path_10495" data-name="Path 10495" class="cls-54" d="M441.86,43.84c1.15,2.76,6.26,3.46,4.31,7.74-3.52,7.77-9.65,16-17,16.44-11.67.69-23.2,5.48-35.4,1.66-5.95-1.86-12.84-1.21-18.8-3.88-5.3-2.37-9.64-6.74-17.89-5.28,6.06-11.06,12.07-18.7,14.85-27.94,8.63-1.28,16.57,3.43,25.12,2.91C411.88,38.84,426.56,43,441.86,43.84Z"/><path id="Path_10496" data-name="Path 10496" class="cls-55" d="M447.45,105.35a26.14,26.14,0,0,1,17.23-6.26c1.38-5.25-5.81-9.62-.65-13.58,5.53-4.25,10.76,2.3,12.67,4.59,7.75,9.29,15.85,10.24,26.39,6.08,5.22-2.05,7,5.24,11.5,6.38,3,2.85,6.8,7.74,7.48-1.14,1-12.73,8.71-16.3,19.83-16,5.39.13,11.54,2.34,14.38-4.73,2.75-6.86,3-13.56-2.81-19.27-2.64-2.58-5.64-4.94-5.33-9.22,3-3.94,7.3-2.4,11.18-2.7,8.37,5.26,14.5,12.91,21.29,19.87,4.3,4.42,4.89,8.22-.09,12.88-5.45,5.1-16.39,26.45-17.69,32.92-1.22,6.13-7,8-11.15,10.39-6.58,3.74-7.16,7.65-3.53,13.39,0,4.07.19,8.17-.26,12.2-.4,3.62-2.41,4.61-5.33,1.79-.12-.52-.23-1-.36-1.55a20.71,20.71,0,0,1-1.45-4.54,10.07,10.07,0,0,1,.28-4.66c1.75-4.2-1.48-1.54-2.59-1.82-16.49,0-17.17,1.46-9.87,21-.41,7.23-5.17,8.66-11.19,8.4-1.65,1.73-3.83,3.45-6,2.94-14.24-3.33-27.65-.89-40.65,5.19-3.25-.45-4.88-2.86-6.48-5.32l-5.6-2.8a14.32,14.32,0,0,1-2.28-3.14c-1.42-4.38-1-8.88-.87-13.35a22.83,22.83,0,0,1,.49-3.58,31.43,31.43,0,0,1,.85-3.27,6.75,6.75,0,0,0-.64-5.88c-1.31-1.6-2.9-3-4.27-4.48a27.58,27.58,0,0,1-2-2.48c-.33-.41-.63-.84-1-1.26-.68-.8-1.31-1.65-1.93-2.5s-1.28-1.7-1.88-2.58c-1.28-1.75-2.78-3.33-4-5.13-1.9-4.65.2-7.45,4.25-9.35,2.95-.76,1.59-2.69,1.11-4.4A3.85,3.85,0,0,1,447.45,105.35Z"/><path id="Path_10497" data-name="Path 10497" class="cls-56" d="M548.13,52.18a38.71,38.71,0,0,0,3.9,3.89c10.8,8.07,13.2,19.65,6.39,30.86-1.92,3.15-4.47,4.55-8.1,3.75-.9-.2-1.73-.7-2.63-.87-17.25-3.15-20.41-.86-21.94,15.85-.24,2.69.33,5.85-2.94,7.12-3.49,1.35-6.39-.62-8.8-2.7-2.87-2.47-.14-5,.58-7.52,3.93-5.56.93-9.3-3.15-13S500.23,81.49,500.57,78c.49-5,2.87-10.34,3.05-15.9.15-4.82,5.65-7.46,5.36-12.53C522.08,49.71,535.28,48.3,548.13,52.18Z"/><path id="Path_10498" data-name="Path 10498" class="cls-57" d="M458.64,150.11v16.8a25.44,25.44,0,0,1-2.8,2.79h0c-3.78-.11-5.38,3.15-7.9,5-3.63,2.7-7.32,3.91-11-.16-1.82-2-4-4.66-7.05-2.77-5.7,3.54-11.07,6.36-17.69,1.83-1.49-1-3.16,1-3.84,2.9-2.1,6-6.87,3.46-8.61,1.1-7.4-10-17.8-7.74-27.69-7.93-3.67-.07-7.34,0-12.06,0,2.58-11.78-5.35-15.66-13.21-19.58.38-6.76-2.54-9.52-9.29-7.7-4.35,1.17-7.76,5.21-13,4.22-1.66-3.25,1.1-4.1,2.95-4.59,5.92-1.56,6.05-5.23,3.44-9.44-4.43-7.16.05-9.41,5.54-12.34,8.37-4.47,15.56-1.85,23,2,2.23,1.17,1.67,2.24,1.24,4.24-2,9.37-1.65,9.7,7.84,9.48,1.8,0,3.76,0,5.11-3.08-4.24-8.22-7.71-16.88-19.28-20.38-9.83-3-20.5-5.69-30.57-5-9.7.69-19.27-1.15-27.18-7.75-9.28-7.74-9.13-7.52.82-14.69,5.59-4,10.59-8.9,15.86-13.38,4.87,3.88-.22,10.84,4.87,15.17,6.35-7-1.24-12.15-2.08-18-2.54-8.3-2.54-8.3-11.18-2.79-2.5-5-4.26-7.16-9.38-10.84,6.53,0,12.19-1.26,16.95.27,9.53,3.06,18,2.84,26-3.42-2.87,5.12-3,11.79-9.22,15.05-2.14,1.12-2,4-.72,6.27s3.57,3.93,5.72,2.76c9.72-5.26,18.31,6.06,28,1.63,1.67-.77,3.36,1.11,4,3.08,2.46,7.87,7,9.48,13.48,4.28,4.08-3.25,7.88-1.76,11.63.4,6.18,3.55,12.11,5.48,19.71,3.29,6.71-1.94,13.33-.12,19.15,5.4,4.88,4.63,11.53,7.41,17.4,11v2.8c1.56,1.87,1.8,3.73,0,5.6-3,2.11-7.75,3.64-2.8,8.4-2.68,9.1-9.81,8.3-14.64,4.18-8.13-6.92-15.7-7.93-25.32-4.1-6.49,2.58-13.29-2.35-20.32-2.07.14,6.22,4.47,8.84,7.56,11.95,6.71,6.78,11.13,12.83-4.65,17.33,11.63,3.61,21.41,6,29.72,6,9.76,0,16-10.94,21.33-19.52,2.32-3.72,2.43-9.47,9.12-8.17h0c.91,1,1.84,1.88,2.78,2.79h0c.93.92,1.77,1.94,2.78,2.79,1.87,1.86,3.73,3.73,5.61,5.61a6.83,6.83,0,0,1,0,8.37h0c-.71.63-.94,1.25-.7,1.87S458.41,150.11,458.64,150.11Z"/><path id="Path_10499" data-name="Path 10499" class="cls-58" d="M330,189.28c-18.5-4.44-35.34-15.33-55.33-14.12-4.58.28-10-2.54-8.12-6.8,2.2-5-3.77-13.84,5.69-15,7.55-1,14-4.76,21-6.87,9.16-2.74,15.1-1.3,20,6.45,5.44,5.48,13,8.56,17.2,15.52,1.42,2.34,4.16,3.3,7,4C347.79,175,347.7,175.09,348,185.9c.05,1.75,1.16,3.51-1.44,5.62C341.41,192,335.94,188.07,330,189.28Z"/><path id="Path_10500" data-name="Path 10500" class="cls-59" d="M399.9,211.68c.3-2.27-.21-5.19,1-6.69,6.15-7.55,15.55-11.43,21.62-19.5,2.55-3.4,8.83-3.2,11.36,2.55,2.08,4.73-.3,8.81-4.56,9.94-9.22,2.44-16.61,6.6-21.89,14.87C405.76,215.48,402.42,212.49,399.9,211.68Z"/><path id="Path_10501" data-name="Path 10501" class="cls-60" d="M100.61,222.86c-2-3.25-5.31-2.7-8.38-2.8-4.09-4.53-9-7.26-15.85-6.94,0-5.9,5-7.86,7.44-11.39,4.94-7,3.64-10.57-5.58-15.24-.17-10.17,1.52-11.2,13.7-8.34,3.35,1.57,7.27,2.72,9.67,5.39,8.48,9.42,17.32,13.38,28.84,4.84a6.21,6.21,0,0,1,8.74.93l.09.12c1.94,2.56-.48,4.07-2.3,5.47-4.38,5.22-9.87,9.87-12.9,15.78C117.33,223.82,114.42,225.88,100.61,222.86Z"/><path id="Path_10502" data-name="Path 10502" class="cls-61" d="M137,194.89c.71-2.51,2.35-6.24-2.49-5-3.82.94-7,4.15-10.7,5.86-7.88,3.64-12.4,3-17.58-4.17-3.76-5.23-10.47-5.68-14-10.65l1.3-1.44c5.36-2.67,12.08-3.44,15.52.74,7.75,9.44,13.81,4.47,20.51-.42,6.62-3.95,13.3-7.61,21.39-4.48l2.81,2.8C149.92,185.45,146.31,193,137,194.89Z"/><path id="Path_10503" data-name="Path 10503" class="cls-61" d="M92.22,180.9c-10.82-2.57-10.82-2.57-14,5.59-5.55-6.71-17.6-7.35-17.66-19.35,0-2.37-3.33-2.75-5.61-3.18-4.35-.83-7.29-4.75-6.64-7.82,2.35-11.17-6.21-15.68-12.24-21.29-6.35-5.91-9.23-12.27-8.25-20.86.71-6.26,3.33-7.73,9.28-6,11.31,3.2,17.12,10.13,16.64,21.4-.1,2.45-.51,4.87,2,5.91,3,1.21,5.53-.18,7-2.83a17.31,17.31,0,0,0,1.51-5.27c1.27-6.52,5-3.4,8.33-2.22a5.2,5.2,0,0,1,1,3.59,41.68,41.68,0,0,0-3,27.65c.28,1,.56,2.06.92,3a28.6,28.6,0,0,0,1.57,2.52c.35.33.67.7,1,1A20.63,20.63,0,0,0,77.92,165c.94.35,1.85.76,2.78,1.14,1.47.49,2.93,1,4.37,1.56a9.21,9.21,0,0,1,2.65,1.8,40.88,40.88,0,0,1,2.86,4,21,21,0,0,1,1.76,2.81c.68,1.57,1.18,3.14-.12,4.65Z"/><path id="Path_10504" data-name="Path 10504" class="cls-30" d="M72.64,127.73v-2.79c.81-5-2.5-9.2-2.8-14,4.18,2,8.06,3.8,8.67,9.61.87,8.21,9.57,13.32,9.41,22.41,0,2.7,3.56,4,6.49,4.16,3.67.16,7.36,0,12.54,0-1.89,6.33-6.44,13,1.13,17.07,5.28,2.87,9.2,10,17,6.27,7.76,6.33,18.22-2,25.9,4.8-7.2,1.2-15,.92-19.56,8.37-7.88,1.35-16.5,7-21.95-4.58-1.12-2.38-4.48-3.15-7.39-1.25-5,3.28-8.74-.08-12.62-2.55h0c-1.61-1.53-1.1-4.11-2.8-5.6-2.24-2.62-6.11-.32-8.39-2.8-1.49-1.7-4.07-1.19-5.6-2.8-.91-.95-1.84-1.88-2.8-2.79h0C65.31,149.66,73.61,139.08,72.64,127.73Z"/><path id="Path_10505" data-name="Path 10505" class="cls-62" d="M243.26,74.57c7.69-6.79,14.83,1.46,22.39,1.06,2.74-.15,3.25,4.46,2.34,7.07-1.76,5,.23,8.58,4.36,10.34,11.61,5,13.13,14.54,11.76,25.12-.52,4.09-.23,6.27,4.05,6.82,3.2.4,5,2.18,5.36,5.38.46,4.36,2.78,5.36,6.76,4.16a2.75,2.75,0,0,1,3.86,2.64c.23,3-1.76,4.08-4.26,4.38A14.39,14.39,0,0,1,289.36,139c-6.8-4.78-14.59-8-20.3-14.53-4.25-4.88-4.77-4.43-16.44-2.55,10.45,2.75,12.6,11.48,20,14.37,4.66,1.83,5.37,5.76,2.71,8.88-3,3.52-9.07,3.77-11,.06-3.9-7.58-9.33-12.41-16.07-17.4-3.6-2.68-11.24-8.46-5.88-17.49,2.35-4-3.3-8.22-8.75-7.43-1.43.21-3.57,1.28-3,2.19,3.93,5.9-.25,11-.88,16.54a6.52,6.52,0,0,0,4.55,6.51c10.26,2.22,12.73,12.83,20.06,18.39-14.9-3.46-32.08-2.24-39.27-20.66a12,12,0,0,0-2.9-4.62c-1.77-1.57-4.2-2.38-6.25-.4-1.64,1.59-.62,3.33.45,4.92,1.56,2.31,3,4.69,4.54,7,2,3,5.5,5.74,2.89,9.87-1.76,2.77-12.16,3.25-14.09-.18-6.77-12-21.33-14.21-29.26-25.36-.21,8.83,4.28,16.13,12.47,20.78,2.38,1.35,5.37,1.77,7.55,3.35,6.91,5,6.87,13.08,0,18.35-2.19,1.68-4.76,2.76-6.39,5.24-4.19,6.42-8.85,5.59-13.73.67a35.22,35.22,0,0,0-6.25-5.51c-2.38-1.47-5.61-2.53-5.81,2.12-.27,6.13-4.57,4.62-8,4.56a4.53,4.53,0,0,1-4.7-4.24c-.54-4.26-.67-8.58,3.75-11.1,2.39-1.36,5.32-1.85,7.53-3.41s5.05-2.45,6.22-6.32c-6.41-3.69-17.19-2.72-17.81-13.83-3.63-8.36-5.17-16.23,5-21.37,3.59-1.78,9.83-.5,7.84-8.28-1.22-4.8,2.24-7.9,6.9-8.57,4.89-.72,8.25,2.3,9.23,6.63,3.24,14.33,9.7,7.3,14.55,1.89,6.76-7.55,13.57-10.48,23-5,3.8,2.21,8.35,2.31,11.55-1.21,5.8-6.41,13-5.91,21.35-4.74C242.59,82.72,239.38,78.82,243.26,74.57Z"/><path id="Path_10506" data-name="Path 10506" class="cls-63" d="M243.26,74.57c-2.43,7.26,6.4,8.41,7.68,13.73-2.77,2.4-6.57,3.31-9.1,2.5-7.55-2.41-12.7-2.06-17.33,5.77-3.88,6.59-11.12,2.09-15-.43-7.7-5.08-12.15-4-17,3.41-2.43,3.73-6.58,6.53-10.38,9.12-6,4.11-9.95,1.69-10.25-6,0-.89.67-1.84.55-2.69-.54-3.81-1.67-7.54-6.11-8.15a6.25,6.25,0,0,0-4.8,2.16c-3.44,4.45.56,6.47,3.29,8.9.49.44.35,1.59.53,2.58-4.13,4.39-9.58,2-14.43,2.64-8.51-5.54-15.86-12.5-23.36-19.26-3.37-3.05-7.54-6-6.18-11.45,1.65-6.6,7.59-3.3,11.59-4.5a21.64,21.64,0,0,1,6.76-1.18c2.29.13,5-.41,6.57,1.48,2.54,3,3.67,8.53,9.07,6.3,4.6-1.9,7.83-6,10.33-10.4.62-1.07-.13-2.86.37-4.05,2.06-4.89,6.37-4.68,10.63-4.23s4.88,3.6,4.94,7.07c0,2.32.08,4.64.07,7,0,5.81,1.88,9.12,8.39,6.64,5-1.91,9.86-.25,14.88.06C218.17,82.43,231.61,82.76,243.26,74.57Z"/><path id="Path_10507" data-name="Path 10507" class="cls-64" d="M139.77,71.77c-2.23,3.13-5.59,2.68-8.8,2.84-2.67.14-5.83-.43-7.08,2.88-1.31,3.46,1.5,4.84,3.71,6.46,5.93,4.36,10.1,10.73,16.86,14.24,3.75,2,6.45,5.27,6.49,10-4.3,3.7-7.43,7.75-4.27,13.78a4.13,4.13,0,0,1-1.18,5.71l-.14.09c-5,1.36-6,10.35-11.93,7.93-7.64-3.1-16.89,3.75-23.4-4.55-1.4-1.8-4-3.14-3.53-5.56,2.53-13.46-1.23-26.83-.26-40.23.46-6.3,9.15-16.09,14.88-14.94,6.31,1.27,11.6,1,17-2.09Z"/><path id="Path_10508" data-name="Path 10508" class="cls-53" d="M316,69c7.84,2.3,9.26,8.16,8.38,15.25-.47,3.79,1.45,9.22-5.13,9.25-4.63,0-9.11-5.93-8.14-10.91.7-3.59,2.39-7,2.09-10.78Z"/><path id="Path_10509" data-name="Path 10509" class="cls-65" d="M688,208.84c-2.81,2.2-5.45,4.7-8.47,6.55-6.12,3.74-8.79,2.08-11.14-6.52l0-2.8c3.4-4.17-.49-9.78,2.76-14,4.69-5.72,4.15-12.94,5.62-19.58,2.16-10.27,12.74-14.35,16.89-23.13,4.95-17.62,8.52-19.85,25.8-16.16,2.4,4.39,1.82,8.82-3,10-12.72,3.11-8.74,8.56-2.74,14.73.51,1.76.48,4.13-1,4.69-7.75,3,1.58,2.86.72,4.47-6,3.33-12.68,5.75-16.22,12.26-1.77,3.24-4.44,4.33-8,4.44-7.92.26-7.64,5.36-5.58,10.67C685.5,199.19,688.82,203.36,688,208.84Z"/><path id="Path_10510" data-name="Path 10510" class="cls-66" d="M713.44,167.12c-2.1-.43-4.49.41-6.27-1.43l6-7.18a4.89,4.89,0,0,1,6-.4,4.78,4.78,0,0,1-.4,6A6.33,6.33,0,0,1,713.44,167.12Z"/><path id="Path_10511" data-name="Path 10511" class="cls-67" d="M718.81,164.12l-.15-5.57c0-4.65,2.42-4.62,5.68-2.87,0,1.87,0,3.73,0,5.59Z"/><path id="Path_10512" data-name="Path 10512" class="cls-65" d="M688.19,214.55c-.05-1.9-.1-3.79-.16-5.67C690.71,210.69,690.78,212.58,688.19,214.55Z"/><path id="Path_10513" data-name="Path 10513" class="cls-68" d="M724.34,155.68c-2.34.07-4.42.65-5.68,2.87l-5.48,0a10.63,10.63,0,0,1-7.41-3.3c-2.37-2.42-4.54-5.1-3-8.57s3.59-7,8.2-5.8c7.07,1.87,8-2.1,7.8-7.48-2.54-2.07-4.4-4.52-4.46-8a5.54,5.54,0,0,1,1.7-3.26c1.68-2.92,2.35-6.55,5.76-8.27-1.43,9.48,1.25,18.48,4,27.27C727.37,146.51,727.29,151.06,724.34,155.68Z"/><path id="Path_10514" data-name="Path 10514" class="cls-69" d="M609.69,150.13c-5.77-.09-11.59-.56-16.77,2.82-5-.15-10.43.93-11.94-6.31-.72-3.44-4.64-4.24-7-6.3-3.35-2.86-7.85-5.11-7.82-11.94,14.28,4.69,27.66-4.38,41.74-.75,2.66.69,5.56.3,7.42,2.89v2.8a10.22,10.22,0,0,0,0,11.18h0C617.51,150.48,615.67,152.37,609.69,150.13Z"/><path id="Path_10515" data-name="Path 10515" class="cls-70" d="M716,122.13v2.8c-2.52,4.22-7,5.49-11,7.65-6.84,3.68-10.5,9.36-8.59,17.54-.11,2.8-.79,5.67-3.17,7.11-6.58,4-10.65,10.5-16.41,15.27-.39-2.57-.34-7.95-2.32-6.86-8.56,4.72-11-2.59-15.2-6.44-4.76-4.38-10.1-4.31-15.56-2.16-4.72,1.86-9.06,4.84-14.48,4.26,7-7.26,14.15-14.12,15.69-25.1.77-5.53,5.26-10.17,10.26-12.58,12.62-6.11,19.86-15.77,21.66-29.52.62-4.81,2.83-8.2,7.74-8.1,11.93.25,17.36-6.71,20.18-17,4.08-.45,7.71.87,11.19,2.79.26,3.2.36,6.43.81,9.61,1.24,8.82.44,10.27-7.55,12.75-5.12,1.59-13.31,11.47-12.29,15.86,1.45,6.25,5.88,10.29,12.13,11.87C711.26,122.43,713.67,122.07,716,122.13Z"/><path id="Path_10516" data-name="Path 10516" class="cls-71" d="M618.1,239.36c-6.78-16-8.15-16.49-25.22-13.93a49.92,49.92,0,0,0-13.21,3.94,50.84,50.84,0,0,1-9.24,3c-2.57.59-4.45-1.08-5.68-3.14-1.9-3.2,1.13-3.79,2.92-4.9,2.37-1.46,4.83-2.67,5.74-5.7,1.25-4.2,4.2-4.05,7.77-3,7,2,11.81-1.09,14.22-7.52,1.18-3.13,4.07-5.6,4.48-8.5,2.74-19.5,21.22-19.21,33.39-26.4a12,12,0,0,1,16.06,4.56c2.64,4.38,4.58,8.26,10.36,9.95,4.4,1.28,4.88,15.29.84,21.65-4.82,7.59-8.7,15.64-19.41,18.19C633,229.45,625.77,235.26,618.1,239.36Z"/><path id="Path_10517" data-name="Path 10517" class="cls-50" d="M671.2,192.09c-.63,4.72,1.85,10-2.76,14C669.07,201.35,666.59,196,671.2,192.09Z"/><path id="Path_10518" data-name="Path 10518" class="cls-29" d="M464.24,172.51l5.58,2.79c2.81,6.77-1.74,10.88-5.4,15.43-4.1,5.1-4.53,9.69,2.61,12.56-3.5,5.27-7.46,10.09-4.11,17.37,3.45,7.46-3.67,11.22-7.07,16.19-1.87-4.67-3.57-9.43-5.66-14-1.62-3.52-2.95-6.74.23-10.1.92-1,2.22-2.57,2-3.5-3.17-11.5,4.5-20.73,6.26-31.16h0C462.26,178,464.12,176.12,464.24,172.51Z"/><path id="Path_10519" data-name="Path 10519" class="cls-29" d="M455.85,169.7c.93-.93,1.86-1.87,2.8-2.79v2.8Z"/><path id="Path_10520" data-name="Path 10520" class="cls-29" d="M458.64,178.1c-.38-.21-1.11-.5-1.08-.62C457.76,176.57,458.18,176.79,458.64,178.1Z"/><path id="Path_10521" data-name="Path 10521" class="cls-72" d="M520.17,217.28c-.79-1.09-2.49-2.51-2.23-3.21,2.67-7.14,5.28-14.34,8.64-21.16,3.6-7.32,10.41-3.37,16-3.62-3.66,6.16-1.33,11.56,2.65,16.28,2.55,3,7.76,4.77,1.86,9.4-4.91,3.86-11.2,4.06-14.67.1-2.07-2.37.41-8.82-5.56-7.35C522.65,208.76,520.38,212.67,520.17,217.28Z"/><path id="Path_10522" data-name="Path 10522" class="cls-73" d="M620.88,102.55c-2.17-3.94-10.1-4.38-6.73-11.76,2.5-5.49,8.73-10.55,14.08-9.3,6.71,1.57,3.16,7.57,3.75,11.64,1.26,8.73-4.3,9.93-11.1,9.42Z"/><path id="Path_10523" data-name="Path 10523" class="cls-39" d="M548.16,180.89a23.64,23.64,0,0,0-.37-2.66c-.83-3.3-3.79-7.36.84-9.45,5.9-2.67,5.56,3.92,7.91,6.51Z"/><path id="Path_10524" data-name="Path 10524" class="cls-39" d="M609.69,150.13c3.61-.12,5.48-2,5.59-5.6,2.6,1.62,6.55,3.46,3.65,6.84C616.39,154.33,612.42,153.43,609.69,150.13Z"/><path id="Path_10525" data-name="Path 10525" class="cls-39" d="M567.73,175.32l8.39-2.81c-.2,2.78-.52,5.85-3.6,6.64C570,179.81,568.71,177.4,567.73,175.32Z"/><path id="Path_10526" data-name="Path 10526" class="cls-46" d="M587.25,259.23c-3.92,4.6-9.17,2.18-13.88,2.62C577.34,257.5,582.58,259.86,587.25,259.23Z"/><path id="Path_10527" data-name="Path 10527" class="cls-39" d="M615.28,144.52q-5.91-5.6,0-11.19Z"/><path id="Path_10528" data-name="Path 10528" class="cls-39" d="M576.13,172.5l2.79-2.78Z"/><path id="Path_10529" data-name="Path 10529" class="cls-39" d="M545.37,186.48l2.77-2.78Z"/><path id="Path_10530" data-name="Path 10530" class="cls-72" d="M542.56,189.29l2.8-2.8Z"/><path id="Path_10531" data-name="Path 10531" class="cls-74" d="M467,203.29c-2.63-1-6.83,3.66-7.95-1.4-.87-4-4.22-9.28,1.11-12.4,5.71-3.33,7.22-8.93,9.63-14.2,4.28.18,8.19-.45,10.72-4.54,3.82-6.19,9.17-6.75,15.35-4,6.87,3.1,14.17,3.12,21.49,2.9.69,2.15,3,4.36,1.74,6.44A38.37,38.37,0,0,0,514,191.54c-.72,5.2-5.19,10.28-9.89,10.32s-11.2.87-14.22-4.92a.56.56,0,0,0-.7-.27c-.74.28-.81.17-4.93,1.81-3.94,1.57-5.85-2.52-8.4,2,.29,2.19,1.78,4.35-.66,6.5C471.44,208.42,470.1,203.8,467,203.29Z"/><path id="Path_10532" data-name="Path 10532" class="cls-75" d="M542.57,141.72v5.6c1.62,1.87,1.54,3.74,0,5.6h0c-5.15,2-7.49,8.65-14,8.38-1.47-1-3.22-1.84-4.35-3.17-3.75-4.38-5.82-15.5-3.12-19,4-5.23,10-2.64,15.17-2.61,2.1,0,4.19,1.55,6.29,2.4a1.77,1.77,0,0,1,.64,1.86C543,141.41,542.78,141.72,542.57,141.72Z"/><path id="Path_10533" data-name="Path 10533" class="cls-52" d="M447.45,127.73c-.78.49-2.24,1-2.26,1.48C444.6,142,432,146.58,426.75,156.3c-3.08,5.79-8.25,6.19-14.47,2-3.4-2.27-6.83-2.56-10.57-2.64-4.16-.08-8.49.74-12.38-1.27-3.12-1.6-8.12-2.26-7.34-7,.72-4.42,5.3-2.38,8.24-2.91,1.79-.32,3.7-.13,5.63-2.88-4.77-4.89-9.65-10.13-14.8-15.08-3.1-3-4.5-6.18-1.7-9.77s6.21-3.2,9.92-.94c8.17,5,16.45,6.54,24-1.07,2.29-2.32,3.85-1.62,5.87-.16,3,2.18,6.57,3.83,8.94,6.55,5.44,6.24,10.72,6.37,16.59,1C446.89,123.35,447.4,125.43,447.45,127.73Z"/><path id="Path_10534" data-name="Path 10534" class="cls-52" d="M447.45,113.74v-5.6a15,15,0,0,1,3.43,2.26c1.31,1.49,4.7,2.88,2.21,5.26C451.23,117.43,448.85,115.9,447.45,113.74Z"/><path id="Path_10535" data-name="Path 10535" class="cls-52" d="M458.64,147.31v-8.38Q464,143.13,458.64,147.31Z"/><path id="Path_10536" data-name="Path 10536" class="cls-51" d="M542.56,152.92c0-1.87,0-3.74,0-5.6Q546.8,150.13,542.56,152.92Z"/><path id="Path_10537" data-name="Path 10537" class="cls-52" d="M450.24,130.53l-2.79-2.79Z"/><path id="Path_10538" data-name="Path 10538" class="cls-52" d="M453,133.33l-2.78-2.79Z"/><path id="Path_10539" data-name="Path 10539" class="cls-51" d="M542.57,141.72c0-.93,0-1.87,0-2.8,1.09.39,1.51,1.09,1.06,2C543.44,141.26,542.93,141.45,542.57,141.72Z"/><path id="Path_10540" data-name="Path 10540" class="cls-52" d="M458.64,150.11c-1.09-.39-1.51-1.08-1.07-2,.18-.36.7-.55,1.06-.82C458.64,148.26,458.64,149.19,458.64,150.11Z"/><path id="Path_10541" data-name="Path 10541" class="cls-33" d="M302.41,157.5c.18-1.88.8-3.11,2.23-3.14,2.4,0,2.63,1.8,2.32,3.58-.23,1.31-1.09,2.66-2.61,2C303.41,159.48,302.89,158.13,302.41,157.5Z"/><path id="Path_10542" data-name="Path 10542" class="cls-32" d="M89.42,175.3c4.26-.14,9.88,5.4,12.14-3.21.54-2.05,3.18-1.65,4.69-.45,2.15,1.72,5.08,3.47,5.8,5.79,2.37,7.7,7.72,7.35,13.8,6.32a33,33,0,0,1,5.53-.06c-5.09,3.64-12.4,3.74-16.53,14-2.45-16.79-11.75-18.23-22.63-16.78Z"/><path id="Path_10543" data-name="Path 10543" class="cls-32" d="M72.64,127.73c4.35,2.26,6.09,4.77,3,9.84-4.35,7.15-5.91,15.33-5.8,23.74C65.13,149.64,63.28,138.22,72.64,127.73Z"/><path id="Path_10544" data-name="Path 10544" class="cls-32" d="M78.23,166.91c3.08.09,6.37-.47,8.39,2.8C83.54,169.61,80.26,170.16,78.23,166.91Z"/><path id="Path_10545" data-name="Path 10545" class="cls-32" d="M86.62,169.7c2.23,1.22,2.74,3.3,2.8,5.6C87.19,174.08,86.68,172,86.62,169.7Z"/><path id="Path_10546" data-name="Path 10546" class="cls-32" d="M72.64,164.11c2.3.06,4.38.57,5.6,2.8C75.93,166.85,73.86,166.34,72.64,164.11Z"/><path id="Path_10547" data-name="Path 10547" class="cls-32" d="M69.84,161.31l2.8,2.8Z"/><path id="Path_10548" data-name="Path 10548" class="cls-41" d="M696.4,150.12c-3.59-5.48-3.2-10.34,2.05-14.65S708.9,126.4,716,124.94c1.16,2.73,3,5.25,2.76,8.42a10,10,0,0,1-2.56,1.11C698.71,136.76,702.12,133.67,696.4,150.12Z"/><path id="Path_10549" data-name="Path 10549" class="cls-76" d="M636.32,197.72c7.54.05,11.86,1.23,12.07,7.4s-4.62,14-8.6,14.48c-4.8.58-9.9-5.95-9.55-13.07C630.48,201.5,632.82,197.65,636.32,197.72Z"/></g></svg>
