<svg id="Layer_1" data-name="Layer 1" xmlns="http://www.w3.org/2000/svg" viewBox="0 0 396.85 311.81"><defs><style>.cls-1{isolation:isolate;}.cls-2{fill:none;stroke:#717070;}</style></defs><title>04_animation</title><g id="Grundlæggende_animation" data-name="Grundlæggende animation" class="cls-1"><g class="cls-1"><path d="M25.38,228.23a18.69,18.69,0,0,1-7.15-1.35,17.05,17.05,0,0,1-9.5-9.5,19.61,19.61,0,0,1,0-14.3,17,17,0,0,1,9.5-9.5,18.69,18.69,0,0,1,7.15-1.35,21.17,21.17,0,0,1,5.12.62,15.1,15.1,0,0,1,4.43,1.88,1.67,1.67,0,0,1,.52.58,1.35,1.35,0,0,1,.18.67,1.45,1.45,0,0,1-.45,1.12,1.36,1.36,0,0,1-1,.43,1.51,1.51,0,0,1-.48-.08,1.94,1.94,0,0,1-.42-.17,17.07,17.07,0,0,0-3.7-1.5,15.87,15.87,0,0,0-4.25-.55,14.91,14.91,0,0,0-7.65,2,13.84,13.84,0,0,0-5.25,5.35,16.55,16.55,0,0,0,0,15.4,13.84,13.84,0,0,0,5.25,5.35,14.91,14.91,0,0,0,7.65,1.95,16.46,16.46,0,0,0,4.52-.65,13.92,13.92,0,0,0,3.93-1.75l-.25,1v-11.5l.75.7H25.68a1.49,1.49,0,0,1-1.1-.45,1.44,1.44,0,0,1-.45-1,1.4,1.4,0,0,1,.45-1.1,1.57,1.57,0,0,1,1.1-.4h9.55a1.45,1.45,0,0,1,1.5,1.5v12a1.5,1.5,0,0,1-.2.75,2.09,2.09,0,0,1-.55.6,18.91,18.91,0,0,1-4.93,2.37A18.22,18.22,0,0,1,25.38,228.23Z"/><path d="M45.18,227.73a1.38,1.38,0,0,1-1.1-.45,1.52,1.52,0,0,1-.4-1.05v-22.4a1.49,1.49,0,0,1,.42-1.05,1.51,1.51,0,0,1,2.15,0,1.5,1.5,0,0,1,.43,1.05v7.5l-.75.15a11.74,11.74,0,0,1,2.85-6.65,9.87,9.87,0,0,1,3-2.35,8.25,8.25,0,0,1,3.88-.9,4.3,4.3,0,0,1,1.75.37,1.28,1.28,0,0,1,.85,1.23,1.59,1.59,0,0,1-.4,1.15,1.3,1.3,0,0,1-.95.4,2.26,2.26,0,0,1-1-.25,3.17,3.17,0,0,0-1.37-.25,5.36,5.36,0,0,0-2.8.83,9.31,9.31,0,0,0-2.55,2.22,11.24,11.24,0,0,0-1.83,3.13,9.42,9.42,0,0,0-.67,3.47v12.35a1.54,1.54,0,0,1-1.5,1.5Z"/><path d="M82,202.33a1.4,1.4,0,0,1,1.07.45,1.5,1.5,0,0,1,.43,1.05v14.1c0,3.3-.94,5.82-2.8,7.55a10.69,10.69,0,0,1-7.55,2.6,10.51,10.51,0,0,1-7.48-2.6q-2.78-2.59-2.77-7.55v-14.1a1.49,1.49,0,0,1,.42-1.05,1.51,1.51,0,0,1,2.15,0,1.5,1.5,0,0,1,.43,1.05v14.1a6.61,6.61,0,0,0,7.25,7.35,7.47,7.47,0,0,0,5.4-1.87,7.26,7.26,0,0,0,2-5.48v-14.1a1.52,1.52,0,0,1,.4-1.05A1.38,1.38,0,0,1,82,202.33Z"/><path d="M103.43,201.58a9.27,9.27,0,0,1,5.27,1.33,7.39,7.39,0,0,1,2.85,3.59,14,14,0,0,1,.88,5v14.7a1.54,1.54,0,0,1-1.5,1.5,1.38,1.38,0,0,1-1.1-.45,1.52,1.52,0,0,1-.4-1.05V211.68a10,10,0,0,0-.65-3.65,5.71,5.71,0,0,0-2.13-2.65,6.73,6.73,0,0,0-3.87-1,8.67,8.67,0,0,0-4.08,1A8.87,8.87,0,0,0,95.58,208a6.07,6.07,0,0,0-1.2,3.65v14.55a1.54,1.54,0,0,1-1.5,1.5,1.38,1.38,0,0,1-1.1-.45,1.52,1.52,0,0,1-.4-1.05v-22.4a1.49,1.49,0,0,1,.42-1.05,1.51,1.51,0,0,1,2.15,0,1.5,1.5,0,0,1,.43,1.05V208l-1.15,1.8a6.4,6.4,0,0,1,1-3.08,11,11,0,0,1,2.38-2.65,11.69,11.69,0,0,1,3.22-1.85A10.22,10.22,0,0,1,103.43,201.58Z"/><path d="M141,190.73a1.42,1.42,0,0,1,1.07.43,1.46,1.46,0,0,1,.43,1.07v34a1.54,1.54,0,0,1-1.5,1.5,1.38,1.38,0,0,1-1.1-.45,1.52,1.52,0,0,1-.4-1.05v-5.95l.85-.7a6.6,6.6,0,0,1-.75,2.92,9.89,9.89,0,0,1-2.13,2.83,11,11,0,0,1-3.2,2.1,9.85,9.85,0,0,1-4,.8,10.66,10.66,0,0,1-6-1.75,12.31,12.31,0,0,1-4.22-4.75,15.85,15.85,0,0,1,0-13.67,12,12,0,0,1,4.2-4.75,10.66,10.66,0,0,1,6-1.73,10.44,10.44,0,0,1,3.95.75,10.83,10.83,0,0,1,3.27,2,10.06,10.06,0,0,1,2.25,3,7.81,7.81,0,0,1,.83,3.48l-1.05-.75V192.23a1.52,1.52,0,0,1,.4-1A1.38,1.38,0,0,1,141,190.73Zm-10.4,34.7a8.31,8.31,0,0,0,4.7-1.37,9.52,9.52,0,0,0,3.22-3.75,12.17,12.17,0,0,0,1.18-5.43,12,12,0,0,0-1.18-5.38,9.52,9.52,0,0,0-3.22-3.75,8.71,8.71,0,0,0-9.38,0,9.43,9.43,0,0,0-3.25,3.75,13,13,0,0,0,0,10.78,9.39,9.39,0,0,0,3.25,3.78A8.32,8.32,0,0,0,130.63,225.43Z"/><path d="M153.67,226.23a1.54,1.54,0,0,1-1.5,1.5,1.4,1.4,0,0,1-1.07-.45,1.5,1.5,0,0,1-.43-1.05v-34a1.54,1.54,0,0,1,1.5-1.5,1.41,1.41,0,0,1,1.08.45,1.49,1.49,0,0,1,.42,1Z"/><path d="M168.22,228.23a9.12,9.12,0,0,1-3.72-.82,7.76,7.76,0,0,1-3.05-2.5,7,7,0,0,1-1.23-4.23,7.19,7.19,0,0,1,3.23-6.15q3.23-2.29,9.62-2.3h24.8l-.6.6v-1a7.24,7.24,0,0,0-1.5-4,8.4,8.4,0,0,0-3.15-2.5,9,9,0,0,0-3.85-.85,8.58,8.58,0,0,0-3.07.6,8.06,8.06,0,0,0-2.85,1.87,9.93,9.93,0,0,0-2.08,3.25,12.52,12.52,0,0,0-.8,4.68,11.78,11.78,0,0,0,1.2,5.35,9.18,9.18,0,0,0,3.48,3.8,10.17,10.17,0,0,0,5.42,1.4,9.38,9.38,0,0,0,3.15-.5,8.23,8.23,0,0,0,2.45-1.33,9.54,9.54,0,0,0,1.75-1.72,1.76,1.76,0,0,1,1.1-.45,1.15,1.15,0,0,1,.88.4,1.29,1.29,0,0,1,.37.9,1.35,1.35,0,0,1-.5,1.05,13.6,13.6,0,0,1-3.9,3.13,10.71,10.71,0,0,1-5.25,1.32,13.72,13.72,0,0,1-6.8-1.65,11.76,11.76,0,0,1-4.6-4.6,13.92,13.92,0,0,1-1.65-6.9,14.64,14.64,0,0,1,1.68-7.25,12.38,12.38,0,0,1,4.35-4.63,10.75,10.75,0,0,1,5.67-1.62,12.27,12.27,0,0,1,4.28.77,11,11,0,0,1,3.7,2.31,11.26,11.26,0,0,1,2.6,3.72,13.57,13.57,0,0,1,1.07,5.1,1.51,1.51,0,0,1-.5,1,1.46,1.46,0,0,1-1,.43H173a17.84,17.84,0,0,0-5.42.7,7.14,7.14,0,0,0-3.28,2,4.38,4.38,0,0,0-1.1,2.93,4.57,4.57,0,0,0,.8,2.75,4.92,4.92,0,0,0,2,1.63,6.11,6.11,0,0,0,2.4.52,9,9,0,0,0,4.13-1,13.4,13.4,0,0,0,3.35-2.35,9,9,0,0,0,2-2.52l1.5,2.2a16.73,16.73,0,0,1-2.37,2.8,14.33,14.33,0,0,1-3.7,2.58A11.41,11.41,0,0,1,168.22,228.23Zm3-26.65a14.85,14.85,0,0,1,3.25.35,8.81,8.81,0,0,1,2.8,1.13,5.47,5.47,0,0,1,2,2.07,6.53,6.53,0,0,1,.72,3.2v6.6l-2.8.15v-5.6a4.84,4.84,0,0,0-.92-3.23,4.77,4.77,0,0,0-2.3-1.47,9.65,9.65,0,0,0-2.73-.4A8.42,8.42,0,0,0,168,205a11.94,11.94,0,0,0-2.8,1.63,9.46,9.46,0,0,0-2,2.07,1.5,1.5,0,0,1-1.2.6,1.3,1.3,0,0,1-.9-.38,1.23,1.23,0,0,1-.4-.92,1.65,1.65,0,0,1,.08-.45,1.54,1.54,0,0,1,.27-.5,16,16,0,0,1,2.6-2.6,14.5,14.5,0,0,1,3.5-2.07A10.26,10.26,0,0,1,171.22,201.58Z"/><path d="M217,201.58a10.84,10.84,0,0,1,4.1.77,12.24,12.24,0,0,1,3.33,2,10.36,10.36,0,0,1,2.22,2.6,5.21,5.21,0,0,1,.8,2.63l-.8-1.2v-4.65a1.57,1.57,0,0,1,.43-1.1,1.51,1.51,0,0,1,2.15,0,1.56,1.56,0,0,1,.42,1.1v21.65a12.89,12.89,0,0,1-1.65,6.75,10.91,10.91,0,0,1-4.47,4.18,14.21,14.21,0,0,1-6.43,1.42,16.13,16.13,0,0,1-3.67-.45,14.59,14.59,0,0,1-3.3-1.15c-.92-.47-1.44-.95-1.58-1.45a1.29,1.29,0,0,1-.32-.87,1,1,0,0,1,.42-.73.93.93,0,0,1,1-.08c.38.19.94.43,1.67.73l1.33.45a13.86,13.86,0,0,0,2.05.52,12.81,12.81,0,0,0,2.42.23,8.76,8.76,0,0,0,9.5-9.35v-4.8l.55.15a8.37,8.37,0,0,1-1.5,3.15,10,10,0,0,1-2.45,2.27,10.81,10.81,0,0,1-3,1.4,11,11,0,0,1-3.2.48,11.38,11.38,0,0,1-6.22-1.75,12.46,12.46,0,0,1-4.38-4.75,15.4,15.4,0,0,1,0-13.67,12.19,12.19,0,0,1,4.35-4.75A11.44,11.44,0,0,1,217,201.58Zm.3,2.8a9,9,0,0,0-4.87,1.37,9.55,9.55,0,0,0-3.4,3.75,12.42,12.42,0,0,0,0,10.78,9.51,9.51,0,0,0,3.4,3.78,9.45,9.45,0,0,0,9.77,0,9.44,9.44,0,0,0,3.4-3.73,12.59,12.59,0,0,0,0-10.94,9.32,9.32,0,0,0-3.4-3.71A9.15,9.15,0,0,0,217.32,204.38Z"/><path d="M248,201.58a10.84,10.84,0,0,1,4.1.77,12.24,12.24,0,0,1,3.33,2,10.36,10.36,0,0,1,2.22,2.6,5.21,5.21,0,0,1,.8,2.63l-.8-1.2v-4.65a1.57,1.57,0,0,1,.43-1.1,1.51,1.51,0,0,1,2.15,0,1.56,1.56,0,0,1,.42,1.1v21.65a12.89,12.89,0,0,1-1.65,6.75,10.91,10.91,0,0,1-4.47,4.18,14.21,14.21,0,0,1-6.43,1.42,16.13,16.13,0,0,1-3.67-.45,14.59,14.59,0,0,1-3.3-1.15c-.92-.47-1.44-.95-1.58-1.45a1.29,1.29,0,0,1-.32-.87,1,1,0,0,1,.42-.73.93.93,0,0,1,1-.08c.38.19.94.43,1.67.73l1.33.45a13.86,13.86,0,0,0,2.05.52,12.81,12.81,0,0,0,2.42.23,8.76,8.76,0,0,0,9.5-9.35v-4.8l.55.15a8.37,8.37,0,0,1-1.5,3.15,10,10,0,0,1-2.45,2.27,10.81,10.81,0,0,1-3,1.4,11,11,0,0,1-3.2.48,11.38,11.38,0,0,1-6.22-1.75,12.46,12.46,0,0,1-4.38-4.75,15.4,15.4,0,0,1,0-13.67,12.19,12.19,0,0,1,4.35-4.75A11.44,11.44,0,0,1,248,201.58Zm.3,2.8a9,9,0,0,0-4.87,1.37,9.55,9.55,0,0,0-3.4,3.75,12.42,12.42,0,0,0,0,10.78,9.51,9.51,0,0,0,3.4,3.78,9.45,9.45,0,0,0,9.77,0,9.44,9.44,0,0,0,3.4-3.73,12.59,12.59,0,0,0,0-10.94,9.32,9.32,0,0,0-3.4-3.71A9.15,9.15,0,0,0,248.32,204.38Z"/><path d="M278.92,228.23a13.72,13.72,0,0,1-6.8-1.65,11.76,11.76,0,0,1-4.6-4.6,13.92,13.92,0,0,1-1.65-6.9,14.64,14.64,0,0,1,1.68-7.25,12.38,12.38,0,0,1,4.35-4.63,10.75,10.75,0,0,1,5.67-1.62,12.27,12.27,0,0,1,4.28.77,10.67,10.67,0,0,1,3.67,2.31,11.56,11.56,0,0,1,2.6,3.72,12.67,12.67,0,0,1,1.05,5.1,1.34,1.34,0,0,1-.45,1,1.46,1.46,0,0,1-1.05.43H267.62l-.6-2.7h19.7l-.65.6v-1a7.52,7.52,0,0,0-1.55-4,8.46,8.46,0,0,0-3.12-2.5,8.92,8.92,0,0,0-3.83-.85,8.58,8.58,0,0,0-3.07.6,8.06,8.06,0,0,0-2.85,1.87,9.93,9.93,0,0,0-2.08,3.25,12.52,12.52,0,0,0-.8,4.68,11.78,11.78,0,0,0,1.2,5.35,9.25,9.25,0,0,0,3.45,3.8,10.15,10.15,0,0,0,5.45,1.4,9.2,9.2,0,0,0,3.1-.5,8.66,8.66,0,0,0,2.48-1.33,9.08,9.08,0,0,0,1.77-1.72,1.71,1.71,0,0,1,1-.45,1.21,1.21,0,0,1,.93.4,1.29,1.29,0,0,1,.37.9,1.35,1.35,0,0,1-.5,1.05,13.6,13.6,0,0,1-3.9,3.13A10.71,10.71,0,0,1,278.92,228.23Z"/><path d="M307.42,201.58a9.3,9.3,0,0,1,5.28,1.33,7.39,7.39,0,0,1,2.85,3.59,14,14,0,0,1,.87,5v14.7a1.54,1.54,0,0,1-1.5,1.5,1.41,1.41,0,0,1-1.1-.45,1.56,1.56,0,0,1-.4-1.05V211.68a9.76,9.76,0,0,0-.65-3.65,5.63,5.63,0,0,0-2.12-2.65,6.77,6.77,0,0,0-3.88-1,8.66,8.66,0,0,0-4.07,1,8.9,8.9,0,0,0-3.13,2.65,6.07,6.07,0,0,0-1.2,3.65v14.55a1.54,1.54,0,0,1-1.5,1.5,1.41,1.41,0,0,1-1.1-.45,1.56,1.56,0,0,1-.4-1.05v-22.4a1.5,1.5,0,0,1,.43-1.05,1.51,1.51,0,0,1,2.15,0,1.49,1.49,0,0,1,.42,1.05V208l-1.15,1.8a6.53,6.53,0,0,1,1-3.08,11.15,11.15,0,0,1,2.37-2.65,11.89,11.89,0,0,1,3.23-1.85A10.16,10.16,0,0,1,307.42,201.58Z"/><path d="M345,190.73a1.43,1.43,0,0,1,1.08.43,1.45,1.45,0,0,1,.42,1.07v34a1.54,1.54,0,0,1-1.5,1.5,1.41,1.41,0,0,1-1.1-.45,1.56,1.56,0,0,1-.4-1.05v-5.95l.85-.7a6.6,6.6,0,0,1-.75,2.92,9.85,9.85,0,0,1-2.12,2.83,11,11,0,0,1-3.2,2.1,9.86,9.86,0,0,1-4,.8,10.63,10.63,0,0,1-6-1.75,12.41,12.41,0,0,1-4.23-4.75,15.85,15.85,0,0,1,0-13.67,12.15,12.15,0,0,1,4.2-4.75,10.68,10.68,0,0,1,5.95-1.73,10.4,10.4,0,0,1,4,.75,10.75,10.75,0,0,1,3.28,2,10.06,10.06,0,0,1,2.25,3,7.8,7.8,0,0,1,.82,3.48l-1.05-.75V192.23a1.56,1.56,0,0,1,.4-1A1.41,1.41,0,0,1,345,190.73Zm-10.4,34.7a8.26,8.26,0,0,0,4.7-1.37,9.46,9.46,0,0,0,3.23-3.75,12.17,12.17,0,0,0,1.17-5.43,12,12,0,0,0-1.17-5.38,9.46,9.46,0,0,0-3.23-3.75,8.7,8.7,0,0,0-9.37,0,9.43,9.43,0,0,0-3.25,3.75,12.9,12.9,0,0,0,0,10.78,9.39,9.39,0,0,0,3.25,3.78A8.31,8.31,0,0,0,334.62,225.43Z"/><path d="M365.72,228.23a13.72,13.72,0,0,1-6.8-1.65,11.76,11.76,0,0,1-4.6-4.6,13.92,13.92,0,0,1-1.65-6.9,14.64,14.64,0,0,1,1.68-7.25,12.23,12.23,0,0,1,4.35-4.63,10.75,10.75,0,0,1,5.67-1.62,12.31,12.31,0,0,1,4.28.77,10.67,10.67,0,0,1,3.67,2.31,11.56,11.56,0,0,1,2.6,3.72,12.67,12.67,0,0,1,1.05,5.1,1.34,1.34,0,0,1-.45,1,1.46,1.46,0,0,1-1,.43H354.42l-.6-2.7h19.7l-.65.6v-1a7.52,7.52,0,0,0-1.55-4,8.54,8.54,0,0,0-3.12-2.5,8.92,8.92,0,0,0-3.83-.85,8.58,8.58,0,0,0-3.07.6,8.06,8.06,0,0,0-2.85,1.87,9.93,9.93,0,0,0-2.08,3.25,12.52,12.52,0,0,0-.8,4.68,11.78,11.78,0,0,0,1.2,5.35,9.25,9.25,0,0,0,3.45,3.8,10.15,10.15,0,0,0,5.45,1.4,9.2,9.2,0,0,0,3.1-.5,8.66,8.66,0,0,0,2.48-1.33,9.37,9.37,0,0,0,1.77-1.72,1.71,1.71,0,0,1,1.05-.45,1.21,1.21,0,0,1,.93.4,1.29,1.29,0,0,1,.37.9,1.35,1.35,0,0,1-.5,1.05,13.6,13.6,0,0,1-3.9,3.13A10.71,10.71,0,0,1,365.72,228.23Z"/></g><g class="cls-1"><path d="M29.68,267a1.4,1.4,0,0,1,1.07.45,1.52,1.52,0,0,1,.43,1.1V291a1.54,1.54,0,0,1-1.5,1.5,1.38,1.38,0,0,1-1.1-.45,1.52,1.52,0,0,1-.4-1.05v-5.95l.85-.4a6,6,0,0,1-.78,2.85,10.06,10.06,0,0,1-2.12,2.7,10.79,10.79,0,0,1-3.18,2,10,10,0,0,1-4,.78,10.75,10.75,0,0,1-6-1.75,12.12,12.12,0,0,1-4.2-4.8,15.19,15.19,0,0,1-1.52-6.85,14.63,14.63,0,0,1,1.55-6.88,12,12,0,0,1,4.2-4.67,10.8,10.8,0,0,1,5.95-1.7,10.72,10.72,0,0,1,4,.75,10.52,10.52,0,0,1,3.28,2.05,10,10,0,0,1,2.2,3,8,8,0,0,1,.8,3.47l-1.05-.75v-6.35a1.59,1.59,0,0,1,.4-1.1A1.38,1.38,0,0,1,29.68,267Zm-10.4,23.25a8.31,8.31,0,0,0,4.7-1.37,9.47,9.47,0,0,0,3.22-3.8,12.22,12.22,0,0,0,1.18-5.43,11.6,11.6,0,0,0-1.18-5.3A9.66,9.66,0,0,0,24,270.58a8.18,8.18,0,0,0-4.7-1.4,8.4,8.4,0,0,0-4.68,1.35,9.29,9.29,0,0,0-3.25,3.7,12,12,0,0,0-1.17,5.4,12.49,12.49,0,0,0,1.15,5.43,9.17,9.17,0,0,0,3.22,3.8A8.43,8.43,0,0,0,19.28,290.23Z"/><path d="M51.08,266.38a9.33,9.33,0,0,1,5.27,1.32,7.44,7.44,0,0,1,2.85,3.61,13.71,13.71,0,0,1,.88,5V291a1.54,1.54,0,0,1-1.5,1.5,1.38,1.38,0,0,1-1.1-.45,1.52,1.52,0,0,1-.4-1.05V276.48a10,10,0,0,0-.65-3.65,5.65,5.65,0,0,0-2.13-2.65,6.73,6.73,0,0,0-3.87-1,8.67,8.67,0,0,0-4.08,1,8.87,8.87,0,0,0-3.12,2.65,6.07,6.07,0,0,0-1.2,3.65V291a1.54,1.54,0,0,1-1.5,1.5,1.38,1.38,0,0,1-1.1-.45A1.52,1.52,0,0,1,39,291v-22.4a1.49,1.49,0,0,1,.42-1.05,1.51,1.51,0,0,1,2.15,0,1.5,1.5,0,0,1,.43,1.05v4.2l-1.15,1.8a6.44,6.44,0,0,1,1-3.07,10.63,10.63,0,0,1,2.38-2.65,11.21,11.21,0,0,1,3.22-1.85A10,10,0,0,1,51.08,266.38Z"/><path d="M69.33,263.18a2.28,2.28,0,0,1-1.58-.48,1.74,1.74,0,0,1-.52-1.37v-.5a1.7,1.7,0,0,1,.57-1.38,2.44,2.44,0,0,1,1.58-.47,2.14,2.14,0,0,1,1.47.47,1.78,1.78,0,0,1,.53,1.38v.5a1.74,1.74,0,0,1-.53,1.37A2.18,2.18,0,0,1,69.33,263.18ZM70.83,291a1.54,1.54,0,0,1-1.5,1.5,1.41,1.41,0,0,1-1.08-.45,1.49,1.49,0,0,1-.42-1.05V268a1.49,1.49,0,0,1,.42-1,1.51,1.51,0,0,1,2.15,0,1.5,1.5,0,0,1,.43,1Z"/><path d="M90.13,266.78a8.65,8.65,0,0,1,5.3,1.63,8.27,8.27,0,0,1,3,4.82l-.7.2.3-.9a8,8,0,0,1,2.17-2.83,12.53,12.53,0,0,1,3.48-2.12,10.36,10.36,0,0,1,3.95-.8,8.64,8.64,0,0,1,5.07,1.35,7.71,7.71,0,0,1,2.8,3.62,14.3,14.3,0,0,1,.88,5.13V291a1.5,1.5,0,0,1-.43,1.05,1.51,1.51,0,0,1-2.15,0,1.49,1.49,0,0,1-.42-1.05V277a10.47,10.47,0,0,0-.65-3.75,5.86,5.86,0,0,0-2-2.7,6.33,6.33,0,0,0-3.75-1,8.2,8.2,0,0,0-3.93,1,8.55,8.55,0,0,0-3,2.7A6.46,6.46,0,0,0,98.78,277v14a1.5,1.5,0,0,1-.43,1.05,1.51,1.51,0,0,1-2.15,0,1.49,1.49,0,0,1-.42-1.05V276.88a10.76,10.76,0,0,0-.6-3.7,5.39,5.39,0,0,0-2-2.62,6.12,6.12,0,0,0-3.65-1,8.13,8.13,0,0,0-3.88,1,8,8,0,0,0-3,2.62,6.41,6.41,0,0,0-1.12,3.7V291a1.54,1.54,0,0,1-1.5,1.5,1.38,1.38,0,0,1-1.1-.45,1.52,1.52,0,0,1-.4-1.05v-22.4a1.49,1.49,0,0,1,.42-1.05,1.51,1.51,0,0,1,2.15,0,1.5,1.5,0,0,1,.43,1.05v4.65l-1.35,1.85a7.81,7.81,0,0,1,1-3,10.16,10.16,0,0,1,2.18-2.7,11.16,11.16,0,0,1,3.07-1.93A9.33,9.33,0,0,1,90.13,266.78Z"/><path d="M145,267a1.4,1.4,0,0,1,1.07.45,1.57,1.57,0,0,1,.43,1.1V291a1.54,1.54,0,0,1-1.5,1.5,1.38,1.38,0,0,1-1.1-.45,1.52,1.52,0,0,1-.4-1.05v-5.95l.85-.4a6,6,0,0,1-.78,2.85,10.26,10.26,0,0,1-2.12,2.7,10.79,10.79,0,0,1-3.18,2,10,10,0,0,1-4,.78,10.73,10.73,0,0,1-6-1.75,12.12,12.12,0,0,1-4.2-4.8,15.06,15.06,0,0,1-1.52-6.85,14.63,14.63,0,0,1,1.55-6.88,12,12,0,0,1,4.2-4.67,11.22,11.22,0,0,1,10-.95,10.52,10.52,0,0,1,3.28,2.05,10,10,0,0,1,2.2,3,8,8,0,0,1,.8,3.47l-1.05-.75v-6.35a1.59,1.59,0,0,1,.4-1.1A1.38,1.38,0,0,1,145,267Zm-10.4,23.25a8.31,8.31,0,0,0,4.7-1.37,9.47,9.47,0,0,0,3.22-3.8,12.36,12.36,0,0,0,1.18-5.43,11.73,11.73,0,0,0-1.18-5.3,9.66,9.66,0,0,0-3.22-3.75,8.18,8.18,0,0,0-4.7-1.4,8.38,8.38,0,0,0-4.68,1.35,9.22,9.22,0,0,0-3.25,3.7,12,12,0,0,0-1.17,5.4,12.49,12.49,0,0,0,1.15,5.43,9.17,9.17,0,0,0,3.22,3.8A8.41,8.41,0,0,0,134.58,290.23Z"/><path d="M152.67,267.08h11.65a1.31,1.31,0,0,1,1,.42,1.45,1.45,0,0,1,.4,1,1.29,1.29,0,0,1-.4,1,1.33,1.33,0,0,1-1,.4H152.67a1.36,1.36,0,0,1-1-.43,1.34,1.34,0,0,1,0-2A1.41,1.41,0,0,1,152.67,267.08Zm5.15-7.05a1.41,1.41,0,0,1,1.08.45,1.49,1.49,0,0,1,.42,1v25.1a4.6,4.6,0,0,0,.38,2.1,1.89,1.89,0,0,0,1,.93,3.39,3.39,0,0,0,1.2.22,1.9,1.9,0,0,0,.73-.13,2.09,2.09,0,0,1,.72-.12,1,1,0,0,1,.78.35,1.24,1.24,0,0,1,.32.9,1.37,1.37,0,0,1-.8,1.18,3.69,3.69,0,0,1-1.9.47c-.3,0-.75,0-1.35-.08a5,5,0,0,1-1.85-.54,3.74,3.74,0,0,1-1.57-1.68,7.58,7.58,0,0,1-.63-3.45V261.53a1.5,1.5,0,0,1,.43-1A1.4,1.4,0,0,1,157.82,260Z"/><path d="M172.67,263.18a2.25,2.25,0,0,1-1.57-.48,1.74,1.74,0,0,1-.53-1.37v-.5a1.71,1.71,0,0,1,.58-1.38,2.43,2.43,0,0,1,1.57-.47,2.15,2.15,0,0,1,1.48.47,1.77,1.77,0,0,1,.52,1.38v.5a1.74,1.74,0,0,1-.52,1.37A2.19,2.19,0,0,1,172.67,263.18Zm1.5,27.85a1.54,1.54,0,0,1-1.5,1.5,1.4,1.4,0,0,1-1.07-.45,1.5,1.5,0,0,1-.43-1.05V268a1.5,1.5,0,0,1,.43-1,1.51,1.51,0,0,1,2.15,0,1.49,1.49,0,0,1,.42,1Z"/><path d="M205.57,279.73a14,14,0,0,1-1.67,6.83,12.62,12.62,0,0,1-4.53,4.75,12.9,12.9,0,0,1-12.87,0,12.44,12.44,0,0,1-4.55-4.75,14.76,14.76,0,0,1,0-13.68,12.66,12.66,0,0,1,4.55-4.75,12.71,12.71,0,0,1,12.87,0,12.84,12.84,0,0,1,4.53,4.75A13.87,13.87,0,0,1,205.57,279.73Zm-3,0a11.37,11.37,0,0,0-1.25-5.42,9.54,9.54,0,0,0-3.42-3.75,9.1,9.1,0,0,0-5-1.38,9,9,0,0,0-4.92,1.38,9.76,9.76,0,0,0-3.45,3.75,12.07,12.07,0,0,0,0,10.82,9.92,9.92,0,0,0,3.45,3.73,9.07,9.07,0,0,0,4.92,1.37,9.17,9.17,0,0,0,5-1.37,9.69,9.69,0,0,0,3.42-3.73A11.27,11.27,0,0,0,202.57,279.73Z"/><path d="M223.77,266.38a9.38,9.38,0,0,1,5.28,1.32,7.56,7.56,0,0,1,2.85,3.61,13.92,13.92,0,0,1,.87,5V291a1.54,1.54,0,0,1-1.5,1.5,1.41,1.41,0,0,1-1.1-.45,1.56,1.56,0,0,1-.4-1.05V276.48a9.76,9.76,0,0,0-.65-3.65,5.63,5.63,0,0,0-2.12-2.65,6.79,6.79,0,0,0-3.88-1,8.66,8.66,0,0,0-4.07,1,8.81,8.81,0,0,0-3.13,2.65,6.07,6.07,0,0,0-1.2,3.65V291a1.54,1.54,0,0,1-1.5,1.5,1.41,1.41,0,0,1-1.1-.45,1.56,1.56,0,0,1-.4-1.05v-22.4a1.46,1.46,0,0,1,.43-1.05,1.4,1.4,0,0,1,1.07-.45,1.43,1.43,0,0,1,1.08.45,1.49,1.49,0,0,1,.42,1.05v4.2l-1.15,1.8a6.45,6.45,0,0,1,1-3.07,10.58,10.58,0,0,1,2.37-2.65,11.26,11.26,0,0,1,3.23-1.85A10,10,0,0,1,223.77,266.38Z"/></g></g><g id="_04" data-name=" 04" class="cls-1"><g class="cls-1"><path d="M31.79,123.11a41.65,41.65,0,0,1-14.28-18.34q-5-11.76-5-26.88t5.25-26.32A41.27,41.27,0,0,1,32.42,34a37.84,37.84,0,0,1,21.42-6.23A38.36,38.36,0,0,1,75.54,34,40.44,40.44,0,0,1,90,51.57q5.1,11.34,5.11,26.32a69.5,69.5,0,0,1-4.9,26.88A41.09,41.09,0,0,1,76,123.11q-9.39,6.58-22.12,6.58T31.79,123.11Zm42.14-15.82Q81,96.92,81,77.89q0-18.77-7.21-28.42t-20-9.66a23.59,23.59,0,0,0-19.67,9.8q-7.5,9.8-7.49,28.28,0,19,7.07,29.4t20.09,10.36Q66.86,117.65,73.93,107.29Z"/><path d="M179.84,91.05v11.34h-12.6v25.34H153.8V102.39H105.5l52.08-72.66h9.66V91.05Zm-26,0V54.51l-26,36.54Z"/></g></g><line id="Line_13" data-name="Line 13" class="cls-2" x1="5.48" y1="165.23" x2="357.48" y2="165.23"/></svg>
