<svg id="Layer_1" data-name="Layer 1" xmlns="http://www.w3.org/2000/svg" viewBox="0 0 240.94 113.39"><defs><style>.cls-1{opacity:0.5;}.cls-2{fill:#63c0ed;}.cls-3{fill:#41b3e7;}.cls-4{fill:#48a8da;}.cls-5{fill:#36a5de;}.cls-6{fill:#439ac8;}.cls-7{fill:#4fbded;}.cls-8{fill:#33ace3;}.cls-9{fill:#5fb7e5;}.cls-10{fill:#2fa1db;}.cls-11{fill:#46b1e5;}.cls-12{fill:#3898d3;}.cls-13{fill:#3797cf;}.cls-14{fill:#2399d6;}.cls-15{fill:#2e96d3;}.cls-16{fill:#3799ce;}.cls-17{fill:#4b93c0;}.cls-18{fill:#53bbec;}.cls-19{fill:#48b9eb;}.cls-20{fill:#3eb3e7;}.cls-21{fill:#4fb5e8;}.cls-22{fill:#32a5de;}.cls-23{fill:#3297d1;}.cls-24{fill:#38b1e6;}.cls-25{fill:#31a6df;}.cls-26{fill:none;stroke:#4c4b4b;}.cls-27{isolation:isolate;}.cls-28{fill:#1c1c1c;}</style></defs><title>04_btn</title><g id="Group_210" data-name="Group 210"><g id="Group_197" data-name="Group 197" class="cls-1"><path id="Path_11052" data-name="Path 11052" class="cls-2" d="M32.48,6.87c5.7-.11,10.78-3.38,16.65-3a31.52,31.52,0,0,1,9.23,1.72C71.13,10.23,83.73,15.26,96.05,21c3,1.41,6.57,1.66,9.88,2.43a1.65,1.65,0,0,1-.4,1.83,12.1,12.1,0,0,1-11-.6,26,26,0,0,0-12.25-3C76.77,17.94,71.44,14,64.7,12.38c-3.49-.82-5.14-.65-4.82,3.48.25,3.22-.5,6.28-3.19,8.51a6.1,6.1,0,0,1-4.52,1.19c-3.18-.44-4.91.8-6.28,3.81-2.41,5.32-6.06,8.93-12.47,10.27-10.48,2.17-16.48,11-16.65,22.4,0,.64-.47,1.45.44,1.71,7.18,2,3.88,7.68,4.23,12.08a3.63,3.63,0,0,1-2.75,1.26c-6.06-3.6-10.17-8.42-8.23-15.94,1.15-4.46-.87-7.4-3.35-10.48-5.1-6.37-4.73-14.78.52-21,5.78-6.88,10.85-14.38,18.08-20A15.84,15.84,0,0,1,32.48,6.87Z"/><path id="Path_11053" data-name="Path 11053" class="cls-3" d="M82.84,20.55c2.89-1.07,6-1.05,8.38.57,4.48,3.07,9.38,3.55,14.47,3.74,15.66-.25,31.32.83,47,.19,1,0,2.26.49,3-.7.15-.32.3-.64.43-1a.78.78,0,0,1,1.1-.15.81.81,0,0,1,.24.31l2.62.81a2.91,2.91,0,0,1,.54,2.4c-.2,1.43.73,3-.42,4.32-1.45,1.06-3.12.94-4.78.91-10.09,3-20.13-.15-30.19-.33-6.32-.12-12.15.57-17.36,4.34-9.6,1.29-17.53-2.57-24.65-8.37C81.07,25.84,80.27,23.07,82.84,20.55Z"/><path id="Path_11054" data-name="Path 11054" class="cls-4" d="M155.73,24.35c.8,1.37-.2,1.32-1.11,1.52-9.35,2-18.75,1-28.06,0-5.22-.58-10.1,1.61-15.33.8-2.08-.32-3.9-.56-5.54-1.82l.24-1.41,0,0c1.31-.87,2.74.23,4.07-.25,12.56.18,25.1.44,37.66.49A44.18,44.18,0,0,1,155.73,24.35Z"/><path id="Path_11055" data-name="Path 11055" class="cls-5" d="M159.69,26.69c.14-.78.28-1.56.43-2.34,7.85.2,15.62,2,23.53,1.24a2.39,2.39,0,0,1,1.75-.29c2.32.41,4.67,1,6.62-1l1.72-.83,4,.63c.39,2.6-1.64,3.52-3.25,4.75-5.71,2.91-12,1.58-18,2.32a10.94,10.94,0,0,1-2-.68C169.94,27.86,164.22,29.6,159.69,26.69Z"/><path id="Path_11056" data-name="Path 11056" class="cls-6" d="M192,24.27c.67,1.09,0,1.4-.9,1.73-2.13.79-4.2.27-6.28-.2l.18-.65Z"/><path id="Path_11057" data-name="Path 11057" class="cls-7" d="M110,23.24c-1.3,1-2.69.5-4.07.26C107.25,22.36,108.63,22.7,110,23.24Z"/><path id="Path_11058" data-name="Path 11058" class="cls-8" d="M185,25.14l-.19.66-.6-.09-.59-.12C184,25.11,184.42,24.83,185,25.14Z"/><path id="Path_11059" data-name="Path 11059" class="cls-9" d="M21.69,78.72l-1.33-.5c-.36-.44-.71-.9-1-1.37l0,0,1.62-1.08c4.45-2.23,7.12,1.37,10.35,3.14C42.09,84,54,85.06,65.41,88a11.22,11.22,0,0,1,2,.92c6.39,5.67,13.69,2.58,20.65,2,4.24-.36,8.4-1.7,12.67-.39a12.37,12.37,0,0,1,2,.73,11.11,11.11,0,0,0,3.87,1.36,22.84,22.84,0,0,1,18,6.53c1,.94,2.13,1.8,1.34,3.42-4.39,0-7.27-3.63-11.09-4.67s-7.64,1.58-11.91.42a70.89,70.89,0,0,0-26.19-2.56,15.25,15.25,0,0,1-8.55-1.85,27.59,27.59,0,0,0-8.41-2.56A5,5,0,0,1,53,90.1c-4.48-2.89-9.71-3.26-14.73-4.17a43.52,43.52,0,0,1-15.5-6A9.86,9.86,0,0,1,21.69,78.72Z"/><path id="Path_11060" data-name="Path 11060" class="cls-10" d="M163.68,102.86a3.92,3.92,0,0,1-3.12.71,46.43,46.43,0,0,1-10.32-1c-4.2-4-1.75-6.8,1.69-9.42a5.29,5.29,0,0,1,2.11-.41c5,3.47,9.94,2.84,15.78,1.25,6.13-1.66,12.86-.35,19.12,1.86,4.07,1.44,4.62,5.24,6.2,8.38-1.17,4.14-4.22,2.56-6.35,1.6-3.9-1.76-7.77-1.72-11.78-1l-3.86-1C170.15,102,167,101.41,163.68,102.86Z"/><path id="Path_11061" data-name="Path 11061" class="cls-11" d="M149.76,101.42l10.8,2.15c-9,1.17-18.05,2.27-27.17,1.55-2.68-.22-5.34-.69-7.51-2.54-2.8-2.14-5.6-4.3-8.42-6.43a7.77,7.77,0,0,0-6.35-1.45,14.71,14.71,0,0,1-6-.33c-.55-1-1.89-.86-2.45-1.81l-1.33-.26c1.52-4,5.52-3.21,8.48-4.43a4.65,4.65,0,0,1,3.35,1.31c.7.55,1.39,1.12,2.12,1.63.53.29,1,.6,1.55.89,4.42.57,8,3.57,12.43,4.16a4.76,4.76,0,0,1,1.8-.16,4,4,0,0,1,2.21,1.48c.85,1.2,1.74,2.37,3.33,2.67C140.88,101.48,145.62,99,149.76,101.42Z"/><path id="Path_11062" data-name="Path 11062" class="cls-12" d="M203.7,103.22c-3.46,2.41-8.24,2.56-10.9,6.34-1.7-1.12-3.45-2.53-5.57-2-4,.89-7-1.23-10.22-2.73,3.9-3.42,8.13-3.3,12.07-.46,2.28,1.64,4,1.44,6.06.1l.45-.92a5.47,5.47,0,0,1,1.62-1.2C199.52,101.58,201.83,100.88,203.7,103.22Z"/><path id="Path_11063" data-name="Path 11063" class="cls-13" d="M163.68,102.86c3.27-2.53,6.81-2.64,9.92-.24.1.08-.29.8-.45,1.22C169.92,104.25,166.84,103.14,163.68,102.86Z"/><path id="Path_11064" data-name="Path 11064" class="cls-5" d="M236.63,53.93c1.2,1,1.12,1.87-.31,2.56a4.48,4.48,0,0,0-3.41,3.66,22.63,22.63,0,0,0-8,12.26c-1.43,1.84-1.62,4.4-3.41,6A3,3,0,0,1,218.51,80a1.87,1.87,0,0,1-1.1-1.21,4.23,4.23,0,0,1,.15-1.66c.29-.75.69-1.45,1-2.18.16-.49.35-1,.53-1.46a10,10,0,0,1,1.42-2.82c.28-.45.59-.88.89-1.31s.54-.93.79-1.4c.81-1.57.57-3.25.53-4.92.32-.86-.52,0,.08-.65,6.91-7.24.29-11.9-3.23-17.15a12,12,0,0,1-1.23-1.44,5.73,5.73,0,0,1-1-2.63c.24-2.61-.2-4.93-2.72-6.35-1.32-.79-2.81-1.41-3.27-3.12a1.74,1.74,0,0,1,1-1.41c2.67-.32,5.29-.78,7.08-3.11,3.29,1.34,1.46,4.86,3,7,1,1.38,3.08,1.7,3.5,3.62-1,3.45-1.51,6.78,2.58,8.73C230.41,49.86,233.7,51.7,236.63,53.93Z"/><path id="Path_11065" data-name="Path 11065" class="cls-14" d="M194.32,27.64l3.42-3.56h0c.88-.58,2-.1,2.89-.7l1.39,0c2.79,1.8,7.66,1.74,6.45,7.16a10.24,10.24,0,0,1-2.93,3.6c-2.75,2.2-5.77,3.78-9.19,1.75S193.22,30.85,194.32,27.64Z"/><path id="Path_11066" data-name="Path 11066" class="cls-15" d="M219.44,27.21c-.31,4.7-.31,4.73-4.32,4.33-1.11-.11-2.2-.4-3.3-.61-1.19-2-3.72-3.33-3.09-6.23A10,10,0,0,1,219.44,27.21Z"/><path id="Path_11067" data-name="Path 11067" class="cls-16" d="M236.63,53.93c-.73.65-1.93,1.11-2.43.47-2.1-2.69-5.07-4.43-7.29-6.91-.89-1,.9-.78,1.57-1C231.83,48.3,235.23,50,236.63,53.93Z"/><path id="Path_11068" data-name="Path 11068" class="cls-5" d="M208.73,24.7c1.12,2,4.69,2.85,3.09,6.23l0,0a2.84,2.84,0,0,1-4-.69l-.06-.09c.38-2.22-1.18-3.25-2.68-4.27-1.1-.73-2.58-1-3-2.49C204.64,21.93,206.36,25,208.73,24.7Z"/><path id="Path_11069" data-name="Path 11069" class="cls-16" d="M232.91,60.15c-1-3.21,1-3.65,3.41-3.66C235.29,57.8,234.69,59.53,232.91,60.15Z"/><path id="Path_11070" data-name="Path 11070" class="cls-17" d="M225.9,37.79c-1.28-1.1-3.06-1.71-3.5-3.62C224.52,34.46,226.44,34.93,225.9,37.79Z"/><path id="Path_11071" data-name="Path 11071" class="cls-5" d="M200.65,23.37a2.71,2.71,0,0,1-2.89.7A2.69,2.69,0,0,1,200.65,23.37Z"/><path id="Path_11072" data-name="Path 11072" class="cls-18" d="M112.86,90.3l-2.44-1.85c-6.25.9-12.47,2.4-18.87,1.25-2.33-.42-4.47.43-6.62,1.3-6.12,2.47-12.2,3.2-18-1h0c-4.4-1.9-4.1-6.67-6.2-10-1.19-1.84,2.41-4.73-1.36-5.35-4.24-.7-8.39-4.59-12.83-.85-3.68,3.1-6.74,6.55-12.28,2.44-2.46-1.83-2.53,3-4.49,3.91-2.68-2.06-5.26-4.31-8.88-4.48-.11-3.56-2.35-6.79-1.18-10.28-2.34-1.23-2.43.93-3.4,1.57a1.83,1.83,0,0,1-1.9.15c-1.09-.5-.94-1.37-.61-2.26a139.38,139.38,0,0,0,5.75-19.27c.63-2.78,2.25-4.62,4.8-5.16,4.4-.92,8.28-3.65,13-3.56,2,0,2.75-1.06,3.59-3.09,1.26-3,3.69-5.56,5-8.79.73-1.8,3.27-2.6,5.31-1.44,1.61.93,3,.6,4.54.21,2,1.31,1.56,3.18.94,4.89-1.23,3.39-1.47,6.43,1,9.58,2.77,3.54-1.86,6-2.21,9,1.45,1.22,2.5.69,3.2-.21,3.52-4.48,6.09-6.61,9.26.78,1.61,3.75,6.73,3.11,10.53,2,2.7-.77,5.29-1.27,8-.56,1.58.41,3.17.88,3.55,2.73a3.13,3.13,0,0,1-2.13,3.82c-5,1.73-6.28,5.43-5.77,10.25.38,3.66-4.08,6.36-2.08,10.13,1.56-5.94,3.3-6.82,11-4.58-4.73-5.39-1.39-10.15-.19-15a3.07,3.07,0,0,1,3.6-2.44h0a3.23,3.23,0,0,1,3,3.45,4.33,4.33,0,0,1-.08.5c-.8,3.5-.5,5.69,3.25,7.57,3.49,1.76-.19,4.79-.15,7.25,7.85,5,18.5,5.22,22.08,14.08,2.47.61,1.93-.9,1.86,0,0,.3-.21.31-.6.27-1.35-.16-3-.12-3.36-1.73-.48-2,1.13-2.78,2.64-3.37,2.78-1.1,5.63-1.87,8.67-1.16,2.87.64,4.52,2.69,5.81,5.11s3.35,5,1.37,8-4.87,2.58-7.77,2.34l-1.34-.25c-4.89-1.22-9.78-2.44-14.54-4.14L114,91.89C113.65,91.32,113.18,90.86,112.86,90.3Z"/><path id="Path_11073" data-name="Path 11073" class="cls-7" d="M131,82.58c-3.59-1-6.33,1.44-10.15,1.94,2.13,2.91,3.88,1.48,5.6.8a2.47,2.47,0,0,1,3.08.57,1.57,1.57,0,0,1,0,1.89c-.71,1.21-1.93,1.17-3,.86-3.55-1-8.59.39-8.83-6,0-1.45-2.72-3.11-5-2.06a3.46,3.46,0,0,1-4.34-.64c-2.44-2.44-4.35-5.35-8.87-3.9-1.78.57-2.78-2.54-1.26-4.37,1.14-1.37,2.81-2.35,2.64-4.63a8.14,8.14,0,0,0-1.76-.72C94,65.51,93.59,65,95,60.53c.33-1.06,1.08-2,1.16-3.1a2.06,2.06,0,0,0-1.91-2.21h-.19c-1-.05-2,.71-1.88,1.58.5,3-1.11,5.23-2.18,7.72-.54,1.27-.71,3.06.6,3.75,4.27,2.24,1.35,4.79,1,7.47-2.93-.39-1.78-4.56-4.92-4.26a7.18,7.18,0,0,0-3.78,1.29c-2.91,2.11-.95,3.87.83,5.69-2.07.43-5.32,1-5.18.4.68-2.71-2.11-5.24-.23-7.73s3.11-4.36,1.47-7.91c-1.24-2.68,3.28-7.57,6.81-8.54,1.16-.31,2.34-.44,2.37-1.87,0-1.92-1.43-1.88-2.85-2-2.42-.22-4.56-.71-7.08.81-4.1,2.47-8.42,0-12.47-1.06-2.3-.64-1-3.13-1.18-4.82-.07-.69-.3-1.46-1.08-1.49a2.62,2.62,0,0,0-1.81.57,15.76,15.76,0,0,0-1.4,2.29c-3.65,5.43-5.14,5.32-8.66-.7.8-.73,1.64-1.45,2.41-2.23,3.28-3.37,3.43-3.56-.2-6.73-2-1.76-1.79-3-.92-5.24,1-2.64,2.77-5.27,2-8.4,3.61-4.11,2.66-8.83,1.53-13.41,1.8-1.93,3.67-1,5.27-.56,4.14,1.09,8,3.24,12.3,3.77,1.71.2,2.6,1.71,3.52,3,1.17,1.67,2.17,3.54,4.45,3.94-.87,3.94.84,6,4.36,8C93.75,32.11,100.39,34.9,108,35c2.9,1.42,5.38,3.44,9.2,2.75,3-.53,11,8.1,11.37,11.69a10.44,10.44,0,0,0,2.3,6.17c5,6,4.05,8.89-3.65,11-1.08.3-2.2.5-3.27.85a5.74,5.74,0,0,0-2.35,1.18,3.48,3.48,0,0,0-1,2.52c1.17-.34,1.31-2.17,2.8-1.93,3.9,1,6.36,3.9,8.59,6.87C133.6,78.3,133.26,80.69,131,82.58Z"/><path id="Path_11074" data-name="Path 11074" class="cls-19" d="M123.06,65.75a46.57,46.57,0,0,0,6.62-1.37c3.47-1.25,3.47-3.69,1-6.36-2.24-2.42-6-4.66-3.48-9.13.61-1.09-.12-2.82-1.07-2.82-3.85,0-4.8-2.65-5.89-5.48-.9-2.31-2.53-1.62-4.47-1.1-4.57,1.24-5.87.33-7.79-4.46.47-2.24,2.1-4,4-4.06,4.43-.09,8.5-2.3,13.22-1.22s9.79,1,14.7,1.08c1.81,0,3.54-.32,5.16.85a2.85,2.85,0,0,0,4-.24,1.84,1.84,0,0,0,.17-.22c2-2.27,4.52-1.46,6.95-1,13.52,5.64,9.79,6.82,2.47,14.94,2.56.73,6.25-2.57,7.54,1.79,1.05,3.5-1.59,5.41-4.12,7.07a8,8,0,0,0-3.9,6.78c-.46,9.45-3.58,18.09-8,26.37-2.43,4.56-6.36,7.68-10.06,11-2.43,2.18-5.27,2.65-7.89,0l-1.1-1.6a9,9,0,0,1,1.74-.91c6.48-1.85,6.76-2.38,3.42-7.8-1.32-2.15-1.75-5.33-5.31-5.26,1.07-3.6.67-6.4-3.31-8.17-2.11-.94-2.62-4.2-5.42-4.62C121.36,68.22,121.87,66.92,123.06,65.75Z"/><path id="Path_11075" data-name="Path 11075" class="cls-20" d="M132.28,98.14c2,.28,4.2,1.3,5.8-.58,3.44-4,7.66-7.09,10.86-11.61,4.28-6.06,3-13.74,7.63-19.27.89-1.07-.09-2.11-.2-3.18-.49-4.86-.57-9.56,5.45-11.42a6,6,0,0,0,2.69-2c.87-1.1,1.22-2.63.07-3.72a1.78,1.78,0,0,0-2.52,0,1.71,1.71,0,0,0-.38.54,3.19,3.19,0,0,1-4.2,1.63,3.42,3.42,0,0,1-.42-.23c-2.42-1.14-2.67-3.85-.35-5.23,2-1.17,4-2.13,5.65-3.78,2.28-2.36,2.14-3.8-.79-5.08-2.13-.93-4.18-1.75-5.34-3.92,1.48.24,3,.8,4.28-.58,5.13-3.6,10.22-1.75,15.3.1h0a20.83,20.83,0,0,0,3.07,2.71c2.11,1.61,6,1.1,6.61,4.23.79,3.95,2,8.22.75,12.12-3.74,11.64.55,21.1,7.2,30.14,4.46,6.08,2.59,11.2-4.8,13.34-4.63,1.34-6.53,0-7.56-5.61-4.89,4.36-11.7,3.7-16.87,7.26-1.89,1.3-3.66,0-4.47-1.74-1.49-3.19,1-4.84,3.19-6.6-4.13,1.68-5.83,5.76-9,8.3l-1.34-.24c-5.09,4.85-10.78,8.3-18.18,7.7A4.7,4.7,0,0,1,132.28,98.14Z"/><path id="Path_11076" data-name="Path 11076" class="cls-8" d="M175.82,29.73a33.37,33.37,0,0,0-15.3-.1c-.71-.86-2.83-1.33-.83-2.95C165.31,26.42,171,26,175.82,29.73Z"/><path id="Path_11077" data-name="Path 11077" class="cls-2" d="M21.69,78.72,22.79,80A1.37,1.37,0,0,1,21.69,78.72Z"/><path id="Path_11078" data-name="Path 11078" class="cls-2" d="M19.32,76.85l1,1.37A1.46,1.46,0,0,1,19.32,76.85Z"/><path id="Path_11079" data-name="Path 11079" class="cls-8" d="M154,93.87a8.48,8.48,0,0,1,4.45-7.2,67.85,67.85,0,0,0,5.86-4.26c.76,2.06,4.46,4-.85,5.1a3.62,3.62,0,0,0-2.7,1.85,2.26,2.26,0,0,0,.64,3c1,.77,1.95,1.29,2.7-.27.51-1.06,1.28-2.3,2.39-2.22,5.86.39,10.4-2.71,15.13-5.39,1.32-.75,2.6-.18,3.74.52-.12.63-.07,1.15-.3,1.45-.86,1.1-3.61,1-2.47,3.27.92,1.81,3,2.09,4.83,1.41a25.22,25.22,0,0,0,4.82-2.54c2.7-1.75,3.21-4.22,1.34-6.82-1.59-2.22-3.46-4.23-5.09-6.41-1.77-2.37-3.45-4.83-3-8,.15-1.14.55-2.75-.43-3.21-6.6-3.13-1.56-8.06-1.37-11.75.18-3.43,2.28-6.75.29-10.37-.59-1.07-.13-2.2.35-3.27.91-2-.4-3.68-1.95-3.34-5.07,1.1-5.72-2.24-6.52-5.69,6.11-1.2,12.48-.07,18.5-2.08a4.19,4.19,0,0,1,.9,2.42c.66,5.67,3.2,6.92,7.88,3.83,1.66-1.09,3.11-2.47,4.66-3.72l4,.78c.69,1.73,2.32,1.77,3.79,2.1-3.49,4.93-8.81,7.9-13,12.11-2.22,2.25-4.52-.17-6.76-.73-1.1,11.7-1.1,11.7,6.25,15.11.81,4-2.74,5.33-4.74,7.6-1.29,1.47-2.29,3.15-.73,4.83s3.56.68,4.79-.64c3.94-4.29,8.21-8.11,14.65-10.52-4.79-2.4-9,.42-12.31-2.24-1-3,1.18-4.33,3.32-4.8,4.48-1,7.91-2.51,8.38-7.85.13-1.36,2.1-2.21,3.75-2.44,3.26.89,4.5,3.66,5.57,6.38s2.34,5.34,6.42,5.07c-2,4.1-7.73,4-7.48,8.9.2,1.9-.7,3.59-1,5.39-.09.44-.17.89-.26,1.33-.56.33-1.06.74-1.6,1.1h0a1.84,1.84,0,0,0-.66,2.49l.15.21-.25,1.34c-.57.3-1,.77-1.58,1.1l-.27,1.34c-1.95,1.3-3.94-.34-5.86.07-3.4.72-6.88,1.42-5.29,6.41,1.32,4.14-2.8,8.08-.6,12.3.47,2.71-.68,4.71-2.76,6.31-2.33-.82-4.63.39-7,.11-.5.41-1.11.66-1.6,1.08h0c-1.3-.32-2.86-.38-3.35-1.92s.43-4.15-2-4.47c-3-.39-5.35-4-8.91-2-.55.3-1.51.6-1.92.34-5.29-3.35-10.24-.72-14.9,1.23-3.41,1.43-5.45,1.21-7.22-2A4.2,4.2,0,0,0,154,93.87Z"/><path id="Path_11080" data-name="Path 11080" class="cls-21" d="M29.8,80.2a15.12,15.12,0,0,0-.14-2.69c-.55-2.36,1.05-3.25,2.66-4.15,1.82-1,3,.28,4.16,1.29,3.7,3.1,4.24,3.42,6.54-.16s5.95-2.9,8.67-4.73a1.91,1.91,0,0,1,1.84.3c2.93,3.8,7,3.4,10.65,2.61,1.53,2.18.19,2.57-.76,3-1.47.73-2.17,2-1.3,3.3,2.27,3.4,1.77,8,4.84,11C60,88.68,53,87.69,46.18,86,40.58,84.55,34.83,83.33,29.8,80.2Z"/><path id="Path_11081" data-name="Path 11081" class="cls-21" d="M67,90c2.6.79,5.28,0,8.06,2,2.08,1.54,6.15-.45,8.65-2.4,3-2.36,6.06-2.52,9.55-1.67,3,.75,6,1.42,9.24-.14,2.53-1.25,5.3.34,8,.65-2.61,2.26-6.15,2.32-9.07,3.85C93.54,90.23,86.1,93.71,78.43,94,73.91,94.08,69.78,94.25,67,90Z"/><path id="Path_11082" data-name="Path 11082" class="cls-21" d="M102.68,92.56a2.9,2.9,0,0,1,2.45,1.81A2.76,2.76,0,0,1,102.68,92.56Z"/><path id="Path_11083" data-name="Path 11083" class="cls-8" d="M134.45,101.33c5.52-2.26,11.93-2.61,16.19-7.62.3-.34,1.31-.07,2-.08-1.53,2.39-4.53,4.23-2.87,7.79A33.28,33.28,0,0,1,134.45,101.33Z"/><path id="Path_11084" data-name="Path 11084" class="cls-19" d="M115.3,92.15c5,1,10.07,1.43,14.54,4.14-1.33,2.89-2.69,5.4-4.69.41-.73-1.82-2.5-1.61-3.94-2C119.15,94,116.62,94.51,115.3,92.15Z"/><path id="Path_11085" data-name="Path 11085" class="cls-21" d="M112.86,90.3,114,91.89Z"/><path id="Path_11086" data-name="Path 11086" class="cls-22" d="M206.47,96.91c-2.7-2.47-5-5-1.11-8.34,1.59-1.38,1.2-2.83-.11-4.07-2.78-2.65-1.07-4.25,1.15-5.93,3.86-2.92,7.77-3.11,11.81-.44-.07.48-.14,1-.22,1.45-.58,2.25-2.53,3.89-2.72,6.31A3.18,3.18,0,0,1,213.74,87h0c-1.26.35-1.64,1.38-1.9,2.49-.33,2.8.32,6-2.79,7.76Z"/><path id="Path_11087" data-name="Path 11087" class="cls-23" d="M209,97.26c.94-2.59,1.87-5.17,2.79-7.76C213.81,94.59,213.49,95.46,209,97.26Z"/><path id="Path_11088" data-name="Path 11088" class="cls-10" d="M195.15,104.41l1.6-1.07Z"/><path id="Path_11089" data-name="Path 11089" class="cls-24" d="M202.18,59.78a9.23,9.23,0,0,0-8.3,1.2c-.57-6,.9-11.32-.94-16.45-.51-1.41.53-2.57,2.07-3,1.31-.36,2.63-.93,3.28,1,1.62,4.88,4,1.59,5.13,0,3.26-4.3,7.63-7,12.16-9.54,2.91,2.36,5.62,4.76,2.52,8.83.4.5.65,1.11,1.09,1.6h0c-.47,2.46-5.54,3.37-2.35,7.15.68.81-.2,1.57-1.09,2a18.76,18.76,0,0,1-6.37,2c-2.45.3-5,.93-5.6,4l-.22.48a2,2,0,0,1-.85.6Z"/><path id="Path_11090" data-name="Path 11090" class="cls-22" d="M222.69,69.22c-1.51-2.14-.05-3.72,1-5.38Q226.06,67.07,222.69,69.22Z"/><path id="Path_11091" data-name="Path 11091" class="cls-22" d="M220.32,74.36c-1.18-1.16-1-2.06.51-2.7Z"/><path id="Path_11092" data-name="Path 11092" class="cls-22" d="M218.48,76.79l1.59-1.1Z"/><path id="Path_11093" data-name="Path 11093" class="cls-22" d="M220.83,71.65l1.6-1.1Z"/><path id="Path_11094" data-name="Path 11094" class="cls-8" d="M219.19,43.48l-1.09-1.6Z"/><path id="Path_11095" data-name="Path 11095" class="cls-18" d="M123.06,65.75l-.76,4a5.08,5.08,0,0,1-.07.67c-.34,1.63,1.42,3.62-.8,4.9a1.4,1.4,0,0,1-1.23,0c-2-1.48-1.45-3.78-1.21-5.6A5,5,0,0,1,123.06,65.75Z"/><path id="Path_11096" data-name="Path 11096" class="cls-25" d="M203.78,58.69A49.72,49.72,0,0,1,217.23,58c.44,3,0,5.48-3.12,6-4,.59-6.26,3.12-8.61,5.91A31.26,31.26,0,0,1,201.05,74c-2.21,1.76-4.44,2.28-6.42-.45-1.85-2.54-1.8-5.15.75-7.2s5.09-3.79,6.8-6.56h0A14.46,14.46,0,0,0,203.78,58.69Z"/><path id="Path_11097" data-name="Path 11097" class="cls-8" d="M203.78,58.69l-1.6,1.09Z"/></g><line id="Line_14-2" data-name="Line 14-2" class="cls-26" x1="80.06" y1="61.32" x2="160.9" y2="61.32"/><g id="Se_stilart_site-2" data-name="Se stilart site-2"><g id="Group_198" data-name="Group 198"><g id="Se_stilartsite" data-name="Se stilartsite"><g id="Se_spil" data-name="Se spil" class="cls-27"><g class="cls-27"><path class="cls-28" d="M95.86,54.63a7.52,7.52,0,0,1-2.56-.4,6.16,6.16,0,0,1-2.13-1.32.89.89,0,0,1-.33-.39,1,1,0,0,1-.12-.47,1,1,0,0,1,.29-.68.9.9,0,0,1,.69-.3,1,1,0,0,1,.6.22,5.63,5.63,0,0,0,1.6,1.06,4.83,4.83,0,0,0,1.94.36,3.94,3.94,0,0,0,1.48-.26,2.62,2.62,0,0,0,1.06-.7,1.44,1.44,0,0,0,.4-1,1.77,1.77,0,0,0-.4-1.19,3.2,3.2,0,0,0-1.18-.78,11.76,11.76,0,0,0-1.86-.53,8.78,8.78,0,0,1-1.79-.5,4.75,4.75,0,0,1-1.35-.81,3.36,3.36,0,0,1-.86-1.17,4,4,0,0,1-.29-1.58,3.47,3.47,0,0,1,.64-2.1,4.12,4.12,0,0,1,1.74-1.36,6.11,6.11,0,0,1,2.47-.48,7,7,0,0,1,2.36.39,4.88,4.88,0,0,1,1.79,1.05,1.23,1.23,0,0,1,.48.9,1,1,0,0,1-.29.67.9.9,0,0,1-.67.31.71.71,0,0,1-.48-.16,3.17,3.17,0,0,0-.87-.61,6.87,6.87,0,0,0-1.15-.45,4.06,4.06,0,0,0-1.17-.18,4.4,4.4,0,0,0-1.54.25,2.42,2.42,0,0,0-1,.68,1.63,1.63,0,0,0-.33,1,1.61,1.61,0,0,0,.39,1.12,2.65,2.65,0,0,0,1.09.71,11.76,11.76,0,0,0,1.6.49,17.54,17.54,0,0,1,2,.54,5,5,0,0,1,1.48.77,3.28,3.28,0,0,1,.92,1.17,4.27,4.27,0,0,1,.31,1.74,3.4,3.4,0,0,1-.67,2.1,4.61,4.61,0,0,1-1.79,1.4A5.91,5.91,0,0,1,95.86,54.63Z"/><path class="cls-28" d="M107.84,54.63a5.78,5.78,0,0,1-2.87-.69,4.82,4.82,0,0,1-1.9-1.9,5.68,5.68,0,0,1-.67-2.77,6.06,6.06,0,0,1,.71-3A5.2,5.2,0,0,1,105,44.34a4.84,4.84,0,0,1,2.43-.67,4.55,4.55,0,0,1,1.85.39,4.89,4.89,0,0,1,1.57,1.08,5,5,0,0,1,1.08,1.62,5.22,5.22,0,0,1,.42,2,.88.88,0,0,1-.32.66,1,1,0,0,1-.7.26h-7.76l-.48-1.7h7.52l-.38.36v-.5a2.28,2.28,0,0,0-.48-1.23,2.95,2.95,0,0,0-2.32-1.11,3.81,3.81,0,0,0-1.16.19,2.57,2.57,0,0,0-1,.61,3.17,3.17,0,0,0-.68,1.11,5,5,0,0,0-.26,1.71,3.9,3.9,0,0,0,.46,1.92A3.29,3.29,0,0,0,106,52.34a3.42,3.42,0,0,0,1.74.45,4.08,4.08,0,0,0,1.2-.15,2.83,2.83,0,0,0,.8-.37,4.53,4.53,0,0,0,.56-.42,1.27,1.27,0,0,1,.6-.18.82.82,0,0,1,.6.25.84.84,0,0,1,.24.59,1,1,0,0,1-.44.8,4.58,4.58,0,0,1-1.49.92A5,5,0,0,1,107.84,54.63Z"/><path class="cls-28" d="M119.42,52.79a1.07,1.07,0,0,1-.16-.65.86.86,0,0,1,.42-.63.92.92,0,0,1,.59-.15,1,1,0,0,1,.59.31,4.44,4.44,0,0,0,1.25,1,3.58,3.58,0,0,0,1.67.36,3.41,3.41,0,0,0,.82-.13,1.51,1.51,0,0,0,.72-.4,1.11,1.11,0,0,0,.3-.85,1,1,0,0,0-.32-.8,2.42,2.42,0,0,0-.84-.49c-.34-.12-.72-.24-1.12-.35s-.85-.25-1.29-.4a4.54,4.54,0,0,1-1.17-.57,2.75,2.75,0,0,1-.85-.91,2.66,2.66,0,0,1-.33-1.38,2.6,2.6,0,0,1,.53-1.62,3.75,3.75,0,0,1,1.38-1.06,4.57,4.57,0,0,1,1.85-.38,5.28,5.28,0,0,1,1.22.15,5.19,5.19,0,0,1,1.24.47,3.7,3.7,0,0,1,1,.84,1.12,1.12,0,0,1,.23.62.71.71,0,0,1-.33.64.74.74,0,0,1-.58.18.85.85,0,0,1-.56-.22,2.55,2.55,0,0,0-1-.75,3.29,3.29,0,0,0-2.15-.16,1.68,1.68,0,0,0-.69.39,1.15,1.15,0,0,0-.28.82,1,1,0,0,0,.33.8,2.59,2.59,0,0,0,.87.5,9.1,9.1,0,0,0,1.18.36c.42.11.83.24,1.23.38a4.57,4.57,0,0,1,1.1.57,2.62,2.62,0,0,1,1.11,2.29,2.52,2.52,0,0,1-.57,1.67,3.64,3.64,0,0,1-1.44,1.05,4.74,4.74,0,0,1-1.83.36,6.49,6.49,0,0,1-2.27-.41A4.16,4.16,0,0,1,119.42,52.79Z"/><path class="cls-28" d="M134.9,43.73a4.53,4.53,0,0,1,2.49.7,5,5,0,0,1,1.73,1.91,5.91,5.91,0,0,1,.64,2.81,6,6,0,0,1-.64,2.83,4.89,4.89,0,0,1-1.72,1.93,4.54,4.54,0,0,1-3.88.46,4.56,4.56,0,0,1-1.2-.63,4.48,4.48,0,0,1-.85-.83,2.17,2.17,0,0,1-.41-.82l.54-.26v5.58a1,1,0,0,1-.29.73,1,1,0,0,1-1.43,0,1,1,0,0,1-.28-.73V44.89a1,1,0,0,1,.28-.72,1,1,0,0,1,1.43,0,1,1,0,0,1,.29.72v1.38l-.32-.18a1.84,1.84,0,0,1,.38-.79A4.23,4.23,0,0,1,133.59,44,4.14,4.14,0,0,1,134.9,43.73Zm-.22,1.84A3,3,0,0,0,133,46a3.34,3.34,0,0,0-1.11,1.27,4.18,4.18,0,0,0-.4,1.84,4.29,4.29,0,0,0,.4,1.85A3.15,3.15,0,0,0,133,52.3a2.92,2.92,0,0,0,1.67.47,2.8,2.8,0,0,0,1.64-.47,3.15,3.15,0,0,0,1.11-1.3,4,4,0,0,0,.41-1.85,3.91,3.91,0,0,0-.41-1.83A3.3,3.3,0,0,0,136.32,46,2.87,2.87,0,0,0,134.68,45.57Z"/><path class="cls-28" d="M142.78,42.51a1.37,1.37,0,0,1-.84-.21.86.86,0,0,1-.26-.71v-.32a.83.83,0,0,1,.28-.7,1.49,1.49,0,0,1,.84-.2,1.37,1.37,0,0,1,.86.21.82.82,0,0,1,.26.69v.32a.83.83,0,0,1-.27.72A1.43,1.43,0,0,1,142.78,42.51Zm1,10.9a1,1,0,0,1-.28.73.91.91,0,0,1-.72.29,1,1,0,0,1-.71-.29,1,1,0,0,1-.29-.73V44.85a1,1,0,0,1,.29-.73,1,1,0,0,1,.71-.29,1,1,0,0,1,.72.29,1,1,0,0,1,.28.73Z"/><path class="cls-28" d="M148.66,53.41a1,1,0,0,1-.29.73.94.94,0,0,1-.71.29,1,1,0,0,1-.71-.29,1,1,0,0,1-.29-.73V40.65a1,1,0,0,1,.3-.73,1,1,0,0,1,.72-.29.93.93,0,0,1,.71.29,1,1,0,0,1,.27.73Z"/></g></g></g></g></g><path id="Path_11-2" data-name="Path 11-2" class="cls-28" d="M126.53,77.77h0a1.47,1.47,0,0,0-.45-1.06h0l-8.78-8.78h0a1.46,1.46,0,0,0-2,2.14l0,0h0L123,77.77l-7.77,7.77h0a1.46,1.46,0,0,0,.1,2.07,1.48,1.48,0,0,0,2,0h0l8.78-8.79h0a1.47,1.47,0,0,0,.45-1Z"/></g></svg>
