<svg id="Layer_1" data-name="Layer 1" xmlns="http://www.w3.org/2000/svg" viewBox="0 0 708.66 255.12"><defs><style>.cls-1{fill:#59c0ea;}.cls-2{fill:#80cbea;}.cls-3{fill:#85cee9;}.cls-4{fill:#90d0e9;}.cls-5{fill:#5bbce7;}.cls-6{fill:#28abe2;}.cls-7{fill:#a2d5ec;}.cls-8{fill:#6bbee4;}.cls-9{fill:#6ec4e7;}.cls-10{fill:#63accd;}.cls-11{fill:#4aaad6;}.cls-12{fill:#48a8d5;}.cls-13{fill:#2e9dd1;}.cls-14{fill:#58a6ca;}.cls-15{fill:#75b5d5;}.cls-16{fill:#3c99c2;}.cls-17{fill:#3794cc;}.cls-18{fill:#63abcf;}.cls-19{fill:#73b6d3;}.cls-20{fill:#62c3ea;}.cls-21{fill:#54bce8;}.cls-22{fill:#46bae7;}.cls-23{fill:#efeff3;}.cls-24{fill:#65c3e7;}.cls-25{fill:#77c9e9;}.cls-26{fill:#6fb4d3;}.cls-27{fill:#6cb7d8;}.cls-28{fill:#60b3d8;}.cls-29{fill:#50bde9;}.cls-30{fill:#4ea6ce;}.cls-31{fill:#4ca6cc;}.cls-32{fill:#3cb6e6;}.cls-33{fill:#76c8e8;}.cls-34{fill:#39ade1;}.cls-35{fill:#48a9d0;}.cls-36{fill:#52abd1;}.cls-37{fill:#6bc4e6;}.cls-38{isolation:isolate;}.cls-39{fill:none;stroke:#717070;}</style></defs><title>04_headline</title><g id="Group_190" data-name="Group 190"><path id="Path_10550" data-name="Path 10550" class="cls-1" d="M120,42.66c.06.7.12,1.4.19,2.1,7.94,7.35,18.78,6,28.06,9.37,4.91,4.42,7.13,9.33,16.94,3.5,14.4-8.55,25.34,1.56,23.94,18.85-.86,10.54,6.12,20.59,1.55,31.65-1.5,3.64-2.17,7.76-4,11.5-3.25,6.65-7.35,9.37-13.87,4-3-2.43-6.22-4.85-9.89-2.41a101.9,101.9,0,0,0-29.37,30.31c2.62,2.49,4,2.53,5.35,2.17,5-1.29,10.21-6.65,15-.73,4.3,5.33,1.91,11.34-.71,16.87-2.75,5.79-4.72,12.09-9.28,16.78-4.84,5-6.11,10.13-5.3,17.32,1.48,13-7.15,18.85-18.85,13.43-9-4.18-17.59-7.35-27.34-2.14-3.18,1.7-8,2.19-10.72.31-12.22-8.33-27.48-5.15-40.17-11.39-5.44-2.68-12.14-4.73-10.46-12.25,1.52-6.78,5.9-14.28,13.42-13.62,10.2.9,11.47-5.52,15.38-11.85,6.39-10.36,11.6-20.2,8.46-33-1.23-5,2.4-9.64,5-14,4.58-7.65,3.47-13.87-4.07-18.62a2.19,2.19,0,0,0-2.51.85c-2.72,4.44-4.15,12.7-10.84,9.77a18.16,18.16,0,0,1-10.3-20.59c1.63-7-.78-12.35-2.37-18.32a14.2,14.2,0,0,1,.4-3.67,14.69,14.69,0,0,1,2.52-4.61c1-1.28,2.12-2.46,3.19-3.67.91-1.22,1.79-2.48,2.59-3.8a17,17,0,0,1,1.73-2.54,18.29,18.29,0,0,1,2.2-2.2,31.19,31.19,0,0,1,2.54-1.91,35.46,35.46,0,0,0,5.88-5.8A30.35,30.35,0,0,1,72,39c15.28-7.29,29.84-1.35,44.52,2.42A2.69,2.69,0,0,1,120,42.66Z"/><path id="Path_10551" data-name="Path 10551" class="cls-2" d="M695.8,80.86c4.46,6.61,2.34,14.83,5.33,21.8-3.23,2.9-2.27,6.35-1.27,9.81,0,3.15.3,6.29-.37,9.41-1.9,3.54-4.81,4.31-8.45,3.13a22.74,22.74,0,0,1-3.6-1.61c-4.54-2.52-9.47-3.15-14.58-2.94-4.66.19-7.41-2.28-9.69-6.24-6.43-11.2-17.4-13.83-25.86-4.57-6.51,7.1-15.85,13.53-13.75,26.25,1.3,7.92-6.47,11.41-11.71,15.61s-7.45,6.62-2.22,14.05c6.23,8.84,7.56,20.9,18.63,26.91,2.35,1.28,1.63,5.92-.24,8.9-10-3.69-19.47,4.76-29.47,1.3C586,187.44,585.78,186.91,567,194.09c-19,7.25-39.31,8.59-58.54,14.9-12.78,4.2-17-1.19-13.13-13.76.54-1.79,1.43-3.58.45-5.28-6.81-11.81.06-14,10-17.39,12.36-4.19,23.6-6.39,37.09-4.4,13.26,2,26.9-2.44,37.62-13,4.69-4.6,4.9-6.66-.17-10.4-12.65-9.31-13.22-15-1.12-24.8,6.66-5.37,7.93-11.52,8.17-19.19.46-15.13,2.36-16.59,16.72-18.58,10.76-1.5,16.2-10.51,20.3-18.74,2.73-5.47,5.07-11.44,10.77-10,13.3,3.4,29.4,2.51,36.17,18.87,1.39,3.36,4.54,4.29,8,4.33,13-1.69,14.68,7.08,14.05,14.17C692.46,89,692.09,84.76,695.8,80.86Z"/><path id="Path_10552" data-name="Path 10552" class="cls-3" d="M627,201.88c.33-5.84-.12-10.7-7.55-12.33-6.58-1.44-9.6-6.3-9-13.36.36-4.56.24-8.5-5.94-10.52-5.95-2-6.53-7.41-2-11.49a101.4,101.4,0,0,1,13.11-9.86c6.11-4,8.18-8.2,2.82-14.45-2.86-3.33-3.61-6.63,2.68-7,4.77-.24,5.16-4.76,6.55-7.76,4.81-10.4,13.7-13.88,24.05-15.08,9.53-1.1,12.16.56,13.81,10.14,1,5.58,2.4,8.25,8.78,6.69,6.05-1.48,11.82,0,16.14,5.07-2.24,8.15-9,12.46-15,17.26-7.85,6.27-14.5,1.54-21.36-4.23-5.87,12.59-1.19,26.17-7.2,37.56-.66,1.25-.14,3.38,1,3.71,14.17,4.26,10.49,21.5,20.84,28.45l-.15.08c-2.24,4.86-7.83,2.8-11.17,5.4-2.67,1.15-5.14,2.93-8.27,2.67C640.41,211.66,630.29,213.58,627,201.88Z"/><path id="Path_10553" data-name="Path 10553" class="cls-4" d="M668.56,204.73c-7.43-3.5-16.22-5.87-12.63-17.51,1.2-3.89-2.3-3.84-4.85-4.74-11.69-4.13-12.26-5.21-6.31-14.79,1.82-2.94,4-4.82.73-8-.76-.75-1.25-3-.73-3.68,4.79-6.34,2.26-14,4.07-20.84s4-7.7,8.85-2.93c9.8,9.74,10.65,9.73,20.44.58,4-3.71,7.15-8.32,12.18-10.84h0c1.89,4.5,5,7.29,10.15,7.38,1.6,1.21,2.67,3.06,1.9,4.75-4.29,9.31-4.05,19.57-6.45,29.27h0c-3.1,5-7.7,5.25-13.11,5.15-13.29-.24-18.45,8.45-13.11,20.87,1.75,4.08,7.78,7.81,1.58,12.92Z"/><path id="Path_10554" data-name="Path 10554" class="cls-5" d="M613.24,210c-15.82,10.19-33.23,16.5-50.85,22.93a455.47,455.47,0,0,1-45.76,13.53c-14.1,3.54-27.76,3.85-41.41-2.61-11.94-5.66-24.94-9.1-35.64-17.34-1.55-1.57-4-1-5.62-2.39-6-1.76-12.6-2.35-16.67-8.12a9.34,9.34,0,0,1,1.55-5.35,6.69,6.69,0,0,1,3.07-2.08c5.19-.25,9.93.56,12.88,5.52-.88.39-.16,3.41-2.47,1.49,2.59,1.66,2.47-1.86,4.06-2.14,4.91-2.41,9.81-4.59,15-.63.9,10.66,8,14.94,17.09,18.85,21.55,9.29,41.64,9.46,62.83-2.31,17.14-9.52,38-9.16,56.25-16.41,4.22-1.67,8.83-2.31,12.14-5.83,3.26-2.6,7-4.71,11.09-4.34C615.7,203.17,619.23,205.21,613.24,210Z"/><path id="Path_10555" data-name="Path 10555" class="cls-6" d="M205.75,246.43a3.14,3.14,0,0,1-3.27,1.48c-14.92-1.43-29.88-.15-44.81-.66-17.34-4.54-35.15-6.64-52.77-9.66-9.55-2.9-18.9-6.4-28.34-9.63-2.76-1.86-7.52-2.07-6.07-7.4,4.3-3.55,9.38-4.13,14.69-3.86,16.56,8.69,34,13.29,52.88,11.79,5.95-.48,12.17-.34,17.63,2.2a48.38,48.38,0,0,0,29.4,3.77,21.49,21.49,0,0,1,21,7.83A3.59,3.59,0,0,1,205.75,246.43Z"/><path id="Path_10556" data-name="Path 10556" class="cls-7" d="M671.29,202.32c3.37-6.32-4.44-8-5.92-12.83-2.27-7.38-3-12.16,1.76-18.46s9.19-9.57,17.06-5.65c4,2,8-.29,11.73-2-2.68,8-4.65,16.41-8.27,24C684.4,194.23,679.2,200.05,671.29,202.32Z"/><path id="Path_10557" data-name="Path 10557" class="cls-8" d="M695.81,80.86V98.59c-6.36-2.82-5.12-6.82-5.52-10.2-1-8.6-1-8.6-11-7.73-8-21.72-24.83-28.42-46.42-27.9-5.58.13-12.15-.35-14.75-7.4,5.5-5.61,11.45-3.08,17.37-.94a6.28,6.28,0,0,1,2.36.28c10.25,4.76,20.43-1.55,30.66-.18C684,51.86,691.89,64.86,695.81,80.86Z"/><path id="Path_10558" data-name="Path 10558" class="cls-9" d="M613.24,210c.5-2,2.24-4.51-1.32-5.13-4.45-.76-7.84,1.07-9.75,5.31-1.37,1.33-3.09,1.34-4.83,1.27-3-1.25-5.61-3.67-9.2-3.48-1.74,0-3.47,0-5.22,0-1.22.1-2.43.1-3.65.12s-2.51.12-3.77.15c-5.34-.23-10.28,2.23-15.57,2.33-2.9,0-5.63-.6-7.87-2.63a6.12,6.12,0,0,1,.72-7.51c9.16-10.28,37.41-9.33,46.65,1.5,4.27.41,8-1.14,11.67-3.08,8.91-4.71,8.93-4.69,15.85,3.09,5.65,7.06,15.19,6.32,22,11-5.48,3.58-10.91,2.92-16.5.06C626.43,209.86,620.16,207.63,613.24,210Z"/><path id="Path_10559" data-name="Path 10559" class="cls-10" d="M147.76,55.93c-4.89-.55-9.34-2.8-14.41-3.12-5.39-.35-10.52-2.5-13.15-8,11.93,4.74,24.69,5.72,37.18,7.67,8.92,1.39,17.88,1.38,26.87-1.93,18.18-6.69,36.74-12.37,54.21-20.85,4.47-2.17,8.54-5.16,12.88-7.62,5.18-2.94,10.55-5.4,16.74-5.08a3.36,3.36,0,0,1,4,.07c-4.89,11.27-17.68,10.66-25.77,17.16-21.61,11-43.4,22.07-68.08,23.06C168.24,57.66,157.64,61.64,147.76,55.93Z"/><path id="Path_10560" data-name="Path 10560" class="cls-11" d="M420.4,212.88,417.29,216a7.7,7.7,0,0,1-2.49-.69c-.94-.74-1.85-1.5-2.74-2.29l0,0c-1.44-1.86-4-1.27-5.69-2.68-3-1.07-6.1-1.94-9-3.23-21.52-9.51-43.34-10.6-65.57-2.61-3.42,1.23-7,2-10.5,3.05a7.32,7.32,0,0,1-2.44,1.54l-11.61,3.87a4.3,4.3,0,0,1-3.78,1.16,2.57,2.57,0,0,1-2.13-2.84c7.78-9.49,20.75-8.84,30-15.41,19.67-10.28,39.74-7.78,59.57-1,8.16,2.77,16.21,6.09,24.18,9.48C418.23,206.31,418.29,210.23,420.4,212.88Z"/><path id="Path_10561" data-name="Path 10561" class="cls-12" d="M70.63,221.14l5.55,5.51a1.65,1.65,0,0,1,.68,1.86c-.24.61-.47.92-.7.92-8.32-3.68-17-6.78-24.9-11.17-13.21-7.31-26.17-15-40.72-19.44-2.24-1-1.52-3.87-3.2-5.24h0c-.72-5.51-4-10.61-2.65-16.46a5,5,0,0,1,3.44-1.47,5.62,5.62,0,0,1,3.22,1.83c2.49,10.31,9,16.81,19,20.14,8.5,5.27,17.89,8.62,26.93,12.71C62.69,212.77,68.33,214.87,70.63,221.14Z"/><path id="Path_10562" data-name="Path 10562" class="cls-13" d="M103.63,235c17.46,3.65,36.39.2,52.36,11-1.24,2-3.69.93-5.25,2.12-18-2.22-36-3.77-53.22-10C98.67,235.27,101.87,236.55,103.63,235Z"/><path id="Path_10563" data-name="Path 10563" class="cls-14" d="M302,212.89l2.79.09-.09,1.63c-9.91,3.66-19.6,8-30.17,9.53a16.69,16.69,0,0,1-2.5,1.66c-16.34,6.6-32.5,13.73-50,16.94a3.85,3.85,0,0,1,.18-4.1C241.42,227,263,221.18,283.91,213.8,289.65,211.78,295.72,207.94,302,212.89Z"/><path id="Path_10564" data-name="Path 10564" class="cls-7" d="M695.9,163.39c-1.43-4.24,2.88-9.8-3.76-13.1-2.69-1.33.38-3.83,1.92-5.26,4.41-4.07,8.49-8.17,4.53-14.78-2.55-2.73-2-5.49-.07-8.25l.09-11a1.61,1.61,0,0,1,2.21-.54,1.54,1.54,0,0,1,.46.42c-1,12.06,4.39,23.65,2.68,35.77l0,0C699.47,151.36,702,159.45,695.9,163.39Z"/><path id="Path_10565" data-name="Path 10565" class="cls-15" d="M635.5,44.42c-5.53,2.69-11.22-.75-16.79.4-3.25.68-6.37,0-9.48-.85-5-2.29-12.67-1.2-12.48-10,1.66-1.74,3.48-1.7,5.41-.5l2.73.35c3,3.19,7.92-.54,10.85,3l0-.06c1.63,1.4,4.16.95,5.61,2.72l0,0c4.14,3.22,9.76-.73,13.83,2.84C635.28,43,635.39,43.71,635.5,44.42Z"/><path id="Path_10566" data-name="Path 10566" class="cls-16" d="M150.74,248.08c1.31-1.8,3.24-2.06,5.25-2.12,12.09,0,24.17-.05,36.26,0,3.51,0,7.23-.79,10.24,2C185.24,250.57,168,249.4,150.74,248.08Z"/><path id="Path_10567" data-name="Path 10567" class="cls-17" d="M103.63,235c-1.32,2.44-3.75,2.7-6.11,3.08-5.9-.43-10.9-3.23-15.88-6.08-1.53-1.5-4-1-5.5-2.57h0c0-.93,0-1.85,0-2.78C85.81,227.86,95.16,230,103.63,235Z"/><path id="Path_10568" data-name="Path 10568" class="cls-18" d="M668.52,44.53c-10.2,3.63-20.41,5.54-30.66.17,6.54-.57,13.15.18,19.6-2.16C661.17,41.2,665.32,41.16,668.52,44.53Z"/><path id="Path_10569" data-name="Path 10569" class="cls-16" d="M222.05,240.47l0,2.27c-5.34,1.61-10.46,4.14-16.27,3.69l-.18-3.22C210.26,237.48,215.61,235.66,222.05,240.47Z"/><path id="Path_10570" data-name="Path 10570" class="cls-19" d="M701.28,110.93q-1.34,0-2.67.12c-4.31-4.35-3.4-7.12,2.52-8.38Z"/><path id="Path_10571" data-name="Path 10571" class="cls-4" d="M657.24,210.21c2.77-3.78,7.66-3.16,11.17-5.4C667.18,211.76,661.71,210,657.24,210.21Z"/><path id="Path_10572" data-name="Path 10572" class="cls-12" d="M76.14,229.42c2.26,0,4.26.46,5.5,2.58C79.37,232.07,77.43,231.45,76.14,229.42Z"/><path id="Path_10573" data-name="Path 10573" class="cls-20" d="M434,224.07c2.26-.1,4.32.26,5.62,2.39A5.79,5.79,0,0,1,434,224.07Z"/><path id="Path_10574" data-name="Path 10574" class="cls-21" d="M406.4,210.32c2.38-.13,4.48.33,5.69,2.68A6.43,6.43,0,0,1,406.4,210.32Z"/><path id="Path_10575" data-name="Path 10575" class="cls-22" d="M318.87,209.07l2.44-1.55C320.5,208,319.69,208.56,318.87,209.07Z"/><path id="Path_10576" data-name="Path 10576" class="cls-22" d="M304.69,214.61c0-.55.06-1.09.08-1.63.83,0,1.66,0,2.49,0A2.24,2.24,0,0,1,304.69,214.61Z"/><path id="Path_10577" data-name="Path 10577" class="cls-21" d="M412.06,213l2.74,2.29A3.07,3.07,0,0,1,412.06,213Z"/><path id="Path_10578" data-name="Path 10578" class="cls-23" d="M607.68,218.43l-2.75,2.74Z"/><path id="Path_10579" data-name="Path 10579" class="cls-22" d="M272,225.8l2.5-1.66Z"/><path id="Path_10580" data-name="Path 10580" class="cls-24" d="M596.8,33.61c1.65,7.49,10.27,3.76,13.63,8.49-8.85,7.68-7.88,19.83-13.32,29.33-8.15,14.22-20.48,25.28-27.82,40-2.49,5-7.86,5.89-13.26,5-7.15-1.55-10.15-8.86-17.29-13-.8,17.72-9.49,27.76-26.07,30.6a7.38,7.38,0,0,0-3.67,1.8c-13.91,12.94-31.83,7.42-47.82,9.62-13.68,1.89-20.66-9.38-25.51-20.92,2-9.41-5.8-17.92-1.64-28.07,2.53-6.18,2.45-12.89,9-17.43,4.78-3.34,4.51-8.34-.61-12.47-9.1,17.27-25.49,20.25-44.81,17.25-28.1-4.36-36.16-26.88-48.75-45.57-5.92-8.8,4.28-19.3,16.91-16.86,9.72,1.88,18.68,6.08,29.17,2.67,4.7-1.52,7.65,3.86,9.66,8.17,1.68,3.61,3.32,10.18,7.42,8.35,13.06-5.84,23.73,4.88,35.82,3.57a20,20,0,0,0,5.41,0c3.78-1,7.23,4.81,11.19.57L467,42c3.34-2.83,3.69-7.24,5.72-10.77l.12-.11c9-.57,10.07,6,11,12.48.7,4.77-3.48,11.84,1.82,13.91,7,2.71,15.77,7.2,22.35,4.16,13.55-6.26,29.47-5.61,41.69-15.23,3.12-2.46,8.33-3.26,7.9-8.36-.44-5.37-5-7.28-9.62-8.38-4-.94-8.34-.65-12-2.59-6.94-3.67-10.54-8.07-1.85-14,20.24,8.82,43.66,8,62.66,20.56Z"/><path id="Path_10581" data-name="Path 10581" class="cls-25" d="M533.33,14.52c-2.44,4.22-2.56,7.53,2.85,9.68A23.78,23.78,0,0,0,547,25.51c6.28-.5,10.46,2.74,13.93,7.21,4.38,5.64,3.51,9.48-2.65,13.42-7.56,4.83-17.37,5.92-23,13.9-10.71-3.25-19,3.38-28.21,6.59-4.44,1.55-8.57-2.42-12.82-4-4.76-1.71-10.89,4.64-14.77-2.51-2.82-5.2.85-9.71,1.47-14.54.88-6.84-2.15-11.4-8-14.48,9-23.47,38.68-32.57,63.53-19.61C536.05,13.21,534.4,13.56,533.33,14.52Z"/><path id="Path_10582" data-name="Path 10582" class="cls-26" d="M533.33,14.52l3.08-3a4.62,4.62,0,0,1,1.33.12c14.43,6.1,29.76,8.59,45,11.22,1.51,1.62,4.1,1.09,5.6,2.75h0c1.48,4.1,6.26,4.76,8.46,8.11-2.24-.2-4.87.3-6.64-.71C572.49,22.88,551.1,24.25,533.33,14.52Z"/><path id="Path_10583" data-name="Path 10583" class="cls-27" d="M376.34,9c9.17,2.69,18.4,5.23,27.51,8.11,10.5,3.33,20.74,7.25,27.79,16.47l-1.24,1.38a7.54,7.54,0,0,1-5.47.17,34.72,34.72,0,0,1-5.16-2.34c-12.2-7.14-26.25-9.27-39.15-14.51-3.79-1.39-7.63-2.67-10.3-6a4.58,4.58,0,0,1,.4-3.9A4.47,4.47,0,0,1,376.34,9Z"/><path id="Path_10584" data-name="Path 10584" class="cls-28" d="M453.5,44.92l-2.8,2.68c-3.9-2.39-8.79-1.13-12.68-3.3S428,41,431.36,34l.27-.42c8.4.21,14.68,5.58,21.77,9,1,.5,1.32,1,1,1.57S453.82,44.92,453.5,44.92Z"/><path id="Path_10585" data-name="Path 10585" class="cls-25" d="M453.5,44.92c0-.81-.07-1.62-.1-2.42l11,2.11C460.92,50,457.17,46.18,453.5,44.92Z"/><path id="Path_10586" data-name="Path 10586" class="cls-25" d="M472.76,31.26C473,36,472.19,40.16,467,42,467.79,37.83,469.12,33.93,472.76,31.26Z"/><path id="Path_10587" data-name="Path 10587" class="cls-29" d="M70.63,221.14l-41.32-22c-12.71-7.16-13.46-13.1-3-23.56,17.75-17.71,18.43-32.32,1.8-51.3-5.88-6.7-9.14-13.61-6.53-22.51a10.4,10.4,0,0,1,2.07-3.17C30.85,91,34.45,81.08,40.52,72.74a14.5,14.5,0,0,1,2-3.33,2.44,2.44,0,0,1,3.37.24c.08,1.37-.37,3.54.32,4,7.67,5.09,6.46,10.65,1.86,17.19-1.66,2.36,5.93,18.26,8.56,18.83s4.33-1.36,5-3.61c1.45-4.6.73-10.15,5.86-13,3.24.25,2.72,3.37,4.11,4.92,11.21,12.55,11.72,12.85,3.15,26-4.86,7.44-4.15,14.28-1.18,21.48,1.09,2.66,3.06,5.32.33,7.31-9,6.59-11.61,17.08-16.14,26.27-2.38,4.82-3.84,7-8.63,3-2.22-1.86-5.41-3.08-7.34-.51-3,3.94-7.8,6.79-8.65,12-.52,3.16,2.41,5.21,5,5.69,8.17,1.5,15,8.09,24.33,5.67,4.79-1.24,9.76-.34,13.51,4.43,4.81,6.09,13.26,5.61,17.46,2.3,9.9-7.8,17.38-1,25.6,1.66,4.08,1.29,7.68,6.84,12.16,2.92s7.3-9.62,3.28-15.91c-2.78-4.34-1.65-7.89,2.18-10.65,8.72-6.32,10.4-16.94,15.65-25.36.88-1.41.82-3.54.83-5.34,0-5.7-2.81-7.57-7.52-4.21a40,40,0,0,1-8.45,4.23c-2.24.93-4.4,1.16-6.32-.76a6.37,6.37,0,0,1-1.36-7.55c.9-2.1,1.55-4.68,3.17-6,9.46-7.89,15.91-18.86,26.49-25.6,8.85-5.64,8.75-5.76,16.21,2.79a33.75,33.75,0,0,0,3.06,2.79c10.6-8.24,6.7-21.62,11.74-31.66.42-.83-.56-3.44-1.3-3.63-9.75-2.56-4.27-7.83-2.94-13,1-3.82.34-8.22-.29-12.24-.44-2.86-2.67-4.72-5.95-4.46-.45,0-.88.35-1.32.36-9.73.27-12.24,1.5-21.87,11.06l-8.73-15.09c22.25,2.17,43.36-2.79,64.18-10A106.59,106.59,0,0,0,232.86,36c4.14-2.53,9.32-3.37,14-5,2.9,13.2-.43,18.15-16.11,19.43-12.16,1-18.5,6.35-20.09,18.16-.53,3.94-3.13,8.22,2.56,10.5,4.64,1.85,8.66,8.24,14.46,2.16,4.23-4.42,8.52-4.68,13.21-.64S249.52,89,245.86,96c-3.5,6.6-2.52,12.4,3.8,16.85,4.59,3.23,6,7.94,6.1,13.18a65,65,0,0,0,3.34,20.26c2.06,5.92,1.23,11.36-1.36,17.22-5.68,12.86-3.34,16.74,10.62,20.12,4,1,8.22,1.06,11.78,3.48,2.76,2.78,3.27,6.45,4,10,1.24,6.32-1.61,10.81-6.79,13.74-5.69,3.22-10.51,1.57-14.33-3.64-4.32-5.9-7.67-10.31-13.35-.07-4.54,8.2-13.1,3.69-17.9-.38-6.54-5.55-11.34-13.26-10.13-22.87.44-3.42,3.48-7.26-1-9.84s-9.37-1.9-12.72,1.65c-7.38,7.8-14.91,11.56-25.43,5.62-4.07-2.3-7.88.82-10.78,4-9.49,10.52-20,20.11-27.46,32.44-7.91,13-13.93,13.74-26.81,6.23-10.1-5.89-21.82-4.58-33-5.61C80.16,221,75.48,221.5,70.63,221.14Z"/><path id="Path_10588" data-name="Path 10588" class="cls-30" d="M67.26,41.78c2.53-3.62,6-5.23,10.41-5.58,13.71-1.1,27.27-1.68,39.35,6.69A7,7,0,0,1,108.25,44C96,36,83.35,39.35,70.68,42.12,69.39,43.45,68.26,43.34,67.26,41.78Z"/><path id="Path_10589" data-name="Path 10589" class="cls-31" d="M67.26,41.79l3.42.33L65.1,47.51c-2.57,2.14-5.67,3.49-8.25,5.6h0c-.93.91-1.86,1.83-2.76,2.77h0c-1.17,1.34-1.85,3.19-3.85,3.66-1.91-.65-3.39-1.5-1.76-3.8L49,50.57C55.65,48.87,60,42.34,67.26,41.79Z"/><path id="Path_10590" data-name="Path 10590" class="cls-32" d="M56.85,53.11a8.76,8.76,0,0,1,8.25-5.6A8.2,8.2,0,0,1,56.85,53.11Z"/><path id="Path_10591" data-name="Path 10591" class="cls-32" d="M51.33,58.64l2.78-2.77c0,2.27-.56,4.32-2.74,5.54L50.42,60C50.73,59.57,51,59.1,51.33,58.64Z"/><path id="Path_10592" data-name="Path 10592" class="cls-32" d="M54.1,55.88l2.76-2.78Z"/><path id="Path_10593" data-name="Path 10593" class="cls-32" d="M51.37,61.4l-2.76,2.75-.52-1.88a2.49,2.49,0,0,1,3.26-.89Z"/><path id="Path_10594" data-name="Path 10594" class="cls-32" d="M48.61,64.15l-2.75,2.76c-.36-.47-.72-.94-1.09-1.4L45.71,64l-.05,0q1.56-1.77,2.93.15Z"/><path id="Path_10595" data-name="Path 10595" class="cls-32" d="M45.84,69.65c-.88,0-1.76,0-2.64,0-.87-.59-1.19-1.22-1-1.89s.47-1,.74-1l0,0a2,2,0,0,1,2.87.08h0l0,0C45.85,67.82,45.85,68.74,45.84,69.65Z"/><path id="Path_10596" data-name="Path 10596" class="cls-33" d="M555.35,113.73c5.79.43,10.72-.33,13.18-6.82s10.42-10.54,9.12-19a2.18,2.18,0,0,1,1.81-2.5,2.43,2.43,0,0,1,.66,0c8.39.87,8.63-6.61,11.46-11.29s3-10.48,7.69-14.16c2.35-1.84,1.81-4.52,1.42-7.43-1.23-9.17-1-9.21,9.74-10.38,3,.09,6.27-.45,8.28,2.72a36.63,36.63,0,0,0,24.76,5.34c14.62-2.14,23.74,7.32,33.09,15.19,3.05,2.57,1.94,10.07,2.74,15.31C666,78.32,666,78.32,666.45,65.06c-5.25,1.1-10.81,3-14-3.69-1.69-3.55-6.15-.67-8.69-2.71-5-4-10.25-4.15-14.82.09s1.08,8.25,1.39,13c-6.5,1.42-16.4-.64-13.5,11.59a1.77,1.77,0,0,1-1.54,2,1.79,1.79,0,0,1-1.13-.23c-5.64-3.88-11.38,7.67-17.14-.29-1-1.38-4.1.65-3.94,2.34.51,5.4-2.92,9.86-2.33,15.58.87,8.39,1,17.58-10.84,20.36-4,.93-4.87,6.36-6.55,10.05s-.67,6.49,3.77,6.68a14.29,14.29,0,0,1,7.64,2.64c3.05,2.06,6.14,4.5,6,8.63-.19,4.41-3.35,6.07-7.34,6.78-1.72.3-4.53.89-4.83,1.93-3.35,11.61-14,8.61-21.73,10.62-8,2.1-16.65,5.22-25-.56a9.34,9.34,0,0,0-9.31-.42c-7.6,4.27-14.88,8.63-24.19,8.34-3.25-.1-3.8,3.5-2.41,6.37,5,10.24,5,10.22-2.2,18.19-.22.24,0,.85,0,2.21,5.56,2.33,11.13,3.3,17.44.57,8.78-3.8,18-5.5,27.62-6.87,12-1.71,23.76-6.36,35.37-10.43,13-4.57,14.81-4.26,22.15,6.65,1.56,2.34,3.06,4.54,3.12,7.43-9.13-7.9-18.74-10.56-29.21-2.51-2.44,1.87-4.77,1.73-7.58.81-6.38-2.08-9.32,1.14-10,7.21-10.73,7.84-23.65,4-35.36,6.65-8.57.86-17.2,2.72-25.52-1.24-3-1.13-6-2.19-9-3.45-23.46-10-31.63-31.35-21.28-55.12,1.59-3.64,3.58-6.63,7.85-6.51,18.32.52,37.15-6.36,54.73,4.41,1.42-5.05-1.76-8.55-2-12.62-.3-5.53,1.23-12.27,6.33-12.1C540.51,127.81,547,119.44,555.35,113.73Z"/><path id="Path_10597" data-name="Path 10597" class="cls-3" d="M698.52,122c0,2.75.05,5.5.07,8.25-4.49,4.26-7.21,3.14-8.15-2.78a39.83,39.83,0,0,1-.13-5.46A7.26,7.26,0,0,0,698.52,122Z"/><path id="Path_10598" data-name="Path 10598" class="cls-34" d="M7.42,168.89c4-8.74,5-17.26,3.34-27.25s-4.31-21.71,4.78-30.71a7,7,0,0,1,4.76,4c5.86,18.69,7.9,37.39,0,56.09a8.64,8.64,0,0,1-3.78,1.69,13.4,13.4,0,0,1-7.79-2.32C8.3,169.92,7.86,169.41,7.42,168.89Z"/><path id="Path_10599" data-name="Path 10599" class="cls-32" d="M43.09,72.39c-.91,5,2.85,12.66-7.51,12-3.25-.18-2.33,2.65-2,4.91.91,7.23-2.33,10.91-9.76,10.58-5-7.79,3.47-11.23,5.46-16.76a9.54,9.54,0,0,1,5.16-5.4C37.36,76.08,37.94,70.54,43.09,72.39Z"/><path id="Path_10600" data-name="Path 10600" class="cls-35" d="M29.24,83.17c.28,6.27-7.15,10-5.45,16.76h0c-2.89,4.18-.23,10.58-5.52,13.79l-2.74-2.79c.21-2.8.43-5.59.64-8.38A11.51,11.51,0,0,1,18.29,100l.57-3q1-1.42,2.13-2.76C21,88.56,25,85.76,29.24,83.17Z"/><path id="Path_10601" data-name="Path 10601" class="cls-36" d="M43.09,72.39l-8.68,5.38c.93-5.16,4.08-8.61,8.56-11,.08,1,.15,2,.23,2.93C43.13,70.58,43.1,71.48,43.09,72.39Z"/><path id="Path_10602" data-name="Path 10602" class="cls-36" d="M48.59,64.13,45.66,64c.18-3,.08-6.12,2.84-8.25l2.83,2.9c0,.91,0,1.83,0,2.74Z"/><path id="Path_10603" data-name="Path 10603" class="cls-32" d="M7.27,177.06c-.86,0-1.73,0-2.58.05,0-3.05-.55-6.27,2.73-8.22l.08.08a8.52,8.52,0,0,1,1.73,3.2A5.6,5.6,0,0,1,7.27,177.06Z"/><path id="Path_10604" data-name="Path 10604" class="cls-36" d="M45.82,66.87,43,66.79,45.71,64C45.74,65,45.78,65.91,45.82,66.87Z"/><path id="Path_10605" data-name="Path 10605" class="cls-32" d="M21,94.29l-2.14,2.76Z"/><path id="Path_10606" data-name="Path 10606" class="cls-32" d="M18.29,100l-2.11,2.55Z"/><path id="Path_10607" data-name="Path 10607" class="cls-20" d="M492,210.15a54.66,54.66,0,0,0,24.8,0c-3.07,11-13.7,13.57-21.35,12.72-15.05-1.69-30.79-2.48-44.75-10l-16.52,2.75h0c-3.88-3.59-8.88-4.41-13.76-5.5a6.68,6.68,0,0,1-4-4c-6.77-12.4-14.47-23-31.21-16.17a1.93,1.93,0,0,1-1.36.11c-15.33-12.86-34.76-1.59-51.12-8.68-5.16-2.23-9.84-2.25-15.47.91-12.81,7.2-38.9-2.16-45.78-15.38-1.13-2.17-2.05-5.07-.46-6.47,12.87-11.35,2.12-32.17,17.2-42.53,1.1-.76,1.22-2.46,1-3.84-.62-4.31-3.46-9.22,2.95-11.66a15.32,15.32,0,0,1,15.62,2.44c5.93,5,9.86,5.08,14.23-1.8,6.87-10.83,18.18-8.13,29-7-.05-7.25-5.56-8.14-8.61-10.88C331.5,75.54,317.47,69.75,309,57c-3.67-5.51-7.8-2.94-10.55,2-3.58,6.4-8,8.56-14.29,3.19-5.72-4.86-8.05-10.51-2.74-16.62,6.07-7,10.94-14.11,13.58-23.34,1.78-6.19,7.81-9,14.24-3.69,7.5,6.23,28.6,9,34,2.34,8.35-10.29,17.56-7.38,27.36-5.49,3.83.74,7.76,3.87,11.23-.72a89.87,89.87,0,0,0,17.78,6.48c8.2,2.19,16.74,4.25,23.54,10,.82,1,1.91,1.74,2.77,2.71l5.43.13c.14,4.31,3.71,5.42,6.59,7.36,4,2.69,9.34,2.5,12.75,6.28-7.77.14-15.73.88-22.24-4.63-5.43-4.61-9.45,0-13.6,2-5.94,2.89-9.5,1.94-11.14-4.73a53.45,53.45,0,0,0-2.64-7.77c-3.12-7.49-4.7-8.15-11.39-2.9-2.85,2.25-4.17.6-6.62.35-8.7-.87-16-8.56-25.76-4.54-7.95,3.29-9.92,7.73-4.23,13.93,4.62,5,7.25,11.19,10.71,16.7,6.68,10.63,14,23.27,30.22,21.89,4.54-.38,7.78,2,10.81,5,2.4,2.36,6.17,4.7,8.42,2.08,4.95-5.79,11-6.82,17.93-7.77,5.67-.77,5.58-5.5,4.45-10.77-1.24-5.76,1.44-7.33,6.85-4.94,4.19,1.86,8.34,3.65,8.26,9.57s-.44,10.88-7.57,12.61c-4.7,1.14-7.23,4-3.8,9.06a6.41,6.41,0,0,1,1.19,2.41c.74,4.9-8.93,5.34-5.22,10.94,2.32,3.52,5.13,6.48,4.2,10.94a65.64,65.64,0,0,1-2.61,7.73c-5.08,8.61-12.59,6.35-19.19,3.3-21-9.69-43.45-13.08-65.87-17-7.43-1.28-13.55.25-18.41,6.22-2.62,3.21-5.53,6.29-9.4,7.88-17.05,7-19.93,22.1-22.63,38.36,16.18-12.41,18.83-12.31,35.22,1.38,2.23,1.86,4.78,4.24,7.13,2.47,9.3-7,22-2.23,31.09-9.56,1.43-1.16,3.76-2.45,5-1.65,10.94,6.84,24,3.6,35.43,7.85,4.95,1.85,9.57,5.42,9.61,10.69.1,13.6,12.23,18.57,18.58,27.61,2.8,4,8.13,5,12.57,3.75C468.73,202.62,480.28,206.66,492,210.15Z"/><path id="Path_10608" data-name="Path 10608" class="cls-21" d="M450.7,212.91a72.42,72.42,0,0,1,31.84,4.33c14,5.22,23.7-.78,34.26-7.09l35.8-2.77,8.27,0c6.17,3.07,11.08-1.41,16.52-2.75h2.76a1.62,1.62,0,0,0,2.23.52,1.69,1.69,0,0,0,.51-.52h5.52c2.09,2.83,6.15,2.7,8.27,5.49h5.49c-11.65,7.5-25,11.47-38.17,13.23-10.14,1.36-19.77,4.65-28.77,7.86-7.21,2.58-14.86,6.2-22.16,9.68-7.9,3.77-16.4,3.38-24.25,1.41-10.57-2.65-20.77-6.9-30.93-10.94C448.74,227.74,447.43,223.74,450.7,212.91Z"/><path id="Path_10609" data-name="Path 10609" class="cls-21" d="M417.65,207.39l2.76,2.75v2.74a9.62,9.62,0,0,1-5.54-5.48C415.79,206.05,416.72,206.11,417.65,207.39Z"/><path id="Path_10610" data-name="Path 10610" class="cls-21" d="M434.18,215.66c-.61,1.17-2.45,2.57-2.69,2-1.28-3.1,1.76-1.24,2.68-2Z"/><path id="Path_10611" data-name="Path 10611" class="cls-22" d="M84.41,218.4c12.82-4.83,25.07-3.93,36.12,4.47,7.36,5.59,14.8,5.29,19.18-4,7.2-15.31,20.72-25,30.6-37.78,5.12-6.65,9.84-6.89,17.1-1.36,7.09,5.4,11.7,1.22,14.73-3.77,4.48-7.37,10.72-7.9,17.74-6.93,8.07,1.12,9.92,5.22,5.85,12.53-1.65,3-2.83,5.59-1,8.93,4.86,9,9.06,18.64,22.52,17.77,1.63-4.39-1.53-12.46,5.36-13.24,6-.67,11.13,3.95,13.28,10.06,1.58,4.48,4.72,6.25,8.31,4.18s8.68-4.38,6.89-10.27c-1.1-3.61-1.07-7.21-1.13-10.86a9.2,9.2,0,0,1,9.93-2.81c11.65,3.22,22.83,5.15,33.48-3.25,3.15-2.48,6.84-.57,9.74,2.17,5.67,5.37-.59,10-.81,14.93C323,205.48,311,205.92,302,212.89c-11.93,1.37-22.86,6.19-34,10.14-15.44,5.47-30.64,11.6-46,17.44-5.82-1.1-11,1.9-16.48,2.74-10-5.2-20.15-7.64-31.23-3.19a9.89,9.89,0,0,1-9.28-1c-12.16-8.8-26-5.83-39.52-6.76C111,231.3,95.69,230.13,84.41,218.4Z"/><path id="Path_10612" data-name="Path 10612" class="cls-5" d="M577.39,204.65c-4.94,4.31-9.9,8.52-16.52,2.75C566.37,206.47,571.57,203.68,577.39,204.65Z"/><path id="Path_10613" data-name="Path 10613" class="cls-5" d="M596.68,210.14c-4,.05-8,.06-8.28-5.49C592.41,204.59,596.37,204.61,596.68,210.14Z"/><path id="Path_10614" data-name="Path 10614" class="cls-5" d="M582.89,204.65c-.92,1.56-1.83,1.56-2.75,0h2.75Z"/><path id="Path_10615" data-name="Path 10615" class="cls-1" d="M332.29,199.15c-3.79-.72-6.76-2-2.13-5.62,2.94-2.31,4.61-4.24,1.3-7.55s-6.64-3.77-9.17,0c-7,10.25-17.26,6.33-25.33,4.36-5.79-1.42-11.35-1.51-17-2.18-5.5.07-11,.16-16.19-2.18-3.5-1.58-9.09,1.19-10.67-4.13-1.65-5.53-5-12-.39-17,7-7.62,4.43-15.06,1.36-22.7-2.32-5.81-1.36-11.75-1.65-17.65-.16-3.19.11-6.4-3-8.63-11.36-8.08-12.23-11.06-5.69-22.18,1.73-3,1.85-5-.67-7.06-2.81-2.31-5.72-4.51-8.59-6.76-3.37.41-3.63,3.7-5.3,5.7-5.24,6.29-5.45,6.45-12-.16-3.66-3.68-7.24-5.59-13-1.37-.17-10.07,3.93-17.48,5.17-25.39,1-6.1,6.58-10.89,14.09-11,2.29,0,4.6.11,6.88-.09,13.4-1.17,14.2-2,16.66-16.49,6.94-7,17.11-8.17,24.86-13.72,7,.1,13-2.94,19.22-5.53,3.08,0,6.27.36,8.36-2.7h1.3l1.3,0c4.09-3.3,9.62.59,13.7-2.75L346,6.27c7.92,3.35,16.43,4.1,24.79,5.52l11,2.85c-.25,4.14.36,9.21-6.61,6.18-3.34-1.45-6.5-3.19-10.32-3.54C357.48,16.59,349.33,13.4,347,25c-.47,2.4-3.4,3.73-5.54,3-4.23-1.47-8.66,1.4-12.06,0-7.56-3.09-12.86.38-17.48,4.56-4.73-2.17-1.74-5.34-2.54-7.64-1-2.91-1.58-6.89-5.82-6.39-3.14.37-7,2.14-6.66,5.78,1,9.62-4.76,14.72-11,20.6-8,7.61-7.21,9,5.29,17.74,3.44-1.33,3.81-4.73,5.1-7.56,4.05-8.87,8.92-9.65,14.8-1.85,3,4,5.84,8.14,9.42,11.74a50.25,50.25,0,0,0,13.23,9.63c8.37,4.24,15.11,10.94,21.88,17.25,4.4,4.1,2.74,7.29-3.32,7.94a36.45,36.45,0,0,1-9.56-.39c-11.87-2-14.1-1.09-20,8.6-6.13,10-6.33,10.19-14.37,1.83-5.45-5.66-11.22-6.6-17.8-4-.82,2.88.67,4.08,1.91,5.31,4.23,4.25,4.08,7.22-1.47,10.69-8.57,5.35-11.13,14.47-7.08,23.37,1.67,3.66.95,6.15-1.81,8.4-1.77,1.43-4,2.33-5.67,3.83-5.54,4.92-5.14,6.75,1.05,11.24,7.3,5.29,13.92,11.7,23.34,13.15,5.85.9,11.8,2.58,16.06-3.84,2.35-3.55,5.89-4,9.72-2.28.42.19.88.3,1.27.52,12.15,6.67,25.17,4.84,37.79,2.84,5.48-.87,8.57-.65,11.12,4.31,1.85,3.59,5.25,6,9,3.63,5.8-3.67,10.61-5.94,17.44-1.28,8,5.47,14.56,11.12,14.34,21.68h-2.78c-12.76-2.82-23.82-10.78-36.79-12.71C362.54,192.37,346.82,190.18,332.29,199.15Z"/><path id="Path_10616" data-name="Path 10616" class="cls-32" d="M18.28,113.72c1.13-4.88,1.93-9.89,5.52-13.78-1.27,10.2,1.11,19,10,25.13,7.8,5.45,6.38,15.7,11.61,22.56.83,1.08.63,4.4-.31,5.15-9.59,7.7-7.45,24.13-21.26,28.49-2.6.82-1.52,2.37-1.65,4.09-.48,6.21,2.81,10.22,7.15,13.81-14.37-2.88-18.89-8-19.31-22-1.55-5.3,2.6-4.8,5.58-5.5,4.22-2,5.53-5.6,5.5-10.06-.09-10.9-.51-21.83.17-32.69C21.59,123.32,14.36,119.65,18.28,113.72Z"/><path id="Path_10617" data-name="Path 10617" class="cls-34" d="M15.58,171.62,10,177.12l-2.73-.06c.06-1.83.11-3.65.16-5.47,2.68-2,5.36-1.84,8.06-.05Z"/><path id="Path_10618" data-name="Path 10618" class="cls-37" d="M492,210.15c-4.55-.17-9.17.53-13.58-1.3-4.91-2-9.67-1.22-14.73.06-11.18,2.82-21.93,3.27-27.81-9.69-1.8-3.95-5.38-6.16-8.78-8.45-4.4-3-8.15-5.69-5-12.12,2.76-5.68-2.61-9.44-6-10.71-7-2.64-15.07-5.21-22.38-3.12-6,1.71-8.73,2.66-10.27-4.64-.64-3-5-2.51-6.56.15-3.47,5.79-8.73,5.82-14.36,5.78-5.81,0-11.17-.57-15.91,5.29-3.65,4.51-9.26,2.1-13.42-3.94-9.49-13.79-18.57-13.9-27.63-.25-1.47,2.21-2.25,5.95-5.44,5.17-3.77-.93-4-4.86-3.31-8,2.18-9.55,3.95-19.32,7.4-28.44,2.49-6.59,9.74-9.66,15.74-12.66,4.67-2.34,8.18-4.82,11.3-9.13,4.43-6.12,10.3-8.11,18.95-7.31,14.53,1.36,27.83,9.2,42.86,7.14,3.68-.51,7,1.76,9.85,4.24,6.36,5.61,15.28,4.71,22.33,8.94,3.44,2.06,8-.37,11.7-2.37,2.09,1.74,4.87,3.08,6.15,5.3,6.78,11.74,13.54,14.89,26.07,11,5.76-1.77,11.27-4.34,16.71.7a4.44,4.44,0,0,0,6.23.2A54.85,54.85,0,0,1,520.73,129c7.95-1.07,14.94-14.54,12.31-22.23-1.51-4.44.68-6,3.18-7.78,2.83-2.05,5-.42,7,1.84,3.89,4.43,6.94,9.65,12.09,12.88a23.19,23.19,0,0,0-2.13,3.5c-3.9,10-9.72,16.09-21.66,12.34-5.09-1.6-6,2.46-6.45,6.4-.9,7.49,4.62,12.56,7.67,19.73-6.34,2.37-12,4.79-16.26-2.69-2-3.53-5.28-4-8.24-3.31-9.74,2.35-19.87-1.91-29.44,2-.42.18-.93.1-1.35.28-3.95,1.61-8.77-3.75-11.46,0-2.44,3.4-2.79,8.52-3.4,13a86.6,86.6,0,0,0-.82,15c.36,10.2,3.48,18.62,14.42,22.39C481.73,204.26,486.76,207.51,492,210.15Z"/><path id="Path_10619" data-name="Path 10619" class="cls-24" d="M425.93,33.83l-2.76-2.71Z"/><path id="Path_10620" data-name="Path 10620" class="cls-12" d="M15.49,171.54l-8.06.05A12.76,12.76,0,0,1,7.5,169C10.47,168.88,13.56,168.4,15.49,171.54Z"/><path id="Path_10621" data-name="Path 10621" class="cls-20" d="M316.51,80.48c.59-3,2.42-4.75,5.53-4.4,1.86.21,3.42,1.69,2.94,3.66-.66,2.72-2.6,4.82-5.58,4.7C317.45,84.35,316.7,82.42,316.51,80.48Z"/></g><g id="_04" data-name=" 04" class="cls-38"><g class="cls-38"><path d="M291.82,135a41.65,41.65,0,0,1-14.28-18.34,68.57,68.57,0,0,1-5-26.88q0-15,5.25-26.32a41.34,41.34,0,0,1,14.63-17.57,37.84,37.84,0,0,1,21.42-6.23,38.34,38.34,0,0,1,21.7,6.23,40.44,40.44,0,0,1,14.49,17.57q5.12,11.34,5.11,26.32t-4.9,26.88A41.09,41.09,0,0,1,336,135q-9.37,6.58-22.12,6.58T291.82,135ZM334,119.17Q341,108.81,341,89.77q0-18.76-7.21-28.42t-19.95-9.66a23.59,23.59,0,0,0-19.67,9.8q-7.49,9.79-7.49,28.28,0,19,7.07,29.4t20.09,10.36Q326.89,129.53,334,119.17Z"/><path d="M439.87,102.93v11.34h-12.6v25.34H413.83V114.27h-48.3l52.08-72.66h9.66v61.32Zm-26,0V66.39l-26,36.54Z"/></g></g><g id="Grundlæggende_animation" data-name="Grundlæggende animation" class="cls-38"><g class="cls-38"><path d="M181,184.25a11.22,11.22,0,0,1-4.29-.81,10.23,10.23,0,0,1-5.7-5.7,11.77,11.77,0,0,1,0-8.58,10.31,10.31,0,0,1,5.7-5.7,11.22,11.22,0,0,1,4.29-.81,12.55,12.55,0,0,1,3.08.38,8.89,8.89,0,0,1,2.65,1.12,1.05,1.05,0,0,1,.32.35.82.82,0,0,1,.1.4.9.9,0,0,1-.27.68.82.82,0,0,1-.57.25.86.86,0,0,1-.28,0l-.26-.11a9.93,9.93,0,0,0-2.22-.9,9.58,9.58,0,0,0-2.55-.33,9,9,0,0,0-4.59,1.17,8.37,8.37,0,0,0-3.15,3.21,9.93,9.93,0,0,0,0,9.24,8.37,8.37,0,0,0,3.15,3.21,9,9,0,0,0,4.59,1.17,9.88,9.88,0,0,0,2.72-.39,8.33,8.33,0,0,0,2.35-1.05l-.15.63v-6.9l.45.42h-5.19a.9.9,0,0,1-.66-.27.86.86,0,0,1-.27-.63.84.84,0,0,1,.27-.66,1,1,0,0,1,.66-.24h5.73a.89.89,0,0,1,.65.26.86.86,0,0,1,.25.64v7.23a.89.89,0,0,1-.12.45,1.13,1.13,0,0,1-.33.36,11.37,11.37,0,0,1-2.95,1.43A11.1,11.1,0,0,1,181,184.25Z"/><path d="M192.87,184a.84.84,0,0,1-.66-.27.92.92,0,0,1-.24-.63V169.61a.89.89,0,0,1,.26-.63.84.84,0,0,1,.64-.27.86.86,0,0,1,.65.27.88.88,0,0,1,.25.63v4.5l-.45.09a6.86,6.86,0,0,1,.53-2.08,7.15,7.15,0,0,1,1.18-1.91,6,6,0,0,1,1.79-1.41,4.93,4.93,0,0,1,2.32-.54,2.58,2.58,0,0,1,1.05.23.75.75,0,0,1,.51.73.93.93,0,0,1-.24.69.78.78,0,0,1-.57.24,1.35,1.35,0,0,1-.58-.15,2,2,0,0,0-.83-.15,3.29,3.29,0,0,0-1.68.5,5.77,5.77,0,0,0-1.53,1.33,6.9,6.9,0,0,0-1.09,1.88,5.66,5.66,0,0,0-.41,2.08v7.41a.92.92,0,0,1-.9.9Z"/><path d="M215,168.71a.86.86,0,0,1,.65.27.88.88,0,0,1,.25.63v8.46a5.88,5.88,0,0,1-1.68,4.53,6.39,6.39,0,0,1-4.53,1.56,6.28,6.28,0,0,1-4.48-1.56,5.91,5.91,0,0,1-1.67-4.53v-8.46a.89.89,0,0,1,.26-.63.84.84,0,0,1,.64-.27.86.86,0,0,1,.65.27.88.88,0,0,1,.25.63v8.46a4,4,0,0,0,4.35,4.41,4.48,4.48,0,0,0,3.24-1.12,4.36,4.36,0,0,0,1.17-3.29v-8.46a.92.92,0,0,1,.24-.63A.84.84,0,0,1,215,168.71Z"/><path d="M227.82,168.26a5.62,5.62,0,0,1,3.17.8,4.46,4.46,0,0,1,1.71,2.16,8.31,8.31,0,0,1,.52,3v8.82a.92.92,0,0,1-.9.9.84.84,0,0,1-.66-.27.92.92,0,0,1-.24-.63v-8.73a5.93,5.93,0,0,0-.39-2.19,3.36,3.36,0,0,0-1.27-1.59,4.09,4.09,0,0,0-2.33-.6,5.21,5.21,0,0,0-2.44.6,5.31,5.31,0,0,0-1.88,1.59,3.64,3.64,0,0,0-.72,2.19v8.73a.92.92,0,0,1-.9.9.84.84,0,0,1-.66-.27.92.92,0,0,1-.24-.63V169.61a.89.89,0,0,1,.26-.63.84.84,0,0,1,.64-.27.86.86,0,0,1,.65.27.88.88,0,0,1,.25.63v2.52l-.69,1.08a3.88,3.88,0,0,1,.62-1.84,6.45,6.45,0,0,1,1.42-1.59,7,7,0,0,1,1.94-1.11A6,6,0,0,1,227.82,168.26Z"/><path d="M250.38,161.75a.89.89,0,0,1,.65.26.86.86,0,0,1,.25.64v20.4a.92.92,0,0,1-.9.9.84.84,0,0,1-.66-.27.92.92,0,0,1-.24-.63v-3.57l.51-.42a4,4,0,0,1-.45,1.76,5.91,5.91,0,0,1-1.27,1.69,6.66,6.66,0,0,1-1.92,1.26,5.9,5.9,0,0,1-2.39.48,6.39,6.39,0,0,1-3.58-1.05,7.39,7.39,0,0,1-2.54-2.85,9.5,9.5,0,0,1,0-8.2,7.28,7.28,0,0,1,2.52-2.85,6.41,6.41,0,0,1,3.57-1,6.25,6.25,0,0,1,2.37.45,6.55,6.55,0,0,1,2,1.23,6,6,0,0,1,1.35,1.79,4.64,4.64,0,0,1,.49,2.08l-.63-.45V162.65a.92.92,0,0,1,.24-.63A.84.84,0,0,1,250.38,161.75Zm-6.24,20.82a4.94,4.94,0,0,0,2.82-.82,5.69,5.69,0,0,0,1.94-2.25,7.27,7.27,0,0,0,.7-3.26,7.15,7.15,0,0,0-.7-3.22,5.69,5.69,0,0,0-1.94-2.25,5.17,5.17,0,0,0-5.62,0,5.63,5.63,0,0,0-2,2.25,7.16,7.16,0,0,0-.71,3.22,7.27,7.27,0,0,0,.71,3.24,5.62,5.62,0,0,0,2,2.27A4.94,4.94,0,0,0,244.14,182.57Z"/><path d="M258,183.05a.92.92,0,0,1-.9.9.84.84,0,0,1-.64-.27.89.89,0,0,1-.26-.63v-20.4a.91.91,0,0,1,1.55-.63.88.88,0,0,1,.25.63Z"/><path d="M266.7,184.25a5.35,5.35,0,0,1-2.23-.49,4.57,4.57,0,0,1-1.83-1.5,4.2,4.2,0,0,1-.74-2.54,4.32,4.32,0,0,1,1.94-3.69,9.92,9.92,0,0,1,5.77-1.38h14.88l-.36.36v-.6a4.38,4.38,0,0,0-.9-2.4,5.08,5.08,0,0,0-1.89-1.5A5.47,5.47,0,0,0,279,170a5.14,5.14,0,0,0-1.84.36,4.86,4.86,0,0,0-1.71,1.13,5.8,5.8,0,0,0-1.25,1.95,7.42,7.42,0,0,0-.48,2.8,7.08,7.08,0,0,0,.72,3.21,5.54,5.54,0,0,0,2.09,2.28,6.07,6.07,0,0,0,3.25.84,5.59,5.59,0,0,0,1.89-.3,5.16,5.16,0,0,0,1.47-.79,6.09,6.09,0,0,0,1.05-1,1,1,0,0,1,.66-.27.71.71,0,0,1,.53.24.76.76,0,0,1,.22.54.82.82,0,0,1-.3.63,8.1,8.1,0,0,1-2.34,1.88,6.41,6.41,0,0,1-3.15.79,8.22,8.22,0,0,1-4.08-1A7,7,0,0,1,273,180.5a8.34,8.34,0,0,1-1-4.14,8.8,8.8,0,0,1,1-4.35,7.35,7.35,0,0,1,2.61-2.77,6.44,6.44,0,0,1,3.4-1,7.31,7.31,0,0,1,2.57.47,6.58,6.58,0,0,1,2.22,1.38,6.78,6.78,0,0,1,1.56,2.23,8.2,8.2,0,0,1,.64,3.06.94.94,0,0,1-.3.62.88.88,0,0,1-.63.25H269.58a10.73,10.73,0,0,0-3.25.42,4.26,4.26,0,0,0-2,1.19,2.6,2.6,0,0,0-.66,1.75,2.73,2.73,0,0,0,.48,1.65,2.92,2.92,0,0,0,1.2,1,3.56,3.56,0,0,0,1.44.31,5.42,5.42,0,0,0,2.48-.58,8.22,8.22,0,0,0,2-1.41,5.55,5.55,0,0,0,1.18-1.52l.9,1.32a10.4,10.4,0,0,1-1.42,1.68,8.52,8.52,0,0,1-2.22,1.55A6.81,6.81,0,0,1,266.7,184.25Zm1.8-16a8.83,8.83,0,0,1,1.95.21,5.44,5.44,0,0,1,1.68.68,3.37,3.37,0,0,1,1.19,1.24,3.89,3.89,0,0,1,.43,1.92v4l-1.68.09V173a2.89,2.89,0,0,0-.55-1.93,2.83,2.83,0,0,0-1.38-.89,5.87,5.87,0,0,0-1.64-.24,5,5,0,0,0-1.95.39,7.33,7.33,0,0,0-1.68,1,5.58,5.58,0,0,0-1.2,1.24.91.91,0,0,1-.72.36.76.76,0,0,1-.54-.22.74.74,0,0,1-.24-.56,1,1,0,0,1,.05-.27.88.88,0,0,1,.16-.3,9.58,9.58,0,0,1,1.56-1.56,8.75,8.75,0,0,1,2.1-1.24A6.25,6.25,0,0,1,268.5,168.26Z"/><path d="M296,168.26a6.45,6.45,0,0,1,2.46.47,7.24,7.24,0,0,1,2,1.2,6.14,6.14,0,0,1,1.33,1.56,3.13,3.13,0,0,1,.48,1.57l-.48-.72v-2.79a.93.93,0,0,1,.26-.66.84.84,0,0,1,.64-.27.86.86,0,0,1,.65.27.92.92,0,0,1,.25.66v13a7.74,7.74,0,0,1-1,4.05,6.48,6.48,0,0,1-2.68,2.51A8.46,8.46,0,0,1,296,190a9.65,9.65,0,0,1-2.2-.27,8.78,8.78,0,0,1-2-.69c-.55-.28-.87-.57-.95-.87a.76.76,0,0,1-.19-.52.58.58,0,0,1,.25-.44.56.56,0,0,1,.62,0c.23.11.56.25,1,.43l.8.27a9.06,9.06,0,0,0,1.23.32,7.67,7.67,0,0,0,1.45.13,5.25,5.25,0,0,0,5.7-5.61v-2.88l.33.09a5,5,0,0,1-.9,1.89,6.16,6.16,0,0,1-1.47,1.37,6.75,6.75,0,0,1-3.72,1.12,6.84,6.84,0,0,1-3.73-1.05,7.45,7.45,0,0,1-2.63-2.85,9.24,9.24,0,0,1,0-8.2,7.34,7.34,0,0,1,2.61-2.85A6.86,6.86,0,0,1,296,168.26Zm.18,1.68a5.35,5.35,0,0,0-2.92.83,5.69,5.69,0,0,0-2,2.25,6.91,6.91,0,0,0-.74,3.22,7,7,0,0,0,.74,3.24,5.68,5.68,0,0,0,2,2.27,5.34,5.34,0,0,0,2.92.82,5.41,5.41,0,0,0,2.94-.81,5.71,5.71,0,0,0,2-2.23,7.57,7.57,0,0,0,0-6.57,5.62,5.62,0,0,0-2-2.22A5.49,5.49,0,0,0,296.16,169.94Z"/><path d="M314.58,168.26a6.45,6.45,0,0,1,2.46.47,7.24,7.24,0,0,1,2,1.2,6.14,6.14,0,0,1,1.33,1.56,3.13,3.13,0,0,1,.48,1.57l-.48-.72v-2.79a.93.93,0,0,1,.26-.66.84.84,0,0,1,.64-.27.86.86,0,0,1,.65.27.92.92,0,0,1,.25.66v13a7.74,7.74,0,0,1-1,4.05,6.48,6.48,0,0,1-2.68,2.51,8.46,8.46,0,0,1-3.86.85,9.65,9.65,0,0,1-2.2-.27,8.78,8.78,0,0,1-2-.69c-.55-.28-.87-.57-.95-.87a.76.76,0,0,1-.19-.52.58.58,0,0,1,.25-.44.56.56,0,0,1,.62,0c.23.11.56.25,1,.43l.8.27a9.06,9.06,0,0,0,1.23.32,7.67,7.67,0,0,0,1.45.13,5.25,5.25,0,0,0,5.7-5.61v-2.88l.33.09a5,5,0,0,1-.9,1.89,6.16,6.16,0,0,1-1.47,1.37,6.75,6.75,0,0,1-3.72,1.12,6.84,6.84,0,0,1-3.73-1.05,7.45,7.45,0,0,1-2.63-2.85,9.24,9.24,0,0,1,0-8.2,7.34,7.34,0,0,1,2.61-2.85A6.86,6.86,0,0,1,314.58,168.26Zm.18,1.68a5.35,5.35,0,0,0-2.92.83,5.69,5.69,0,0,0-2,2.25,6.91,6.91,0,0,0-.74,3.22,7,7,0,0,0,.74,3.24,5.68,5.68,0,0,0,2,2.27,5.34,5.34,0,0,0,2.92.82,5.41,5.41,0,0,0,2.94-.81,5.71,5.71,0,0,0,2-2.23,7.57,7.57,0,0,0,0-6.57,5.62,5.62,0,0,0-2-2.22A5.49,5.49,0,0,0,314.76,169.94Z"/><path d="M333.12,184.25a8.22,8.22,0,0,1-4.08-1,7,7,0,0,1-2.76-2.76,8.34,8.34,0,0,1-1-4.14,8.8,8.8,0,0,1,1-4.35,7.35,7.35,0,0,1,2.61-2.77,6.44,6.44,0,0,1,3.4-1,7.31,7.31,0,0,1,2.57.47,6.4,6.4,0,0,1,2.2,1.38,7.09,7.09,0,0,1,1.56,2.23,7.65,7.65,0,0,1,.63,3.06.83.83,0,0,1-.27.62.88.88,0,0,1-.63.25h-12l-.36-1.62H337.8l-.39.36v-.6a4.57,4.57,0,0,0-.93-2.4,5.1,5.1,0,0,0-1.87-1.5,5.4,5.4,0,0,0-2.3-.51,5.14,5.14,0,0,0-1.84.36,4.86,4.86,0,0,0-1.71,1.13,5.8,5.8,0,0,0-1.25,1.95,7.42,7.42,0,0,0-.48,2.8,7.08,7.08,0,0,0,.72,3.21,5.56,5.56,0,0,0,2.07,2.28,6.07,6.07,0,0,0,3.27.84,5.5,5.5,0,0,0,1.86-.3,5.42,5.42,0,0,0,1.49-.79,5.83,5.83,0,0,0,1.06-1,1,1,0,0,1,.63-.27.74.74,0,0,1,.56.24.76.76,0,0,1,.22.54.82.82,0,0,1-.3.63,8.1,8.1,0,0,1-2.34,1.88A6.41,6.41,0,0,1,333.12,184.25Z"/><path d="M350.22,168.26a5.62,5.62,0,0,1,3.17.8,4.46,4.46,0,0,1,1.71,2.16,8.31,8.31,0,0,1,.52,3v8.82a.92.92,0,0,1-.9.9.84.84,0,0,1-.66-.27.92.92,0,0,1-.24-.63v-8.73a5.93,5.93,0,0,0-.39-2.19,3.36,3.36,0,0,0-1.27-1.59,4.09,4.09,0,0,0-2.33-.6,5.21,5.21,0,0,0-2.44.6,5.31,5.31,0,0,0-1.88,1.59,3.64,3.64,0,0,0-.72,2.19v8.73a.92.92,0,0,1-.9.9.84.84,0,0,1-.66-.27.92.92,0,0,1-.24-.63V169.61a.89.89,0,0,1,.26-.63.84.84,0,0,1,.64-.27.86.86,0,0,1,.65.27.88.88,0,0,1,.25.63v2.52l-.69,1.08a3.88,3.88,0,0,1,.62-1.84,6.45,6.45,0,0,1,1.42-1.59,7,7,0,0,1,1.94-1.11A6,6,0,0,1,350.22,168.26Z"/><path d="M372.78,161.75a.89.89,0,0,1,.65.26.86.86,0,0,1,.25.64v20.4a.92.92,0,0,1-.9.9.84.84,0,0,1-.66-.27.92.92,0,0,1-.24-.63v-3.57l.51-.42a4,4,0,0,1-.45,1.76,5.91,5.91,0,0,1-1.27,1.69,6.66,6.66,0,0,1-1.92,1.26,5.9,5.9,0,0,1-2.39.48,6.39,6.39,0,0,1-3.58-1.05,7.39,7.39,0,0,1-2.54-2.85,9.5,9.5,0,0,1,0-8.2,7.28,7.28,0,0,1,2.52-2.85,6.41,6.41,0,0,1,3.57-1,6.25,6.25,0,0,1,2.37.45,6.55,6.55,0,0,1,2,1.23,6,6,0,0,1,1.35,1.79,4.64,4.64,0,0,1,.49,2.08l-.63-.45V162.65a.92.92,0,0,1,.24-.63A.84.84,0,0,1,372.78,161.75Zm-6.24,20.82a4.94,4.94,0,0,0,2.82-.82,5.69,5.69,0,0,0,1.94-2.25,7.27,7.27,0,0,0,.7-3.26,7.15,7.15,0,0,0-.7-3.22,5.69,5.69,0,0,0-1.94-2.25,5.17,5.17,0,0,0-5.62,0,5.63,5.63,0,0,0-1.95,2.25,7.16,7.16,0,0,0-.71,3.22,7.27,7.27,0,0,0,.71,3.24,5.62,5.62,0,0,0,1.95,2.27A4.94,4.94,0,0,0,366.54,182.57Z"/><path d="M385.2,184.25a8.22,8.22,0,0,1-4.08-1,7,7,0,0,1-2.76-2.76,8.34,8.34,0,0,1-1-4.14,8.8,8.8,0,0,1,1-4.35,7.35,7.35,0,0,1,2.61-2.77,6.44,6.44,0,0,1,3.4-1,7.31,7.31,0,0,1,2.57.47,6.4,6.4,0,0,1,2.2,1.38,7.09,7.09,0,0,1,1.56,2.23,7.65,7.65,0,0,1,.63,3.06.83.83,0,0,1-.27.62.88.88,0,0,1-.63.25h-12l-.36-1.62h11.82l-.39.36v-.6a4.57,4.57,0,0,0-.93-2.4,5.1,5.1,0,0,0-1.87-1.5,5.4,5.4,0,0,0-2.3-.51,5.14,5.14,0,0,0-1.84.36,4.86,4.86,0,0,0-1.71,1.13,5.8,5.8,0,0,0-1.25,1.95,7.42,7.42,0,0,0-.48,2.8,7.08,7.08,0,0,0,.72,3.21,5.56,5.56,0,0,0,2.07,2.28,6.07,6.07,0,0,0,3.27.84,5.5,5.5,0,0,0,1.86-.3,5.42,5.42,0,0,0,1.49-.79,5.83,5.83,0,0,0,1.06-1,1,1,0,0,1,.63-.27.74.74,0,0,1,.56.24.76.76,0,0,1,.22.54.82.82,0,0,1-.3.63,8.1,8.1,0,0,1-2.34,1.88A6.41,6.41,0,0,1,385.2,184.25Z"/><path d="M415.71,168.62a.86.86,0,0,1,.65.27.92.92,0,0,1,.25.66v13.5a.92.92,0,0,1-.9.9.84.84,0,0,1-.66-.27.92.92,0,0,1-.24-.63v-3.57l.51-.24a3.6,3.6,0,0,1-.46,1.71,6.21,6.21,0,0,1-1.28,1.62,6.52,6.52,0,0,1-1.9,1.22,6.06,6.06,0,0,1-2.39.46,6.44,6.44,0,0,1-3.61-1.05,7.22,7.22,0,0,1-2.52-2.88,9.06,9.06,0,0,1-.92-4.11,8.78,8.78,0,0,1,.93-4.12,7.23,7.23,0,0,1,2.52-2.81,6.75,6.75,0,0,1,6-.57,6.26,6.26,0,0,1,2,1.23,5.9,5.9,0,0,1,1.32,1.79,4.76,4.76,0,0,1,.48,2.08l-.63-.45v-3.81a1,1,0,0,1,.24-.66A.84.84,0,0,1,415.71,168.62Zm-6.24,13.95a4.94,4.94,0,0,0,2.82-.82,5.64,5.64,0,0,0,1.94-2.28,7.39,7.39,0,0,0,.7-3.26,7,7,0,0,0-.7-3.18,5.83,5.83,0,0,0-1.94-2.25,4.88,4.88,0,0,0-2.82-.84,5,5,0,0,0-2.8.81,5.54,5.54,0,0,0-1.95,2.22,7.15,7.15,0,0,0-.71,3.24,7.52,7.52,0,0,0,.69,3.26,5.49,5.49,0,0,0,1.94,2.28A5,5,0,0,0,409.47,182.57Z"/><path d="M428.55,168.26a5.62,5.62,0,0,1,3.17.8,4.46,4.46,0,0,1,1.71,2.16,8.31,8.31,0,0,1,.52,3v8.82a.92.92,0,0,1-.9.9.84.84,0,0,1-.66-.27.92.92,0,0,1-.24-.63v-8.73a5.93,5.93,0,0,0-.39-2.19,3.36,3.36,0,0,0-1.27-1.59,4.09,4.09,0,0,0-2.33-.6,5.21,5.21,0,0,0-2.44.6,5.31,5.31,0,0,0-1.88,1.59,3.64,3.64,0,0,0-.72,2.19v8.73a.92.92,0,0,1-.9.9.84.84,0,0,1-.66-.27.92.92,0,0,1-.24-.63V169.61a.89.89,0,0,1,.26-.63.84.84,0,0,1,.64-.27.86.86,0,0,1,.65.27.88.88,0,0,1,.25.63v2.52l-.69,1.08a3.88,3.88,0,0,1,.62-1.84,6.45,6.45,0,0,1,1.42-1.59,7,7,0,0,1,1.94-1.11A6,6,0,0,1,428.55,168.26Z"/><path d="M439.5,166.34a1.35,1.35,0,0,1-.94-.28,1.07,1.07,0,0,1-.32-.83v-.3a1,1,0,0,1,.35-.82,1.43,1.43,0,0,1,.94-.29,1.29,1.29,0,0,1,.89.29,1,1,0,0,1,.31.82v.3a1.06,1.06,0,0,1-.31.83A1.33,1.33,0,0,1,439.5,166.34Zm.9,16.71a.92.92,0,0,1-.9.9.82.82,0,0,1-.64-.27.89.89,0,0,1-.26-.63v-13.8a.89.89,0,0,1,.26-.63.82.82,0,0,1,.64-.27.86.86,0,0,1,.65.27.88.88,0,0,1,.25.63Z"/><path d="M452,168.5a5.21,5.21,0,0,1,3.18,1,4.92,4.92,0,0,1,1.8,2.89l-.42.12.18-.54a4.78,4.78,0,0,1,1.3-1.69,7.67,7.67,0,0,1,2.09-1.28,6.2,6.2,0,0,1,2.37-.48,5.16,5.16,0,0,1,3,.81,4.64,4.64,0,0,1,1.69,2.18,8.49,8.49,0,0,1,.52,3.07v8.49a.88.88,0,0,1-.25.63.86.86,0,0,1-.65.27.84.84,0,0,1-.64-.27.89.89,0,0,1-.26-.63v-8.4a6.25,6.25,0,0,0-.39-2.25,3.45,3.45,0,0,0-1.23-1.62,3.8,3.8,0,0,0-2.25-.6,4.92,4.92,0,0,0-2.35.6,5.11,5.11,0,0,0-1.83,1.62,3.81,3.81,0,0,0-.71,2.25v8.4a.93.93,0,0,1-.25.63.88.88,0,0,1-.65.27.82.82,0,0,1-.64-.27.85.85,0,0,1-.26-.63v-8.49a6.46,6.46,0,0,0-.36-2.22,3.25,3.25,0,0,0-1.17-1.57,3.67,3.67,0,0,0-2.19-.59,5,5,0,0,0-4.09,2.16,3.86,3.86,0,0,0-.68,2.22v8.49a.92.92,0,0,1-.9.9.84.84,0,0,1-.66-.27.92.92,0,0,1-.24-.63V169.61a.89.89,0,0,1,.26-.63.84.84,0,0,1,.64-.27.88.88,0,0,1,.65.27.93.93,0,0,1,.25.63v2.79l-.81,1.11a4.86,4.86,0,0,1,.58-1.8,6.1,6.1,0,0,1,1.31-1.62,6.48,6.48,0,0,1,1.85-1.15A5.54,5.54,0,0,1,452,168.5Z"/><path d="M484.89,168.62a.84.84,0,0,1,.64.27.93.93,0,0,1,.26.66v13.5a.92.92,0,0,1-.9.9.84.84,0,0,1-.66-.27.92.92,0,0,1-.24-.63v-3.57l.51-.24A3.62,3.62,0,0,1,484,181a6.17,6.17,0,0,1-1.27,1.62,6.66,6.66,0,0,1-1.9,1.22,6.1,6.1,0,0,1-2.39.46,6.42,6.42,0,0,1-3.61-1.05,7.16,7.16,0,0,1-2.53-2.88,9.06,9.06,0,0,1-.91-4.11,8.78,8.78,0,0,1,.93-4.12,7.23,7.23,0,0,1,2.52-2.81,6.75,6.75,0,0,1,6-.57,6.26,6.26,0,0,1,2,1.23,5.9,5.9,0,0,1,1.32,1.79,4.76,4.76,0,0,1,.48,2.08l-.63-.45v-3.81a1,1,0,0,1,.24-.66A.84.84,0,0,1,484.89,168.62Zm-6.24,13.95a4.94,4.94,0,0,0,2.82-.82,5.62,5.62,0,0,0,1.93-2.28,7.39,7.39,0,0,0,.71-3.26,7,7,0,0,0-.71-3.18,5.8,5.8,0,0,0-1.93-2.25,4.88,4.88,0,0,0-2.82-.84,5,5,0,0,0-2.81.81A5.45,5.45,0,0,0,473.9,173a7,7,0,0,0-.71,3.24,7.52,7.52,0,0,0,.69,3.26,5.42,5.42,0,0,0,1.94,2.28A5,5,0,0,0,478.65,182.57Z"/><path d="M489.51,168.68h7a.79.79,0,0,1,.6.26.85.85,0,0,1,.24.61.78.78,0,0,1-.24.57.81.81,0,0,1-.6.24h-7a.81.81,0,0,1-.61-.25.78.78,0,0,1-.26-.59.76.76,0,0,1,.26-.6A.84.84,0,0,1,489.51,168.68Zm3.09-4.23a.84.84,0,0,1,.64.27.89.89,0,0,1,.26.63v15.06a2.62,2.62,0,0,0,.23,1.26,1.09,1.09,0,0,0,.58.56,2,2,0,0,0,.72.13,1.18,1.18,0,0,0,.43-.07,1.23,1.23,0,0,1,.44-.08.6.6,0,0,1,.46.21.77.77,0,0,1,.2.54.83.83,0,0,1-.48.71,2.19,2.19,0,0,1-1.14.28c-.18,0-.45,0-.81,0a3,3,0,0,1-1.11-.33,2.23,2.23,0,0,1-.95-1,4.59,4.59,0,0,1-.37-2.07V165.35a.88.88,0,0,1,.25-.63A.86.86,0,0,1,492.6,164.45Z"/><path d="M501.51,166.34a1.38,1.38,0,0,1-.95-.28,1.06,1.06,0,0,1-.31-.83v-.3a1,1,0,0,1,.34-.82,1.46,1.46,0,0,1,1-.29,1.26,1.26,0,0,1,.88.29,1,1,0,0,1,.32.82v.3a1.07,1.07,0,0,1-.32.83A1.31,1.31,0,0,1,501.51,166.34Zm.9,16.71a.91.91,0,0,1-1.55.63.88.88,0,0,1-.25-.63v-13.8a.88.88,0,0,1,.25-.63.86.86,0,0,1,.65-.27.84.84,0,0,1,.64.27.89.89,0,0,1,.26.63Z"/><path d="M521.25,176.27a8.33,8.33,0,0,1-1,4.1,7.51,7.51,0,0,1-2.71,2.85,7.77,7.77,0,0,1-7.73,0,7.48,7.48,0,0,1-2.73-2.85,8.93,8.93,0,0,1,0-8.21,7.63,7.63,0,0,1,2.73-2.85,7.64,7.64,0,0,1,7.73,0,7.65,7.65,0,0,1,2.71,2.85A8.29,8.29,0,0,1,521.25,176.27Zm-1.8,0a6.86,6.86,0,0,0-.75-3.25,5.81,5.81,0,0,0-2.06-2.25,5.73,5.73,0,0,0-5.94,0,5.92,5.92,0,0,0-2.07,2.25,6.75,6.75,0,0,0-.76,3.25,6.68,6.68,0,0,0,.76,3.24,6,6,0,0,0,2.07,2.24,5.79,5.79,0,0,0,5.94,0,5.86,5.86,0,0,0,2.06-2.24A6.79,6.79,0,0,0,519.45,176.27Z"/><path d="M532.17,168.26a5.58,5.58,0,0,1,3.16.8,4.46,4.46,0,0,1,1.71,2.16,8.31,8.31,0,0,1,.53,3v8.82a.92.92,0,0,1-.9.9.84.84,0,0,1-.66-.27.92.92,0,0,1-.24-.63v-8.73a5.93,5.93,0,0,0-.39-2.19,3.38,3.38,0,0,0-1.28-1.59,4.05,4.05,0,0,0-2.32-.6,5.41,5.41,0,0,0-4.32,2.19,3.64,3.64,0,0,0-.72,2.19v8.73a.92.92,0,0,1-.9.9.84.84,0,0,1-.66-.27.92.92,0,0,1-.24-.63V169.61a.88.88,0,0,1,.25-.63.86.86,0,0,1,.65-.27.84.84,0,0,1,.64.27.89.89,0,0,1,.26.63v2.52l-.69,1.08a3.87,3.87,0,0,1,.61-1.84,6.49,6.49,0,0,1,1.43-1.59,7,7,0,0,1,1.93-1.11A6,6,0,0,1,532.17,168.26Z"/></g></g><line id="Line_16" data-name="Line 16" class="cls-39" x1="178.33" y1="151.11" x2="530.33" y2="151.11"/></svg>
