<svg id="Layer_1" data-name="Layer 1" xmlns="http://www.w3.org/2000/svg" viewBox="0 0 737.01 283.46"><defs><style>.cls-1{fill:#59c0ea;}.cls-2{fill:#80cbea;}.cls-3{fill:#85cee9;}.cls-4{fill:#90d0e9;}.cls-5{fill:#5bbce7;}.cls-6{fill:#28abe2;}.cls-7{fill:#a2d5ec;}.cls-8{fill:#6bbee4;}.cls-9{fill:#6ec4e7;}.cls-10{fill:#63accd;}.cls-11{fill:#4aaad6;}.cls-12{fill:#48a8d5;}.cls-13{fill:#2e9dd1;}.cls-14{fill:#58a6ca;}.cls-15{fill:#75b5d5;}.cls-16{fill:#3c99c2;}.cls-17{fill:#3794cc;}.cls-18{fill:#63abcf;}.cls-19{fill:#73b6d3;}.cls-20{fill:#62c3ea;}.cls-21{fill:#54bce8;}.cls-22{fill:#46bae7;}.cls-23{fill:#efeff3;}.cls-24{fill:#65c3e7;}.cls-25{fill:#77c9e9;}.cls-26{fill:#6fb4d3;}.cls-27{fill:#6cb7d8;}.cls-28{fill:#60b3d8;}.cls-29{fill:#50bde9;}.cls-30{fill:#4ea6ce;}.cls-31{fill:#4ca6cc;}.cls-32{fill:#3cb6e6;}.cls-33{fill:#76c8e8;}.cls-34{fill:#39ade1;}.cls-35{fill:#48a9d0;}.cls-36{fill:#52abd1;}.cls-37{fill:#6bc4e6;}</style></defs><title>04_watercolor</title><g id="Group_190" data-name="Group 190"><path id="Path_10550" data-name="Path 10550" class="cls-1" d="M134.19,56.84c.05.7.12,1.4.18,2.1,7.94,7.34,18.78,6,28.06,9.37,4.91,4.42,7.13,9.33,16.94,3.5,14.4-8.56,25.34,1.55,23.94,18.84-.85,10.54,6.12,20.59,1.55,31.65-1.5,3.64-2.17,7.77-4,11.5-3.25,6.65-7.35,9.37-13.87,4-3-2.43-6.22-4.84-9.89-2.41a101.66,101.66,0,0,0-29.36,30.32c2.61,2.48,4,2.52,5.34,2.17,5-1.29,10.22-6.66,15-.74,4.3,5.34,1.92,11.35-.71,16.87-2.75,5.79-4.72,12.09-9.27,16.78-4.84,5-6.11,10.13-5.3,17.32,1.47,13-7.16,18.85-18.86,13.43-9-4.17-17.59-7.35-27.34-2.14-3.18,1.7-8,2.19-10.72.31-12.21-8.33-27.48-5.15-40.16-11.39-5.44-2.68-12.14-4.73-10.46-12.25,1.51-6.78,5.9-14.28,13.42-13.61,10.2.9,11.46-5.53,15.37-11.86,6.4-10.36,11.6-20.2,8.47-33-1.24-5,2.39-9.64,5-14,4.58-7.65,3.47-13.87-4.06-18.62a2.2,2.2,0,0,0-2.51.85c-2.73,4.45-4.15,12.7-10.85,9.77a18.16,18.16,0,0,1-10.3-20.59c1.63-7-.77-12.35-2.36-18.31a13.8,13.8,0,0,1,.4-3.68,14.58,14.58,0,0,1,2.51-4.61c1-1.27,2.12-2.46,3.19-3.67.91-1.22,1.79-2.48,2.59-3.8a17.31,17.31,0,0,1,1.74-2.54,18.29,18.29,0,0,1,2.2-2.2,29.55,29.55,0,0,1,2.54-1.91,35,35,0,0,0,5.87-5.8,30.52,30.52,0,0,1,7.7-5.44c15.28-7.29,29.84-1.35,44.52,2.43A2.69,2.69,0,0,1,134.19,56.84Z"/><path id="Path_10551" data-name="Path 10551" class="cls-2" d="M710,95c4.45,6.62,2.33,14.84,5.32,21.81-3.23,2.9-2.27,6.35-1.27,9.81,0,3.14.3,6.29-.37,9.4-1.9,3.54-4.81,4.32-8.45,3.14a21.91,21.91,0,0,1-3.6-1.62c-4.54-2.52-9.46-3.14-14.58-2.94-4.66.19-7.41-2.28-9.68-6.24-6.44-11.2-17.4-13.82-25.87-4.57-6.51,7.11-15.85,13.53-13.75,26.25C639,158,631.26,161.49,626,165.69s-7.45,6.61-2.21,14.05c6.22,8.84,7.55,20.89,18.62,26.91,2.35,1.27,1.63,5.91-.24,8.9-10-3.7-19.46,4.75-29.47,1.29-12.56-15.23-12.76-15.75-31.55-8.57-19,7.25-39.32,8.58-58.55,14.9-12.77,4.19-17-1.19-13.13-13.77.54-1.79,1.43-3.58.45-5.27-6.8-11.81.06-14,10-17.4,12.36-4.19,23.61-6.38,37.09-4.4,13.26,2,26.9-2.44,37.62-13,4.7-4.6,4.9-6.67-.17-10.4-12.64-9.31-13.22-15-1.12-24.8,6.66-5.38,7.94-11.53,8.17-19.2.46-15.12,2.37-16.59,16.72-18.58,10.77-1.49,16.21-10.51,20.31-18.74,2.72-5.47,5.07-11.44,10.77-10,13.3,3.4,29.39,2.51,36.16,18.88,1.39,3.35,4.54,4.29,8,4.32,13-1.69,14.69,7.08,14.06,14.17C706.63,103.18,706.26,98.93,710,95Z"/><path id="Path_10552" data-name="Path 10552" class="cls-3" d="M641.13,216.05c.33-5.83-.12-10.7-7.55-12.32-6.58-1.44-9.6-6.3-9.05-13.37.36-4.56.25-8.5-5.94-10.52-6-2-6.53-7.41-2.05-11.49a103,103,0,0,1,13.11-9.86c6.11-4,8.18-8.2,2.82-14.45-2.86-3.33-3.61-6.62,2.68-6.94,4.78-.25,5.16-4.77,6.55-7.77,4.81-10.4,13.7-13.88,24-15.08,9.54-1.1,12.16.56,13.81,10.14,1,5.58,2.4,8.25,8.79,6.69a15.36,15.36,0,0,1,16.13,5.08c-2.24,8.14-9,12.45-15,17.25-7.85,6.27-14.5,1.54-21.36-4.23-5.87,12.6-1.18,26.18-7.2,37.56-.65,1.25-.14,3.38,1,3.71,14.18,4.26,10.49,21.51,20.84,28.45l-.15.08c-2.24,4.87-7.83,2.8-11.17,5.4-2.67,1.15-5.13,2.94-8.26,2.67C654.59,225.83,644.46,227.75,641.13,216.05Z"/><path id="Path_10553" data-name="Path 10553" class="cls-4" d="M682.73,218.91c-7.42-3.5-16.21-5.88-12.63-17.52,1.2-3.89-2.3-3.84-4.85-4.74-11.69-4.13-12.26-5.21-6.31-14.79,1.82-2.93,4-4.82.74-8-.77-.75-1.26-3-.73-3.68,4.78-6.34,2.25-14,4.06-20.84s4-7.7,8.85-2.93c9.8,9.74,10.66,9.73,20.44.58,4-3.71,7.15-8.32,12.18-10.83h0c1.89,4.5,5,7.28,10.14,7.37,1.61,1.21,2.67,3.06,1.9,4.75-4.29,9.31-4,19.58-6.45,29.27h0c-3.1,5-7.7,5.25-13.11,5.15-13.29-.24-18.45,8.45-13.11,20.87,1.75,4.08,7.78,7.81,1.59,12.92Z"/><path id="Path_10554" data-name="Path 10554" class="cls-5" d="M627.41,224.13c-15.82,10.18-33.23,16.49-50.85,22.92a455.28,455.28,0,0,1-45.75,13.53c-14.1,3.54-27.76,3.85-41.41-2.61-11.95-5.66-24.95-9.1-35.64-17.34-1.55-1.56-4-.95-5.63-2.39-6-1.75-12.6-2.35-16.67-8.12a9.36,9.36,0,0,1,1.55-5.35,6.77,6.77,0,0,1,3.07-2.08c5.19-.24,9.93.57,12.88,5.52-.88.39-.16,3.42-2.46,1.49,2.58,1.67,2.46-1.85,4.06-2.14,4.9-2.41,9.81-4.59,15-.63.89,10.66,8,14.95,17.08,18.85,21.55,9.29,41.65,9.47,62.83-2.3,17.15-9.53,38-9.17,56.25-16.42,4.22-1.67,8.83-2.31,12.15-5.83,3.26-2.6,7-4.7,11.08-4.33C629.88,217.35,633.41,219.38,627.41,224.13Z"/><path id="Path_10555" data-name="Path 10555" class="cls-6" d="M219.92,260.61a3.15,3.15,0,0,1-3.26,1.48c-14.93-1.43-29.89-.16-44.81-.67-17.35-4.54-35.15-6.64-52.78-9.65-9.55-2.9-18.89-6.4-28.34-9.64-2.76-1.85-7.52-2.07-6.07-7.39,4.3-3.56,9.38-4.14,14.69-3.87,16.57,8.69,34,13.3,52.88,11.79,6-.47,12.17-.33,17.63,2.21a48.48,48.48,0,0,0,29.4,3.77,21.46,21.46,0,0,1,21,7.82A3.6,3.6,0,0,1,219.92,260.61Z"/><path id="Path_10556" data-name="Path 10556" class="cls-7" d="M685.46,216.5c3.37-6.33-4.43-8-5.92-12.84-2.27-7.37-2.95-12.16,1.77-18.46s9.18-9.57,17.05-5.65c4,2,8-.28,11.73-2-2.68,8-4.65,16.42-8.26,24C698.57,208.4,693.38,214.22,685.46,216.5Z"/><path id="Path_10557" data-name="Path 10557" class="cls-8" d="M710,95v17.73c-6.35-2.81-5.11-6.82-5.52-10.19-1-8.61-1-8.6-11-7.73-8-21.73-24.83-28.43-46.42-27.91-5.58.13-12.15-.35-14.75-7.4,5.5-5.61,11.45-3.08,17.37-.94a6.49,6.49,0,0,1,2.36.28c10.25,4.77,20.44-1.55,30.67-.17C698.15,66,706.06,79,710,95Z"/><path id="Path_10558" data-name="Path 10558" class="cls-9" d="M627.41,224.13c.5-2,2.24-4.52-1.32-5.13-4.45-.77-7.84,1.06-9.75,5.3-1.37,1.33-3.09,1.35-4.83,1.27-3-1.25-5.61-3.67-9.2-3.47-1.74,0-3.47,0-5.22,0-1.22.1-2.42.1-3.65.11s-2.51.13-3.77.16c-5.34-.23-10.27,2.22-15.56,2.32-2.9,0-5.64-.59-7.87-2.63a6.11,6.11,0,0,1,.71-7.51c9.16-10.27,37.41-9.33,46.65,1.5,4.27.42,8-1.14,11.67-3.07,8.92-4.72,8.93-4.7,15.86,3.08,5.64,7.06,15.18,6.32,22,11-5.49,3.58-10.92,2.92-16.51.06C640.61,224,634.34,221.8,627.41,224.13Z"/><path id="Path_10559" data-name="Path 10559" class="cls-10" d="M161.94,70.11c-4.9-.56-9.35-2.8-14.42-3.13-5.38-.35-10.52-2.5-13.15-8,11.94,4.74,24.69,5.72,37.18,7.67,8.93,1.39,17.88,1.39,26.87-1.92C216.6,58,235.16,52.31,252.64,43.83c4.47-2.16,8.53-5.16,12.87-7.62,5.18-2.94,10.55-5.4,16.74-5.08a3.36,3.36,0,0,1,4,.07c-4.89,11.28-17.68,10.66-25.76,17.17-21.61,11-43.41,22.07-68.09,23.06C182.41,71.83,171.81,75.81,161.94,70.11Z"/><path id="Path_10560" data-name="Path 10560" class="cls-11" d="M434.58,227.05l-3.12,3.07a7.77,7.77,0,0,1-2.49-.69c-.93-.74-1.85-1.5-2.74-2.29l0,0c-1.44-1.86-4-1.28-5.69-2.69-3-1.07-6.1-1.94-9-3.23-21.53-9.5-43.35-10.6-65.57-2.61-3.43,1.23-7,2-10.51,3a7.41,7.41,0,0,1-2.43,1.55l-11.62,3.87a4.32,4.32,0,0,1-3.78,1.15,2.56,2.56,0,0,1-2.13-2.84c7.78-9.49,20.75-8.84,30-15.41,19.67-10.28,39.73-7.77,59.57-1,8.15,2.77,16.2,6.09,24.17,9.48C432.41,220.49,432.46,224.4,434.58,227.05Z"/><path id="Path_10561" data-name="Path 10561" class="cls-12" d="M84.81,235.32l5.54,5.5a1.63,1.63,0,0,1,.68,1.86c-.23.61-.47.92-.7.92-8.32-3.68-17-6.78-24.9-11.17-13.2-7.31-26.16-15-40.72-19.44-2.24-1-1.52-3.87-3.2-5.23h0c-.72-5.52-4-10.62-2.65-16.47a5.07,5.07,0,0,1,3.45-1.47,5.65,5.65,0,0,1,3.21,1.83c2.5,10.32,9.06,16.81,19,20.14,8.5,5.28,17.89,8.63,26.94,12.71C76.87,226.94,82.5,229.05,84.81,235.32Z"/><path id="Path_10562" data-name="Path 10562" class="cls-13" d="M117.81,249.17c17.45,3.65,36.39.2,52.35,11-1.24,2-3.69.94-5.25,2.12-17.95-2.22-36-3.77-53.22-10C112.84,249.44,116,250.73,117.81,249.17Z"/><path id="Path_10563" data-name="Path 10563" class="cls-14" d="M316.17,227.06l2.78.09-.09,1.63c-9.9,3.66-19.6,8-30.17,9.54a17.43,17.43,0,0,1-2.5,1.65c-16.34,6.6-32.5,13.74-50,16.94a3.87,3.87,0,0,1,.18-4.1c19.23-11.61,40.79-17.46,61.71-24.83C303.82,226,309.9,222.11,316.17,227.06Z"/><path id="Path_10564" data-name="Path 10564" class="cls-7" d="M710.08,177.56c-1.44-4.24,2.87-9.8-3.77-13.1-2.69-1.33.38-3.82,1.93-5.26,4.4-4.07,8.49-8.17,4.52-14.78-2.55-2.73-1.94-5.48-.07-8.25l.09-10.95a1.61,1.61,0,0,1,2.21-.54,1.75,1.75,0,0,1,.47.43c-1,12.06,4.38,23.64,2.67,35.76l0,0C713.64,165.53,716.14,173.62,710.08,177.56Z"/><path id="Path_10565" data-name="Path 10565" class="cls-15" d="M649.67,58.59c-5.53,2.7-11.21-.75-16.78.4-3.25.68-6.38,0-9.49-.85-5-2.29-12.67-1.2-12.47-10,1.65-1.75,3.47-1.7,5.4-.5l2.73.34c3,3.19,7.93-.54,10.85,3l0-.06c1.63,1.4,4.16,1,5.61,2.72l0,0c4.14,3.23,9.76-.72,13.83,2.85C649.46,57.18,649.56,57.89,649.67,58.59Z"/><path id="Path_10566" data-name="Path 10566" class="cls-16" d="M164.91,262.25c1.31-1.8,3.24-2.06,5.25-2.12,12.09,0,24.18-.05,36.26,0,3.51,0,7.23-.78,10.24,2C199.41,264.74,182.16,263.57,164.91,262.25Z"/><path id="Path_10567" data-name="Path 10567" class="cls-17" d="M117.81,249.17c-1.33,2.44-3.75,2.69-6.12,3.07-5.9-.42-10.9-3.22-15.87-6.07-1.53-1.51-4-1-5.51-2.58h0c0-.93,0-1.85,0-2.78C100,242,109.33,244.15,117.81,249.17Z"/><path id="Path_10568" data-name="Path 10568" class="cls-18" d="M682.7,58.7c-10.2,3.63-20.41,5.55-30.67.17,6.54-.57,13.16.18,19.6-2.15C675.34,55.37,679.5,55.34,682.7,58.7Z"/><path id="Path_10569" data-name="Path 10569" class="cls-16" d="M236.23,254.65c0,.75,0,1.51,0,2.26-5.33,1.61-10.46,4.15-16.27,3.7l-.18-3.22C224.44,251.65,229.79,249.83,236.23,254.65Z"/><path id="Path_10570" data-name="Path 10570" class="cls-19" d="M715.46,125.1c-.9,0-1.79.07-2.68.12-4.31-4.34-3.4-7.12,2.52-8.38C715.35,119.59,715.4,122.35,715.46,125.1Z"/><path id="Path_10571" data-name="Path 10571" class="cls-4" d="M671.41,224.38c2.77-3.78,7.67-3.15,11.17-5.4C681.35,225.93,675.89,224.13,671.41,224.38Z"/><path id="Path_10572" data-name="Path 10572" class="cls-12" d="M90.31,243.59c2.26-.05,4.26.46,5.51,2.58C93.55,246.24,91.6,245.62,90.31,243.59Z"/><path id="Path_10573" data-name="Path 10573" class="cls-20" d="M448.13,238.24c2.26-.1,4.32.26,5.63,2.39A5.8,5.8,0,0,1,448.13,238.24Z"/><path id="Path_10574" data-name="Path 10574" class="cls-21" d="M420.57,224.49c2.38-.13,4.48.34,5.69,2.68A6.44,6.44,0,0,1,420.57,224.49Z"/><path id="Path_10575" data-name="Path 10575" class="cls-22" d="M333.05,223.24l2.43-1.54Z"/><path id="Path_10576" data-name="Path 10576" class="cls-22" d="M318.86,228.78c0-.54.07-1.09.09-1.63.83,0,1.66,0,2.48,0A2.21,2.21,0,0,1,318.86,228.78Z"/><path id="Path_10577" data-name="Path 10577" class="cls-21" d="M426.23,227.14l2.74,2.29A3.07,3.07,0,0,1,426.23,227.14Z"/><path id="Path_10578" data-name="Path 10578" class="cls-23" d="M621.85,232.61l-2.74,2.73Z"/><path id="Path_10579" data-name="Path 10579" class="cls-22" d="M286.19,240l2.5-1.66Z"/><path id="Path_10580" data-name="Path 10580" class="cls-24" d="M611,47.79c1.65,7.48,10.27,3.76,13.64,8.48C615.75,64,616.73,76.1,611.28,85.6c-8.14,14.22-20.48,25.28-27.82,40-2.49,5-7.85,5.89-13.26,5-7.14-1.55-10.14-8.86-17.28-13-.8,17.72-9.5,27.77-26.08,30.6a7.51,7.51,0,0,0-3.67,1.8c-13.91,12.94-31.82,7.42-47.82,9.63-13.68,1.88-20.65-9.39-25.5-20.93,2-9.41-5.8-17.91-1.65-28.07,2.53-6.17,2.45-12.89,9-17.43,4.78-3.34,4.51-8.34-.6-12.47-9.1,17.27-25.49,20.26-44.81,17.26C383.65,93.56,375.58,71,363,52.35c-5.92-8.8,4.28-19.3,16.92-16.85,9.72,1.87,18.67,6.07,29.16,2.67,4.7-1.53,7.65,3.85,9.66,8.16,1.69,3.62,3.32,10.19,7.42,8.35,13.06-5.84,23.73,4.89,35.83,3.57a19.54,19.54,0,0,0,5.4,0c3.79-1,7.23,4.82,11.19.58l2.64-2.57c3.35-2.83,3.7-7.25,5.73-10.78l.12-.11c9-.57,10.06,6,11,12.49.7,4.76-3.48,11.84,1.82,13.9,7,2.72,15.78,7.2,22.35,4.16,13.55-6.26,29.48-5.61,41.69-15.22,3.13-2.47,8.33-3.26,7.91-8.37-.45-5.36-5-7.27-9.63-8.37-4-.95-8.34-.65-12-2.6-7-3.66-10.55-8.07-1.86-14,20.25,8.82,43.66,8,62.66,20.56Z"/><path id="Path_10581" data-name="Path 10581" class="cls-25" d="M547.51,28.69c-2.45,4.22-2.57,7.54,2.85,9.68a23.49,23.49,0,0,0,10.77,1.31c6.27-.5,10.45,2.74,13.93,7.22,4.38,5.64,3.51,9.47-2.65,13.41-7.56,4.83-17.38,5.93-23,13.9-10.71-3.24-19,3.38-28.21,6.6-4.45,1.54-8.57-2.43-12.83-4-4.76-1.72-10.89,4.63-14.77-2.51-2.82-5.2.85-9.72,1.47-14.55.88-6.83-2.15-11.4-8-14.47,9-23.48,38.69-32.58,63.53-19.62C550.22,27.38,548.57,27.73,547.51,28.69Z"/><path id="Path_10582" data-name="Path 10582" class="cls-26" d="M547.51,28.69l3.07-3a4.56,4.56,0,0,1,1.33.13C566.34,31.93,581.67,34.42,597,37c1.52,1.63,4.1,1.09,5.6,2.76l0,0c1.47,4.1,6.26,4.76,8.45,8.12-2.23-.2-4.87.3-6.64-.72C586.66,37.06,565.27,38.42,547.51,28.69Z"/><path id="Path_10583" data-name="Path 10583" class="cls-27" d="M390.51,23.13c9.18,2.69,18.4,5.22,27.52,8.11,10.5,3.32,20.73,7.24,27.78,16.46l-1.24,1.38a7.59,7.59,0,0,1-5.47.18,35.24,35.24,0,0,1-5.16-2.35c-12.2-7.14-26.25-9.26-39.15-14.5-3.78-1.4-7.63-2.68-10.3-6a4.62,4.62,0,0,1,.4-3.9A4.46,4.46,0,0,1,390.51,23.13Z"/><path id="Path_10584" data-name="Path 10584" class="cls-28" d="M467.68,59.09l-2.8,2.68c-3.9-2.39-8.8-1.13-12.68-3.3s-10-3.32-6.67-10.34l.27-.43c8.4.21,14.68,5.58,21.78,9,1,.5,1.31,1,1,1.57S468,59.09,467.68,59.09Z"/><path id="Path_10585" data-name="Path 10585" class="cls-25" d="M467.68,59.09c0-.81-.08-1.61-.1-2.42l11,2.11C475.09,64.22,471.35,60.35,467.68,59.09Z"/><path id="Path_10586" data-name="Path 10586" class="cls-25" d="M486.93,45.43c.2,4.71-.57,8.9-5.72,10.78C482,52,483.3,48.1,486.93,45.43Z"/><path id="Path_10587" data-name="Path 10587" class="cls-29" d="M84.81,235.32l-41.33-22c-12.71-7.16-13.46-13.1-3-23.56,17.75-17.71,18.44-32.32,1.8-51.29-5.87-6.7-9.14-13.62-6.53-22.52a10.59,10.59,0,0,1,2.07-3.17C45,105.19,48.63,95.25,54.69,86.92a14.09,14.09,0,0,1,2-3.33,2.42,2.42,0,0,1,3.37.24c.08,1.37-.37,3.53.32,4C68,92.9,66.81,98.46,62.2,105c-1.66,2.37,5.94,18.26,8.57,18.83s4.33-1.35,5-3.61c1.44-4.6.72-10.14,5.85-13,3.25.24,2.72,3.36,4.11,4.91C97,124.7,97.49,125,88.93,138.11c-4.87,7.44-4.16,14.29-1.19,21.48,1.09,2.66,3.06,5.33.33,7.31-9,6.59-11.61,17.08-16.14,26.27-2.37,4.82-3.84,7-8.62,3-2.23-1.87-5.41-3.08-7.35-.52-3,3.94-7.79,6.8-8.65,12-.52,3.16,2.41,5.22,5,5.69,8.18,1.5,15,8.09,24.33,5.68,4.8-1.24,9.76-.34,13.52,4.42,4.8,6.09,13.25,5.62,17.45,2.31,9.9-7.8,17.38-1,25.6,1.65,4.08,1.29,7.68,6.84,12.17,2.92s7.3-9.62,3.27-15.91c-2.77-4.34-1.64-7.88,2.18-10.65,8.73-6.31,10.4-16.93,15.65-25.36.88-1.41.82-3.54.84-5.33,0-5.7-2.82-7.57-7.53-4.22a40.51,40.51,0,0,1-8.45,4.24c-2.24.92-4.4,1.15-6.31-.77a6.34,6.34,0,0,1-1.36-7.54c.9-2.1,1.55-4.69,3.16-6,9.46-7.89,15.91-18.86,26.49-25.6,8.85-5.63,8.75-5.75,16.21,2.79a36.66,36.66,0,0,0,3.06,2.79c10.6-8.23,6.71-21.62,11.75-31.65.42-.84-.56-3.44-1.31-3.64-9.74-2.56-4.27-7.83-2.94-13,1-3.82.34-8.21-.29-12.24-.44-2.85-2.67-4.72-6-4.45-.45,0-.88.35-1.32.36-9.72.26-12.23,1.5-21.86,11-3-5.12-5.86-10.1-8.74-15.08,22.25,2.16,43.36-2.79,64.19-10A106.51,106.51,0,0,0,247,50.2c4.15-2.53,9.32-3.37,14-5,2.9,13.2-.44,18.15-16.12,19.43-12.16,1-18.5,6.35-20.09,18.16-.53,3.94-3.13,8.22,2.57,10.5,4.63,1.86,8.65,8.24,14.46,2.16,4.22-4.42,8.52-4.68,13.21-.64s8.6,8.37,4.93,15.28c-3.5,6.6-2.51,12.4,3.8,16.85,4.59,3.24,6,7.94,6.1,13.18a65.51,65.51,0,0,0,3.34,20.26c2.06,5.93,1.23,11.37-1.35,17.22-5.69,12.87-3.34,16.75,10.61,20.13,4,1,8.22,1.06,11.78,3.47,2.76,2.78,3.28,6.45,4,10.05,1.25,6.31-1.61,10.8-6.79,13.74-5.69,3.22-10.51,1.56-14.33-3.65-4.32-5.9-7.67-10.31-13.34-.07-4.55,8.2-13.1,3.69-17.9-.38-6.54-5.55-11.35-13.26-10.13-22.87.43-3.42,3.47-7.26-1.05-9.83s-9.38-1.9-12.73,1.64c-7.37,7.81-14.91,11.56-25.42,5.63-4.07-2.3-7.89.81-10.78,4-9.5,10.52-20,20.12-27.46,32.44-7.92,13-13.93,13.74-26.82,6.23-10.1-5.88-21.82-4.58-33-5.61C94.33,235.2,89.65,235.67,84.81,235.32Z"/><path id="Path_10588" data-name="Path 10588" class="cls-30" d="M81.43,56c2.53-3.63,6-5.23,10.41-5.59,13.72-1.1,27.28-1.68,39.35,6.7a7,7,0,0,1-8.76,1.08c-12.28-8-24.9-4.62-37.58-1.85C83.57,57.63,82.43,57.51,81.43,56Z"/><path id="Path_10589" data-name="Path 10589" class="cls-31" d="M81.43,56l3.42.34-5.58,5.39c-2.56,2.14-5.66,3.49-8.25,5.6h0c-.93.91-1.86,1.83-2.75,2.77h0c-1.16,1.35-1.85,3.19-3.85,3.67-1.9-.66-3.39-1.51-1.76-3.8l.45-5.16C69.82,63.05,74.19,56.51,81.43,56Z"/><path id="Path_10590" data-name="Path 10590" class="cls-32" d="M71,67.28a8.77,8.77,0,0,1,8.25-5.6A8.19,8.19,0,0,1,71,67.28Z"/><path id="Path_10591" data-name="Path 10591" class="cls-32" d="M65.51,72.81c.92-.93,1.85-1.85,2.77-2.77,0,2.28-.55,4.32-2.74,5.54l-1-1.37C64.9,73.74,65.2,73.27,65.51,72.81Z"/><path id="Path_10592" data-name="Path 10592" class="cls-32" d="M68.27,70.05,71,67.27Z"/><path id="Path_10593" data-name="Path 10593" class="cls-32" d="M65.54,75.58l-2.75,2.74-.52-1.87a2.48,2.48,0,0,1,3.26-.9Z"/><path id="Path_10594" data-name="Path 10594" class="cls-32" d="M62.79,78.32,60,81.08,59,79.68c.3-.5.62-1,.93-1.51h-.05q1.56-1.77,2.94.14Z"/><path id="Path_10595" data-name="Path 10595" class="cls-32" d="M60,83.82l-2.64,0c-.87-.59-1.2-1.22-1-1.89s.48-1,.75-1l0,0A2,2,0,0,1,60,81h0l0,0C60,82,60,82.91,60,83.82Z"/><path id="Path_10596" data-name="Path 10596" class="cls-33" d="M569.53,127.9c5.78.43,10.72-.33,13.18-6.82s10.41-10.53,9.11-19a2.17,2.17,0,0,1,1.82-2.49,2,2,0,0,1,.65,0c8.39.87,8.63-6.61,11.46-11.29s3-10.48,7.69-14.15c2.35-1.85,1.81-4.52,1.42-7.44-1.23-9.17-1-9.2,9.75-10.38,3,.09,6.26-.45,8.28,2.73a36.72,36.72,0,0,0,24.76,5.34c14.61-2.15,23.73,7.31,33.09,15.18,3,2.57,1.94,10.07,2.73,15.32-13.32-2.35-13.32-2.35-12.85-15.6-5.24,1.1-10.8,3-14-3.7-1.69-3.54-6.15-.67-8.68-2.71-5-4-10.26-4.15-14.83.09s1.08,8.25,1.39,13c-6.5,1.41-16.4-.65-13.5,11.58a1.78,1.78,0,0,1-1.53,2,1.81,1.81,0,0,1-1.14-.24c-5.64-3.87-11.38,7.67-17.14-.29-1-1.38-4.1.65-3.94,2.34.51,5.4-2.92,9.86-2.32,15.59.87,8.39,1,17.57-10.84,20.36-4,.93-4.87,6.35-6.56,10s-.67,6.49,3.77,6.68A14.44,14.44,0,0,1,599,156.6c3,2.06,6.13,4.5,5.95,8.64-.19,4.4-3.35,6.06-7.33,6.77-1.73.31-4.53.9-4.83,1.94-3.35,11.61-14.06,8.6-21.73,10.61-8,2.1-16.66,5.22-25-.56a9.35,9.35,0,0,0-9.32-.42c-7.6,4.27-14.87,8.63-24.18,8.35-3.26-.1-3.8,3.5-2.42,6.37,5,10.24,5,10.21-2.2,18.18-.22.24,0,.85,0,2.22,5.56,2.32,11.14,3.29,17.45.56,8.77-3.8,18-5.5,27.61-6.86,12-1.72,23.76-6.36,35.37-10.44,13-4.56,14.82-4.26,22.15,6.66,1.57,2.33,3.06,4.53,3.12,7.43-9.13-7.9-18.74-10.56-29.21-2.52-2.44,1.88-4.76,1.73-7.58.82-6.38-2.09-9.32,1.14-10,7.2-10.73,7.85-23.65,4-35.35,6.65-8.57.87-17.2,2.73-25.53-1.24-3-1.13-6-2.19-9-3.45-23.46-10-31.63-31.35-21.27-55.11,1.59-3.65,3.57-6.64,7.84-6.52,18.32.53,37.15-6.35,54.73,4.41,1.42-5-1.75-8.54-2-12.61-.29-5.54,1.23-12.28,6.33-12.1C554.68,142,561.19,133.61,569.53,127.9Z"/><path id="Path_10597" data-name="Path 10597" class="cls-3" d="M712.69,136.17q0,4.13.07,8.25c-4.48,4.25-7.21,3.13-8.15-2.79a39.79,39.79,0,0,1-.12-5.46A7.23,7.23,0,0,0,712.69,136.17Z"/><path id="Path_10598" data-name="Path 10598" class="cls-34" d="M21.59,183.06c4-8.73,5-17.26,3.34-27.25s-4.31-21.7,4.78-30.7a6.92,6.92,0,0,1,4.76,4c5.86,18.69,7.9,37.39,0,56.1a8.73,8.73,0,0,1-3.79,1.69,13.4,13.4,0,0,1-7.78-2.33C22.48,184.1,22,183.58,21.59,183.06Z"/><path id="Path_10599" data-name="Path 10599" class="cls-32" d="M57.26,86.56c-.91,5,2.85,12.66-7.5,12.06-3.26-.19-2.33,2.64-2,4.9.91,7.24-2.33,10.91-9.75,10.59-5-7.8,3.47-11.24,5.46-16.77a9.57,9.57,0,0,1,5.16-5.4C51.53,90.25,52.11,84.71,57.26,86.56Z"/><path id="Path_10600" data-name="Path 10600" class="cls-35" d="M43.42,97.34c.27,6.27-7.16,10-5.46,16.77h0c-2.89,4.17-.23,10.57-5.52,13.78l-2.74-2.78q.32-4.2.65-8.39a12,12,0,0,1,2.11-2.55l.56-3q1-1.43,2.13-2.76C35.19,102.73,39.17,99.94,43.42,97.34Z"/><path id="Path_10601" data-name="Path 10601" class="cls-36" d="M57.26,86.56,48.58,92c.94-5.17,4.08-8.62,8.57-11,.07,1,.15,2,.22,2.93S57.27,85.66,57.26,86.56Z"/><path id="Path_10602" data-name="Path 10602" class="cls-36" d="M62.77,78.3l-2.94-.14c.19-3,.08-6.13,2.84-8.26l2.84,2.9c0,.92,0,1.83,0,2.75Z"/><path id="Path_10603" data-name="Path 10603" class="cls-32" d="M21.45,191.23l-2.59.05c0-3-.54-6.26,2.73-8.22l.09.09a8.25,8.25,0,0,1,1.72,3.19A5.59,5.59,0,0,1,21.45,191.23Z"/><path id="Path_10604" data-name="Path 10604" class="cls-36" d="M60,81,57.12,81l2.76-2.78C59.92,79.13,60,80.09,60,81Z"/><path id="Path_10605" data-name="Path 10605" class="cls-32" d="M35.16,108.46,33,111.22Z"/><path id="Path_10606" data-name="Path 10606" class="cls-32" d="M32.47,114.17l-2.12,2.55Z"/><path id="Path_10607" data-name="Path 10607" class="cls-20" d="M506.18,224.32a54.76,54.76,0,0,0,24.79,0c-3.07,11-13.7,13.56-21.34,12.71-15.05-1.68-30.8-2.48-44.76-9.95l-16.52,2.75h0c-3.89-3.6-8.88-4.42-13.77-5.51a6.71,6.71,0,0,1-4-4c-6.77-12.4-14.46-23-31.21-16.17a1.91,1.91,0,0,1-1.35.11c-15.34-12.86-34.77-1.58-51.13-8.67-5.16-2.24-9.83-2.26-15.47.9-12.81,7.2-38.9-2.16-45.77-15.38-1.13-2.17-2.06-5.06-.47-6.47,12.88-11.35,2.12-32.16,17.2-42.53,1.1-.76,1.22-2.45,1-3.83-.62-4.32-3.46-9.23,2.95-11.66a15.31,15.31,0,0,1,15.62,2.43c5.93,5,9.87,5.08,14.23-1.8,6.87-10.83,18.19-8.13,29-7,0-7.26-5.55-8.14-8.61-10.89-10.83-9.72-24.87-15.51-33.36-28.25-3.67-5.51-7.8-3-10.54,1.95-3.59,6.4-8,8.57-14.3,3.19-5.72-4.86-8.05-10.51-2.74-16.62,6.07-7,10.94-14.11,13.58-23.33,1.78-6.2,7.82-9,14.25-3.69,7.49,6.22,28.6,9,34,2.33,8.35-10.29,17.56-7.37,27.36-5.48,3.83.74,7.76,3.86,11.23-.72a89.53,89.53,0,0,0,17.79,6.47c8.2,2.2,16.73,4.25,23.54,10,.82,1,1.91,1.73,2.76,2.7l5.43.13c.15,4.32,3.72,5.43,6.6,7.37,4,2.68,9.34,2.5,12.75,6.27-7.77.14-15.74.89-22.24-4.63-5.44-4.61-9.46,0-13.6,2-5.95,2.89-9.5,1.95-11.14-4.73a54.68,54.68,0,0,0-2.64-7.77c-3.13-7.48-4.7-8.15-11.39-2.9-2.86,2.25-4.18.6-6.63.36-8.7-.87-16-8.57-25.75-4.54-7.95,3.28-9.92,7.73-4.24,13.93,4.63,5,7.25,11.18,10.72,16.7,6.67,10.62,14,23.26,30.21,21.89,4.54-.39,7.78,2,10.81,5,2.4,2.36,6.17,4.7,8.42,2.07,4.95-5.78,11-6.82,17.93-7.76,5.67-.78,5.58-5.51,4.45-10.78-1.24-5.76,1.44-7.33,6.85-4.93,4.19,1.85,8.34,3.64,8.26,9.56s-.43,10.89-7.56,12.62c-4.71,1.14-7.24,4-3.81,9.05a6.28,6.28,0,0,1,1.2,2.41c.73,4.9-8.93,5.35-5.23,11,2.33,3.51,5.13,6.47,4.2,10.93a63.8,63.8,0,0,1-2.6,7.73c-5.09,8.61-12.6,6.35-19.19,3.31-21-9.7-43.46-13.08-65.87-17-7.44-1.29-13.56.24-18.42,6.21-2.62,3.21-5.53,6.29-9.4,7.88-17.05,7-19.93,22.1-22.63,38.36,16.18-12.4,18.83-12.31,35.22,1.38,2.24,1.87,4.78,4.24,7.14,2.47,9.29-7,22-2.22,31.08-9.55,1.43-1.17,3.76-2.46,5-1.66,10.94,6.85,24,3.6,35.43,7.86,4.95,1.84,9.57,5.42,9.61,10.68.1,13.61,12.23,18.57,18.58,27.61,2.8,4,8.13,5,12.58,3.76C482.91,216.8,494.46,220.83,506.18,224.32Z"/><path id="Path_10608" data-name="Path 10608" class="cls-21" d="M464.87,227.09a72.52,72.52,0,0,1,31.84,4.32c14,5.22,23.7-.78,34.26-7.08l35.8-2.78,8.28,0c6.17,3.07,11.08-1.41,16.51-2.75h2.76a1.62,1.62,0,0,0,2.75,0h5.51c2.09,2.84,6.15,2.7,8.28,5.49h5.49c-11.66,7.5-25,11.47-38.18,13.24-10.13,1.35-19.77,4.64-28.77,7.85-7.21,2.58-14.86,6.2-22.16,9.68-7.9,3.77-16.4,3.39-24.25,1.42-10.56-2.65-20.77-6.9-30.93-10.94C462.91,241.91,461.6,237.92,464.87,227.09Z"/><path id="Path_10609" data-name="Path 10609" class="cls-21" d="M431.83,221.56l2.75,2.76v2.73a9.54,9.54,0,0,1-5.53-5.48C430,220.22,430.9,220.28,431.83,221.56Z"/><path id="Path_10610" data-name="Path 10610" class="cls-21" d="M448.35,229.83c-.61,1.17-2.44,2.57-2.69,2-1.27-3.1,1.77-1.25,2.69-2Z"/><path id="Path_10611" data-name="Path 10611" class="cls-22" d="M98.58,232.57c12.83-4.83,25.07-3.93,36.13,4.47,7.36,5.6,14.79,5.29,19.17-4,7.2-15.31,20.73-25,30.6-37.78,5.12-6.65,9.84-6.89,17.1-1.36,7.1,5.4,11.7,1.22,14.73-3.76,4.48-7.37,10.73-7.9,17.75-6.94,8.06,1.12,9.91,5.22,5.84,12.53-1.64,3-2.83,5.59-1,8.93,4.87,9,9.06,18.65,22.53,17.77,1.62-4.39-1.54-12.45,5.35-13.23,6-.68,11.13,3.94,13.29,10,1.58,4.48,4.71,6.25,8.31,4.18s8.68-4.37,6.89-10.26c-1.1-3.62-1.08-7.21-1.14-10.87a9.21,9.21,0,0,1,9.93-2.81c11.65,3.22,22.84,5.15,33.48-3.24,3.15-2.49,6.84-.58,9.74,2.17,5.67,5.36-.59,9.95-.81,14.92-9.3,6.33-21.27,6.78-30.29,13.74-11.92,1.37-22.85,6.19-34,10.14-15.43,5.47-30.64,11.6-45.94,17.45-5.83-1.11-11,1.9-16.49,2.74-10-5.2-20.15-7.65-31.23-3.19a9.89,9.89,0,0,1-9.28-1c-12.15-8.8-26-5.83-39.52-6.76C125.13,245.47,109.86,244.31,98.58,232.57Z"/><path id="Path_10612" data-name="Path 10612" class="cls-5" d="M591.56,218.82c-4.94,4.31-9.9,8.52-16.52,2.75C580.55,220.65,585.74,217.85,591.56,218.82Z"/><path id="Path_10613" data-name="Path 10613" class="cls-5" d="M610.85,224.31c-4,.06-8,.07-8.27-5.49C606.59,218.76,610.55,218.78,610.85,224.31Z"/><path id="Path_10614" data-name="Path 10614" class="cls-5" d="M597.06,218.82c-.91,1.57-1.83,1.56-2.74,0h2.74Z"/><path id="Path_10615" data-name="Path 10615" class="cls-1" d="M346.46,213.32c-3.79-.72-6.76-2-2.12-5.62,2.93-2.31,4.6-4.23,1.3-7.55s-6.64-3.77-9.18-.05c-7,10.25-17.26,6.33-25.33,4.36-5.79-1.41-11.35-1.5-17-2.18-5.5.08-11,.17-16.19-2.18-3.5-1.58-9.08,1.19-10.66-4.12-1.65-5.54-4.95-12-.39-17,7-7.63,4.42-15.07,1.36-22.7-2.33-5.82-1.37-11.76-1.66-17.66-.16-3.18.11-6.39-3-8.63-11.35-8.07-12.23-11.05-5.69-22.18,1.73-3,1.85-5-.67-7-2.8-2.32-5.72-4.51-8.59-6.77-3.37.41-3.63,3.7-5.3,5.7-5.24,6.29-5.45,6.46-12-.16-3.65-3.68-7.24-5.59-13-1.37-.17-10.07,3.93-17.48,5.17-25.39,1-6.1,6.58-10.88,14.1-11,2.29,0,4.6.11,6.87-.09,13.41-1.17,14.2-2,16.66-16.49,6.95-7,17.11-8.17,24.86-13.71,7,.1,13-2.95,19.22-5.54,3.08,0,6.28.37,8.37-2.7h1.3l1.3-.05c4.09-3.3,9.61.59,13.69-2.74l30.4-.06c7.93,3.35,16.44,4.1,24.79,5.52l11,2.85c-.26,4.15.36,9.21-6.62,6.18-3.34-1.45-6.5-3.19-10.32-3.54-7.44-.69-15.59-3.87-17.87,7.67a4.38,4.38,0,0,1-5.55,3c-4.23-1.47-8.65,1.4-12.06,0-7.56-3.09-12.86.38-17.47,4.56-4.74-2.17-1.75-5.33-2.55-7.64-1-2.91-1.58-6.89-5.81-6.39-3.15.37-7,2.15-6.66,5.78,1,9.62-4.77,14.72-11,20.6-8,7.61-7.22,9,5.29,17.74,3.43-1.33,3.8-4.72,5.1-7.55,4.05-8.87,8.91-9.66,14.79-1.85,3,4,5.85,8.13,9.42,11.73A50,50,0,0,0,348,88.72C356.36,93,363.11,99.66,369.87,106c4.4,4.1,2.74,7.29-3.32,7.94a35.62,35.62,0,0,1-9.56-.39c-11.87-2-14.1-1.09-20,8.6-6.13,10-6.33,10.19-14.37,1.83-5.44-5.66-11.21-6.6-17.8-4-.82,2.88.68,4.08,1.91,5.32,4.23,4.24,4.08,7.21-1.47,10.68-8.56,5.35-11.12,14.47-7.08,23.38,1.67,3.66.95,6.14-1.81,8.39-1.77,1.43-4,2.33-5.67,3.84-5.53,4.91-5.13,6.75,1.06,11.23,7.3,5.29,13.91,11.7,23.34,13.15,5.84.9,11.8,2.58,16.05-3.83,2.35-3.55,5.89-4,9.73-2.29.41.19.87.3,1.27.52,12.14,6.68,25.16,4.84,37.78,2.84,5.49-.87,8.57-.65,11.12,4.32,1.85,3.58,5.26,6,9,3.62,5.8-3.66,10.6-5.93,17.43-1.27,8,5.47,14.57,11.11,14.34,21.67H429c-12.76-2.82-23.81-10.78-36.79-12.71C376.71,206.54,361,204.35,346.46,213.32Z"/><path id="Path_10616" data-name="Path 10616" class="cls-32" d="M32.45,127.89C33.58,123,34.38,118,38,114.11c-1.27,10.2,1.11,19,10,25.13,7.8,5.45,6.38,15.7,11.61,22.56.83,1.08.64,4.4-.31,5.16-9.59,7.69-7.45,24.13-21.26,28.48-2.6.82-1.51,2.37-1.65,4.09-.48,6.21,2.81,10.23,7.15,13.81-14.36-2.88-18.89-8.05-19.31-22-1.55-5.3,2.6-4.8,5.58-5.5,4.22-2.05,5.54-5.6,5.5-10.06-.09-10.9-.51-21.83.17-32.68C35.77,137.49,28.53,133.83,32.45,127.89Z"/><path id="Path_10617" data-name="Path 10617" class="cls-34" d="M29.75,185.8l-5.58,5.5-2.72-.07c.05-1.83.1-3.65.16-5.47,2.67-1.94,5.35-1.83,8.05,0Z"/><path id="Path_10618" data-name="Path 10618" class="cls-37" d="M506.18,224.32c-4.55-.17-9.18.54-13.58-1.29-4.92-2-9.67-1.22-14.73.05-11.19,2.83-21.94,3.28-27.82-9.68-1.8-4-5.38-6.17-8.77-8.46-4.41-3-8.16-5.68-5-12.11,2.76-5.69-2.62-9.44-6-10.71-7-2.64-15.07-5.22-22.38-3.13-6,1.71-8.72,2.66-10.26-4.63-.65-3.05-5-2.52-6.57.14-3.46,5.79-8.73,5.82-14.36,5.78-5.81,0-11.17-.57-15.91,5.29-3.65,4.51-9.26,2.1-13.42-3.94-9.48-13.79-18.57-13.9-27.62-.25-1.48,2.22-2.26,6-5.45,5.17-3.77-.93-4-4.86-3.31-8,2.19-9.55,4-19.32,7.4-28.43,2.49-6.6,9.75-9.67,15.74-12.67,4.67-2.34,8.18-4.82,11.3-9.13,4.44-6.11,10.3-8.11,19-7.3,14.53,1.35,27.84,9.2,42.86,7.13,3.69-.51,7.05,1.76,9.86,4.24,6.35,5.61,15.27,4.72,22.33,8.94,3.44,2.06,8-.37,11.7-2.37,2.08,1.74,4.86,3.09,6.14,5.3,6.78,11.75,13.54,14.89,26.07,11,5.76-1.78,11.27-4.35,16.72.69a4.42,4.42,0,0,0,6.22.2,54.85,54.85,0,0,1,28.65-12.95c8-1.07,14.94-14.54,12.32-22.23-1.52-4.44.68-6,3.18-7.78,2.83-2.05,5-.42,7,1.85,3.89,4.42,6.94,9.64,12.09,12.88a23.51,23.51,0,0,0-2.13,3.5c-3.9,10-9.72,16.09-21.65,12.33-5.1-1.6-6,2.47-6.46,6.4-.9,7.5,4.63,12.56,7.67,19.73-6.33,2.37-12,4.79-16.26-2.69-2-3.52-5.27-4-8.24-3.31-9.74,2.35-19.87-1.91-29.44,2-.42.17-.93.1-1.34.27-4,1.62-8.78-3.75-11.47,0-2.44,3.4-2.79,8.52-3.4,13a87.66,87.66,0,0,0-.82,15c.36,10.2,3.48,18.62,14.42,22.4C495.9,218.43,500.93,221.68,506.18,224.32Z"/><path id="Path_10619" data-name="Path 10619" class="cls-24" d="M440.11,48l-2.77-2.7Z"/><path id="Path_10620" data-name="Path 10620" class="cls-12" d="M29.66,185.71l-8.06,0a13.38,13.38,0,0,1,.07-2.61C24.64,183.05,27.73,182.58,29.66,185.71Z"/><path id="Path_10621" data-name="Path 10621" class="cls-20" d="M330.68,94.65c.59-3,2.43-4.75,5.54-4.4,1.85.21,3.41,1.7,2.94,3.66-.66,2.72-2.6,4.82-5.58,4.7C331.62,98.52,330.88,96.59,330.68,94.65Z"/></g></svg>
