<svg id="Layer_1" data-name="Layer 1" xmlns="http://www.w3.org/2000/svg" viewBox="0 0 396.85 283.35"><defs><style>.cls-1{isolation:isolate;}.cls-2{fill:none;stroke:#717070;}</style></defs><title>05_content</title><g id="Grundlæggende_content" data-name="Grundlæggende content" class="cls-1"><g class="cls-1"><path d="M25.38,208.5a18.69,18.69,0,0,1-7.15-1.35,17,17,0,0,1-9.5-9.5,19.61,19.61,0,0,1,0-14.3,17,17,0,0,1,9.5-9.5,18.69,18.69,0,0,1,7.15-1.35,21.17,21.17,0,0,1,5.12.62A15.1,15.1,0,0,1,34.93,175a1.73,1.73,0,0,1,.52.57,1.41,1.41,0,0,1,.18.68,1.49,1.49,0,0,1-.45,1.13,1.39,1.39,0,0,1-1,.42,1.27,1.27,0,0,1-.48-.08,2.63,2.63,0,0,1-.42-.17,17.07,17.07,0,0,0-3.7-1.5,15.87,15.87,0,0,0-4.25-.55,14.91,14.91,0,0,0-7.65,1.95,13.84,13.84,0,0,0-5.25,5.35,16.55,16.55,0,0,0,0,15.4,13.84,13.84,0,0,0,5.25,5.35,14.91,14.91,0,0,0,7.65,1.95,16.46,16.46,0,0,0,4.52-.65,13.92,13.92,0,0,0,3.93-1.75l-.25,1.05v-11.5l.75.7H25.68a1.49,1.49,0,0,1-1.1-.45,1.44,1.44,0,0,1-.45-1.05,1.4,1.4,0,0,1,.45-1.1,1.57,1.57,0,0,1,1.1-.4h9.55a1.47,1.47,0,0,1,1.5,1.5V203.9a1.5,1.5,0,0,1-.2.75,2.09,2.09,0,0,1-.55.6,18.91,18.91,0,0,1-4.93,2.37A18.22,18.22,0,0,1,25.38,208.5Z"/><path d="M45.18,208a1.38,1.38,0,0,1-1.1-.45,1.52,1.52,0,0,1-.4-1.05V184.1a1.49,1.49,0,0,1,.42-1,1.51,1.51,0,0,1,2.15,0,1.46,1.46,0,0,1,.43,1v7.5l-.75.15a11.42,11.42,0,0,1,.87-3.47,11.84,11.84,0,0,1,2-3.18,9.87,9.87,0,0,1,3-2.35,8.25,8.25,0,0,1,3.88-.9,4.3,4.3,0,0,1,1.75.37,1.28,1.28,0,0,1,.85,1.23,1.59,1.59,0,0,1-.4,1.15,1.3,1.3,0,0,1-.95.4,2.26,2.26,0,0,1-1-.25,3.17,3.17,0,0,0-1.37-.25,5.54,5.54,0,0,0-2.8.82,9.7,9.7,0,0,0-2.55,2.23,11.48,11.48,0,0,0-1.83,3.12,9.48,9.48,0,0,0-.67,3.48V206.5a1.54,1.54,0,0,1-1.5,1.5Z"/><path d="M82,182.6a1.4,1.4,0,0,1,1.07.45,1.5,1.5,0,0,1,.43,1v14.1c0,3.3-.94,5.82-2.8,7.55a10.69,10.69,0,0,1-7.55,2.6,10.51,10.51,0,0,1-7.48-2.6q-2.78-2.59-2.77-7.55V184.1a1.49,1.49,0,0,1,.42-1,1.51,1.51,0,0,1,2.15,0,1.46,1.46,0,0,1,.43,1v14.1a6.62,6.62,0,0,0,7.25,7.35,7.47,7.47,0,0,0,5.4-1.88,7.24,7.24,0,0,0,2-5.47V184.1a1.52,1.52,0,0,1,.4-1A1.38,1.38,0,0,1,82,182.6Z"/><path d="M103.43,181.85a9.35,9.35,0,0,1,5.27,1.32,7.44,7.44,0,0,1,2.85,3.61,13.92,13.92,0,0,1,.88,5v14.7a1.54,1.54,0,0,1-1.5,1.5,1.38,1.38,0,0,1-1.1-.45,1.52,1.52,0,0,1-.4-1.05V192a10,10,0,0,0-.65-3.65,5.71,5.71,0,0,0-2.13-2.65,6.73,6.73,0,0,0-3.87-1,8.67,8.67,0,0,0-4.08,1,8.87,8.87,0,0,0-3.12,2.65,6.07,6.07,0,0,0-1.2,3.65V206.5a1.54,1.54,0,0,1-1.5,1.5,1.38,1.38,0,0,1-1.1-.45,1.52,1.52,0,0,1-.4-1.05V184.1a1.49,1.49,0,0,1,.42-1,1.51,1.51,0,0,1,2.15,0,1.5,1.5,0,0,1,.43,1v4.2l-1.15,1.8a6.33,6.33,0,0,1,1-3.07,10.63,10.63,0,0,1,2.38-2.65,11.21,11.21,0,0,1,3.22-1.85A9.8,9.8,0,0,1,103.43,181.85Z"/><path d="M141,171a1.45,1.45,0,0,1,1.07.42,1.5,1.5,0,0,1,.43,1.08v34A1.54,1.54,0,0,1,141,208a1.38,1.38,0,0,1-1.1-.45,1.52,1.52,0,0,1-.4-1.05v-5.95l.85-.7a6.67,6.67,0,0,1-.75,2.93,10,10,0,0,1-2.13,2.82,11,11,0,0,1-3.2,2.1,9.85,9.85,0,0,1-4,.8,10.66,10.66,0,0,1-6-1.75,12.31,12.31,0,0,1-4.22-4.75,15.87,15.87,0,0,1,0-13.68,12.13,12.13,0,0,1,4.2-4.75,10.65,10.65,0,0,1,6-1.72,10.44,10.44,0,0,1,3.95.75,10.83,10.83,0,0,1,3.27,2.05,10.06,10.06,0,0,1,2.25,3,7.81,7.81,0,0,1,.83,3.48l-1.05-.75V172.5a1.52,1.52,0,0,1,.4-1.05A1.38,1.38,0,0,1,141,171Zm-10.4,34.7a8.24,8.24,0,0,0,4.7-1.38,9.38,9.38,0,0,0,3.22-3.75,12.1,12.1,0,0,0,1.18-5.42,12,12,0,0,0-1.18-5.37,9.38,9.38,0,0,0-3.22-3.75,8.66,8.66,0,0,0-9.38,0,9.3,9.3,0,0,0-3.25,3.75,12,12,0,0,0-1.17,5.37,12.16,12.16,0,0,0,1.17,5.4,9.29,9.29,0,0,0,3.25,3.77A8.25,8.25,0,0,0,130.63,205.7Z"/><path d="M153.67,206.5a1.4,1.4,0,0,1-.45,1.05,1.42,1.42,0,0,1-1.05.45,1.4,1.4,0,0,1-1.07-.45,1.5,1.5,0,0,1-.43-1.05v-34a1.48,1.48,0,0,1,.45-1.05,1.46,1.46,0,0,1,1-.45,1.41,1.41,0,0,1,1.08.45,1.49,1.49,0,0,1,.42,1.05Z"/><path d="M168.22,208.5a9,9,0,0,1-3.72-.83,7.6,7.6,0,0,1-3.05-2.5,6.92,6.92,0,0,1-1.23-4.22,7.19,7.19,0,0,1,3.23-6.15q3.23-2.3,9.63-2.3h24.79l-.59.6v-1a7.4,7.4,0,0,0-1.5-4,8.51,8.51,0,0,0-3.16-2.5,9,9,0,0,0-3.84-.85,8.63,8.63,0,0,0-3.08.6,8.2,8.2,0,0,0-2.85,1.87,9.65,9.65,0,0,0-2.07,3.25,12.32,12.32,0,0,0-.81,4.68,11.78,11.78,0,0,0,1.2,5.35,9.18,9.18,0,0,0,3.48,3.8,10.18,10.18,0,0,0,5.43,1.4,9.36,9.36,0,0,0,3.14-.5,8.69,8.69,0,0,0,2.45-1.32,10.25,10.25,0,0,0,1.75-1.73,1.76,1.76,0,0,1,1.11-.45,1.15,1.15,0,0,1,.87.4,1.3,1.3,0,0,1,.38.9,1.38,1.38,0,0,1-.5,1.05,13.45,13.45,0,0,1-3.91,3.12,10.56,10.56,0,0,1-5.25,1.33,13.66,13.66,0,0,1-6.79-1.65,11.79,11.79,0,0,1-4.61-4.6,13.92,13.92,0,0,1-1.64-6.9,14.64,14.64,0,0,1,1.67-7.25,12.38,12.38,0,0,1,4.35-4.63,10.79,10.79,0,0,1,5.68-1.62,12.26,12.26,0,0,1,4.27.77,11.12,11.12,0,0,1,3.7,2.3,11.4,11.4,0,0,1,2.6,3.73,13.57,13.57,0,0,1,1.07,5.1,1.56,1.56,0,0,1-.5,1,1.47,1.47,0,0,1-1,.42H173a17.86,17.86,0,0,0-5.43.7,7.06,7.06,0,0,0-3.27,2,4.3,4.3,0,0,0-1.11,2.92,4.51,4.51,0,0,0,.81,2.75,4.77,4.77,0,0,0,2,1.62,5.75,5.75,0,0,0,2.39.53,8.88,8.88,0,0,0,4.13-1,13.91,13.91,0,0,0,3.35-2.34,9.14,9.14,0,0,0,2-2.53l1.5,2.2a16.73,16.73,0,0,1-2.37,2.8,14.07,14.07,0,0,1-3.7,2.57A11.28,11.28,0,0,1,168.22,208.5Zm3-26.65a14.85,14.85,0,0,1,3.25.35,9.19,9.19,0,0,1,2.81,1.12,5.62,5.62,0,0,1,2,2.08,6.53,6.53,0,0,1,.72,3.2v6.6l-2.8.15v-5.6a4.8,4.8,0,0,0-.92-3.22,4.71,4.71,0,0,0-2.3-1.48,9.65,9.65,0,0,0-2.73-.4,8.42,8.42,0,0,0-3.25.65,12.65,12.65,0,0,0-2.8,1.62,9.5,9.5,0,0,0-2,2.08,1.5,1.5,0,0,1-1.2.6,1.26,1.26,0,0,1-.89-.38,1.2,1.2,0,0,1-.41-.92,1.65,1.65,0,0,1,.08-.45,1.4,1.4,0,0,1,.28-.5,15.5,15.5,0,0,1,2.59-2.6,15.06,15.06,0,0,1,3.5-2.08A10.42,10.42,0,0,1,171.22,181.85Z"/><path d="M217,181.85a10.84,10.84,0,0,1,4.1.77,12.24,12.24,0,0,1,3.33,2,10.36,10.36,0,0,1,2.22,2.6,5.21,5.21,0,0,1,.8,2.63l-.8-1.2V184a1.57,1.57,0,0,1,.43-1.1,1.51,1.51,0,0,1,2.15,0,1.56,1.56,0,0,1,.42,1.1v21.65A12.89,12.89,0,0,1,228,212.4a10.82,10.82,0,0,1-4.47,4.17,14,14,0,0,1-6.43,1.43,16.13,16.13,0,0,1-3.67-.45,14.59,14.59,0,0,1-3.3-1.15c-.92-.47-1.44-1-1.57-1.45a1.26,1.26,0,0,1-.33-.88,1,1,0,0,1,.42-.72.92.92,0,0,1,1-.07c.38.18.94.42,1.67.72l1.33.45a15.23,15.23,0,0,0,2.05.52,12.81,12.81,0,0,0,2.42.23,8.76,8.76,0,0,0,9.5-9.35v-4.8l.55.15a8.37,8.37,0,0,1-1.5,3.15,10,10,0,0,1-2.45,2.27,11.13,11.13,0,0,1-3,1.41,11.65,11.65,0,0,1-9.42-1.28,12.46,12.46,0,0,1-4.38-4.75,15.42,15.42,0,0,1,0-13.68,12.28,12.28,0,0,1,4.36-4.75A11.38,11.38,0,0,1,217,181.85Zm.31,2.8a8.9,8.9,0,0,0-4.88,1.38,9.42,9.42,0,0,0-3.4,3.75,11.48,11.48,0,0,0-1.22,5.37,11.66,11.66,0,0,0,1.22,5.4,9.41,9.41,0,0,0,3.4,3.77,9.42,9.42,0,0,0,9.77,0,9.44,9.44,0,0,0,3.4-3.73,12.62,12.62,0,0,0,0-11,9.36,9.36,0,0,0-3.4-3.7A9.14,9.14,0,0,0,217.33,184.65Z"/><path d="M248,181.85a10.84,10.84,0,0,1,4.1.77,12.24,12.24,0,0,1,3.33,2,10.36,10.36,0,0,1,2.22,2.6,5.21,5.21,0,0,1,.8,2.63l-.8-1.2V184a1.57,1.57,0,0,1,.43-1.1,1.51,1.51,0,0,1,2.15,0,1.56,1.56,0,0,1,.42,1.1v21.65A12.89,12.89,0,0,1,259,212.4a10.82,10.82,0,0,1-4.47,4.17,14,14,0,0,1-6.43,1.43,16.13,16.13,0,0,1-3.67-.45,14.59,14.59,0,0,1-3.3-1.15c-.92-.47-1.44-1-1.57-1.45a1.26,1.26,0,0,1-.33-.88,1,1,0,0,1,.42-.72.92.92,0,0,1,1-.07c.38.18.94.42,1.67.72l1.33.45a15.23,15.23,0,0,0,2.05.52,12.81,12.81,0,0,0,2.42.23,8.76,8.76,0,0,0,9.5-9.35v-4.8l.55.15a8.37,8.37,0,0,1-1.5,3.15,10,10,0,0,1-2.45,2.27,11.13,11.13,0,0,1-3,1.41,11.65,11.65,0,0,1-9.42-1.28,12.46,12.46,0,0,1-4.38-4.75,15.42,15.42,0,0,1,0-13.68,12.28,12.28,0,0,1,4.36-4.75A11.38,11.38,0,0,1,248,181.85Zm.31,2.8a8.9,8.9,0,0,0-4.88,1.38,9.42,9.42,0,0,0-3.4,3.75,11.48,11.48,0,0,0-1.22,5.37,11.66,11.66,0,0,0,1.22,5.4,9.41,9.41,0,0,0,3.4,3.77,9.42,9.42,0,0,0,9.77,0,9.44,9.44,0,0,0,3.4-3.73,12.62,12.62,0,0,0,0-11,9.36,9.36,0,0,0-3.4-3.7A9.14,9.14,0,0,0,248.33,184.65Z"/><path d="M278.92,208.5a13.72,13.72,0,0,1-6.8-1.65,11.76,11.76,0,0,1-4.6-4.6,13.92,13.92,0,0,1-1.65-6.9,14.64,14.64,0,0,1,1.68-7.25,12.38,12.38,0,0,1,4.35-4.63,10.79,10.79,0,0,1,5.68-1.62,12.26,12.26,0,0,1,4.27.77,10.8,10.8,0,0,1,3.67,2.3,11.71,11.71,0,0,1,2.6,3.73,12.67,12.67,0,0,1,1.05,5.1,1.38,1.38,0,0,1-.45,1,1.47,1.47,0,0,1-1.05.42H267.62l-.6-2.7h19.7l-.64.6v-1a7.61,7.61,0,0,0-1.56-4,8.46,8.46,0,0,0-3.12-2.5,8.91,8.91,0,0,0-3.82-.85,8.63,8.63,0,0,0-3.08.6,8.2,8.2,0,0,0-2.85,1.87,9.65,9.65,0,0,0-2.07,3.25,12.32,12.32,0,0,0-.81,4.68,11.78,11.78,0,0,0,1.2,5.35,9.25,9.25,0,0,0,3.45,3.8,10.15,10.15,0,0,0,5.45,1.4,9.08,9.08,0,0,0,5.58-1.82,9.73,9.73,0,0,0,1.77-1.73,1.71,1.71,0,0,1,1-.45,1.21,1.21,0,0,1,.93.4,1.3,1.3,0,0,1,.38.9,1.38,1.38,0,0,1-.5,1.05,13.45,13.45,0,0,1-3.91,3.12A10.56,10.56,0,0,1,278.92,208.5Z"/><path d="M307.42,181.85a9.38,9.38,0,0,1,5.28,1.32,7.44,7.44,0,0,1,2.85,3.61,13.92,13.92,0,0,1,.87,5v14.7a1.4,1.4,0,0,1-.45,1.05,1.42,1.42,0,0,1-1.05.45,1.37,1.37,0,0,1-1.09-.45,1.53,1.53,0,0,1-.41-1.05V192a10,10,0,0,0-.64-3.65,5.71,5.71,0,0,0-2.13-2.65,6.76,6.76,0,0,0-3.87-1,8.67,8.67,0,0,0-4.08,1,8.78,8.78,0,0,0-3.12,2.65,6.08,6.08,0,0,0-1.21,3.65V206.5a1.44,1.44,0,0,1-.45,1.05,1.42,1.42,0,0,1-1.05.45,1.37,1.37,0,0,1-1.09-.45,1.53,1.53,0,0,1-.41-1.05V184.1a1.5,1.5,0,0,1,.43-1,1.51,1.51,0,0,1,2.15,0,1.49,1.49,0,0,1,.42,1v4.2l-1.15,1.8a6.45,6.45,0,0,1,1-3.07,10.78,10.78,0,0,1,2.37-2.65,11.39,11.39,0,0,1,3.23-1.85A9.75,9.75,0,0,1,307.42,181.85Z"/><path d="M345,171a1.46,1.46,0,0,1,1.08.42,1.49,1.49,0,0,1,.42,1.08v34A1.54,1.54,0,0,1,345,208a1.41,1.41,0,0,1-1.1-.45,1.56,1.56,0,0,1-.4-1.05v-5.95l.85-.7a6.67,6.67,0,0,1-.75,2.93,10,10,0,0,1-2.12,2.82,11,11,0,0,1-3.2,2.1,9.86,9.86,0,0,1-4,.8,10.63,10.63,0,0,1-6-1.75,12.41,12.41,0,0,1-4.23-4.75,15.87,15.87,0,0,1,0-13.68,12.29,12.29,0,0,1,4.2-4.75,10.67,10.67,0,0,1,5.95-1.72,10.4,10.4,0,0,1,4,.75,10.75,10.75,0,0,1,3.28,2.05,10.06,10.06,0,0,1,2.25,3,7.8,7.8,0,0,1,.82,3.48l-1.05-.75V172.5a1.56,1.56,0,0,1,.4-1.05A1.41,1.41,0,0,1,345,171Zm-10.4,34.7a8.2,8.2,0,0,0,4.7-1.38,9.33,9.33,0,0,0,3.23-3.75,12.1,12.1,0,0,0,1.17-5.42,12,12,0,0,0-1.17-5.37,9.33,9.33,0,0,0-3.23-3.75,8.64,8.64,0,0,0-9.37,0,9.3,9.3,0,0,0-3.25,3.75,12,12,0,0,0-1.18,5.37,12.17,12.17,0,0,0,1.18,5.4,9.29,9.29,0,0,0,3.25,3.77A8.24,8.24,0,0,0,334.62,205.7Z"/><path d="M365.72,208.5a13.72,13.72,0,0,1-6.8-1.65,11.76,11.76,0,0,1-4.6-4.6,13.92,13.92,0,0,1-1.65-6.9,14.64,14.64,0,0,1,1.68-7.25,12.23,12.23,0,0,1,4.35-4.63,10.75,10.75,0,0,1,5.67-1.62,12.31,12.31,0,0,1,4.28.77,10.8,10.8,0,0,1,3.67,2.3,11.71,11.71,0,0,1,2.6,3.73,12.67,12.67,0,0,1,1.05,5.1,1.38,1.38,0,0,1-.45,1,1.49,1.49,0,0,1-1,.42H354.42l-.6-2.7h19.7l-.65.6v-1a7.52,7.52,0,0,0-1.55-4,8.54,8.54,0,0,0-3.12-2.5,8.92,8.92,0,0,0-3.83-.85,8.58,8.58,0,0,0-3.07.6,8.2,8.2,0,0,0-2.85,1.87,9.83,9.83,0,0,0-2.08,3.25,12.52,12.52,0,0,0-.8,4.68,11.78,11.78,0,0,0,1.2,5.35,9.25,9.25,0,0,0,3.45,3.8,10.15,10.15,0,0,0,5.45,1.4,9.08,9.08,0,0,0,5.58-1.82,10.06,10.06,0,0,0,1.77-1.73,1.71,1.71,0,0,1,1.05-.45,1.21,1.21,0,0,1,.93.4,1.29,1.29,0,0,1,.37.9,1.35,1.35,0,0,1-.5,1.05,13.41,13.41,0,0,1-3.9,3.12A10.62,10.62,0,0,1,365.72,208.5Z"/></g><g class="cls-1"><path d="M20,246.65a17.82,17.82,0,0,1,4.4.52,9.44,9.44,0,0,1,3.22,1.43,2.48,2.48,0,0,1,1.23,2,1.55,1.55,0,0,1-.38,1,1.13,1.13,0,0,1-.92.48,1.6,1.6,0,0,1-1-.3,5.25,5.25,0,0,1-.72-.7,3.46,3.46,0,0,0-1.05-.75,9.29,9.29,0,0,0-1.88-.55,13.33,13.33,0,0,0-2.72-.25,9.38,9.38,0,0,0-5,1.4,10,10,0,0,0-3.55,3.77,10.9,10.9,0,0,0-1.3,5.33,11.79,11.79,0,0,0,1.22,5.4,9.32,9.32,0,0,0,3.45,3.77A9.54,9.54,0,0,0,20,270.5a11.07,11.07,0,0,0,3.12-.35,8.56,8.56,0,0,0,1.88-.8,4.91,4.91,0,0,0,1.42-1.08,1.39,1.39,0,0,1,1.13-.52,1.28,1.28,0,0,1,1,.37,1.42,1.42,0,0,1,.35,1c0,.53-.39,1.12-1.18,1.78a10.94,10.94,0,0,1-3.22,1.7,14.33,14.33,0,0,1-4.75.72A11.89,11.89,0,0,1,8.8,266.77,14.52,14.52,0,0,1,7.23,260a13.88,13.88,0,0,1,1.6-6.65,12.76,12.76,0,0,1,4.45-4.83A12.2,12.2,0,0,1,20,246.65Z"/><path d="M58.23,260a13.85,13.85,0,0,1-1.68,6.83A12.59,12.59,0,0,1,52,271.58a12.92,12.92,0,0,1-12.88,0,12.67,12.67,0,0,1-4.55-4.75,14.84,14.84,0,0,1,0-13.68,12.81,12.81,0,0,1,4.55-4.75,12.72,12.72,0,0,1,12.88,0,12.74,12.74,0,0,1,4.52,4.75A13.77,13.77,0,0,1,58.23,260Zm-3,0A11.49,11.49,0,0,0,54,254.58a9.64,9.64,0,0,0-3.43-3.75,9.57,9.57,0,0,0-9.9,0,9.76,9.76,0,0,0-3.45,3.75,12.16,12.16,0,0,0,0,10.82,9.82,9.82,0,0,0,3.45,3.72,9.57,9.57,0,0,0,9.9,0A9.69,9.69,0,0,0,54,265.4,11.38,11.38,0,0,0,55.23,260Z"/><path d="M76.43,246.65A9.35,9.35,0,0,1,81.7,248a7.44,7.44,0,0,1,2.85,3.61,13.92,13.92,0,0,1,.88,5v14.7a1.54,1.54,0,0,1-1.5,1.5,1.38,1.38,0,0,1-1.1-.45,1.52,1.52,0,0,1-.4-1.05V256.75a10,10,0,0,0-.65-3.65,5.71,5.71,0,0,0-2.13-2.65,6.73,6.73,0,0,0-3.87-1,8.67,8.67,0,0,0-4.08,1,8.87,8.87,0,0,0-3.12,2.65,6.07,6.07,0,0,0-1.2,3.65V271.3a1.54,1.54,0,0,1-1.5,1.5,1.38,1.38,0,0,1-1.1-.45,1.52,1.52,0,0,1-.4-1.05V248.9a1.49,1.49,0,0,1,.42-1.05,1.51,1.51,0,0,1,2.15,0,1.5,1.5,0,0,1,.43,1.05v4.2l-1.15,1.8a6.33,6.33,0,0,1,1-3.07,10.84,10.84,0,0,1,2.38-2.66,11.41,11.41,0,0,1,3.22-1.84A10,10,0,0,1,76.43,246.65Z"/><path d="M91.63,247.35h11.65a1.33,1.33,0,0,1,1,.42,1.5,1.5,0,0,1,.4,1,1.32,1.32,0,0,1-.4.95,1.35,1.35,0,0,1-1,.4H91.63a1.38,1.38,0,0,1-1-.43,1.36,1.36,0,0,1,0-2A1.43,1.43,0,0,1,91.63,247.35Zm5.15-7a1.4,1.4,0,0,1,1.07.45,1.5,1.5,0,0,1,.43,1.05v25.1a4.62,4.62,0,0,0,.37,2.1,1.85,1.85,0,0,0,1,.92,3.2,3.2,0,0,0,1.2.23,1.88,1.88,0,0,0,.72-.13,2.11,2.11,0,0,1,.73-.12,1,1,0,0,1,.77.35,1.25,1.25,0,0,1,.33.9,1.38,1.38,0,0,1-.8,1.18,3.74,3.74,0,0,1-1.9.47c-.3,0-.75,0-1.35-.08a5,5,0,0,1-1.85-.55,3.63,3.63,0,0,1-1.58-1.67,7.6,7.6,0,0,1-.62-3.45V241.8a1.49,1.49,0,0,1,.42-1.05A1.41,1.41,0,0,1,96.78,240.3Z"/><path d="M121.33,273.3a13.67,13.67,0,0,1-6.8-1.65,11.7,11.7,0,0,1-4.6-4.6,13.92,13.92,0,0,1-1.65-6.9A14.64,14.64,0,0,1,110,252.9a12.38,12.38,0,0,1,4.35-4.63,10.79,10.79,0,0,1,5.68-1.62,12.26,12.26,0,0,1,4.27.77,10.94,10.94,0,0,1,3.68,2.3,12,12,0,0,1,2.6,3.73,13,13,0,0,1,1.05,5.1,1.38,1.38,0,0,1-.45,1,1.49,1.49,0,0,1-1,.42H110l-.6-2.7h19.7l-.65.6v-1a7.69,7.69,0,0,0-1.55-4,8.57,8.57,0,0,0-3.13-2.5,8.91,8.91,0,0,0-3.82-.85,8.63,8.63,0,0,0-3.08.6,8.06,8.06,0,0,0-2.85,1.87,9.75,9.75,0,0,0-2.07,3.25,12.33,12.33,0,0,0-.8,4.68,11.78,11.78,0,0,0,1.2,5.35,9.25,9.25,0,0,0,3.45,3.8,10.13,10.13,0,0,0,5.45,1.4,9.29,9.29,0,0,0,3.1-.5,9,9,0,0,0,2.47-1.33,9.76,9.76,0,0,0,1.78-1.72,1.66,1.66,0,0,1,1.05-.45,1.21,1.21,0,0,1,.92.4,1.3,1.3,0,0,1,.38.9,1.38,1.38,0,0,1-.5,1.05,13.41,13.41,0,0,1-3.9,3.12A10.62,10.62,0,0,1,121.33,273.3Z"/><path d="M149.83,246.65A9.35,9.35,0,0,1,155.1,248a7.44,7.44,0,0,1,2.85,3.61,13.92,13.92,0,0,1,.88,5v14.7a1.54,1.54,0,0,1-1.5,1.5,1.38,1.38,0,0,1-1.1-.45,1.52,1.52,0,0,1-.4-1.05V256.75a10,10,0,0,0-.65-3.65,5.71,5.71,0,0,0-2.13-2.65,6.73,6.73,0,0,0-3.87-1,8.67,8.67,0,0,0-4.08,1A8.87,8.87,0,0,0,142,253.1a6.07,6.07,0,0,0-1.2,3.65V271.3a1.54,1.54,0,0,1-1.5,1.5,1.38,1.38,0,0,1-1.1-.45,1.52,1.52,0,0,1-.4-1.05V248.9a1.49,1.49,0,0,1,.42-1.05,1.51,1.51,0,0,1,2.15,0,1.5,1.5,0,0,1,.43,1.05v4.2l-1.15,1.8a6.33,6.33,0,0,1,1-3.07,10.84,10.84,0,0,1,2.38-2.66,11.41,11.41,0,0,1,3.22-1.84A10,10,0,0,1,149.83,246.65Z"/><path d="M165,247.35h11.65a1.33,1.33,0,0,1,1,.42,1.5,1.5,0,0,1,.4,1,1.32,1.32,0,0,1-.4.95,1.35,1.35,0,0,1-1,.4H165a1.37,1.37,0,0,1-1-.43,1.36,1.36,0,0,1,0-2A1.42,1.42,0,0,1,165,247.35Zm5.15-7a1.4,1.4,0,0,1,1.07.45,1.5,1.5,0,0,1,.43,1.05v25.1a4.62,4.62,0,0,0,.37,2.1,1.82,1.82,0,0,0,1,.92,3.2,3.2,0,0,0,1.2.23A1.88,1.88,0,0,0,175,270a2.11,2.11,0,0,1,.73-.12,1,1,0,0,1,.77.35,1.25,1.25,0,0,1,.33.9,1.38,1.38,0,0,1-.8,1.18,3.74,3.74,0,0,1-1.9.47c-.3,0-.75,0-1.35-.08a5,5,0,0,1-1.86-.55,3.66,3.66,0,0,1-1.57-1.67,7.6,7.6,0,0,1-.62-3.45V241.8a1.49,1.49,0,0,1,.42-1.05A1.41,1.41,0,0,1,170.18,240.3Z"/></g></g><g id="_05" data-name=" 05" class="cls-1"><g class="cls-1"><path d="M31.79,114.38A41.65,41.65,0,0,1,17.51,96q-5-11.76-5-26.88t5.25-26.32A41.27,41.27,0,0,1,32.42,25.27,37.84,37.84,0,0,1,53.84,19a38.36,38.36,0,0,1,21.7,6.23A40.44,40.44,0,0,1,90,42.84q5.1,11.34,5.11,26.32A69.5,69.5,0,0,1,90.24,96,41.09,41.09,0,0,1,76,114.38Q66.57,121,53.84,121T31.79,114.38ZM73.93,98.56Q81,88.2,81,69.16q0-18.76-7.21-28.42t-20-9.66a23.59,23.59,0,0,0-19.67,9.8q-7.5,9.79-7.49,28.28,0,19,7.07,29.4t20.09,10.36Q66.86,108.92,73.93,98.56Z"/><path d="M156.74,61.18a28,28,0,0,1,11.34,11.2A33.21,33.21,0,0,1,172,88.62a31.58,31.58,0,0,1-4.55,17.08A30.74,30.74,0,0,1,155,117a39.12,39.12,0,0,1-17.85,4,56.29,56.29,0,0,1-14.77-2,43.37,43.37,0,0,1-12.53-5.46l3.22-12.32a63.66,63.66,0,0,0,11.48,5.11,38.67,38.67,0,0,0,11.9,1.75q9.38,0,15.19-5.32t5.81-14.14q0-9.8-6.16-15.19T134.76,68A80.07,80.07,0,0,0,115,70.84L121,21h46.2l-.56,12.6H132L129,57.82a76.68,76.68,0,0,1,10.08-.7A36.2,36.2,0,0,1,156.74,61.18Z"/></g></g><line id="Line_14" data-name="Line 14" class="cls-2" x1="5.48" y1="145.5" x2="357.48" y2="145.5"/></svg>
