<svg id="Layer_1" data-name="Layer 1" xmlns="http://www.w3.org/2000/svg" viewBox="0 0 793.7 311.81"><defs><style>.cls-1{fill:#649ad2;}.cls-2{fill:#6e9ed4;}.cls-3{fill:#d4e1f2;}.cls-4{fill:#5c93ce;}.cls-5{fill:#4a80c1;}.cls-6{fill:#2a59a0;}.cls-7{fill:#6294ce;}.cls-8{fill:#4077bb;}.cls-9{fill:#5a89c6;}.cls-10{fill:#6798d0;}.cls-11{fill:#5387c6;}.cls-12{fill:#74a2d6;}.cls-13{fill:#80afde;}.cls-14{fill:#7a9ecf;}.cls-15{fill:#6c98cd;}.cls-16{fill:#2f5da4;}.cls-17{fill:#6397d1;}.cls-18{fill:#b9cdea;}.cls-19{fill:#a1bce3;}.cls-20{fill:#7da6d8;}.cls-21{fill:#447dc0;}.cls-22{fill:#6fa2d7;}.cls-23{fill:#73a4d8;}.cls-24{fill:#79aadc;}.cls-25{fill:#77a9dc;}.cls-26{fill:#87b9e5;}.cls-27{fill:#619ad2;}.cls-28{fill:#3b72b8;}.cls-29{fill:#275ca7;}.cls-30{fill:#4d88c7;}.cls-31{fill:#447cbf;}.cls-32{fill:#8cb5e1;}.cls-33{fill:#83b1df;}.cls-34{fill:#5990cc;}.cls-35{fill:#6096d0;}.cls-36{fill:#2a60aa;}.cls-37{fill:#4a82c3;}.cls-38{fill:#77a4d7;}.cls-39{fill:#6e9cd3;}.cls-40{fill:#79a9db;}.cls-41{fill:#5e8dc9;}.cls-42{fill:#8eb5e1;}.cls-43{fill:#7094c9;}.cls-44{fill:#8cb6e2;}.cls-45{fill:#5a90cc;}.cls-46{fill:#6799d1;}.cls-47{fill:#4783c4;}.cls-48{fill:#7ca8da;}.cls-49{fill:#6ea0d5;}.cls-50{fill:#689dd4;}.cls-51{fill:#669cd4;}.cls-52{fill:#86b4e2;}.cls-53{fill:#7cafdf;}.cls-54{fill:#3e76bb;}.cls-55{fill:#86b5e2;}.cls-56{fill:#4d81c2;}.cls-57{fill:#4479bd;}.cls-58{fill:#4e86c5;}.cls-59{fill:#174f9b;}.cls-60{fill:#82afde;}.cls-61{fill:#75a4d8;}.cls-62{fill:#90b8e3;}.cls-63{fill:#79a6d9;}.cls-64{fill:#6899d1;}.cls-65{fill:#74a0d5;}.cls-66{fill:#4b80c1;}.cls-67{isolation:isolate;}.cls-68{fill:none;stroke:#717070;}</style></defs><title>05_headline</title><g id="Group_192" data-name="Group 192"><path id="Path_10622" data-name="Path 10622" class="cls-1" d="M248.65,47.18C282.21,62.27,318,68.32,354.12,72.79c3.84,2.88,9-.27,12.78,2.7l0-.07a3.35,3.35,0,0,1-.47,4.54c-6.1,4-12.74,3.09-19.37,2.13-5.09-1.47-10.21-2.66-15.49-.71a23.32,23.32,0,0,1-4.57.48c-8.51-.48-16.4-4.22-24.89-4.82-3.13-.11-6.25-.28-9.39-.3-27.13.7-47.91-13.12-67.54-29.59a5.59,5.59,0,0,1,2.09-4.49c5.13-.31,10.38-1.88,15.15,1.45l-.12-.1q1.8,1.32,3.46,2.77A7.57,7.57,0,0,0,248.65,47.18Z"/><path id="Path_10623" data-name="Path 10623" class="cls-2" d="M149.79,59.36c11.26-4.73,19.45-12.6,26.41-21.7a20.38,20.38,0,0,1,24.14-6.2,90.15,90.15,0,0,0,19.59,6.18,4.1,4.1,0,0,1,1.78,3.72C203.62,46.53,190,58.77,175.77,70.17c-3.86.79-6-2.14-8.65-4-1.05-.62-2.1-1.26-3.2-1.8a26,26,0,0,0-5.46-1.15C155.2,62.77,151.76,62.67,149.79,59.36Z"/><path id="Path_10624" data-name="Path 10624" class="cls-3" d="M245.78,46.78A3.69,3.69,0,0,1,242.33,44Z"/><path id="Path_10625" data-name="Path 10625" class="cls-4" d="M41.81,180.57l12.81-16c5.69,6.29,13.59,10.4,17.88,18.06A19.66,19.66,0,0,0,76.39,187c1.15.64,2.28,1.3,3.45,1.89,3.81,1.68,7.56,3.44,9.93,7.12,7.22,9.75,6.31,21.46,8,32.5-1.53,3,1.11-.26,1,.55,4.47-.29,9.36-1.4,10.12,5.33l-25.45.79-3.24-.68C65.66,224.15,51.79,213,34.63,206.74,27.1,204,24.07,198,33.92,194,40.77,191.19,42.32,186.88,41.81,180.57Z"/><path id="Path_10626" data-name="Path 10626" class="cls-5" d="M41.81,180.57c1.34,1.58,3.14,3,3.94,4.78,3.67,8.48,2.91,9.77-5.93,11.29-2.92.5-6.42-.94-9.28,3.75,18,9.25,39.3,14.09,49.63,34.09-4,2.21-8,4.34-12.76,3.46-9.33-3.63-20.45,1.47-29-6L23,228.44c-4.1-5.42-9.52-9.68-13.43-15.27a3.07,3.07,0,0,1,.8-3.69l-.28-.32c3.34-2.23.28-7,3.6-9.2v.11C22.06,192.15,32.58,187.29,41.81,180.57Z"/><path id="Path_10627" data-name="Path 10627" class="cls-6" d="M38.42,232c.75-.67,1.94-2.06,2.19-1.91,8.25,5,18.63,2.72,26.8,7.89-8.46-.36-16.9,4.77-25.37.08-2-1.55-1-4.88-3.56-6.12Z"/><path id="Path_10628" data-name="Path 10628" class="cls-7" d="M10.57,212.41C17,216,24.42,218.78,23,228.44l-6.4.08C10.17,224.77,5.24,220.49,10.57,212.41Z"/><path id="Path_10629" data-name="Path 10629" class="cls-5" d="M38.48,231.9c3,1,3.59,3.37,3.57,6.12C39.13,237,38.66,234.53,38.48,231.9Z"/><path id="Path_10630" data-name="Path 10630" class="cls-8" d="M108.86,234.37c-5.62-5-12.92-.93-19-3.59,1-3.39,4.08-1.91,6.26-2.51,2.26-1.33,5.9-3.12,4.89-5.44-8.39-19.29,9.45-30.36,13.79-45.59,2.52-.86,4.2.36,5.59,2.27,1.92,5.28,4.56,8.54,10.15,3.63a8,8,0,0,1,4.27-.25c5.1,3.09,11,3.33,16.65,4.84a12.76,12.76,0,0,1,4,2.61c7.34,17.25,1.82,31.06-17.19,43.08-5.26,3.25-11.24-2.52-16.47,1.32Z"/><path id="Path_10631" data-name="Path 10631" class="cls-9" d="M168.38,254.37l-5.3-1a3.75,3.75,0,0,1-.28-4.12,7,7,0,0,1,5.73-3.07c9.7,3.06,18.21,6.68,28.62-1.73,7.68-6.22,16.33.28,19,9.53,2.28,8,7.35,10.81,14.55,11.87a31.26,31.26,0,0,1,6.46,2c6.55,5,14.27,4.19,21.81,4.3a28.75,28.75,0,0,1,4.9.4c5.41,3.8,16.5-.9,16.54,11-5.19.74-10.37,1.36-15.47-.51-32.84-1.3-63.48-10.45-92.35-25.9A7.18,7.18,0,0,0,168.38,254.37Z"/><path id="Path_10632" data-name="Path 10632" class="cls-10" d="M456,250.92a399.1,399.1,0,0,0-57.36,25.87c-9.4.95-19,.07-28.23,2.6-6.53,0-12.91,1.4-19.36,2.28a18.26,18.26,0,0,1-5.06-.11c-8-2.46-17.54,1.7-24.41-5.65,2.93-8.67,10.6-7,16.92-7.24,11.46-.36,22.86-.71,33.85-4.3,9.54-5.64,19-10.57,30.93-7,7.47,2.25,14-2.36,20.6-5.74,10.59-5.43,20.85-12,33.45-11.83a6.91,6.91,0,0,1,3.08,3.43C461.27,247.16,458.45,248.94,456,250.92Z"/><path id="Path_10633" data-name="Path 10633" class="cls-11" d="M166.21,247.57l-3.28,3.29a1.86,1.86,0,0,1-2.58.56,1.89,1.89,0,0,1-.58-.58c-9.06-8.68-20-13.42-32.23-15.59,1.41-2.59,3.93-1.66,6-1.92,1.39-.38,2.91,1,4.26-.27,0,0-.31-1.39-.31-1.39,4.24-6.83,12.3-9.9,15.06-19,2.4-8,3.64-14.74.83-22.34a4.76,4.76,0,0,1,4.17-.64,10.24,10.24,0,0,1,4.5,4.83,20.28,20.28,0,0,1,1.2,4.24C164,215,165.87,231.25,166.21,247.57Z"/><path id="Path_10634" data-name="Path 10634" class="cls-12" d="M535.54,244.32l-10.1-5.83c-3.7-5.84-7.89-10.37-15.93-9.43-4.5.53-9.34.08-12.95-3.7a5.9,5.9,0,0,1,.35-4.69c4.77-6.34,12-5.52,18.6-6.39,12-2.86,22.69,1.12,32.26,7.73,6.48,4.47,12.3,10.23,7.24,19.48C549.29,247.73,541.84,242.05,535.54,244.32Z"/><path id="Path_10635" data-name="Path 10635" class="cls-13" d="M650.09,266.67c-5.1.61-9-1.86-13.15-4.44-6.23-3.87-12.83-4.48-18.68,1.3-5.23-2.17-9.94-5.71-15.82-6.23-10.52-2.22-22.18,1.11-31.6-6.48a3.93,3.93,0,0,1,1.28-4.67c11.85-6.4,23.72-.23,35.53.21,15.24.57,30.07,4.08,44.39,9.39C657.31,260.42,648.05,262.55,650.09,266.67Z"/><path id="Path_10636" data-name="Path 10636" class="cls-14" d="M570.49,250.8c11.12-.17,22.17,0,31.94,6.5a7.32,7.32,0,0,1-2.72.1A14.7,14.7,0,0,0,596,260a8,8,0,0,1-2.95.52,23.2,23.2,0,0,1-16.59.1,6.2,6.2,0,0,1-2.73-.72,18.53,18.53,0,0,1-4.1-7.18C569.92,252.08,570.21,251.44,570.49,250.8Z"/><path id="Path_10637" data-name="Path 10637" class="cls-15" d="M570.47,247.65c0,1,0,2.1,0,3.15l0,0c-4.35,2.7-8.8,1.92-13.26.36-5.44.06-10.68-.75-15.43-3.63a7.83,7.83,0,0,0-4-2.68,3.49,3.49,0,0,1-2.27-.5c5.61-5.6,12.68-2.11,19-3.07l2-.14a17,17,0,0,1,4,.38,18.88,18.88,0,0,1,8.94,4.4C569.8,246.47,570.13,247.06,570.47,247.65Z"/><path id="Path_10638" data-name="Path 10638" class="cls-13" d="M557.25,251.13l13.26-.36,3.24,9.14Z"/><path id="Path_10639" data-name="Path 10639" class="cls-16" d="M137.11,234.4l-9.57.85-5.83-.51c4.47-5.19,10.5-2.34,15.83-3.07h0c.67.73.83,1.38.47,1.94S137.39,234.4,137.11,234.4Z"/><path id="Path_10640" data-name="Path 10640" class="cls-13" d="M576.48,260.62l16.59-.1C587.56,264.58,582,264.8,576.48,260.62Z"/><path id="Path_10641" data-name="Path 10641" class="cls-12" d="M537.81,244.82a4.73,4.73,0,0,1,4,2.68Z"/><path id="Path_10642" data-name="Path 10642" class="cls-17" d="M159.77,250.84l1.58,0,1.58,0c.07.86.12,1.71.15,2.56Z"/><path id="Path_10643" data-name="Path 10643" class="cls-17" d="M168.38,254.37a4.75,4.75,0,0,1,4.16,2.82Z"/><path id="Path_10644" data-name="Path 10644" class="cls-13" d="M596,260c1.23-.88,2.45-1.75,3.69-2.62Z"/><path id="Path_10645" data-name="Path 10645" class="cls-18" d="M729.69,269.85l3.22-3.11Z"/><path id="Path_10646" data-name="Path 10646" class="cls-19" d="M560.81,295l-3.17,3.49Z"/><path id="Path_10647" data-name="Path 10647" class="cls-20" d="M722.87,28.13c.68,3.28,2.36,6.94,5.59,6.75,16.44-1,15.7,11.12,17.25,21.65a7.42,7.42,0,0,1-6.83,1.72c-11.34-6.3-24.56-7.32-36.21-12.78C688.2,34.64,671.32,31.1,653.85,29.9c-21.5-1.47-43.06-.86-64.59-.74a24.39,24.39,0,0,0-9.2,1.83,34.47,34.47,0,0,1-4.62,1.58c-15.81,6.37-31.68,12.23-49,6.08a3.18,3.18,0,0,1-.51-4.48l.06-.07,48-12.47c15.45.47,29.46-6.79,44.89-8a93,93,0,0,1,37,4.37c5,1.64,9.58,4.11,15.17,2.5,16.08-4.64,31.23-1.4,45.88,5.75A39.85,39.85,0,0,0,722.87,28.13Z"/><path id="Path_10648" data-name="Path 10648" class="cls-21" d="M118.54,79.37l5.82-7c9.22-2.9,15.5-11.52,25.43-13l13.25.36a33.88,33.88,0,0,0,3.13,3.21h0c-3,13.8-16.79,13.39-25.67,19.37-3.83,2.58-9,2.22-13.46,3.65-1.26.55-2.54,1.07-3.77,1.67a35.44,35.44,0,0,1-3.67,1.9,10.83,10.83,0,0,1-4,.76c-2.8-.79-5.39-1.73-4-5.54L115.2,82A16.48,16.48,0,0,1,118.54,79.37Z"/><path id="Path_10649" data-name="Path 10649" class="cls-22" d="M303.05,72.48l25.51,6.36c9.47,13.86-3,22-8.68,31.6-2.25,3.78-7.71,5.29-9.58,10.19,17.74-15.44,41.14-23,56.45-41.76.06-1.15.11-2.3.17-3.45l6.1-.27c8.85,2.3,17.15-3.66,26-1.8,6.86,2.57,13-.28,19.4-2.25,9.05-2.78,16.34-.95,19.56,9.14.56,5.1-9,5.37-5.64,11.83a7,7,0,0,1-2,3.53c-8.75,1.11-14.18,8.28-21.56,11.91-7.91,2-13.37.3-13.57-9.14.64-1.45,2.95-1.84,2.57-4A8.66,8.66,0,0,1,395.33,98c-3,3.58-7.5,3.83-11.29,5.62-1.3.65-2.63,1.21-4,1.77-11.17,4.75-22.84,9.08-12,24.7,1.81,2.61.76,8.78-.93,8.49-11.32-1.95-14.2,12.52-24.3,11.87a2.71,2.71,0,0,1-1.41-2.25,3.78,3.78,0,0,0,.7,2.74c-.31,3.58-1.68,6.38-5.1,7.84-4-.33-7-3.09-9.3-5.64-10.06-11.12-20-18-33.39-4.26-3.53,3.6-8,.65-10.84-3-4.33-5.47-12.6-8.66-9.63-18.27,2.61-8.42,6.8-15.7,14.09-20.53,6.75-4.47,9-9.88,6.39-17.45C295.71,83.15,300.84,78.56,303.05,72.48Z"/><path id="Path_10650" data-name="Path 10650" class="cls-1" d="M398.58,75.64C390,79.88,378.92,74.09,372,84c-1.75-4.43.7-6.41,1-8.89,3.45-3.58,8.08-2.3,12.24-3,1.8-1,2.46-3,4-4.22a12,12,0,0,1,5.54-1.74,22.16,22.16,0,0,0,7.63-1.48c2-.42,3.86-1.18,5.85-1.6,2.85-.23,5.55-1.16,8.34-1.74,1.54,0,3.06,0,4.59,0,3.08.24,7.4-1.17,8.67,2.06,1.55,3.94-2.46,4.86-5.55,5.79C415.84,71.75,407.64,75.4,398.58,75.64Z"/><path id="Path_10651" data-name="Path 10651" class="cls-22" d="M366.9,75.5c-4.41-.18-9.22,1.5-12.78-2.7C358.61,72.58,363.33,71.31,366.9,75.5Z"/><path id="Path_10652" data-name="Path 10652" class="cls-23" d="M389.07,69.47l-3.82,2.7a29.12,29.12,0,0,0,.57-2.9l.05,0C387,67.94,388.1,67.94,389.07,69.47Z"/><path id="Path_10653" data-name="Path 10653" class="cls-23" d="M398.58,75.64c8.62-6,18.94-7.51,29-10.55-3-3.73-6.82-1.45-10-2.26-1-.85-1.23-1.57-.74-2.15a1.72,1.72,0,0,1,1.27-.78c15.47-2.49,30.46-6.52,45.58-10.81,20.42-5.79,39.79-17.52,62.27-15,0,1.12,0,2.24,0,3.37-1.41,6-5.71,8.82-11.33,9.29-6.31.51-8.8,5.14-11.67,9.5-1.23,1.88-1.7,4.37.54,5.54,3.43,1.8,4.05-.88,4.95-3.59,3.74-11.34,11.7-15.3,17.9-7.4,7,9,17.41,14.57,22.91,24.69-.27,2.53-2.12,5.09-.22,7.62,8.35,11.15,15.79,20.85-2.76,31.3-3.94,2.22-8.71,13.59-13,20.8-5.79,9.77-15.57,13.95-21.89,8.52-7.67-6.59-6.63-15.4-2.23-23.19,10.9-19.28,11.16-19.14-5.1-36.9,10.48,19.54-9.95,31.48-10.93,48.72-1.18,20.8-28.92,16.32-33.94,34.63,5.45,1.73,11.53-6.59,18.6-3,3.46,6.07-1.87,9.9-3.66,14.64-4.49,8.76-9.76,15.8-21.44,14.87-7.15-.56-11.85,6.32-18.24,8.54-6.78,2.36-12.1-.94-17.06-5.1,2.51,5.74,2.84,11.79-3.8,14-7.9,2.67-13.68,5.06-12.41,15.34.39,3.18-4.93,4.8-9,3.84-15.22-8.79-16.88-8.26-23.21,8.73-1.17,3.13-1.73,6.23-5.74,6.31s-7-1.44-9.93-4.16c-3.13-2.93,1.59-11.8-6.54-10-7.14,1.59-14.24,5.35-17.74,12.31-2.68,5.3-1.28,13-10.82,12.83-8.7-.18-13.48-4.22-16.38-12.2-3.55-9.75-10.83-8.51-18.24-4.83-9.1,4.51-18.24,8.52-28.76,5.6-7-11.73-15.53-9.29-22.9-1.31-6.75,7.32-12.82,8.24-20.69,2.59-6.74-4.82-13.78-5.15-20.38.42-4,3.34-7.2,8.59-13.4,3.83s-6.2-12-6.76-18.8c-.57-6.93,3.91-9.22,10.08-9.28,3.82-.28,7.95,2.92,11.52-1.08-1.95-3.38-6,.33-8.09-2.46-1.92-2.41-2.5-5.3-3-8.22-.18-6-3.83-6.08-8.3-4.93-7.68,2-10.94-2.63-13.08-8.86,0-1.06-.05-2.11-.07-3.17,2.52-3.47,6.83-3.42,10.19-5.21a12.9,12.9,0,0,0,3.9-2.9,2.26,2.26,0,0,0-.87-2.55,21.59,21.59,0,0,0-3.38-1.12c-7.43-2.7-19.9-1.95-10.85-15.84a22.79,22.79,0,0,1,6.48-2.16c9.5-4.95,19.17-4.41,29-1,4.16,1.45,6.15,3.82,4.57,8.3s-11.33,7.88-6.06,12.12c7.42,5.95,7-5.8,11.14-8.32,9.9-2,4.62,10.34,14,12.74-5.94-17.73-14.35-33.73-9.71-51.66-2.11,3.78-.66,10-6.41,10.91-5.46.88-8.42-3.43-11.26-7.27-8.25-11.12-6.46-22.57.13-34.68-6.81-.54-10.74,3.08-15.05,5.6-13.67,6.43-20,19.24-27.12,31.36a8,8,0,0,1-3.18,2.95c-16.61,5-20.08-9.12-27.38-20.55-1,9.35-5.13,13-12.92,11.16-5.29-2.62-11.17-4.24-15.3-8.87a20.14,20.14,0,0,1,6.26-13c7,.08,10.86-3.32,10.27-10.41-.77-9.14,4.47-12.88,12.19-14.79v0a30,30,0,0,0,3.22-3.16h0c15.45-5.84,28.36.73,41.41,9.38,2.17-10.53,5.35-19,18.19-13-2.54-4.31-13.63-2.81-8.61-12.29,6.57-3.54,11.16-9.38,16.06-14.68,8.68-9.37,19.45-13.31,31.77-14.1,2.5.18,4.85.66,6.31,3,0,1.16-.05,2.33-.07,3.49-7.85,4.37,1.55,9.92-1.14,15.11C221.17,70.46,218,79.46,210.71,86c10.9,7.58,16.59,21.28,31.41,24.11,4.44.85,4.64,7.73,5.39,12.42.48,15.94,2.81,18.31,18.35,18.54,10.68,9.65-3.79,11.11-5.46,16.75,25.27,22.25,4.09,36.79-9.63,53.15,11.26-5.52,21-13.3,34.1-6.18-2.45-1.63,1.16-.22,1-2.34-6.77,1.49-12.46,1.37-8.82-8.06,2.72-7.06,8.25-12.26,13.68-17.31,3.13-2.9,6.83-5.58,11.38-3.22,3.83,2,4.56,6.14,3.81,9.72-2.37,11.3,5.88,14.56,13.28,18.63.52,10.93-12.68,5.36-15,13.85,15.75,0,33.19,7.54,43.58-12.56-7.86-12.86-17.09,3.06-25.92.26.24-18.62,6.16-33.59,25.62-39.86,12-14.72,26.52-14.23,42.21-6.92,2.37,1.1,5.91,2.12,7.67.63,10.16-8.55,21.16-13.07,34.52-9.29,4.74-12,16.47-12.58,26.28-16.62,2.71-1.11,1.08-5.9,1.71-9a13,13,0,0,1,1.65-4.15c2.36-3.57,6.75-4.87,10.25-9.46-15.22-4.74-23.2-18.22-35-27.12-9.58-13.56-10.83-10.3-23.27-5C407.09,79.72,403.29,79.52,398.58,75.64Z"/><path id="Path_10654" data-name="Path 10654" class="cls-24" d="M347.65,164.81c-.73,1.41-1.89,2.76-2.12,4.25-1.41,9.07-15.83.5-15.61,11.61.14,7.37-1.63,14-7.2,19.28-.61.57-.38,2-.54,3.07a2.07,2.07,0,0,1-2.91.28A2.13,2.13,0,0,1,319,203c-17.21-1.35-18.35-2.7-16.35-19.64.31-2.64.77-5.61-1.78-7.14-2.76-1.65-5,.56-6.78,2.47-5.88,6.41-12.08,12.63-16.88,21.78,6.47.42,6.77-7.37,11.43-5.64,3.48,1.29,6.27,3.78,6.81,9.41-7.42.9-14,8.74-22.4,1.18-7.32,4.19-18.84,2.76-18.51,16.94-9.49-6.13-9.14-13.38-8.4-20.67.31-3.06,2.77-5.43,5.34-4.29,9.59,4.27,10.13-3.51,12.67-8.82,2-4.28,4.1-8.5,3.92-13.51s-.08-9.78-6.84-10.28a12.56,12.56,0,0,1-7.14-3.05c-4.48-3.66-4.1-7.23,1.31-9.21,2.91-1.06,6.37-.24,9-2.38,3-2.39,3.78-4.92.42-7.67-4.45-4.07-1.19-8.4-.5-12.6-2.12-4.47-5.43-.88-8.11-1.2a13.53,13.53,0,0,1-4.11-.36,14.13,14.13,0,0,1-3.64-1.88c-.94-1-1.85-2-2.72-3-3.36-7.73-6.83-14.85-17.62-13.26-3.95.59-6.73-2.85-7.6-6.82-1.83-8.45-6.63-12.68-15.54-12.23a4.46,4.46,0,0,1-4.67-3.61c-.48-3.35,2.1-4.64,4.7-5.11,13.25-2.35,11.75-15.86,17.59-23.76,2.7-3.65-5.38-5.48-6.63-9.36,3.29-3.71,7.19-1.72,10.61-2.28,11,3.51,18.47,15.64,32,13.38a3.25,3.25,0,0,1,2.74,1.33c6.89,15.17,20.47,10.09,32.15,10.74,4.82,4.54.06,11,3.17,15.88,5.48,12.63,5.41,12.55-6.58,21.47-4.25,3.16-7.94,7-10,12-2.89,6.94-7.91,14.06,3.94,18.2,2.29.8,3.37,5,5.23,8.05,5.7-4,10.49-8.18,16-10.89,3.95-1.94,11-5.23,13-.58,4.29,9.92,15.13,12.94,19.86,21.81.66.08,1.32.16,2,.22a16.28,16.28,0,0,1,6.63,4.39C347,163.62,347.35,164.22,347.65,164.81Z"/><path id="Path_10655" data-name="Path 10655" class="cls-25" d="M366.75,78.87C364.83,89.8,362,99.78,347.53,98.54c-.94-.08-1.92.91-2.94,1-8.25,1.11-3.89,13.84-12.72,14-7,.12-12.38,2.72-15.49,8.94-4.42,8.85-9.54,5-15.9,1.59,3.1-4,5-8.82,8.25-10.19C319,109.67,321,99.35,327,92.05c4-4.85,1.58-8.79,1.55-13.2,1.06,0,2.11,0,3.17,0a12.58,12.58,0,0,1,12.74,0Z"/><path id="Path_10656" data-name="Path 10656" class="cls-26" d="M296.68,88.33c-9.4-3.63-3.31-10.35-3.17-15.89l9.54,0C309.65,81.28,300.83,83.86,296.68,88.33Z"/><path id="Path_10657" data-name="Path 10657" class="cls-22" d="M344.47,78.83l-12.75,0C336,74.37,340.23,74.32,344.47,78.83Z"/><path id="Path_10658" data-name="Path 10658" class="cls-27" d="M172.57,69.28c0,5.75,4.8,5.91,8.48,7.61A34.45,34.45,0,0,1,189,81.78c1.93,1.64.56,3.9-.4,5.74-1.38,2.6-3.19,2.1-5,.52-1.6-1.36-3.07-2.88-4.78-4.08-3.46-2.42-6.89-2.23-9.91.81s-1.6,5.67.51,8.33,3.85,5.48.62,8.18c-3.54,3-5.41-.86-7.8-2.51-12.2-8.47-24.87-15.59-40.58-13.6,9.09-7,21.62-5.23,30.83-12.58,4.29-3.42,9.74-5.57,13.73-9.67C170.3,63,172.42,65.14,172.57,69.28Z"/><path id="Path_10659" data-name="Path 10659" class="cls-27" d="M166.17,62.93,163,59.72Z"/><path id="Path_10660" data-name="Path 10660" class="cls-28" d="M89.66,126.51c6.38-.45,12.14.6,15.87,6.56,2.39,2.73,6.56,3.3,8.28,6.85,2,4.59.7,9.16-.36,13.63-2.28,9.52,2.87,11.72,10.83,11.4a15.08,15.08,0,0,1,4.29,1.58,9.46,9.46,0,0,1,3.89,5.67c-.06,4.22-1.34,7.82-5.09,10.19a8.1,8.1,0,0,1-8.85-1.51l-3.3-3.32c-7.54,5.61-17,1.67-25,5.12a8.3,8.3,0,0,1-4.06-1.5c-2.83-10,3.32-16.55,9.22-23.16-3.39-3.23-7.92-2.88-11.49-4.83a30.67,30.67,0,0,1-3.72-1.85c-1.78-1-3.51-2.08-5.22-3.2a12.38,12.38,0,0,1-4.2-4.28l-.27-2C76.69,136.5,82.38,130.51,89.66,126.51Z"/><path id="Path_10661" data-name="Path 10661" class="cls-29" d="M80.29,148.83c5,1.11,10.08,2.41,15.17,3.27,3.3.55,6.12,1.18,6.74,5.1.64,4.07-1.42,4.6-5.06,5.63-8.61,2.42-6.25,12.32-10.63,17.85a8.43,8.43,0,0,1-3.74,2.61c-23.22-3.46-27.85-12.89-18.55-37.75,1.35-2.49,3.68-3.3,6.27-3.68l.14,1.51C71.93,148.6,73.41,153.5,80.29,148.83Z"/><path id="Path_10662" data-name="Path 10662" class="cls-28" d="M64.22,145.54a53.18,53.18,0,0,0-.6,7.77c.35,5.3-5.76,10.41-1.14,15.58,5.56,6.2,11.39,12.5,21,11.89,2.31,2.65,5.25,5.74,2.86,9.09-2.23,3.13-6.08,2.55-9.33.49-1,0-2.06-.05-3.09-.13q-1.59-1.54-3.12-3.14c-2.24-4.7-4.63-9.29-9.91-11.31s-6.46-6.19-6.22-11.2C59.74,159.2,55.3,149,64.22,145.54Z"/><path id="Path_10663" data-name="Path 10663" class="cls-27" d="M118.38,88.3c-5.09,4.93-12.32,8.42-7.35,18.14,3,5.93-3.4,7.8-7.43,10-3.63,2-7.09,3.16-7.67-3a13.78,13.78,0,0,1,.33-2.86c2.74-2.89.6-7.06,2.63-10.14a6.26,6.26,0,0,1,.53-2.59,28.43,28.43,0,0,0,3-3.28l0,0a9,9,0,0,0,3-3.61,14.27,14.27,0,0,1,6.1-6.34C113,87.54,115.48,88.29,118.38,88.3Z"/><path id="Path_10664" data-name="Path 10664" class="cls-23" d="M98.89,100.51c.35,3.7,1.12,7.51-2.63,10.14C96,107,95.83,103.32,98.89,100.51Z"/><path id="Path_10665" data-name="Path 10665" class="cls-27" d="M118.54,79.36,115.2,82Z"/><path id="Path_10666" data-name="Path 10666" class="cls-23" d="M105.41,91.07a4.56,4.56,0,0,1-3,3.61Z"/><path id="Path_10667" data-name="Path 10667" class="cls-23" d="M102.43,94.64l-3,3.28Z"/><path id="Path_10668" data-name="Path 10668" class="cls-30" d="M89.82,180.78c7.46-9,16.93-2.24,25.41-3.22.77,8.4-1.51,15.87-7.56,21.77-4.87,4.75-7.83,8.32-3.16,16,3.77,6.18.22,12.38-8.43,13,1.34-3.12,2.14-5.85-2.84-6.25-3.1-.25-7.78-2.11-4.72-5.17,8.23-8.2,0-13.66-1.93-20.19C96.56,193.19,84.79,185.27,89.82,180.78Z"/><path id="Path_10669" data-name="Path 10669" class="cls-31" d="M89.82,180.78c-.12,7.08,6.42,5.4,10.78,7.89-3.18,5.71-8.53,7-14,8-1.94-4-7.6-2.4-9.62-6.3,8.82,1.31,7.47-4.25,6.47-9.58,1-.05,2.06-.08,3.08-.1Z"/><path id="Path_10670" data-name="Path 10670" class="cls-31" d="M70.75,187.09l3.12,3.14Z"/><path id="Path_10671" data-name="Path 10671" class="cls-32" d="M653.33,260.21c-11.52-5-24.13-7.15-36.1-8.38-15.5-1.6-31-5.62-46.76-4.18h0c-9-12.31,2.34-16.74,9.44-20.73,4.67-2.63,10.58-3.64,15.12-7.23,14.74-6.72,32.65-7,41.78-24.72,4.32-8.38,11.92,1.55,18.56,1.47-.87-4.33-5.82-7.58-3.66-12.67,4.75-6.62,10.3-12.38,8.55-22.16-1.25-6.94,5-10.94,10.94-13.74a8,8,0,0,1,4.3.06c6.55,6.6,13,13.74,22.1,3.28.91-1.12,1.88-2.17,2.84-3.24,2.45-2.88,4.41-6.12,4.68-9.88.94-13,4.87-19.75,18.08-9.53,2,1.54,5.22,2.8,7.1.2,2.34-3.25-.43-5.87-2.57-8.11-4.65-4.89-11.38-5.14-17.16-7.53s-11.2-7.4-9.24-13.08c2.73-7.9,9.85-3,14.74-1.2a91.44,91.44,0,0,1,27.29,15.43c8.9,7.38,16,13.45,3.18,24.21,10.47,1.44,16.2-6.9,24.44-5.49-.66,7.67,1.77,14.86,5,21.38,3.18,6.37,4,12.94,4.94,19.66-.09.79-.19,1.58-.28,2.37-11.43,23.85-18.88,49.92-40.8,67.74-7.4,6-16.34,6.92-24.07,11.28-17.66,5.1-36.41,2.65-54.07,8C658.78,264.26,655.55,262.82,653.33,260.21Z"/><path id="Path_10672" data-name="Path 10672" class="cls-33" d="M672.39,148.88c-5.61,6.42-12.1,11.51-7.51,22.59,2.73,6.6-7.35,8.41-11.59,12.45a8.17,8.17,0,0,1-2.16-3.85c-.59-4.18-.65-10.12-4.77-11-13.52-2.84-16-17.2-26.07-23.36a8.36,8.36,0,0,1-3.76-9.69c5.68-19.46-10.31-29.85-18-43.7a36,36,0,0,1-3.93-2c-9.4-5.19-10.06-14.73-11.79-23.75.27-2.55,7.85.4,3.91-5.14a16,16,0,0,0-4.52-4.35c-3.86-2.3-1.8-11.2-8.37-9.1-8,2.56-1.13,9-1.79,13.55a13.35,13.35,0,0,1-3.34,7.93c1,2.16-8.74-.68-2,4.39,2.47,1.85,4.18,4.65,6.2,7.06,3.14,8.28,12.5,7.71,18,12.64a9,9,0,0,1,0,4.49,12.09,12.09,0,0,1-2.78,3.69A13,13,0,0,1,584,103.7c-7.86.19-15.36-.86-21.45-6.53-2.93-8.37-11.81-12.84-14.24-21.56-2.68-3.63-6.68-5.15-10.76-6.21-4.57-1.19-6.71-3.92-8.4-8.36-4-10.46-4.64-10.49-17.72-8.84.27,1.49.13,3.23.88,4.38,2.42,3.69,5.27,7-.69,10.24-4.73,2.6-8.75,2.77-13-1.09s-2.52-7.78,0-11.23c3.39-4.68,6.93-10.06,13.29-10.38,5.9-.29,9.44-4.4,14.09-6.66,17.64.32,34.74-2.25,50.95-9.55,7.92,3.12,14.39,9,24.23,8.54,5.09-.24,13.09,4.14,11.45,12.15-.83,4,1.54,2.27,2.31,3.32,9.45,12.91,21.6,14.78,36.16,10.66a15.43,15.43,0,0,1,13.5,3.24c14.2,12.78,31.11,13,48.51,11.66,2.45,1.15,3.94,3.24,5.47,5.38,6.58,9.22,15.8,7.18,24.07,4.25,9.82-3.48,3.81-11,2.92-17.22-.5-3.57-5.77-9.16,3.08-10L758.34,63c1.52,2.66,3.66,3.77,6.69,2.72,4.28,4.8,2.35,10.75,3,16.22s-1.55,11.42,3,16.15q0,17.43,0,34.85c-6.35,6.64-14.74,9.16-23.22,11.56-2.71.77-5.62,1.31-7.16-1.23-2-3.37.11-5.78,3-7.79a30.94,30.94,0,0,0,5.83-5.31c2.57-3,1.87-6.3-1.24-8.12-12.75-7.48-23.64-18.3-38.67-21.69-1.9-.43-3.63-2.43-6.26-.2,2.76,5.56,5.44,10.25,13.25,10.75,8.78.55,16.39,4.48,19.32,13.79.87,2.79,3,6,.23,8.92a8.49,8.49,0,0,1-10.3,1.58c-4.95-2.55-9.38-6.1-14.88-9.79-2.39,9.65,1.5,21.26-9.88,26.61C692.1,145.5,682.28,146.94,672.39,148.88Z"/><path id="Path_10673" data-name="Path 10673" class="cls-32" d="M781,174l3.3,3.51-1-.09c-2.52.6-3.76,0-2.78-2.85Z"/><path id="Path_10674" data-name="Path 10674" class="cls-34" d="M159.82,168c-4.78,4.95-1,7.27,3.06,8.94s9.56-.93,12.87,3.78c-2,3.51-5.62,5.6-7.73,9-3.64,3.24-7.62-.23-11.4.55h-3.2c-1,0-2.07-.07-3.11-.08-3.84-2.07-4.69-5.28-3.36-9.2,1.74-5.17-1.41-7.65-5.27-9.78a37.3,37.3,0,0,1-4.67-4c-12.84-13-12.66-14,4-20.09,2.56-.93,4.19-2.85,6-4.61h0c9.45-7.3,16.55-20.75,32.05-12.28,7.72,16.42,3.22,24.23-15.32,26.73C160.62,160,162.16,164.71,159.82,168Z"/><path id="Path_10675" data-name="Path 10675" class="cls-35" d="M147.07,142.51c1,12.67-9.08,8.5-15.35,9.94,0,9.08,11.3,10.45,12.16,18.71,1.48,7.77-.5,13-9.57,12.86-1-.07-2.08-.11-3.13-.12a3.74,3.74,0,0,1-3.19-3.17q1.58-4.77,3.16-9.53c-1.1-1-2.06-2.18-3.12-3.23l0,0c-11.9-1.63-18.25-6.78-13.32-19.91,1.12-3-.52-6.15-2.58-8.71-4-.19-6.34-2.11-6.57-6.25,3-1.22,10.74,2.06,7-5.58-2.76-5.57.51-7,3.54-8.25,3.2-1.33,6.08,1,7.8,3.86.77,1.29.56,3.11,1.13,4.56C130.13,141.11,131.65,142.1,147.07,142.51Z"/><path id="Path_10676" data-name="Path 10676" class="cls-36" d="M123.76,216.66c3.35-6.17,6.78-12.4,10.13-18.68,2.84-5.31,7.53-5.1,12.23-3.85s4.33,5.55,3.91,9.06-1.88,7-2.78,10.54c-1.58,6.25-5,9.11-11.4,6.1C132.13,218.08,127.44,220.54,123.76,216.66Z"/><path id="Path_10677" data-name="Path 10677" class="cls-37" d="M134.31,184c5.72-2.4,7-8.11,9.57-12.85,9-.22,11,1.44,8.3,8-1.53,3.73-4.93,6.67-1.86,11C144.67,189,136.56,194,134.31,184Z"/><path id="Path_10678" data-name="Path 10678" class="cls-36" d="M128,180.73l3.19,3.17c-.45,5.28-2.69,9.94-8.48,8.8-6.53-1.28-3.57-7.54-4.18-11.83Z"/><path id="Path_10679" data-name="Path 10679" class="cls-38" d="M780.52,174.6l2.79,2.85c.22,2.1,0,4.37.76,6.26,3.29,8.32.27,13.56-7.09,17.93-7.77,4.61-12.65,11.22-8.71,21,1.73,4.3.08,6.5-3.38,9.11-6.63,5-14.34,8.8-19.33,15.84C742,251,738.92,255.3,733,254c-5.47-.44-11.54,2.11-16-3.25,9.61-3.35,18.62-7.27,26.18-14.79,5.25-5.21,9.92-9.81,12.8-17.09C762.16,203.17,771.12,188.7,780.52,174.6Z"/><path id="Path_10680" data-name="Path 10680" class="cls-39" d="M717,250.79c5.4.78,11.53-2.09,16,3.24l0,0a22,22,0,0,0-3.23,3.1c-4.59,2.28-8,7.1-13.91,6.49-11.3-1.18-20.8,2.91-31.16,7.25-10.75,4.5-23.2-.6-34.53-4.18-1.22-1.6-3.79-3.72-3.41-4.7,1.1-2.83,4.34-1.24,6.65-1.76,1.58,0,3.31.46,4.74,0,16.76-5.5,34-7,51.51-6.65C712,253.61,714.49,251.76,717,250.79Z"/><path id="Path_10681" data-name="Path 10681" class="cls-38" d="M729.69,257.12l3.23-3.1Z"/><path id="Path_10682" data-name="Path 10682" class="cls-17" d="M182.09,225.32c-3.88.42-9.14-1-8,6.09.69,4.12,1.25,8.27,2,12.37.53,2.69,2,4.95,4.81,5.58,2.62.59,3.6-1.51,4.34-3.51,4.13-11.23,16.16-3.09,22.67-9.1,1.19-1.1,2.13,3,3.43,4.36,7.61,8.25,11.59,8.1,17.58-1.57,3.46-5.58,6.9-9.6,13.72-6.12,5.69,2.9,11.14-.18,16.51-.8,1.84,5.7-4.9,7.3-3.91,11.8-.51,3.91-3.12,6.46-5.77,9-6.31,5.78-15.38,8.25-19.67,16.46-3-.88-6-2-9.06-2.59-6-1.2-9.5-3.25-7.51-10.68,1.54-5.74-3.83-7.87-8.1-10.13-4.07-2.16-7.85-1.09-9.63,2.37-5.77,11.24-13.08,7.67-20.9,3-2.71-1.62-5.64-2.87-8.47-4.29-.9-3.45-5-5.14-4.6-9.49,1.42-13.87-3.33-27.52-1.74-41.44,3.8,3.35,6.72,7.88,13.32,5.46,9.87-3.63,10-3.29,12,7.44-2.45,3.07-6.68,2.16-9.67,4.26.69,4.14,5.35,4.46,7.07,7.52A3.56,3.56,0,0,1,182.09,225.32Z"/><path id="Path_10683" data-name="Path 10683" class="cls-12" d="M229.88,269.86c-1.28-3.54-4.76-7,1.78-9.68,6-2.45,11.55-6.21,17.29-9.39,4.88,12.78,14.65,15.14,26.81,12.8,8.42-1.62,16.73-2.17,24.85,2,6.54,3.36,11.79.24,17.48-3.58,17.09-11.47,44.65-8.9,58.23,4.75-9.77,5.79-20.55,6.16-31.54,6.51-7.56.24-15.75-2.87-22.63,3-4.72,3.88-11.18-.74-15.88,3.25a12.77,12.77,0,0,1-3.15,0c-3.69-3.09-7.45.86-11.16-.11-10.39,1.8-19.75-6.23-30.27-3.18-1.06,0-2.11,0-3.17,0-7.49-1.87-14.78-4.46-22.3-6.26Z"/><path id="Path_10684" data-name="Path 10684" class="cls-17" d="M261.69,276.22c2.69-3.5,6.53-3.84,10-2.37,7.13,3,14.5,2.27,21.85,2.44,1.66,2.33,5.27.78,6.76,3.42-6.13,4.84-13.15,2.26-19.86,2.38C274.8,278.19,267.92,278.24,261.69,276.22Z"/><path id="Path_10685" data-name="Path 10685" class="cls-17" d="M236.22,269.92c2.08-3,4.93-3.7,8-2.06,4.87,2.59,9.55,5.53,14.31,8.32C250.77,275.21,241.47,279.79,236.22,269.92Z"/><path id="Path_10686" data-name="Path 10686" class="cls-40" d="M376.32,266.75a76.72,76.72,0,0,0-45.69-6.54c-5,.78-9.11,1.77-11.67,6.53-3.77,7-9.8,7.78-16.16,4.49-9.7-5-19.31-6.73-29.76-2.44-6,2.46-12-2.89-18.48-.27-2.23.9-4.64-2.51-5-5.13-.58-4.14-.43-8.39-.59-12.6a11.28,11.28,0,0,1,6.37-6.37c10.58-4.33,22.13-5.24,32.3-11.82,7.28-4.72,16.76-.33,17.39,7.45,1.07,13.31,9.27,12.56,18.57,12.2,2.24-4.65-4.75-11.81,1.44-14.27,9.12-3.62,15.09-13.91,26.33-12.5,3.3.42,8.78.46,5.49,6.23-6.43,11.27,3.19,8.51,8.33,11.34-1.35-13.19-1.35-13.19,16.23-25.55a25.64,25.64,0,0,1,10.82,11c23,10.9,45.92,10.75,68.61-1.07,6.53-3.4,9.29-9.95,12.63-15.84,4.09-7.22,10-10.65,16.81-5.61,8.08,6,22.06-.48,26.12,12.94-6.55,0-13.2-.59-19.12,3.2-1.55,2.15-4.78,1.12-6.31,3.32,0,1,0,2-.08,3q-1.54,1.55-3.12,3.06l-3.23,0a1.93,1.93,0,0,0-2.69-.4,1.83,1.83,0,0,0-.45.47l-3.31,3.27c-2.54,2.86-6.94.21-9.43,3.2h0l-3.17,3.08c-1,.12-2.06.22-3.1.28l-1.3-.29v-1.31L460.4,241s-1.3.28-1.3.28c-12.56,4-25,8.31-36.19,15.5-7.74,5-15.81,8.6-25.09,3.84C388.72,255.89,383.44,264.52,376.32,266.75Z"/><path id="Path_10687" data-name="Path 10687" class="cls-41" d="M306.26,279.48c4.43-5.34,10.53-2.46,15.88-3.26,8.41,1.52,17.57-3.08,25.4,3.12Z"/><path id="Path_10688" data-name="Path 10688" class="cls-12" d="M370.34,276.52c-5.93,4.89-12.9,2.41-19.47,2.75C356.73,273.88,363.8,277.06,370.34,276.52Z"/><path id="Path_10689" data-name="Path 10689" class="cls-13" d="M462.36,241.42q-1.56,1.58-3.13,3.14c0-1.11-.08-2.21-.13-3.32l0,0a2.26,2.26,0,0,1,3.1-.11Z"/><path id="Path_10690" data-name="Path 10690" class="cls-9" d="M300.31,279.71c-2.65-.35-5.32-.68-6.76-3.42,3.53,0,7.3-.57,9.57,3.22A20.31,20.31,0,0,1,300.31,279.71Z"/><path id="Path_10691" data-name="Path 10691" class="cls-17" d="M156.62,190.29c3.19-5,6.43-.87,9.66-.07,2.17-1.86,4.27-1.6,6.33.21-3.46,4.44-8.4,2.63-12.82,3Z"/><path id="Path_10692" data-name="Path 10692" class="cls-8" d="M137.11,234.4a14.69,14.69,0,0,0,.44-2.72c1.28.51,1.68,1.31,1,2.22C138.26,234.23,137.59,234.24,137.11,234.4Z"/><path id="Path_10693" data-name="Path 10693" class="cls-13" d="M516.39,218.94c-3.95-4-9.05-4.94-14.33-5.37-2.05-.16-4.15,0-6.16-.32-5.51-.91-9.21-9.86-15.22-5.37-4.26,3.18-5.78,9.82-9.09,14.52-3.93,5.58-6.12,14.31-16.49,10-2.77-1.16-4.77,1.55-5.64,4.28a6.28,6.28,0,0,1-7.45,4.54c-11.82-2.27-24.3,1.53-35.66-3.55a20.71,20.71,0,0,0-10.44-1.88c-4.34.24-6.65-2.67-3.7-7.24,16.34-1.63.65-11,3.86-15.86a10.07,10.07,0,0,1,2.58-1.45c20.05-4.44,20.06-4.43,8.7-19.57,5.09-2.76,9.2-.81,12.78,2.78,6.29,6.3,12.13,7.37,18.91.23,2.75-2.9,7.12-4.76,11.09-5.9,10.22-2.92,17-6.06,21.68-11.21,7.34-10.4,17.73-7.58,27.32-5.54,6.71,1.43,12,2.38,16.42-4.39,3.64-5.54,9.07-4,14.16-1.63,15.36,7,30,15,41.53,27.91,3.24,3.64,4.65,6.71,2.73,11.18-1.69,3.9-3.69,8.05.7,11.43,5.15,4,9.8,1.81,14.3-1.65,2.37-1.83,4.84-4.44,8.22-1.53a7.28,7.28,0,0,1-1.21,8.8c-3.69,3.07-3.45,10.68-12.48,7.49-6.21-2.19-13.1,8.56-13,18l-12.69-3.25a34.09,34.09,0,0,0-3.21-3.15h0C551.22,223.75,535.85,214.77,516.39,218.94Z"/><path id="Path_10694" data-name="Path 10694" class="cls-13" d="M491,225.46c1.29-2.66,3.67-3.24,6.31-3.32,0,1,0,2.08,0,3.13Z"/><path id="Path_10695" data-name="Path 10695" class="cls-13" d="M468.64,238.06c2.26-3.69,6-3.09,9.43-3.2C475.82,238.56,472.09,237.89,468.64,238.06Z"/><path id="Path_10696" data-name="Path 10696" class="cls-13" d="M481.38,231.59c1-1.71,2.06-1.79,3.14-.07C483.48,231.59,482.43,231.62,481.38,231.59Z"/><path id="Path_10697" data-name="Path 10697" class="cls-13" d="M487.76,231.57l3.12-3.06Z"/><path id="Path_10698" data-name="Path 10698" class="cls-13" d="M465.47,241.14l3.16-3.08Z"/><path id="Path_10699" data-name="Path 10699" class="cls-12" d="M554.58,241.25l3.22,3.16Z"/><path id="Path_10700" data-name="Path 10700" class="cls-42" d="M748.61,59.86c-2.55,2-2.11,4-.8,6.75,9.63,20.07,5.2,27.69-16.28,27.58-4.57,0-9.26-1.57-13.67-3.08-6.36-2.17.11-9.09-4.09-12.28.23-.62.46-1.23.68-1.85a41.6,41.6,0,0,1,4.92-6.15c3-2.89,4.25-6.86,6.54-10.2,3.73-3.7,7.22-8.2,13.32-4.09l6.48,0Z"/><path id="Path_10701" data-name="Path 10701" class="cls-43" d="M765,65.77c-.88,2.83-1,7-5.61,5.16-4.17-1.67-2.24-5-1.08-7.89C761.09,62.65,763.56,63,765,65.77Z"/><path id="Path_10702" data-name="Path 10702" class="cls-44" d="M726.51,62.91c0,4.63,0,9.23-6.38,9.55a20.12,20.12,0,0,1-6.36,6.36h0c-3.33.08-5.78,2.16-8.63,3.49-6.26,2.93-12.65,3.85-18.09-2.36-4.34-5-8.7-6.45-11.83,1.3-1.2,3-3.59,4.09-6.29,2.82-2.2-1-2-3.45-1.12-5.55,2.49-6.16-.69-8.45-6.15-10.1-8.25-2.49-16.45-4.81-24.12.9-7.2,5.37-11.75,1.08-16-3.86-3.48-4-12.44-9.5-16.86-9.85-.9-.07-1.72-1.12-2.86-1.92-.34-6.15,8.3-1.18,8.22-6.71-12.81-10-12.81-10-22.09-.52.45-9.39-7.17-12.61-11-18.55l3.15,0c1.67-1.94,4.67-1.14,6.35-3.05,24,0,48.28-2,72,.77,16,1.88,34.73,1.9,45.86,18.2a14,14,0,0,0,6.48,3.93c3.71,1,9.3-.62,10.49,4.59,1.4,6.15-3.48,9.07-8.58,12C717.58,63.89,721.67,58.46,726.51,62.91Z"/><path id="Path_10703" data-name="Path 10703" class="cls-33" d="M726.51,62.91c-6.35-.12-9.76,5.63-15.12,7.59-3.24,1.18-6.27,2-8-1.65-1.52-3.23,1.63-4.39,3.69-5.79,4.39-3,11.18-3.33,12-11-4.67-3.66-15.52,3.6-14.9-8.33,12,3.24,25.8,1.73,35,12.76C733.71,56.1,730.91,61.1,726.51,62.91Z"/><path id="Path_10704" data-name="Path 10704" class="cls-33" d="M586.41,24.81c-1.43,2.46-3.78,3-6.36,3.06C581.45,25.35,583.78,24.78,586.41,24.81Z"/><path id="Path_10705" data-name="Path 10705" class="cls-27" d="M121.59,85.17l-3.22,3.16Z"/><path id="Path_10706" data-name="Path 10706" class="cls-1" d="M462.27,120.23c.64,2.55,1.65,5.07,1.86,7.66.56,6.88-2.25,11.3-9.7,11.37-4.15,0-8.31-.36-12.5-.56-2.61,2.25-1,4.69-.4,7.16,1.6,6.48-1.22,8.93-7.53,7.9-3.11-.51-6.32-.78-9.26-1.8-8.45-3-15-2.47-19.31,7-2.14,4.74-6.72,5.72-12.19,3.55-5.82-2.31-12.81-2.46-18.14-4.89-8.93-4.07-14.26-8.29-15.75,6.46-.7,6.86-7.54,2.06-11.69.72-3-2.47-6.52-4-9.55-6.38h0c-.17-3.58,1.85-6.44,3.17-9.53h0c3.62-.65,9.25,1.71,8.27-5.75-.46-3.53-1.06-7.16.75-10.72,5.23-2.57,5.69,2.83,8.1,4.9,1.71,1.48,3.79,2.12,5.72.86,2.59-1.68,2.72-4.31,1.42-6.87-2.72-5.36-10.47-8.84-7.71-16.13,3.11-8.24,12.65-8.34,18.93-12.69a15.88,15.88,0,0,1,2.86-1.27c1.08,1.5,2.11,2,3-.14,3.38-4.56,8.34-2.72,12.74-3.15h0c2.92,4.8,5.49,10.29,12.76,6.4,4,5.31-.83,8-3.36,11.32-3.8,7.6-14,10.83-14.11,20.88,16.23,9.07,29.85,7.76,40.71-6.27,6.36-8.2,12.55-2.75,18.84-3a11.6,11.6,0,0,1,2.19-5.09C455.43,119.94,458.51,118.28,462.27,120.23Z"/><path id="Path_10707" data-name="Path 10707" class="cls-45" d="M401.79,113.88c1.93-3.32,6.83-4.64,6.37-9.55,3.23-2.71,6.8-5.11,9.6-8.2,4-4.46,8.09-4.2,12.67-1.39a15.38,15.38,0,0,1,8.83,2c5.79,3.31,13,4.09,17.66,9.32,3.47,3.94,9.7,7.2,5.36,14.22h0l-9.56,3.18q-2.91,3.18,0,6.37c2,.33,4.35.57,4.66,3.09.22,1.88-1.5,2.5-3.09,2.83-4.26.87-6.67-1.57-9.12-4.62-4.08-5.07-9.38-4.65-10.47,1.4-2.18,12.18-11.17,12.82-19.82,13-10.45.19-22.68,4-29-9.28,6-5.16,13-1.83,19.55-2.13,3.58-.16,8,1.23,9.82-2.83,2.18-4.84-2.27-7.46-5.11-10.32C407.55,118.32,403.78,117.15,401.79,113.88Z"/><path id="Path_10708" data-name="Path 10708" class="cls-46" d="M462.27,120.23c-3.62-8.39-8.23-15.52-18.63-16.38-3.33-.27-5.43-2.91-6.86-5.88s-4.39-4.11-6.35-6.4c-3.84-7.15,2.95-7.24,6.37-9.57,6.48-.67,11.18,2.19,14.71,7.4,6.54,9.65,14.86,16.32,27.73,15.34C478.1,116,468.24,115.92,462.27,120.23Z"/><path id="Path_10709" data-name="Path 10709" class="cls-1" d="M395.41,97.94c0-2.63-.12-5.27.07-7.88.22-3-.19-7.26,4.45-6.38,4.32.81,5.45,4.72,4.16,8.7s-4.74,5.34-8.69,5.55Z"/><path id="Path_10710" data-name="Path 10710" class="cls-24" d="M341.29,148.89a15.08,15.08,0,0,1-1.38-.72c-3.22-2.15-5.59-4.77-4-9A2.76,2.76,0,0,1,338.3,138c4.68,1.86,2.32,6.12,3,9.38a8,8,0,0,1,0,1.55Z"/><path id="Path_10711" data-name="Path 10711" class="cls-47" d="M382.66,101.09c2,.31,4.28.53,4.94,2.8.52,1.79-1,2.82-2.58,3-4.31.57-5.06-2.4-5.39-5.7C380.64,101.17,381.65,101.12,382.66,101.09Z"/><path id="Path_10712" data-name="Path 10712" class="cls-23" d="M430.43,91.58c3.25,1,9-.49,6.35,6.4-2.62-.11-5-.7-6.35-3.24Z"/><path id="Path_10713" data-name="Path 10713" class="cls-23" d="M394.93,69a7,7,0,0,1,6.77-2.49C400,68.9,397.59,69.25,394.93,69Z"/><path id="Path_10714" data-name="Path 10714" class="cls-23" d="M408,66a6.49,6.49,0,0,1,6.42-2.66C412.89,65.68,410.56,66.11,408,66Z"/><path id="Path_10715" data-name="Path 10715" class="cls-48" d="M596,212.58c-5.62,5.25-8.09,15-19.91,10.16-10.34-4.26-12.83-9.73-5.65-18.78.9-1.14,1.34-2.64,2.53-5.07-6.54-2.26-12.34-4.95-14.61-12.13-1.06-3.37-5.17-4.72-8.69-6.22-6.68-2.85-13.09-6.38-19.49-9.86-9.46-5.16-9.89-5.43-13.8,4.54-2.72,6.94-6.62,5.24-11.12,3.05-11.05-5.39-22.17-5.73-33.43-.73-.43-5.52,4.57-8.33,6.37-12.73-1.25-3.09.42-6.16,2.78-6.25,11.35-.42,21.62-9.6,30.65-9.15,15.9.79,29.2-7.67,44.65-7,15.81.65,32.56-17.17,34.31-33.78.82-7.67,6.67-13.07,8.58-20.2,3.31.23,7.71,1.2,7.83,4.24.35,9.15,6.74,14.41,11.54,20.74s5.35,12.8,2.53,20.52c-3.21,8.81-1.57,10.61,6.88,10,3.12-.23,6.54-2.14,8.35,1.54,2,4.15-.88,6.89-3.95,9.3-.74.59-1.13,1.62-2,3,7.74.86,14,4.37,20.3,8.43,6.95,4.47,5.93,9,2.69,14.61-1.86,2.54-4.1,6.14-7.36,4.39-7.82-4.19-12.76-.31-17.77,4.77a17.16,17.16,0,0,1-5.24,3.41C604,201.8,604,201.8,596,212.58Z"/><path id="Path_10716" data-name="Path 10716" class="cls-49" d="M599.15,88.39c.8,2,2.77,5.15,2.21,5.7-9,8.73-5.09,20.21-6.84,30.43-15.41,5.91-22.7,28.46-44.44,21.56-4.33-1.38-8.2,1.33-12.05,3.1-7,3.19-13.41,9.25-21.73,2.18-2.67-2.25-6.79.1-8.49,2.35-5.95,7.86-13.27,9.68-22.27,6.84-4-1.26-5.8,1.3-7.36,4.26-7.8,1.35-13.74,7.5-22.05,8.06-4,.26-6-.56-7.34-3.89-1.6-4.06.94-5.93,4.21-7,7.85-2.58,14.08-6.65,17.14-14.94,1.45-3.93,5.67-4,9.46-4.57,12.4-1.9,13-2.33,8.57-13.2-1.8-4.42-1.5-7,1.71-9.52,13.71-10.88,14-24.83,9.43-40a19.11,19.11,0,0,1-.71-3.06,8.22,8.22,0,0,1,.57-2.19c4.91-.76,6.87,3.68,9.32,6.36s3.38,6.07,6.58,8.56c10.79,8.42,11.47,21.93.33,30.13-7.7,5.66-5.38,12-4.63,18.31.68,5.71,6.3,4.93,10.31,4.29,4.81-.77,10.94-3.8,8.71-8.8-4.57-10.27,1-9.56,7.63-9.1,1.61.11,3.07.19,3.77-1.35,1.7-5.48-5.57-7.92-4.11-13.26,4.69-4.13,10-1.29,15.81-1.29,1.49-4.55-2.84-8.85-1.2-13.43,1.22-3.4,1-6.2-3.71-6.61-3.8-.33-8.09-1.33-7.82-6.07.24-4.28,5.06-4.78,8.09-6.65,6.78,5.16,14.35,9.65,15.9,19.15,4,11,4,11,1.8,25.35,3.75-9.75,12.76-13.65,20.46-19h0c1.13-1,2.07-2.17,3.18-3.19,0-1.06,0-2.11,0-3.17,2.25-2-.11-8.6,6.37-6.37Z"/><path id="Path_10717" data-name="Path 10717" class="cls-50" d="M163,155.24c0-1.93-3.66-5.19,1.35-5.3,3.73-.08,7.66,6,11,1.7,4-5.17,6.64-11.64,3.58-18.67-4.83-7.81-3.65-17.12-6.35-25.46,4.91-2.87,9.71-6,14.78-8.52,2.85-1.44,6.38-1.8,8.78.89,2.76,3.1.17,5.34-1.66,8.06-10,14.88-8.86,21.4,6.9,37.41,1.55-6.26,2.75-11.94,4.45-17.47a4.28,4.28,0,0,1,4.9-3.12c2.49.51,3.1,2.55,2.74,4.79-.66,4.11-1.46,8.2-2.21,12.29-.8,4.42-3.42,8.73,2.45,12.36,7.24,4.47-5.91,9.5-.11,15,3.68,3.5,8.77,6.54,9.34,12.29.58,5.93-4,9.77-7.76,13-3.15,2.67-5.6-.87-6.86-3.86-2.19-5.19,1.6-11.85-3.92-16.27l-1.89,0a10.18,10.18,0,0,1-3.39-1.61l-1.1-1.54c-.21-2.1-1.24-5.6-2.61-5-7.45,3.35-13.5-7.6-20.79-1.7a13.25,13.25,0,0,1-8.57,3.4C162.52,164.28,162,160,163,155.24Z"/><path id="Path_10718" data-name="Path 10718" class="cls-51" d="M319,203l3.17,0c1.42-.71,3.18-1.1,4.2-2.18,9.68-10.29,18.5-7.42,27.25,1.35,1.37,1.37,3.59,1.91,5.24,2.75-.46,4.21-3.24,4.4-5.85,4.37-7.3-.08-12.28,3.4-14.55,10.08-2.1,6.16-6.85,7.63-11.06,4.65-7.39-5.22-14.25-5.41-22.33-2.42-3,1.11-8,2.19-9.73-2.29-1.65-4.26,3.25-6,5.18-9C305,203.56,314.31,209.11,319,203Z"/><path id="Path_10719" data-name="Path 10719" class="cls-35" d="M172.57,107.5c8.31,7,7.26,16.22,6.35,25.47-6.27-4.36-11.52-2.78-17.1,1.9-4.21,3.52-7.84,9-14.76,7.64-.8-2.84-4.09-6-.65-8.53,5.75-4.22,9.34-9,11.24-16.28C159.28,111.44,169.14,113.4,172.57,107.5Z"/><path id="Path_10720" data-name="Path 10720" class="cls-52" d="M483.84,74c-10.28-3.43-19.75-8.67-29.44.51-2.24-6.45-3.19-11.41,2.4-14.88A24.57,24.57,0,0,1,479.6,58C486.4,60.81,484.44,67.37,483.84,74Z"/><path id="Path_10721" data-name="Path 10721" class="cls-51" d="M271.24,129.79c-3.34,3.63-7.63,6.79-6.36,12.73-4.46,1.08-7.23,8.89-13.26,3.62-10-8.73-11.2-13.8-5.83-22.71H249a41.34,41.34,0,0,0,3.2,3.15h0C258.09,130.23,265.73,123.68,271.24,129.79Z"/><path id="Path_10722" data-name="Path 10722" class="cls-53" d="M204.39,174.37c-.53,15-1.34,16.26-10.39,15.85-3.08-.13-6.58.05-7.79-3.61-1.32-4-1.9-8.24,1.86-11.45a16.1,16.1,0,0,1,9.94-4h0c1.66,2,4.64,1.33,6.37,3.17Z"/><path id="Path_10723" data-name="Path 10723" class="cls-54" d="M182.11,222.15a38.62,38.62,0,0,1-5.89-1.53c-4.35-1.89-9.24-4.71-7.73-9.88,1.76-6.07,7-.68,10.58-1.33,2-.36,4.08.05,6.13.12q.06,4.71.14,9.42C186,221.74,185.15,223.06,182.11,222.15Z"/><path id="Path_10724" data-name="Path 10724" class="cls-55" d="M182.11,222.15l3.22-3.2a11.72,11.72,0,0,0,2.35-2c4.12-6.12,8.56-3.1,11.41.54,3.15,4-1.46,6.44-4,8.72-4.48,4-8.77,1.09-13-.86C182.11,224.26,182.12,223.21,182.11,222.15Z"/><path id="Path_10725" data-name="Path 10725" class="cls-56" d="M163,155.24c4.61,3.36,2.85,8.25,3,12.67l-6.22.09C157.82,163,152.83,157.2,163,155.24Z"/><path id="Path_10726" data-name="Path 10726" class="cls-57" d="M172.61,190.43l-6.34-.2c-.9-7.22,2.57-10.08,9.48-9.51h0c1.65,1.84,5.28,2.69,3.2,6.4Z"/><path id="Path_10727" data-name="Path 10727" class="cls-34" d="M179,187.12l-3.2-6.4C179.81,181.35,183.71,182.07,179,187.12Z"/><path id="Path_10728" data-name="Path 10728" class="cls-23" d="M271.24,129.79c-6.37-1-13.51,2.57-19.07-3.21,1.53-.31,3.53-.1,4.51-1C264,118.84,268.39,121.45,271.24,129.79Z"/><path id="Path_10729" data-name="Path 10729" class="cls-23" d="M253.22,118.84c-2.24-1.5-7.12-1.52-5.82-6.75a3.93,3.93,0,0,1,4.56-3.18h0c4.15,1,5.31,4.55,5.24,8.28C257.22,118.66,255.49,119.48,253.22,118.84Z"/><path id="Path_10730" data-name="Path 10730" class="cls-23" d="M338.11,158.43a9.69,9.69,0,0,1,9.54,6.38A9.62,9.62,0,0,1,338.11,158.43Z"/><path id="Path_10731" data-name="Path 10731" class="cls-23" d="M252.15,126.57l-3.2-3.15Z"/><path id="Path_10732" data-name="Path 10732" class="cls-58" d="M112.09,139.32c4.3,2,7.78,5.92,5.93,10-5.12,11.28,2.25,14.81,10,18.62l-17.06,1.5C105,159.17,112.1,149.36,112.09,139.32Z"/><path id="Path_10733" data-name="Path 10733" class="cls-59" d="M80.29,148.83c-.68,5-2.37,10.4-8.47,7.76-6.59-2.85-4.18-8.46-1.2-13.22,2.15.76,4.3,1.53,6.46,2.28a18.82,18.82,0,0,0,3.18,3.19Z"/><path id="Path_10734" data-name="Path 10734" class="cls-29" d="M80.27,148.84l-3.19-3.18Z"/><path id="Path_10735" data-name="Path 10735" class="cls-58" d="M128,168l3.12,3.23Z"/><path id="Path_10736" data-name="Path 10736" class="cls-60" d="M596,212.58c2.53-9,3.55-18.53,7.95-26.7,2.66-1.07,4.91-.36,5.9,1.48,3.54,6.61,8.14,5.36,13,2.09a25.93,25.93,0,0,0,6-5.11c5.13-6.44,9.72-13.4,17.21-2,1.35,2.05,4.8-.81,7.23-1.59v3.19c-.29,7.68,6.32,8.75,11.3,11.37-8,8.53-8,8.53-23.64-1-6.56,12.22-14.1,23.12-30.35,23.36-4.75.08-8.87,5.56-14.61,4.46Z"/><path id="Path_10737" data-name="Path 10737" class="cls-61" d="M672.39,148.88c.53-1.46.88-4.07,1.61-4.18a133.72,133.72,0,0,1,18.29-1.89c5.75-.08,8.4,3.74,8.75,9.26-9.27,5.16-18.09,6.8-25.48-3.16C674.51,148.89,673.45,148.88,672.39,148.88Z"/><path id="Path_10738" data-name="Path 10738" class="cls-33" d="M675.56,148.91c8,4.87,16.91,2.71,25.48,3.16-3.31,5.36-6.78,10.92-14.35,8.51C681.11,158.8,674,157.76,675.56,148.91Z"/><path id="Path_10739" data-name="Path 10739" class="cls-62" d="M570.52,62.88l-8.7-16c2.67-3.2,5.4-.47,7.53-1.05,8.34-2.29,8.3-2.52,13.46,6.36,3.46,6,11.38,7.61,14.14,15.09-4.92,4.28-9.28.65-13.71-1.14l-1.94.2a18.58,18.58,0,0,1-7.76-1A7.06,7.06,0,0,1,570.52,62.88Z"/><path id="Path_10740" data-name="Path 10740" class="cls-63" d="M586.42,101.11c-1.93,3.68-3.22,7.89-7.34,9.88-5,2.39-8.82,5.3-9.05,11.59-.12,3.31-2.46,5.79-5.9,6.51-2.92.61-6.58-1.2-4.82-3.63,7-9.63,3.2-20.52,4.86-30.7A47.73,47.73,0,0,0,586.42,101.11Z"/><path id="Path_10741" data-name="Path 10741" class="cls-63" d="M570.52,62.88c1.06,0,2.11,0,3.17,0,2.53,3,7,.34,9.54,3.19h0C587,73.78,588.55,82.77,596,88.38l-6.37,6.37c-9.82,1-16.42-2.93-19.12-12.7,4.39-5.65,0-9.11-3.22-12.87C567.38,66.58,568,64.24,570.52,62.88Z"/><path id="Path_10742" data-name="Path 10742" class="cls-64" d="M567.28,69.18c4.43.69,9.7,1.08,10.29,6.55.41,3.83-3,6.16-7.08,6.32-3.63-1.56-5.68-4.46-7-8.06S564.39,69.51,567.28,69.18Z"/><path id="Path_10743" data-name="Path 10743" class="cls-65" d="M680,123.68c.51-2.78,2.5-3.27,4.66-2.92,2.67.44,5.18,1.62,4.67,4.89-.35,2.28-2.33,3.46-4.63,3.11A5.07,5.07,0,0,1,680,123.68Z"/><path id="Path_10744" data-name="Path 10744" class="cls-63" d="M589.6,97.92l-3.18,3.2Z"/><path id="Path_10745" data-name="Path 10745" class="cls-10" d="M462.17,241.15c-1,0-2.07.09-3.1.11C460,239.53,461.07,239.3,462.17,241.15Z"/><path id="Path_10746" data-name="Path 10746" class="cls-33" d="M713.77,78.82a11.07,11.07,0,0,1,6.36-6.36Q720,78.64,713.77,78.82Z"/><path id="Path_10747" data-name="Path 10747" class="cls-66" d="M401.79,113.88c11.3-1.52,15,8,20.18,14.66,3.18,4.11-4.47,11.68-11.64,10.39-8.15-1.47-16.35-1.68-24.49-2.75-3-2.9-.1-4.5,1.47-6.26C392.09,124.53,397,119.22,401.79,113.88Z"/><path id="Path_10748" data-name="Path 10748" class="cls-46" d="M452.71,129.78q-4.83-3.18,0-6.36Z"/><path id="Path_10749" data-name="Path 10749" class="cls-23" d="M204.39,174.37c-2.62-.07-5-.64-6.37-3.18C200.64,171.25,203,171.82,204.39,174.37Z"/><path id="Path_10750" data-name="Path 10750" class="cls-33" d="M583.24,66.1c-3.5-.11-7.24.5-9.55-3.19C577.19,63,580.94,62.38,583.24,66.1Z"/></g><g id="Group_173" data-name="Group 173"><g id="_05" data-name=" 05" class="cls-67"><g class="cls-67"><path d="M335.16,174.76a41.59,41.59,0,0,1-14.28-18.34,68.57,68.57,0,0,1-5-26.88q0-15,5.25-26.32a41.4,41.4,0,0,1,14.63-17.57,37.84,37.84,0,0,1,21.42-6.23,38.34,38.34,0,0,1,21.7,6.23,40.49,40.49,0,0,1,14.49,17.57q5.12,11.34,5.11,26.32t-4.9,26.88a41,41,0,0,1-14.28,18.34q-9.37,6.59-22.12,6.58T335.16,174.76Zm42.14-15.82q7.06-10.35,7.07-29.4,0-18.75-7.21-28.42t-20-9.66a23.59,23.59,0,0,0-19.67,9.8q-7.49,9.81-7.49,28.28,0,19.05,7.07,29.4t20.09,10.36Q370.23,169.3,377.3,158.94Z"/><path d="M460.11,121.56a27.87,27.87,0,0,1,11.34,11.2A33.21,33.21,0,0,1,475.37,149a31.56,31.56,0,0,1-4.55,17.08,30.68,30.68,0,0,1-12.46,11.27,39.06,39.06,0,0,1-17.85,4,55.93,55.93,0,0,1-14.77-2,43,43,0,0,1-12.53-5.46l3.22-12.32a63,63,0,0,0,11.48,5.11,38.72,38.72,0,0,0,11.9,1.75q9.38,0,15.19-5.32T460.81,149q0-9.8-6.16-15.19t-16.52-5.39a80.07,80.07,0,0,0-19.74,2.8l6-49.84h46.2L470.05,94H435.33l-2.94,24.22a78.68,78.68,0,0,1,10.08-.7A36.2,36.2,0,0,1,460.11,121.56Z"/></g></g><g id="Grundlæggende_content" data-name="Grundlæggende content" class="cls-67"><g class="cls-67"><path d="M239.59,221.68a11.22,11.22,0,0,1-4.29-.81,10.23,10.23,0,0,1-5.7-5.7,11.77,11.77,0,0,1,0-8.58,10.31,10.31,0,0,1,5.7-5.7,11.22,11.22,0,0,1,4.29-.81,12.55,12.55,0,0,1,3.08.38,8.89,8.89,0,0,1,2.65,1.12,1.05,1.05,0,0,1,.32.35.82.82,0,0,1,.1.4.9.9,0,0,1-.27.68.82.82,0,0,1-.57.25.86.86,0,0,1-.28,0,1.56,1.56,0,0,1-.26-.11,9.93,9.93,0,0,0-2.22-.9,9.58,9.58,0,0,0-2.55-.33,9,9,0,0,0-4.59,1.17,8.37,8.37,0,0,0-3.15,3.21,9.93,9.93,0,0,0,0,9.24,8.37,8.37,0,0,0,3.15,3.21,9,9,0,0,0,4.59,1.17,9.88,9.88,0,0,0,2.72-.39,8.33,8.33,0,0,0,2.35-1.05l-.15.63v-6.9l.45.42h-5.19a.9.9,0,0,1-.66-.27.86.86,0,0,1-.27-.63.84.84,0,0,1,.27-.66,1,1,0,0,1,.66-.24h5.73a.89.89,0,0,1,.65.26.86.86,0,0,1,.25.64v7.23a.89.89,0,0,1-.12.45,1.13,1.13,0,0,1-.33.36,11.37,11.37,0,0,1-2.95,1.43A11.1,11.1,0,0,1,239.59,221.68Z"/><path d="M251.47,221.38a.84.84,0,0,1-.66-.27.92.92,0,0,1-.24-.63V207a.89.89,0,0,1,.26-.63.89.89,0,0,1,1.28,0,.89.89,0,0,1,.26.63v4.5l-.45.09a7.07,7.07,0,0,1,1.71-4,5.89,5.89,0,0,1,1.79-1.41,4.9,4.9,0,0,1,2.32-.54,2.58,2.58,0,0,1,1.05.23.75.75,0,0,1,.51.73.93.93,0,0,1-.24.69.78.78,0,0,1-.57.24,1.32,1.32,0,0,1-.58-.15,2,2,0,0,0-.83-.15,3.29,3.29,0,0,0-1.68.5,5.77,5.77,0,0,0-1.53,1.33,7.2,7.2,0,0,0-1.1,1.88,5.86,5.86,0,0,0-.4,2.08v7.41a.92.92,0,0,1-.9.9Z"/><path d="M273.58,206.14a.84.84,0,0,1,.64.27.89.89,0,0,1,.26.63v8.46A5.88,5.88,0,0,1,272.8,220a6.39,6.39,0,0,1-4.53,1.56,6.31,6.31,0,0,1-4.49-1.56,5.94,5.94,0,0,1-1.66-4.53V207a.88.88,0,0,1,.25-.63.86.86,0,0,1,.65-.27.88.88,0,0,1,.65.27.93.93,0,0,1,.25.63v8.46a4,4,0,0,0,4.35,4.41,4.48,4.48,0,0,0,3.24-1.12,4.36,4.36,0,0,0,1.17-3.29V207a.92.92,0,0,1,.24-.63A.84.84,0,0,1,273.58,206.14Z"/><path d="M286.42,205.69a5.64,5.64,0,0,1,3.17.8,4.5,4.5,0,0,1,1.7,2.16,8.31,8.31,0,0,1,.53,3v8.82a.92.92,0,0,1-.9.9.84.84,0,0,1-.66-.27.92.92,0,0,1-.24-.63v-8.73a5.93,5.93,0,0,0-.39-2.19,3.38,3.38,0,0,0-1.28-1.59,4.05,4.05,0,0,0-2.32-.6,5.45,5.45,0,0,0-4.32,2.19,3.64,3.64,0,0,0-.72,2.19v8.73a.92.92,0,0,1-.9.9.84.84,0,0,1-.66-.27.92.92,0,0,1-.24-.63V207a.88.88,0,0,1,.25-.63.86.86,0,0,1,.65-.27.84.84,0,0,1,.64.27.89.89,0,0,1,.26.63v2.52l-.69,1.08a3.78,3.78,0,0,1,.62-1.84,6.25,6.25,0,0,1,1.42-1.59,7,7,0,0,1,1.93-1.11A6,6,0,0,1,286.42,205.69Z"/><path d="M309,199.18a.89.89,0,0,1,.9.9v20.4a.92.92,0,0,1-.9.9.84.84,0,0,1-.66-.27.92.92,0,0,1-.24-.63v-3.57l.51-.42a4,4,0,0,1-.45,1.76,6,6,0,0,1-1.28,1.69,6.66,6.66,0,0,1-1.92,1.26,5.85,5.85,0,0,1-2.38.48,6.42,6.42,0,0,1-3.59-1.05,7.37,7.37,0,0,1-2.53-2.85,9.5,9.5,0,0,1,0-8.2,7.28,7.28,0,0,1,2.52-2.85,6.41,6.41,0,0,1,3.57-1,6.25,6.25,0,0,1,2.37.45,6.5,6.5,0,0,1,2,1.23,6,6,0,0,1,1.35,1.79,4.65,4.65,0,0,1,.5,2.08l-.63-.45V200.08a.92.92,0,0,1,.24-.63A.84.84,0,0,1,309,199.18ZM302.74,220a4.94,4.94,0,0,0,2.82-.82,5.66,5.66,0,0,0,1.93-2.25,7.27,7.27,0,0,0,.71-3.26,7.16,7.16,0,0,0-.71-3.22,5.66,5.66,0,0,0-1.93-2.25,5.19,5.19,0,0,0-5.63,0,5.63,5.63,0,0,0-1.95,2.25,7.15,7.15,0,0,0-.7,3.22,7.27,7.27,0,0,0,.7,3.24,5.62,5.62,0,0,0,1.95,2.27A5,5,0,0,0,302.74,220Z"/><path d="M316.57,220.48a.91.91,0,0,1-1.55.63.88.88,0,0,1-.25-.63v-20.4a.92.92,0,0,1,.9-.9.84.84,0,0,1,.64.27.89.89,0,0,1,.26.63Z"/><path d="M325.3,221.68a5.39,5.39,0,0,1-2.24-.49,4.57,4.57,0,0,1-1.83-1.5,4.2,4.2,0,0,1-.73-2.54,4.31,4.31,0,0,1,1.93-3.69,10,10,0,0,1,5.78-1.38h14.88l-.36.36v-.6a4.38,4.38,0,0,0-.9-2.4,5.08,5.08,0,0,0-1.89-1.5,5.47,5.47,0,0,0-2.31-.51,5.19,5.19,0,0,0-1.85.36,4.86,4.86,0,0,0-1.71,1.13,5.78,5.78,0,0,0-1.24,2,7.42,7.42,0,0,0-.48,2.8,7.08,7.08,0,0,0,.72,3.21,5.52,5.52,0,0,0,2.08,2.28,6.11,6.11,0,0,0,3.26.84,5.59,5.59,0,0,0,1.89-.3,5.16,5.16,0,0,0,1.47-.79,6.09,6.09,0,0,0,1.05-1,1,1,0,0,1,.66-.27.69.69,0,0,1,.52.24.78.78,0,0,1,.23.54.82.82,0,0,1-.3.63,8.1,8.1,0,0,1-2.34,1.88,6.41,6.41,0,0,1-3.15.79,8.22,8.22,0,0,1-4.08-1,7,7,0,0,1-2.76-2.76,8.34,8.34,0,0,1-1-4.14,8.8,8.8,0,0,1,1-4.35,7.35,7.35,0,0,1,2.61-2.77,6.47,6.47,0,0,1,3.41-1,7.25,7.25,0,0,1,2.56.47,6.58,6.58,0,0,1,2.22,1.38,6.78,6.78,0,0,1,1.56,2.23,8.2,8.2,0,0,1,.65,3.06.94.94,0,0,1-.3.62.88.88,0,0,1-.63.25H328.18a10.8,10.8,0,0,0-3.26.42,4.23,4.23,0,0,0-2,1.19,2.6,2.6,0,0,0-.66,1.75,2.73,2.73,0,0,0,.48,1.65,2.92,2.92,0,0,0,1.2,1,3.56,3.56,0,0,0,1.44.31,5.38,5.38,0,0,0,2.47-.58,8.22,8.22,0,0,0,2-1.41,5.62,5.62,0,0,0,1.19-1.52l.9,1.32a10.51,10.51,0,0,1-1.43,1.68,8.52,8.52,0,0,1-2.22,1.55A6.77,6.77,0,0,1,325.3,221.68Zm1.8-16a8.83,8.83,0,0,1,1.95.21,5.44,5.44,0,0,1,1.68.68,3.35,3.35,0,0,1,1.18,1.24,3.89,3.89,0,0,1,.44,1.92v4l-1.68.09v-3.36a2.89,2.89,0,0,0-.56-1.93,2.83,2.83,0,0,0-1.38-.89,5.8,5.8,0,0,0-1.63-.24,5,5,0,0,0-2,.39,7.33,7.33,0,0,0-1.68,1,5.58,5.58,0,0,0-1.2,1.24.91.91,0,0,1-.72.36.76.76,0,0,1-.54-.22.74.74,0,0,1-.24-.56.93.93,0,0,1,0-.27.92.92,0,0,1,.17-.3,9.58,9.58,0,0,1,1.56-1.56,8.75,8.75,0,0,1,2.1-1.24A6.25,6.25,0,0,1,327.1,205.69Z"/><path d="M354.58,205.69a6.45,6.45,0,0,1,2.46.47,7.18,7.18,0,0,1,2,1.2,6.19,6.19,0,0,1,1.34,1.56,3.13,3.13,0,0,1,.48,1.57l-.48-.72V207a.92.92,0,0,1,.25-.66.86.86,0,0,1,.65-.27.84.84,0,0,1,.64.27.93.93,0,0,1,.26.66v13a7.74,7.74,0,0,1-1,4.05,6.5,6.5,0,0,1-2.69,2.51,8.42,8.42,0,0,1-3.85.85,9.73,9.73,0,0,1-2.21-.27,8.78,8.78,0,0,1-2-.69c-.55-.28-.86-.57-.94-.87a.78.78,0,0,1-.2-.52.59.59,0,0,1,.26-.44.54.54,0,0,1,.61,0c.23.11.57.25,1,.43l.79.27a9.06,9.06,0,0,0,1.23.32,7.77,7.77,0,0,0,1.46.13,5.25,5.25,0,0,0,5.7-5.61v-2.88l.33.09a5,5,0,0,1-.9,1.89,6.16,6.16,0,0,1-1.47,1.37,6.75,6.75,0,0,1-3.72,1.12,6.87,6.87,0,0,1-3.74-1.05,7.43,7.43,0,0,1-2.62-2.85,9.24,9.24,0,0,1,0-8.2,7.34,7.34,0,0,1,2.61-2.85A6.86,6.86,0,0,1,354.58,205.69Zm.18,1.68a5.38,5.38,0,0,0-2.93.83,5.69,5.69,0,0,0-2,2.25,6.91,6.91,0,0,0-.73,3.22,7,7,0,0,0,.73,3.24,5.68,5.68,0,0,0,2,2.27,5.69,5.69,0,0,0,5.87,0,5.71,5.71,0,0,0,2-2.23,7.57,7.57,0,0,0,0-6.57,5.62,5.62,0,0,0-2-2.22A5.49,5.49,0,0,0,354.76,207.37Z"/><path d="M373.18,205.69a6.45,6.45,0,0,1,2.46.47,7.18,7.18,0,0,1,2,1.2,6.19,6.19,0,0,1,1.34,1.56,3.13,3.13,0,0,1,.48,1.57l-.48-.72V207a.92.92,0,0,1,.25-.66.86.86,0,0,1,.65-.27.84.84,0,0,1,.64.27.93.93,0,0,1,.26.66v13a7.74,7.74,0,0,1-1,4.05,6.5,6.5,0,0,1-2.69,2.51,8.42,8.42,0,0,1-3.85.85,9.73,9.73,0,0,1-2.21-.27,8.78,8.78,0,0,1-2-.69c-.55-.28-.86-.57-.94-.87a.78.78,0,0,1-.2-.52.59.59,0,0,1,.26-.44.54.54,0,0,1,.61,0c.23.11.57.25,1,.43l.79.27a9.06,9.06,0,0,0,1.23.32,7.77,7.77,0,0,0,1.46.13,5.25,5.25,0,0,0,5.7-5.61v-2.88l.33.09a5,5,0,0,1-.9,1.89,6.16,6.16,0,0,1-1.47,1.37,6.75,6.75,0,0,1-3.72,1.12,6.87,6.87,0,0,1-3.74-1.05,7.43,7.43,0,0,1-2.62-2.85,9.24,9.24,0,0,1,0-8.2,7.34,7.34,0,0,1,2.61-2.85A6.86,6.86,0,0,1,373.18,205.69Zm.18,1.68a5.38,5.38,0,0,0-2.93.83,5.69,5.69,0,0,0-2,2.25,6.91,6.91,0,0,0-.73,3.22,7,7,0,0,0,.73,3.24,5.68,5.68,0,0,0,2,2.27,5.69,5.69,0,0,0,5.87,0,5.71,5.71,0,0,0,2-2.23,7.57,7.57,0,0,0,0-6.57,5.62,5.62,0,0,0-2-2.22A5.49,5.49,0,0,0,373.36,207.37Z"/><path d="M391.72,221.68a8.22,8.22,0,0,1-4.08-1,7,7,0,0,1-2.76-2.76,8.34,8.34,0,0,1-1-4.14,8.8,8.8,0,0,1,1-4.35,7.35,7.35,0,0,1,2.61-2.77,6.47,6.47,0,0,1,3.41-1,7.25,7.25,0,0,1,2.56.47,6.44,6.44,0,0,1,2.21,1.38,7.09,7.09,0,0,1,1.56,2.23,7.65,7.65,0,0,1,.63,3.06.83.83,0,0,1-.27.62.88.88,0,0,1-.63.25h-12l-.36-1.62H396.4l-.39.36v-.6a4.57,4.57,0,0,0-.93-2.4,5.13,5.13,0,0,0-1.88-1.5,5.35,5.35,0,0,0-2.29-.51,5.19,5.19,0,0,0-1.85.36,4.86,4.86,0,0,0-1.71,1.13,5.78,5.78,0,0,0-1.24,2,7.42,7.42,0,0,0-.48,2.8,7.08,7.08,0,0,0,.72,3.21,5.56,5.56,0,0,0,2.07,2.28,6.07,6.07,0,0,0,3.27.84,5.5,5.5,0,0,0,1.86-.3,5.36,5.36,0,0,0,1.48-.79,5.9,5.9,0,0,0,1.07-1,1,1,0,0,1,.63-.27.72.72,0,0,1,.55.24.78.78,0,0,1,.23.54.82.82,0,0,1-.3.63,8.1,8.1,0,0,1-2.34,1.88A6.41,6.41,0,0,1,391.72,221.68Z"/><path d="M408.82,205.69a5.58,5.58,0,0,1,3.16.8,4.46,4.46,0,0,1,1.71,2.16,8.31,8.31,0,0,1,.53,3v8.82a.92.92,0,0,1-.9.9.84.84,0,0,1-.66-.27.92.92,0,0,1-.24-.63v-8.73a5.93,5.93,0,0,0-.39-2.19,3.38,3.38,0,0,0-1.28-1.59,4.05,4.05,0,0,0-2.32-.6,5.41,5.41,0,0,0-4.32,2.19,3.64,3.64,0,0,0-.72,2.19v8.73a.92.92,0,0,1-.9.9.84.84,0,0,1-.66-.27.92.92,0,0,1-.24-.63V207a.88.88,0,0,1,.25-.63.86.86,0,0,1,.65-.27.84.84,0,0,1,.64.27.89.89,0,0,1,.26.63v2.52l-.69,1.08a3.87,3.87,0,0,1,.61-1.84,6.49,6.49,0,0,1,1.43-1.59,7,7,0,0,1,1.93-1.11A6,6,0,0,1,408.82,205.69Z"/><path d="M431.38,199.18a.89.89,0,0,1,.9.9v20.4a.92.92,0,0,1-.9.9.84.84,0,0,1-.66-.27.92.92,0,0,1-.24-.63v-3.57l.51-.42a4,4,0,0,1-.45,1.76,6,6,0,0,1-1.28,1.69,6.66,6.66,0,0,1-1.92,1.26,5.85,5.85,0,0,1-2.38.48,6.42,6.42,0,0,1-3.59-1.05,7.37,7.37,0,0,1-2.53-2.85,9.5,9.5,0,0,1,0-8.2,7.28,7.28,0,0,1,2.52-2.85,6.41,6.41,0,0,1,3.57-1,6.25,6.25,0,0,1,2.37.45,6.5,6.5,0,0,1,2,1.23,6,6,0,0,1,1.35,1.79,4.65,4.65,0,0,1,.5,2.08l-.63-.45V200.08a.92.92,0,0,1,.24-.63A.84.84,0,0,1,431.38,199.18ZM425.14,220a4.94,4.94,0,0,0,2.82-.82,5.66,5.66,0,0,0,1.93-2.25,7.27,7.27,0,0,0,.71-3.26,7.16,7.16,0,0,0-.71-3.22A5.66,5.66,0,0,0,428,208.2a5.19,5.19,0,0,0-5.63,0,5.63,5.63,0,0,0-1.95,2.25,7.15,7.15,0,0,0-.7,3.22,7.27,7.27,0,0,0,.7,3.24,5.62,5.62,0,0,0,1.95,2.27A5,5,0,0,0,425.14,220Z"/><path d="M443.8,221.68a8.22,8.22,0,0,1-4.08-1,7,7,0,0,1-2.76-2.76,8.34,8.34,0,0,1-1-4.14,8.8,8.8,0,0,1,1-4.35,7.35,7.35,0,0,1,2.61-2.77,6.47,6.47,0,0,1,3.41-1,7.25,7.25,0,0,1,2.56.47,6.44,6.44,0,0,1,2.21,1.38,7.09,7.09,0,0,1,1.56,2.23,7.65,7.65,0,0,1,.63,3.06.83.83,0,0,1-.27.62.88.88,0,0,1-.63.25H437l-.36-1.62h11.82l-.39.36v-.6a4.57,4.57,0,0,0-.93-2.4,5.13,5.13,0,0,0-1.88-1.5,5.35,5.35,0,0,0-2.29-.51,5.19,5.19,0,0,0-1.85.36,4.86,4.86,0,0,0-1.71,1.13,5.78,5.78,0,0,0-1.24,2,7.42,7.42,0,0,0-.48,2.8,7.08,7.08,0,0,0,.72,3.21,5.56,5.56,0,0,0,2.07,2.28,6.07,6.07,0,0,0,3.27.84,5.5,5.5,0,0,0,1.86-.3,5.36,5.36,0,0,0,1.48-.79,5.9,5.9,0,0,0,1.07-1,1,1,0,0,1,.63-.27.72.72,0,0,1,.55.24.78.78,0,0,1,.23.54.82.82,0,0,1-.3.63,8.1,8.1,0,0,1-2.34,1.88A6.41,6.41,0,0,1,443.8,221.68Z"/><path d="M468.49,205.69a10.38,10.38,0,0,1,2.64.32,5.67,5.67,0,0,1,1.93.85,1.5,1.5,0,0,1,.74,1.17,1,1,0,0,1-.23.59.67.67,0,0,1-.55.28,1,1,0,0,1-.62-.18,3.39,3.39,0,0,1-.43-.42,2,2,0,0,0-.63-.45,5.43,5.43,0,0,0-1.13-.33,8.15,8.15,0,0,0-1.63-.15,5.62,5.62,0,0,0-3,.84,6,6,0,0,0-2.13,2.27,6.52,6.52,0,0,0-.78,3.19,7,7,0,0,0,.73,3.24,5.61,5.61,0,0,0,2.07,2.27,5.74,5.74,0,0,0,3.08.82,6.54,6.54,0,0,0,1.87-.21,5.25,5.25,0,0,0,1.13-.48,2.87,2.87,0,0,0,.85-.64.84.84,0,0,1,.68-.32.75.75,0,0,1,.57.23.81.81,0,0,1,.21.58,1.57,1.57,0,0,1-.71,1.07,6.3,6.3,0,0,1-1.93,1,8.54,8.54,0,0,1-2.85.43,7.3,7.3,0,0,1-3.92-1.05,7.21,7.21,0,0,1-2.64-2.86,8.75,8.75,0,0,1-.94-4.1,8.34,8.34,0,0,1,1-4,7.65,7.65,0,0,1,2.67-2.89A7.29,7.29,0,0,1,468.49,205.69Z"/><path d="M491.44,213.7a8.33,8.33,0,0,1-1,4.1,7.51,7.51,0,0,1-2.71,2.85,7.77,7.77,0,0,1-7.73,0,7.48,7.48,0,0,1-2.73-2.85,8.93,8.93,0,0,1,0-8.21,7.63,7.63,0,0,1,2.73-2.85,7.64,7.64,0,0,1,7.73,0,7.65,7.65,0,0,1,2.71,2.85A8.29,8.29,0,0,1,491.44,213.7Zm-1.8,0a6.86,6.86,0,0,0-.75-3.25,5.81,5.81,0,0,0-2.06-2.25,5.73,5.73,0,0,0-5.94,0,5.92,5.92,0,0,0-2.07,2.25,6.75,6.75,0,0,0-.76,3.25,6.68,6.68,0,0,0,.76,3.24,6,6,0,0,0,2.07,2.24,5.79,5.79,0,0,0,5.94,0,5.86,5.86,0,0,0,2.06-2.24A6.79,6.79,0,0,0,489.64,213.7Z"/><path d="M502.36,205.69a5.58,5.58,0,0,1,3.16.8,4.46,4.46,0,0,1,1.71,2.16,8.31,8.31,0,0,1,.53,3v8.82a.92.92,0,0,1-.9.9.84.84,0,0,1-.66-.27.92.92,0,0,1-.24-.63v-8.73a5.93,5.93,0,0,0-.39-2.19,3.38,3.38,0,0,0-1.28-1.59,4.05,4.05,0,0,0-2.32-.6,5.41,5.41,0,0,0-4.32,2.19,3.64,3.64,0,0,0-.72,2.19v8.73a.92.92,0,0,1-.9.9.84.84,0,0,1-.66-.27.92.92,0,0,1-.24-.63V207a.88.88,0,0,1,.25-.63.86.86,0,0,1,.65-.27.84.84,0,0,1,.64.27.89.89,0,0,1,.26.63v2.52l-.69,1.08a3.87,3.87,0,0,1,.61-1.84,6.49,6.49,0,0,1,1.43-1.59,7,7,0,0,1,1.93-1.11A6,6,0,0,1,502.36,205.69Z"/><path d="M511.48,206.11h7a.79.79,0,0,1,.6.26.85.85,0,0,1,.24.61.78.78,0,0,1-.24.57.81.81,0,0,1-.6.24h-7a.84.84,0,0,1-.62-.25.81.81,0,0,1-.25-.59.79.79,0,0,1,.25-.6A.88.88,0,0,1,511.48,206.11Zm3.09-4.23a.84.84,0,0,1,.64.27.89.89,0,0,1,.26.63v15.06a2.76,2.76,0,0,0,.22,1.26,1.14,1.14,0,0,0,.59.56,2,2,0,0,0,.72.13,1.18,1.18,0,0,0,.43-.07,1.23,1.23,0,0,1,.44-.08.6.6,0,0,1,.46.21.77.77,0,0,1,.2.54.83.83,0,0,1-.48.71,2.19,2.19,0,0,1-1.14.28c-.18,0-.45,0-.81,0A3,3,0,0,1,515,221a2.23,2.23,0,0,1-1-1,4.59,4.59,0,0,1-.37-2.07V202.78a.88.88,0,0,1,.25-.63A.86.86,0,0,1,514.57,201.88Z"/><path d="M529.3,221.68a8.22,8.22,0,0,1-4.08-1,7,7,0,0,1-2.76-2.76,8.34,8.34,0,0,1-1-4.14,8.8,8.8,0,0,1,1-4.35,7.35,7.35,0,0,1,2.61-2.77,6.47,6.47,0,0,1,3.41-1,7.25,7.25,0,0,1,2.56.47,6.44,6.44,0,0,1,2.21,1.38,7.09,7.09,0,0,1,1.56,2.23,7.65,7.65,0,0,1,.63,3.06.83.83,0,0,1-.27.62.88.88,0,0,1-.63.25h-12l-.36-1.62H534l-.39.36v-.6a4.57,4.57,0,0,0-.93-2.4,5.13,5.13,0,0,0-1.88-1.5,5.35,5.35,0,0,0-2.29-.51,5.19,5.19,0,0,0-1.85.36,4.86,4.86,0,0,0-1.71,1.13,5.78,5.78,0,0,0-1.24,2,7.42,7.42,0,0,0-.48,2.8,7.08,7.08,0,0,0,.72,3.21,5.56,5.56,0,0,0,2.07,2.28,6.07,6.07,0,0,0,3.27.84,5.5,5.5,0,0,0,1.86-.3,5.36,5.36,0,0,0,1.48-.79,5.9,5.9,0,0,0,1.07-1,1,1,0,0,1,.63-.27.72.72,0,0,1,.55.24.78.78,0,0,1,.23.54.82.82,0,0,1-.3.63,8.1,8.1,0,0,1-2.34,1.88A6.41,6.41,0,0,1,529.3,221.68Z"/><path d="M546.4,205.69a5.58,5.58,0,0,1,3.16.8,4.46,4.46,0,0,1,1.71,2.16,8.31,8.31,0,0,1,.53,3v8.82a.92.92,0,0,1-.9.9.84.84,0,0,1-.66-.27.92.92,0,0,1-.24-.63v-8.73a5.93,5.93,0,0,0-.39-2.19,3.38,3.38,0,0,0-1.28-1.59,4.05,4.05,0,0,0-2.32-.6,5.41,5.41,0,0,0-4.32,2.19,3.64,3.64,0,0,0-.72,2.19v8.73a.92.92,0,0,1-.9.9.84.84,0,0,1-.66-.27.92.92,0,0,1-.24-.63V207a.88.88,0,0,1,.25-.63.86.86,0,0,1,.65-.27.84.84,0,0,1,.64.27.89.89,0,0,1,.26.63v2.52l-.69,1.08a3.87,3.87,0,0,1,.61-1.84,6.49,6.49,0,0,1,1.43-1.59,7,7,0,0,1,1.93-1.11A6,6,0,0,1,546.4,205.69Z"/><path d="M555.52,206.11h7a.79.79,0,0,1,.6.26.85.85,0,0,1,.24.61.78.78,0,0,1-.24.57.81.81,0,0,1-.6.24h-7a.84.84,0,0,1-.62-.25.81.81,0,0,1-.25-.59.79.79,0,0,1,.25-.6A.88.88,0,0,1,555.52,206.11Zm3.09-4.23a.84.84,0,0,1,.64.27.89.89,0,0,1,.26.63v15.06a2.76,2.76,0,0,0,.22,1.26,1.14,1.14,0,0,0,.59.56,2,2,0,0,0,.72.13,1.18,1.18,0,0,0,.43-.07,1.23,1.23,0,0,1,.44-.08.6.6,0,0,1,.46.21.77.77,0,0,1,.2.54.83.83,0,0,1-.48.71,2.19,2.19,0,0,1-1.14.28c-.18,0-.45,0-.81,0A3,3,0,0,1,559,221a2.23,2.23,0,0,1-.95-1,4.59,4.59,0,0,1-.37-2.07V202.78a.88.88,0,0,1,.25-.63A.86.86,0,0,1,558.61,201.88Z"/></g></g><line id="Line_16" data-name="Line 16" class="cls-68" x1="220.85" y1="190.88" x2="572.85" y2="190.88"/></g></svg>
