<svg id="Layer_1" data-name="Layer 1" xmlns="http://www.w3.org/2000/svg" viewBox="0 0 777.09 285.15"><defs><style>.cls-1{fill:#649ad2;}.cls-2{fill:#6e9ed4;}.cls-3{fill:#d4e1f2;}.cls-4{fill:#5c93ce;}.cls-5{fill:#4a80c1;}.cls-6{fill:#2a59a0;}.cls-7{fill:#6294ce;}.cls-8{fill:#4077bb;}.cls-9{fill:#5a89c6;}.cls-10{fill:#6798d0;}.cls-11{fill:#5387c6;}.cls-12{fill:#74a2d6;}.cls-13{fill:#80afde;}.cls-14{fill:#7a9ecf;}.cls-15{fill:#6c98cd;}.cls-16{fill:#2f5da4;}.cls-17{fill:#6397d1;}.cls-18{fill:#b9cdea;}.cls-19{fill:#a1bce3;}.cls-20{fill:#7da6d8;}.cls-21{fill:#447dc0;}.cls-22{fill:#6fa2d7;}.cls-23{fill:#73a4d8;}.cls-24{fill:#79aadc;}.cls-25{fill:#77a9dc;}.cls-26{fill:#87b9e5;}.cls-27{fill:#619ad2;}.cls-28{fill:#3b72b8;}.cls-29{fill:#275ca7;}.cls-30{fill:#4d88c7;}.cls-31{fill:#447cbf;}.cls-32{fill:#8cb5e1;}.cls-33{fill:#83b1df;}.cls-34{fill:#5990cc;}.cls-35{fill:#6096d0;}.cls-36{fill:#2a60aa;}.cls-37{fill:#4a82c3;}.cls-38{fill:#77a4d7;}.cls-39{fill:#6e9cd3;}.cls-40{fill:#79a9db;}.cls-41{fill:#5e8dc9;}.cls-42{fill:#8eb5e1;}.cls-43{fill:#7094c9;}.cls-44{fill:#8cb6e2;}.cls-45{fill:#5a90cc;}.cls-46{fill:#6799d1;}.cls-47{fill:#4783c4;}.cls-48{fill:#7ca8da;}.cls-49{fill:#6ea0d5;}.cls-50{fill:#689dd4;}.cls-51{fill:#669cd4;}.cls-52{fill:#86b4e2;}.cls-53{fill:#7cafdf;}.cls-54{fill:#3e76bb;}.cls-55{fill:#86b5e2;}.cls-56{fill:#4d81c2;}.cls-57{fill:#4479bd;}.cls-58{fill:#4e86c5;}.cls-59{fill:#174f9b;}.cls-60{fill:#82afde;}.cls-61{fill:#75a4d8;}.cls-62{fill:#90b8e3;}.cls-63{fill:#79a6d9;}.cls-64{fill:#6899d1;}.cls-65{fill:#74a0d5;}.cls-66{fill:#4b80c1;}</style></defs><title>05_watercolor</title><g id="Group_192" data-name="Group 192"><path id="Path_10622" data-name="Path 10622" class="cls-1" d="M536.75,251.3c-33.57-15.09-69.33-21.14-105.47-25.61-3.85-2.88-9,.27-12.79-2.7v.07a3.33,3.33,0,0,1,.47-4.54c6.1-4,12.73-3.09,19.37-2.13,5.09,1.47,10.21,2.67,15.48.71a23.48,23.48,0,0,1,4.57-.48c8.52.48,16.4,4.22,24.89,4.82,3.13.11,6.26.28,9.39.3,27.14-.7,47.91,13.12,67.55,29.59a5.65,5.65,0,0,1-2.09,4.49c-5.14.31-10.38,1.88-15.16-1.45l.12.1q-1.79-1.32-3.46-2.77A7.52,7.52,0,0,0,536.75,251.3Z"/><path id="Path_10623" data-name="Path 10623" class="cls-2" d="M635.61,239.12c-11.27,4.73-19.45,12.6-26.42,21.7a20.36,20.36,0,0,1-24.13,6.2,90.32,90.32,0,0,0-19.59-6.18,4,4,0,0,1-1.78-3.72c18.09-5.17,31.75-17.41,45.94-28.81,3.85-.79,6,2.14,8.64,4,1.06.62,2.1,1.26,3.2,1.81a26.87,26.87,0,0,0,5.47,1.14C630.2,235.71,633.64,235.81,635.61,239.12Z"/><path id="Path_10624" data-name="Path 10624" class="cls-3" d="M539.61,251.7a3.69,3.69,0,0,1,3.46,2.77Z"/><path id="Path_10625" data-name="Path 10625" class="cls-4" d="M743.59,117.91l-12.81,16c-5.7-6.29-13.59-10.4-17.88-18.06a19.93,19.93,0,0,0-3.9-4.35c-1.15-.64-2.27-1.3-3.45-1.89-3.81-1.67-7.55-3.44-9.93-7.12-7.22-9.75-6.31-21.46-8-32.5,1.53-3-1.12.26-1-.55-4.46.29-9.36,1.4-10.11-5.33L702,63.32l3.25.68c14.51,10.33,28.38,21.53,45.53,27.74,7.53,2.73,10.57,8.76.72,12.77C744.62,107.29,743.08,111.6,743.59,117.91Z"/><path id="Path_10626" data-name="Path 10626" class="cls-5" d="M743.59,117.91c-1.34-1.58-3.15-3-3.94-4.78-3.68-8.48-2.92-9.77,5.92-11.29,2.93-.5,6.43.94,9.28-3.75C736.84,88.84,715.56,84,705.23,64c4-2.21,7.95-4.34,12.76-3.46,9.32,3.63,20.45-1.47,29,6L762.45,70c4.1,5.42,9.51,9.68,13.42,15.27a3,3,0,0,1-.8,3.69l.28.32c-3.33,2.23-.28,7-3.6,9.2v-.11C763.34,106.33,752.81,111.19,743.59,117.91Z"/><path id="Path_10627" data-name="Path 10627" class="cls-6" d="M747,66.52c-.76.67-2,2.06-2.2,1.91-8.24-5-18.63-2.72-26.79-7.89,8.45.36,16.89-4.77,25.36-.08,2,1.55,1,4.88,3.57,6.12Z"/><path id="Path_10628" data-name="Path 10628" class="cls-7" d="M774.83,86.07c-6.44-3.56-13.85-6.37-12.38-16l6.4-.08C775.22,73.71,780.15,78,774.83,86.07Z"/><path id="Path_10629" data-name="Path 10629" class="cls-5" d="M746.91,66.58c-3-1-3.58-3.37-3.56-6.12C746.27,61.49,746.73,64,746.91,66.58Z"/><path id="Path_10630" data-name="Path 10630" class="cls-8" d="M676.54,64.11c5.61,5,12.91.93,19,3.59-1,3.39-4.07,1.92-6.25,2.52-2.26,1.32-5.9,3.11-4.89,5.43,8.39,19.29-9.45,30.36-13.79,45.59-2.53.86-4.2-.36-5.6-2.27-1.92-5.28-4.56-8.54-10.15-3.63a8,8,0,0,1-4.27.25c-5.1-3.09-11-3.33-16.64-4.84a12.58,12.58,0,0,1-4-2.61c-7.35-17.25-1.82-31.06,17.18-43.08,5.26-3.25,11.25,2.52,16.48-1.32Z"/><path id="Path_10631" data-name="Path 10631" class="cls-9" d="M617,44.12l5.31,1a3.76,3.76,0,0,1,.28,4.13,7.07,7.07,0,0,1-5.74,3.06c-9.69-3.06-18.21-6.68-28.61,1.73-7.69,6.22-16.33-.28-19-9.53-2.29-8-7.36-10.81-14.56-11.87a31,31,0,0,1-6.45-2c-6.55-5-14.27-4.19-21.81-4.29a31,31,0,0,1-4.9-.4c-5.42-3.8-16.51.9-16.54-11,5.18-.74,10.36-1.36,15.46.51,32.84,1.3,63.48,10.45,92.36,25.9A7.19,7.19,0,0,0,617,44.12Z"/><path id="Path_10632" data-name="Path 10632" class="cls-10" d="M329.39,47.56a398.72,398.72,0,0,0,57.37-25.87c9.4-.94,19-.07,28.22-2.6,6.54,0,12.92-1.4,19.37-2.28a17.81,17.81,0,0,1,5,.12c8,2.45,17.55-1.71,24.42,5.64-2.94,8.67-10.6,7-16.93,7.24-11.46.36-22.85.71-33.85,4.3-9.53,5.64-19,10.57-30.93,7-7.47-2.25-14,2.36-20.6,5.74-10.58,5.43-20.84,12-33.45,11.83A7,7,0,0,1,325,55.21C324.12,51.32,326.94,49.55,329.39,47.56Z"/><path id="Path_10633" data-name="Path 10633" class="cls-11" d="M619.19,50.91l3.28-3.29a1.86,1.86,0,0,1,2.58-.56,2,2,0,0,1,.58.58c9.06,8.68,20,13.42,32.22,15.59-1.4,2.59-3.92,1.66-6.05,1.92-1.39.38-2.91-1-4.25.27,0,0,.3,1.39.3,1.39-4.24,6.83-12.29,9.9-15.05,19-2.41,8-3.65,14.74-.83,22.34a4.75,4.75,0,0,1-4.18.64,10.29,10.29,0,0,1-4.5-4.83,20.91,20.91,0,0,1-1.2-4.24C621.44,83.46,619.53,67.23,619.19,50.91Z"/><path id="Path_10634" data-name="Path 10634" class="cls-12" d="M249.86,54.16,260,60c3.7,5.84,7.89,10.37,15.92,9.43,4.5-.53,9.35-.08,12.95,3.7a5.9,5.9,0,0,1-.35,4.69c-4.77,6.34-12,5.52-18.6,6.39-12.05,2.86-22.69-1.12-32.26-7.73C231.14,72,225.32,66.24,230.39,57,236.1,50.75,243.55,56.43,249.86,54.16Z"/><path id="Path_10635" data-name="Path 10635" class="cls-13" d="M135.3,31.81c5.1-.61,9,1.86,13.15,4.44,6.24,3.87,12.83,4.48,18.68-1.3,5.24,2.17,9.94,5.71,15.83,6.23,10.52,2.22,22.17-1.11,31.59,6.48a3.91,3.91,0,0,1-1.27,4.67c-11.86,6.4-23.73.23-35.54-.21-15.23-.57-30.07-4.08-44.39-9.39C128.09,38.06,137.35,35.94,135.3,31.81Z"/><path id="Path_10636" data-name="Path 10636" class="cls-14" d="M214.91,47.68c-11.12.17-22.17,0-31.95-6.5a7.37,7.37,0,0,1,2.73-.1,14.88,14.88,0,0,0,3.69-2.61,8,8,0,0,1,2.94-.52,23.23,23.23,0,0,1,16.6-.1,6.16,6.16,0,0,1,2.72.72,18.53,18.53,0,0,1,4.1,7.18C215.47,46.4,215.19,47,214.91,47.68Z"/><path id="Path_10637" data-name="Path 10637" class="cls-15" d="M214.93,50.83c0-1,0-2.1,0-3.15l0,0c4.36-2.7,8.8-1.92,13.27-.36,5.44-.05,10.67.75,15.42,3.63a7.87,7.87,0,0,0,4,2.68,3.5,3.5,0,0,1,2.28.5c-5.61,5.6-12.68,2.11-19,3.07l-2,.14a17,17,0,0,1-4-.38,18.91,18.91,0,0,1-8.95-4.4C215.6,52,215.27,51.42,214.93,50.83Z"/><path id="Path_10638" data-name="Path 10638" class="cls-13" d="M228.14,47.35l-13.26.36q-1.62-4.58-3.23-9.14Z"/><path id="Path_10639" data-name="Path 10639" class="cls-16" d="M648.29,64.08l9.56-.85,5.84.51c-4.47,5.19-10.5,2.34-15.83,3.07h0c-.67-.73-.83-1.38-.48-1.94S648,64.08,648.29,64.08Z"/><path id="Path_10640" data-name="Path 10640" class="cls-13" d="M208.92,37.86l-16.59.1C197.83,33.9,203.36,33.68,208.92,37.86Z"/><path id="Path_10641" data-name="Path 10641" class="cls-12" d="M247.58,53.66a4.75,4.75,0,0,1-4-2.68Z"/><path id="Path_10642" data-name="Path 10642" class="cls-17" d="M625.63,47.64l-1.59,0-1.58,0c-.07-.86-.12-1.71-.14-2.56Z"/><path id="Path_10643" data-name="Path 10643" class="cls-17" d="M617,44.11a4.75,4.75,0,0,1-4.16-2.82Z"/><path id="Path_10644" data-name="Path 10644" class="cls-13" d="M189.38,38.47l-3.69,2.62Z"/><path id="Path_10645" data-name="Path 10645" class="cls-18" d="M55.71,28.63l-3.22,3.11Q54.1,30.18,55.71,28.63Z"/><path id="Path_10646" data-name="Path 10646" class="cls-19" d="M224.59,3.49,227.76,0Z"/><path id="Path_10647" data-name="Path 10647" class="cls-20" d="M62.53,270.35c-.68-3.28-2.36-6.94-5.6-6.75-16.44,1-15.7-11.12-17.24-21.65a7.41,7.41,0,0,1,6.83-1.72c11.33,6.3,24.55,7.32,36.2,12.78,14.48,10.83,31.35,14.37,48.82,15.57,21.51,1.47,43.07.86,64.6.74a24.43,24.43,0,0,0,9.2-1.83,35.43,35.43,0,0,1,4.62-1.58c15.81-6.37,31.68-12.23,49-6.08a3.19,3.19,0,0,1,.51,4.48l-.06.07-48,12.47c-15.45-.47-29.45,6.79-44.88,8a93.2,93.2,0,0,1-37-4.36c-5-1.65-9.59-4.12-15.18-2.5-16.08,4.64-31.22,1.4-45.88-5.76A39.38,39.38,0,0,0,62.53,270.35Z"/><path id="Path_10648" data-name="Path 10648" class="cls-21" d="M666.85,219.11l-5.82,7c-9.21,2.9-15.5,11.52-25.43,13l-13.24-.36a32.8,32.8,0,0,0-3.14-3.21h0c3-13.8,16.79-13.39,25.67-19.37,3.82-2.58,9-2.22,13.46-3.65,1.26-.55,2.53-1.07,3.77-1.67a34.45,34.45,0,0,1,3.67-1.9,10.79,10.79,0,0,1,4-.76c2.79.79,5.38,1.73,4,5.54l-3.68,2.76A16.54,16.54,0,0,1,666.85,219.11Z"/><path id="Path_10649" data-name="Path 10649" class="cls-22" d="M482.34,226l-25.5-6.36c-9.47-13.85,3-22,8.67-31.6,2.26-3.78,7.71-5.28,9.59-10.18-17.75,15.43-41.15,23-56.46,41.75-.05,1.15-.11,2.3-.16,3.45l-6.1.27c-8.86-2.3-17.15,3.66-26,1.8-6.86-2.57-13,.28-19.4,2.25-9.06,2.78-16.34,1-19.57-9.14-.56-5.1,9-5.37,5.65-11.83a7.08,7.08,0,0,1,2-3.53c8.76-1.11,14.18-8.28,21.57-11.91,7.9-2,13.37-.3,13.57,9.14-.64,1.45-3,1.84-2.57,4a8.73,8.73,0,0,1,2.43-3.63c3-3.58,7.51-3.83,11.3-5.62,1.3-.65,2.63-1.21,4-1.77,11.17-4.75,22.84-9.08,12-24.7-1.81-2.61-.76-8.78.93-8.49,11.32,2,14.2-12.52,24.3-11.86a2.69,2.69,0,0,1,1.41,2.24,3.78,3.78,0,0,0-.7-2.74c.31-3.58,1.68-6.38,5.1-7.84,4,.33,7,3.09,9.3,5.64,10.07,11.12,20,18,33.39,4.26,3.54-3.6,8-.65,10.84,3,4.33,5.47,12.6,8.66,9.63,18.28-2.6,8.41-6.8,15.7-14.08,20.52-6.75,4.47-9,9.88-6.39,17.45C489.69,215.33,484.55,219.93,482.34,226Z"/><path id="Path_10650" data-name="Path 10650" class="cls-1" d="M386.81,222.84c8.59-4.24,19.67,1.55,26.61-8.4,1.75,4.43-.7,6.41-1,8.89-3.45,3.58-8.08,2.3-12.23,3-1.8,1-2.47,3-4,4.22a12,12,0,0,1-5.55,1.74,22.06,22.06,0,0,0-7.62,1.48c-2,.42-3.87,1.18-5.85,1.6-2.86.23-5.55,1.16-8.35,1.74-1.54,0-3,0-4.59,0-3.07-.24-7.4,1.17-8.66-2.06-1.55-3.94,2.46-4.86,5.54-5.79C369.56,226.73,377.76,223.08,386.81,222.84Z"/><path id="Path_10651" data-name="Path 10651" class="cls-22" d="M418.49,223c4.42.17,9.23-1.5,12.79,2.69C426.78,225.9,422.06,227.17,418.49,223Z"/><path id="Path_10652" data-name="Path 10652" class="cls-23" d="M396.33,229l3.81-2.7a29.12,29.12,0,0,0-.57,2.9l0,0C398.37,230.54,397.29,230.54,396.33,229Z"/><path id="Path_10653" data-name="Path 10653" class="cls-23" d="M386.81,222.84c-8.61,6-18.93,7.51-29,10.55,3,3.73,6.81,1.45,10,2.26,1,.85,1.22,1.57.74,2.15a1.74,1.74,0,0,1-1.28.78c-15.47,2.49-30.46,6.52-45.58,10.81-20.42,5.79-39.78,17.52-62.27,15,0-1.12,0-2.24,0-3.36,1.42-6,5.71-8.83,11.34-9.29,6.31-.52,8.8-5.15,11.66-9.51,1.23-1.88,1.7-4.37-.54-5.54-3.43-1.8-4,.88-4.94,3.59-3.74,11.34-11.7,15.3-17.9,7.4-7.05-9-17.41-14.57-22.92-24.69.27-2.53,2.12-5.09.23-7.62-8.36-11.15-15.79-20.85,2.75-31.3,3.94-2.22,8.72-13.59,13-20.8,5.79-9.77,15.57-13.95,21.9-8.52,7.66,6.59,6.63,15.4,2.22,23.2-10.9,19.27-11.16,19.13,5.1,36.89-10.47-19.54,9.95-31.48,10.93-48.71,1.19-20.8,28.93-16.33,33.95-34.64-5.45-1.73-11.54,6.59-18.6,3-3.47-6.07,1.86-9.9,3.66-14.64,4.48-8.76,9.75-15.8,21.44-14.87,7.15.56,11.84-6.32,18.23-8.54,6.79-2.36,12.1.94,17.06,5.1-2.5-5.74-2.84-11.79,3.81-14,7.9-2.67,13.67-5.06,12.41-15.34-.39-3.18,4.92-4.8,9-3.84,15.22,8.79,16.87,8.26,23.21-8.73,1.16-3.13,1.73-6.23,5.74-6.31,3.85-.08,7,1.44,9.92,4.16,3.14,2.93-1.58,11.8,6.55,10,7.13-1.59,14.23-5.35,17.74-12.31,2.67-5.3,1.27-13,10.82-12.83,8.7.18,13.47,4.22,16.38,12.2,3.55,9.75,10.83,8.51,18.24,4.83,9.1-4.51,18.24-8.52,28.76-5.6,7,11.73,15.53,9.29,22.9,1.31,6.75-7.32,12.81-8.24,20.69-2.59,6.73,4.82,13.77,5.15,20.37-.42,4-3.34,7.2-8.59,13.4-3.83s6.2,12,6.76,18.8c.58,6.93-3.91,9.22-10.08,9.28-3.81.28-7.94-2.92-11.52,1.08,2,3.38,6-.32,8.09,2.46,1.92,2.41,2.5,5.3,3,8.22.17,6,3.83,6.08,8.3,4.93,7.68-2,10.93,2.63,13.07,8.86,0,1.06.06,2.11.07,3.17-2.52,3.47-6.82,3.42-10.18,5.21a12.9,12.9,0,0,0-3.9,2.9,2.23,2.23,0,0,0,.87,2.55,20.92,20.92,0,0,0,3.38,1.12c7.42,2.7,19.9,1.95,10.85,15.84a22.86,22.86,0,0,1-6.49,2.16c-9.5,5-19.16,4.41-29,1-4.17-1.44-6.16-3.82-4.57-8.3s11.32-7.88,6-12.12c-7.41-6-7,5.8-11.14,8.32-9.9,1.95-4.62-10.34-14-12.74,5.94,17.73,14.36,33.73,9.71,51.66,2.12-3.78.67-10,6.42-10.91,5.45-.88,8.41,3.43,11.26,7.27,8.24,11.12,6.45,22.57-.14,34.68,6.82.54,10.74-3.08,15.05-5.6,13.68-6.43,20-19.24,27.13-31.36a8,8,0,0,1,3.18-3c16.61-5,20.07,9.12,27.37,20.55,1-9.35,5.14-13,12.92-11.16,5.29,2.62,11.17,4.24,15.3,8.87a20,20,0,0,1-6.26,13c-7-.08-10.86,3.32-10.26,10.41.76,9.14-4.48,12.88-12.2,14.79l0,0a30,30,0,0,0-3.22,3.16h0c-15.44,5.84-28.36-.73-41.4-9.38-2.17,10.53-5.36,19.05-18.2,13,2.55,4.31,13.63,2.81,8.62,12.29-6.58,3.54-11.16,9.38-16.07,14.68-8.67,9.37-19.44,13.31-31.76,14.1-2.5-.18-4.85-.66-6.31-3l.06-3.49c7.86-4.37-1.54-9.92,1.14-15.11,4.33-8.37,7.49-17.37,14.79-23.89-10.89-7.58-16.59-21.28-31.4-24.11-4.45-.85-4.64-7.73-5.4-12.42-.47-15.94-2.81-18.31-18.34-18.54-10.69-9.65,3.79-11.11,5.45-16.75-25.26-22.25-4.08-36.79,9.64-53.15-11.27,5.52-21,13.3-34.1,6.18,2.44,1.63-1.16.22-1,2.34,6.77-1.49,12.46-1.37,8.82,8.06-2.73,7.06-8.25,12.26-13.69,17.31-3.13,2.9-6.83,5.58-11.38,3.22-3.83-2-4.56-6.13-3.8-9.72,2.37-11.3-5.88-14.56-13.28-18.63-.52-10.93,12.67-5.36,15-13.85-15.75,0-33.2-7.54-43.58,12.56,7.85,12.86,17.09-3.06,25.91-.26-.24,18.62-6.16,33.59-25.62,39.86-12,14.72-26.52,14.23-42.21,6.92-2.37-1.1-5.9-2.12-7.67-.63-10.16,8.55-21.15,13.07-34.52,9.29-4.73,12-16.47,12.58-26.28,16.62-2.7,1.11-1.08,5.9-1.71,9a13,13,0,0,1-1.64,4.15c-2.36,3.57-6.76,4.87-10.25,9.46,15.22,4.74,23.19,18.22,35,27.12,9.58,13.56,10.82,10.3,23.26,5C378.3,218.76,382.11,219,386.81,222.84Z"/><path id="Path_10654" data-name="Path 10654" class="cls-24" d="M437.74,133.67c.73-1.41,1.89-2.76,2.13-4.25,1.41-9.07,15.82-.5,15.61-11.61-.14-7.37,1.63-14,7.2-19.27.61-.58.38-2,.54-3.08a2.07,2.07,0,0,1,2.91-.28,3.19,3.19,0,0,1,.26.26c17.21,1.35,18.34,2.7,16.35,19.64-.32,2.64-.78,5.62,1.77,7.14,2.77,1.65,5-.56,6.78-2.46,5.89-6.42,12.09-12.64,16.89-21.79-6.48-.42-6.78,7.37-11.43,5.65-3.49-1.3-6.28-3.79-6.82-9.42,7.43-.9,14-8.74,22.4-1.18,7.33-4.19,18.84-2.75,18.52-16.94,9.49,6.13,9.14,13.38,8.4,20.67-.32,3.07-2.77,5.43-5.35,4.29-9.58-4.27-10.12,3.52-12.67,8.82-2.05,4.28-4.1,8.5-3.91,13.51s.08,9.78,6.83,10.28a12.53,12.53,0,0,1,7.14,3c4.48,3.66,4.11,7.23-1.31,9.21-2.91,1.06-6.37.24-9,2.38-3,2.39-3.79,4.92-.42,7.67,4.45,4.07,1.19,8.4.5,12.6,2.12,4.47,5.42.88,8.11,1.2a13.53,13.53,0,0,1,4.11.36,14.62,14.62,0,0,1,3.64,1.88c.93,1,1.84,2,2.72,3.05,3.35,7.73,6.83,14.86,17.61,13.26,3.95-.59,6.74,2.85,7.6,6.82,1.84,8.45,6.64,12.69,15.55,12.23A4.45,4.45,0,0,1,585,211c.49,3.35-2.1,4.65-4.7,5.11-13.25,2.35-11.75,15.86-17.59,23.76-2.7,3.65,5.39,5.48,6.63,9.36-3.29,3.71-7.19,1.72-10.61,2.28-11-3.51-18.47-15.64-32-13.38a3.24,3.24,0,0,1-2.74-1.33c-6.9-15.17-20.48-10.09-32.16-10.73-4.82-4.55-.05-11-3.17-15.89-5.47-12.63-5.41-12.55,6.59-21.47,4.25-3.16,7.94-7,10-12,2.88-6.94,7.9-14.06-4-18.2-2.28-.8-3.37-5-5.23-8.05-5.7,4-10.49,8.18-16,10.89-4,1.95-11,5.23-13,.58-4.29-9.92-15.12-12.94-19.85-21.8-.66-.09-1.32-.17-2-.23a16.24,16.24,0,0,1-6.62-4.39C438.35,134.86,438.05,134.26,437.74,133.67Z"/><path id="Path_10655" data-name="Path 10655" class="cls-25" d="M418.64,219.61c1.93-10.93,4.79-20.91,19.22-19.67.94.08,1.93-.91,2.94-1.05,8.25-1.11,3.9-13.84,12.72-14,7-.12,12.38-2.72,15.49-8.94,4.43-8.85,9.55-5,15.9-1.59-3.1,4-5,8.82-8.25,10.19-10.3,4.26-12.26,14.58-18.28,21.88-4,4.85-1.57,8.79-1.55,13.2-1.05,0-2.11,0-3.16,0a12.6,12.6,0,0,1-12.75,0Z"/><path id="Path_10656" data-name="Path 10656" class="cls-26" d="M488.71,210.15c9.4,3.63,3.31,10.35,3.17,15.89l-9.54,0C475.75,217.2,484.56,214.62,488.71,210.15Z"/><path id="Path_10657" data-name="Path 10657" class="cls-22" d="M440.93,219.65l12.74,0C449.42,224.11,445.17,224.16,440.93,219.65Z"/><path id="Path_10658" data-name="Path 10658" class="cls-27" d="M612.83,229.2c0-5.75-4.81-5.91-8.49-7.61a34.53,34.53,0,0,1-7.91-4.89c-1.92-1.64-.56-3.9.41-5.74,1.37-2.6,3.18-2.1,5-.52,1.6,1.36,3.07,2.88,4.77,4.08,3.46,2.42,6.89,2.23,9.92-.81,2.87-2.9,1.59-5.66-.52-8.33s-3.84-5.48-.62-8.18c3.54-3,5.41.86,7.8,2.51,12.2,8.47,24.87,15.59,40.59,13.6-9.1,7-21.62,5.23-30.84,12.58-4.29,3.42-9.74,5.57-13.73,9.67C615.1,235.47,613,233.34,612.83,229.2Z"/><path id="Path_10659" data-name="Path 10659" class="cls-27" d="M619.22,235.55l3.14,3.21Z"/><path id="Path_10660" data-name="Path 10660" class="cls-28" d="M695.73,172c-6.38.44-12.14-.61-15.87-6.57-2.38-2.73-6.56-3.3-8.27-6.85-2-4.59-.71-9.16.36-13.63,2.28-9.52-2.87-11.72-10.83-11.4a15,15,0,0,1-4.29-1.58,9.43,9.43,0,0,1-3.9-5.67c.06-4.22,1.35-7.82,5.1-10.19a8.08,8.08,0,0,1,8.84,1.51l3.3,3.32c7.54-5.61,17-1.67,25-5.12a8.23,8.23,0,0,1,4.05,1.5c2.83,10-3.31,16.55-9.22,23.16,3.39,3.23,7.93,2.88,11.49,4.83a30,30,0,0,1,3.72,1.85c1.78,1,3.51,2.08,5.22,3.2a12.47,12.47,0,0,1,4.2,4.28c.1.67.19,1.33.27,2C708.71,162,703,168,695.73,172Z"/><path id="Path_10661" data-name="Path 10661" class="cls-29" d="M705.1,149.65c-5.05-1.11-10.07-2.41-15.17-3.27-3.3-.55-6.12-1.18-6.73-5.1-.64-4.07,1.41-4.6,5.06-5.63,8.6-2.42,6.24-12.32,10.62-17.85a8.54,8.54,0,0,1,3.74-2.61c23.22,3.46,27.86,12.89,18.55,37.75-1.35,2.49-3.68,3.3-6.26,3.68l-.14-1.51C713.47,149.88,712,145,705.1,149.65Z"/><path id="Path_10662" data-name="Path 10662" class="cls-28" d="M721.17,152.94a53.18,53.18,0,0,0,.6-7.77c-.34-5.3,5.77-10.41,1.14-15.58-5.55-6.2-11.38-12.5-20.95-11.89-2.31-2.65-5.24-5.74-2.85-9.09,2.22-3.13,6.07-2.55,9.33-.49,1,0,2.06,0,3.08.13q1.59,1.55,3.12,3.14c2.24,4.7,4.63,9.29,9.91,11.31s6.46,6.19,6.23,11.2C725.65,139.28,730.09,149.49,721.17,152.94Z"/><path id="Path_10663" data-name="Path 10663" class="cls-27" d="M667,210.18c5.09-4.93,12.33-8.42,7.36-18.14-3-5.93,3.39-7.8,7.43-10,3.62-2,7.09-3.16,7.67,3a15.29,15.29,0,0,1-.33,2.86c-2.75,2.9-.6,7.06-2.64,10.14a6,6,0,0,1-.53,2.59,28.34,28.34,0,0,0-3,3.28l0,0a8.9,8.9,0,0,0-3,3.61,14.35,14.35,0,0,1-6.11,6.34C672.43,210.94,669.91,210.19,667,210.18Z"/><path id="Path_10664" data-name="Path 10664" class="cls-23" d="M686.5,198c-.35-3.7-1.11-7.51,2.64-10.14C689.4,191.5,689.57,195.16,686.5,198Z"/><path id="Path_10665" data-name="Path 10665" class="cls-27" d="M666.85,219.12l3.35-2.6Z"/><path id="Path_10666" data-name="Path 10666" class="cls-23" d="M680,207.41a4.56,4.56,0,0,1,3-3.61Z"/><path id="Path_10667" data-name="Path 10667" class="cls-23" d="M683,203.84l3-3.28Z"/><path id="Path_10668" data-name="Path 10668" class="cls-30" d="M695.57,117.7c-7.46,9-16.92,2.25-25.41,3.22-.77-8.4,1.52-15.87,7.57-21.77,4.87-4.75,7.82-8.32,3.16-16-3.77-6.18-.23-12.38,8.43-13-1.35,3.12-2.14,5.85,2.84,6.25,3.1.25,7.78,2.11,4.72,5.17-8.23,8.2,0,13.66,1.93,20.19C688.84,105.3,700.61,113.21,695.57,117.7Z"/><path id="Path_10669" data-name="Path 10669" class="cls-31" d="M695.57,117.7c.13-7.08-6.42-5.4-10.77-7.89,3.18-5.71,8.53-7,14-8,2,4,7.6,2.4,9.62,6.3-8.81-1.31-7.47,4.25-6.47,9.58-1,0-2.05.08-3.08.1Z"/><path id="Path_10670" data-name="Path 10670" class="cls-31" d="M714.64,111.39l-3.11-3.14Q713.08,109.82,714.64,111.39Z"/><path id="Path_10671" data-name="Path 10671" class="cls-32" d="M132.07,38.27c11.52,5,24.12,7.15,36.09,8.38,15.51,1.6,31,5.62,46.77,4.18h0c9.05,12.31-2.34,16.74-9.44,20.73-4.66,2.63-10.57,3.64-15.11,7.23-14.74,6.72-32.65,7-41.79,24.72C144.25,111.89,136.65,102,130,102c.87,4.33,5.82,7.58,3.67,12.67-4.75,6.62-10.3,12.38-8.55,22.16,1.24,6.94-5,10.94-10.94,13.75a8.08,8.08,0,0,1-4.31-.07c-6.54-6.6-13-13.74-22.1-3.28-.91,1.12-1.87,2.17-2.83,3.24-2.45,2.89-4.42,6.12-4.69,9.88-.94,13-4.87,19.75-18.08,9.54-2-1.55-5.21-2.8-7.09-.2-2.35,3.24.43,5.86,2.56,8.1,4.66,4.89,11.39,5.14,17.17,7.53s11.2,7.4,9.24,13.08c-2.73,7.9-9.85,3-14.75,1.2A91.51,91.51,0,0,1,42,184.21c-8.9-7.38-16-13.45-3.18-24.21-10.47-1.44-16.2,6.9-24.44,5.5.65-7.68-1.78-14.87-5-21.39s-4-12.94-4.93-19.66l.27-2.37c11.44-23.85,18.88-49.92,40.8-67.74,7.4-6,16.35-6.92,24.08-11.28,17.66-5.1,36.41-2.64,54.07-8C126.62,34.22,129.84,35.66,132.07,38.27Z"/><path id="Path_10672" data-name="Path 10672" class="cls-33" d="M113,149.61c5.62-6.43,12.11-11.52,7.52-22.59-2.74-6.6,7.35-8.42,11.59-12.46a8.24,8.24,0,0,1,2.16,3.86c.58,4.17.64,10.11,4.76,11,13.52,2.84,16,17.21,26.07,23.36a8.38,8.38,0,0,1,3.77,9.69c-5.68,19.46,10.31,29.85,18,43.7a36,36,0,0,1,3.93,2c9.4,5.19,10.07,14.73,11.8,23.75-.27,2.55-7.85-.4-3.92,5.14a16,16,0,0,0,4.52,4.35c3.86,2.3,1.8,11.2,8.38,9.1,8-2.56,1.12-9,1.79-13.55a13.42,13.42,0,0,1,3.33-7.93c-1-2.16,8.74.68,2-4.39-2.47-1.85-4.19-4.64-6.2-7.06-3.15-8.28-12.5-7.71-18-12.64a9.22,9.22,0,0,1,0-4.49,12.42,12.42,0,0,1,2.78-3.69,13,13,0,0,1,4.24-1.92c7.86-.19,15.36.86,21.44,6.53,2.93,8.38,11.82,12.84,14.24,21.56,2.69,3.63,6.68,5.15,10.76,6.21,4.58,1.19,6.72,3.92,8.4,8.36,4,10.46,4.65,10.49,17.72,8.84-.27-1.49-.12-3.23-.87-4.38-2.42-3.69-5.28-7,.68-10.24,4.74-2.59,8.75-2.77,13,1.09s2.53,7.78,0,11.24c-3.38,4.67-6.93,10-13.29,10.37-5.9.3-9.43,4.4-14.08,6.66-17.64-.32-34.74,2.25-51,9.56-7.91-3.12-14.39-9-24.23-8.55-5.08.24-13.09-4.14-11.44-12.15.83-4-1.55-2.27-2.31-3.32-9.46-12.91-21.6-14.78-36.16-10.66a15.45,15.45,0,0,1-13.5-3.23c-14.2-12.79-31.11-13-48.52-11.67-2.44-1.15-3.94-3.23-5.47-5.38-6.57-9.22-15.8-7.18-24.06-4.25-9.83,3.48-3.81,11-2.93,17.23.51,3.56,5.78,9.15-3.08,10l-9.71-3.18c-1.52-2.66-3.67-3.77-6.7-2.72-4.27-4.8-2.34-10.75-3-16.22s1.55-11.42-3-16.15l0-34.85c6.36-6.64,14.74-9.16,23.23-11.56,2.7-.77,5.62-1.31,7.15,1.23,2,3.37-.11,5.78-3,7.79a30.58,30.58,0,0,0-5.82,5.31c-2.58,3-1.87,6.3,1.23,8.12,12.75,7.48,23.64,18.3,38.68,21.69,1.9.43,3.63,2.43,6.25.2-2.75-5.56-5.43-10.25-13.25-10.74-8.77-.56-16.39-4.49-19.31-13.8-.88-2.79-3-6-.24-8.91a8.48,8.48,0,0,1,10.3-1.59c5,2.55,9.38,6.1,14.89,9.8,2.38-9.66-1.51-21.27,9.88-26.62C93.29,153,103.12,151.54,113,149.61Z"/><path id="Path_10673" data-name="Path 10673" class="cls-32" d="M4.43,124.45q-1.63-1.76-3.3-3.51l1,.1c2.51-.6,3.75,0,2.77,2.84Z"/><path id="Path_10674" data-name="Path 10674" class="cls-34" d="M625.58,130.48c4.78-4.95,1-7.27-3.07-8.94s-9.56.93-12.87-3.77c2-3.52,5.62-5.61,7.73-9,3.65-3.23,7.63.23,11.4-.55H632c1,0,2.08.07,3.12.08,3.84,2.07,4.68,5.28,3.36,9.2-1.74,5.17,1.4,7.65,5.26,9.78a37.4,37.4,0,0,1,4.68,4c12.83,13,12.65,14-4,20.09-2.57.93-4.2,2.85-6,4.61h0c-9.46,7.3-16.56,20.75-32.05,12.28-7.72-16.42-3.23-24.23,15.32-26.73C624.77,138.49,623.23,133.77,625.58,130.48Z"/><path id="Path_10675" data-name="Path 10675" class="cls-35" d="M638.33,156c-1.05-12.67,9.08-8.5,15.35-9.94,0-9.08-11.31-10.45-12.17-18.71-1.48-7.77.5-12.95,9.57-12.86,1,.07,2.09.11,3.13.12a3.74,3.74,0,0,1,3.2,3.17q-1.59,4.77-3.16,9.53c1.1,1,2,2.18,3.12,3.23l0,0c11.9,1.63,18.26,6.78,13.32,19.91-1.12,3,.53,6.15,2.59,8.71,4,.19,6.33,2.11,6.56,6.25-3,1.22-10.73-2.06-6.94,5.58,2.76,5.58-.52,7-3.55,8.26-3.2,1.32-6.08-1-7.8-3.87-.77-1.29-.56-3.11-1.12-4.56C655.27,157.37,653.75,156.38,638.33,156Z"/><path id="Path_10676" data-name="Path 10676" class="cls-36" d="M661.63,81.82c-3.35,6.17-6.77,12.41-10.13,18.68-2.83,5.31-7.53,5.1-12.22,3.85s-4.33-5.55-3.92-9.06,1.89-7,2.78-10.54c1.59-6.25,5-9.11,11.4-6.1C653.26,80.4,658,77.94,661.63,81.82Z"/><path id="Path_10677" data-name="Path 10677" class="cls-37" d="M651.08,114.47c-5.72,2.4-7,8.11-9.57,12.85-9,.22-11-1.44-8.29-8,1.53-3.73,4.93-6.67,1.86-11C640.72,109.53,648.83,104.44,651.08,114.47Z"/><path id="Path_10678" data-name="Path 10678" class="cls-36" d="M657.41,117.75l-3.2-3.17c.45-5.27,2.7-9.94,8.49-8.8,6.52,1.28,3.57,7.54,4.17,11.83Z"/><path id="Path_10679" data-name="Path 10679" class="cls-38" d="M4.87,123.88,2.09,121c-.23-2.1,0-4.37-.77-6.26-3.29-8.32-.26-13.56,7.09-17.93,7.78-4.61,12.66-11.22,8.72-21-1.74-4.3-.08-6.5,3.37-9.11,6.63-5,14.35-8.8,19.34-15.84,3.52-3.48,6.64-7.75,12.6-6.48,5.46.43,11.54-2.12,16,3.24C58.83,51,49.83,55,42.26,62.48,37,67.7,32.34,72.29,29.46,79.57,23.24,95.31,14.28,109.78,4.87,123.88Z"/><path id="Path_10680" data-name="Path 10680" class="cls-39" d="M68.45,47.69c-5.4-.78-11.54,2.09-16-3.24l0,0a22,22,0,0,0,3.23-3.1c4.59-2.28,8-7.1,13.91-6.49,11.3,1.18,20.8-2.91,31.17-7.25,10.74-4.5,23.2.6,34.52,4.18,1.23,1.6,3.79,3.72,3.41,4.7-1.1,2.83-4.33,1.24-6.64,1.76-1.59,0-3.32-.46-4.75,0-16.76,5.5-34,7-51.5,6.65C73.38,44.87,70.9,46.72,68.45,47.69Z"/><path id="Path_10681" data-name="Path 10681" class="cls-38" d="M55.7,41.36q-1.61,1.56-3.23,3.1Z"/><path id="Path_10682" data-name="Path 10682" class="cls-17" d="M603.31,73.16c3.88-.42,9.13,1,8-6.09-.68-4.12-1.24-8.27-2-12.37-.53-2.68-2-5-4.82-5.58-2.62-.59-3.6,1.51-4.33,3.51-4.14,11.23-16.16,3.09-22.68,9.1-1.18,1.1-2.13-3-3.42-4.36-7.62-8.25-11.6-8.1-17.58,1.57-3.46,5.58-6.9,9.6-13.73,6.12-5.68-2.9-11.14.18-16.51.8-1.84-5.7,4.91-7.3,3.91-11.8.51-3.91,3.12-6.46,5.77-9,6.31-5.78,15.39-8.25,19.67-16.46,3,.88,6,2,9.07,2.59,6,1.2,9.5,3.25,7.5,10.68-1.53,5.74,3.84,7.87,8.1,10.13,4.07,2.16,7.86,1.09,9.63-2.37,5.77-11.24,13.08-7.67,20.9-3,2.71,1.62,5.64,2.87,8.47,4.29.9,3.45,5.05,5.14,4.6,9.49-1.41,13.87,3.34,27.52,1.75,41.44-3.8-3.35-6.72-7.88-13.32-5.46-9.87,3.63-10,3.29-12-7.44,2.44-3.07,6.67-2.16,9.67-4.26-.7-4.14-5.36-4.46-7.08-7.52A3.56,3.56,0,0,1,603.31,73.16Z"/><path id="Path_10683" data-name="Path 10683" class="cls-12" d="M555.52,28.62c1.28,3.54,4.76,7-1.78,9.68-6,2.45-11.55,6.21-17.3,9.39-4.88-12.78-14.64-15.14-26.81-12.8-8.41,1.62-16.73,2.17-24.84-2-6.55-3.36-11.8-.24-17.48,3.58-17.09,11.47-44.65,8.9-58.24-4.75,9.78-5.79,20.56-6.16,31.54-6.51,7.56-.24,15.75,2.87,22.63-3C468,18.37,474.43,23,479.13,19a12.69,12.69,0,0,1,3.14,0c3.69,3.09,7.45-.86,11.17.11,10.39-1.8,19.75,6.23,30.27,3.18,1,0,2.11,0,3.16,0,7.5,1.87,14.79,4.46,22.3,6.26Z"/><path id="Path_10684" data-name="Path 10684" class="cls-17" d="M523.71,22.26c-2.69,3.5-6.53,3.84-10,2.37-7.13-3-14.5-2.27-21.85-2.44-1.65-2.33-5.27-.77-6.76-3.42,6.13-4.84,13.16-2.26,19.86-2.38C510.59,20.29,517.47,20.24,523.71,22.26Z"/><path id="Path_10685" data-name="Path 10685" class="cls-17" d="M549.17,28.56c-2.07,3-4.93,3.7-8,2.06-4.86-2.59-9.54-5.53-14.3-8.32C534.62,23.27,543.92,18.69,549.17,28.56Z"/><path id="Path_10686" data-name="Path 10686" class="cls-40" d="M409.07,31.73a76.72,76.72,0,0,0,45.69,6.54c5-.78,9.12-1.77,11.68-6.53,3.76-7,9.79-7.78,16.15-4.49,9.7,5,19.32,6.73,29.76,2.44,6-2.46,12,2.89,18.49.27,2.23-.9,4.64,2.51,5,5.13.59,4.14.43,8.39.59,12.6a11.26,11.26,0,0,1-6.36,6.37c-10.58,4.33-22.14,5.24-32.3,11.82-7.28,4.72-16.77.33-17.4-7.45-1.07-13.31-9.26-12.56-18.56-12.2-2.24,4.65,4.74,11.81-1.44,14.27-9.12,3.62-15.09,13.91-26.33,12.5-3.3-.42-8.79-.46-5.49-6.23,6.42-11.27-3.19-8.51-8.33-11.34C421.58,68.62,421.58,68.62,404,81a25.53,25.53,0,0,1-10.82-11c-23.05-10.9-45.93-10.75-68.62,1.07-6.53,3.4-9.29,10-12.63,15.84-4.08,7.22-10,10.65-16.81,5.61-8.07-6-22.05.48-26.12-12.94,6.56,0,13.2.59,19.12-3.2,1.55-2.15,4.79-1.11,6.31-3.32,0-1,0-2,.08-3q1.55-1.55,3.12-3.06l3.24,0a1.92,1.92,0,0,0,2.68.4,1.87,1.87,0,0,0,.46-.47l3.31-3.27c2.53-2.86,6.94-.21,9.43-3.2h0l3.16-3.07c1-.13,2.07-.23,3.11-.29l1.29.29v1.31l.68-1.13,1.3-.28c12.56-4,25-8.31,36.18-15.5,7.75-5,15.82-8.6,25.1-3.84C396.68,42.59,402,34,409.07,31.73Z"/><path id="Path_10687" data-name="Path 10687" class="cls-41" d="M479.13,19c-4.42,5.34-10.53,2.46-15.88,3.26-8.41-1.52-17.57,3.08-25.4-3.12Z"/><path id="Path_10688" data-name="Path 10688" class="cls-12" d="M415.06,22c5.93-4.89,12.89-2.41,19.46-2.75C428.66,24.6,421.6,21.42,415.06,22Z"/><path id="Path_10689" data-name="Path 10689" class="cls-13" d="M323,57.06l3.13-3.14c0,1.11.09,2.22.13,3.33l0,0a2.26,2.26,0,0,1-3.1.11Z"/><path id="Path_10690" data-name="Path 10690" class="cls-9" d="M485.08,18.77c2.66.35,5.32.68,6.76,3.43-3.53-.06-7.29.56-9.57-3.23A20.31,20.31,0,0,1,485.08,18.77Z"/><path id="Path_10691" data-name="Path 10691" class="cls-17" d="M628.77,108.19c-3.18,5-6.43.87-9.65.07-2.17,1.86-4.28,1.6-6.33-.21,3.46-4.44,8.4-2.63,12.81-3Z"/><path id="Path_10692" data-name="Path 10692" class="cls-8" d="M648.29,64.08a14.69,14.69,0,0,0-.44,2.72c-1.28-.51-1.69-1.31-1-2.22C647.14,64.25,647.81,64.24,648.29,64.08Z"/><path id="Path_10693" data-name="Path 10693" class="cls-13" d="M269,79.54c3.95,4,9.06,4.95,14.34,5.37,2.05.16,4.14,0,6.16.32,5.51.91,9.21,9.86,15.22,5.37,4.25-3.18,5.78-9.82,9.08-14.52,3.93-5.58,6.13-14.31,16.5-10,2.77,1.16,4.76-1.55,5.63-4.28a6.29,6.29,0,0,1,7.45-4.54c11.83,2.27,24.3-1.53,35.66,3.55a20.75,20.75,0,0,0,10.44,1.88c4.35-.24,6.66,2.67,3.7,7.24-16.33,1.63-.65,11.05-3.85,15.87a10.59,10.59,0,0,1-2.59,1.44c-20.05,4.44-20.05,4.43-8.7,19.57-5.08,2.76-9.2.81-12.78-2.78-6.29-6.3-12.13-7.37-18.91-.23-2.75,2.9-7.12,4.76-11.09,5.9-10.21,2.92-17,6.06-21.67,11.21-7.34,10.4-17.74,7.58-27.32,5.54-6.71-1.42-12-2.38-16.43,4.39-3.64,5.54-9.07,4-14.16,1.63-15.36-7-30-15-41.53-27.91-3.23-3.64-4.65-6.71-2.72-11.18,1.68-3.9,3.69-8-.7-11.43-5.16-4-9.8-1.81-14.3,1.65-2.38,1.83-4.85,4.44-8.22,1.53a7.27,7.27,0,0,1,1.21-8.8c3.68-3.07,3.44-10.68,12.48-7.49,6.21,2.19,13.1-8.56,13-18l12.69,3.25a36.68,36.68,0,0,0,3.21,3.15h0C234.17,74.73,249.55,83.71,269,79.54Z"/><path id="Path_10694" data-name="Path 10694" class="cls-13" d="M294.44,73c-1.29,2.66-3.67,3.24-6.31,3.33,0-1,0-2.09-.05-3.14Z"/><path id="Path_10695" data-name="Path 10695" class="cls-13" d="M316.76,60.42c-2.26,3.69-6,3.09-9.44,3.2C309.57,59.92,313.31,60.59,316.76,60.42Z"/><path id="Path_10696" data-name="Path 10696" class="cls-13" d="M304,66.89c-1,1.71-2.05,1.79-3.14.07C301.92,66.89,303,66.86,304,66.89Z"/><path id="Path_10697" data-name="Path 10697" class="cls-13" d="M297.64,66.91,294.52,70Z"/><path id="Path_10698" data-name="Path 10698" class="cls-13" d="M319.93,57.35l-3.17,3.07Z"/><path id="Path_10699" data-name="Path 10699" class="cls-12" d="M230.81,57.23l-3.21-3.16Z"/><path id="Path_10700" data-name="Path 10700" class="cls-42" d="M36.78,238.62c2.56-2,2.12-4,.8-6.75-9.63-20.06-5.2-27.69,16.28-27.57,4.58,0,9.27,1.56,13.68,3.07,6.36,2.17-.11,9.09,4.08,12.28-.23.62-.46,1.23-.67,1.85A42.26,42.26,0,0,1,66,227.65c-3,2.89-4.26,6.86-6.54,10.2-3.73,3.7-7.22,8.2-13.32,4.09l-6.48,0Z"/><path id="Path_10701" data-name="Path 10701" class="cls-43" d="M20.38,232.71c.87-2.83,1-7,5.6-5.16,4.17,1.67,2.25,5,1.09,7.89C24.31,235.83,21.83,235.52,20.38,232.71Z"/><path id="Path_10702" data-name="Path 10702" class="cls-44" d="M58.89,235.57c0-4.63,0-9.23,6.37-9.55a20.22,20.22,0,0,1,6.36-6.36h0c3.34-.08,5.79-2.16,8.63-3.49,6.27-2.92,12.66-3.85,18.1,2.36,4.34,4.95,8.7,6.45,11.83-1.3,1.2-3,3.58-4.08,6.29-2.82,2.19,1,2,3.45,1.12,5.55-2.5,6.16.69,8.45,6.15,10.1,8.25,2.49,16.45,4.81,24.11-.9,7.21-5.37,11.76-1.08,16.05,3.86,3.47,4,12.44,9.5,16.86,9.85.9.07,1.72,1.12,2.86,1.92.34,6.15-8.3,1.18-8.23,6.72,12.82,10,12.82,10,22.09.51-.45,9.39,7.18,12.61,11,18.55l-3.14,0c-1.68,1.94-4.67,1.14-6.36,3.05-24,0-48.28,2-72-.77-16-1.88-34.72-1.9-45.86-18.2a13.94,13.94,0,0,0-6.47-3.93c-3.72-1-9.3.62-10.49-4.58-1.4-6.16,3.47-9.08,8.57-12C67.81,234.59,63.72,240,58.89,235.57Z"/><path id="Path_10703" data-name="Path 10703" class="cls-33" d="M58.89,235.57c6.35.12,9.76-5.63,15.12-7.59,3.24-1.18,6.27-2,8,1.65,1.52,3.23-1.63,4.39-3.69,5.79-4.38,3-11.18,3.33-12,11,4.67,3.66,15.53-3.6,14.91,8.33-12-3.24-25.8-1.73-35-12.76C51.69,242.38,54.49,237.38,58.89,235.57Z"/><path id="Path_10704" data-name="Path 10704" class="cls-33" d="M199,273.67c1.42-2.46,3.77-3,6.35-3.05C203.94,273.13,201.61,273.7,199,273.67Z"/><path id="Path_10705" data-name="Path 10705" class="cls-27" d="M663.81,213.32l3.22-3.17Z"/><path id="Path_10706" data-name="Path 10706" class="cls-1" d="M323.12,178.25c-.64-2.55-1.65-5.07-1.86-7.65-.56-6.89,2.26-11.31,9.7-11.38,4.16,0,8.31.36,12.5.56,2.62-2.24,1-4.69.4-7.16-1.6-6.48,1.23-8.93,7.54-7.9,3.1.51,6.31.78,9.25,1.8,8.46,3,15,2.47,19.31-7,2.15-4.74,6.73-5.72,12.19-3.55,5.83,2.31,12.81,2.47,18.15,4.89,8.92,4.07,14.25,8.29,15.75-6.46.69-6.86,7.54-2.06,11.69-.72,2.95,2.47,6.51,4,9.54,6.38h0c.17,3.58-1.85,6.44-3.17,9.53h0c-3.63.65-9.26-1.71-8.28,5.76.47,3.52,1.06,7.15-.75,10.71-5.23,2.57-5.68-2.83-8.1-4.9-1.71-1.48-3.78-2.12-5.72-.86-2.58,1.69-2.72,4.31-1.41,6.87,2.72,5.36,10.46,8.84,7.71,16.13-3.12,8.24-12.66,8.34-18.93,12.69a15.66,15.66,0,0,1-2.87,1.27c-1.07-1.5-2.1-2-3,.14-3.38,4.56-8.35,2.72-12.75,3.15h0c-2.91-4.8-5.49-10.28-12.76-6.4-4-5.31.84-8,3.36-11.32,3.8-7.6,14-10.83,14.12-20.87-16.24-9.08-29.85-7.77-40.72,6.26-6.35,8.2-12.54,2.75-18.84,3a11.37,11.37,0,0,1-2.19,5.09C330,178.54,326.89,180.2,323.12,178.25Z"/><path id="Path_10707" data-name="Path 10707" class="cls-45" d="M383.61,184.6c-1.93,3.32-6.83,4.65-6.38,9.55-3.22,2.71-6.8,5.11-9.6,8.21-4,4.45-8.09,4.2-12.67,1.38a15.3,15.3,0,0,1-8.83-2c-5.79-3.31-13-4.08-17.65-9.32-3.47-3.93-9.71-7.2-5.36-14.22h0l9.56-3.18q2.9-3.18,0-6.37c-2-.33-4.35-.57-4.66-3.09-.23-1.87,1.49-2.5,3.09-2.83,4.26-.87,6.67,1.57,9.12,4.62,4.07,5.07,9.38,4.65,10.46-1.4,2.18-12.18,11.17-12.82,19.83-13,10.44-.19,22.67-4,29,9.28-6,5.16-13,1.83-19.54,2.13-3.59.16-8-1.23-9.82,2.83-2.19,4.84,2.26,7.46,5.1,10.32C377.84,180.16,381.62,181.33,383.61,184.6Z"/><path id="Path_10708" data-name="Path 10708" class="cls-46" d="M323.12,178.25c3.63,8.39,8.24,15.52,18.64,16.38,3.32.27,5.42,2.91,6.86,5.88s4.38,4.11,6.35,6.4c3.83,7.15-3,7.24-6.37,9.57-6.48.67-11.18-2.19-14.71-7.4-6.54-9.65-14.87-16.32-27.74-15.34C307.3,182.47,317.16,182.56,323.12,178.25Z"/><path id="Path_10709" data-name="Path 10709" class="cls-1" d="M390,200.54c0,2.63.11,5.27-.08,7.88-.21,3,.19,7.26-4.44,6.39-4.32-.82-5.46-4.73-4.16-8.71s4.73-5.34,8.68-5.55Z"/><path id="Path_10710" data-name="Path 10710" class="cls-24" d="M444.11,149.59c.47.22.93.46,1.37.72,3.23,2.15,5.59,4.77,4,9a2.7,2.7,0,0,1-2.35,1.24c-4.69-1.86-2.32-6.12-3-9.38a7.31,7.31,0,0,1,0-1.55Z"/><path id="Path_10711" data-name="Path 10711" class="cls-47" d="M402.74,197.39c-2-.3-4.29-.53-4.94-2.8-.52-1.79,1-2.82,2.58-3,4.31-.57,5.06,2.4,5.38,5.7C404.75,197.31,403.75,197.36,402.74,197.39Z"/><path id="Path_10712" data-name="Path 10712" class="cls-23" d="M355,206.9c-3.26-1-9,.49-6.35-6.4,2.61.11,5,.7,6.35,3.24Z"/><path id="Path_10713" data-name="Path 10713" class="cls-23" d="M390.47,229.5a7,7,0,0,1-6.78,2.49C385.37,229.58,387.8,229.23,390.47,229.5Z"/><path id="Path_10714" data-name="Path 10714" class="cls-23" d="M377.38,232.47a6.47,6.47,0,0,1-6.42,2.66C372.51,232.8,374.83,232.37,377.38,232.47Z"/><path id="Path_10715" data-name="Path 10715" class="cls-48" d="M189.42,85.9c5.61-5.25,8.09-15,19.91-10.16C219.66,80,222.15,85.47,215,94.52c-.9,1.14-1.34,2.64-2.54,5.07,6.54,2.26,12.34,5,14.61,12.13,1.07,3.37,5.18,4.72,8.69,6.22,6.69,2.85,13.1,6.38,19.5,9.87,9.45,5.15,9.88,5.42,13.8-4.55,2.72-6.94,6.61-5.24,11.11-3.05,11.05,5.4,22.18,5.74,33.44.73.42,5.52-4.57,8.33-6.38,12.73,1.25,3.09-.41,6.16-2.77,6.25-11.35.42-21.63,9.6-30.65,9.15-15.91-.79-29.2,7.67-44.65,7-15.82-.65-32.56,17.17-34.32,33.78-.81,7.67-6.66,13.07-8.57,20.2-3.32-.23-7.71-1.2-7.83-4.24-.35-9.15-6.75-14.41-11.55-20.74s-5.34-12.8-2.52-20.52c3.21-8.81,1.56-10.61-6.88-10-3.13.23-6.54,2.14-8.35-1.54-2.05-4.15.88-6.89,3.94-9.3.75-.59,1.13-1.62,2-3-7.73-.86-14-4.37-20.3-8.43-6.94-4.47-5.93-9-2.69-14.61,1.87-2.54,4.1-6.14,7.37-4.39,7.82,4.19,12.75.31,17.76-4.77a17.28,17.28,0,0,1,5.24-3.41C181.41,96.68,181.41,96.68,189.42,85.9Z"/><path id="Path_10716" data-name="Path 10716" class="cls-49" d="M186.25,210.09c-.8-2-2.78-5.15-2.21-5.7,9-8.73,5.09-20.21,6.83-30.43,15.41-5.91,22.7-28.46,44.45-21.56,4.33,1.38,8.2-1.33,12-3.1,7-3.19,13.41-9.25,21.74-2.18,2.66,2.25,6.79-.1,8.49-2.35,5.94-7.86,13.27-9.68,22.27-6.84,4,1.26,5.8-1.3,7.35-4.26,7.8-1.35,13.75-7.5,22.06-8.06,4-.26,6,.56,7.33,3.89,1.6,4.06-.94,5.93-4.2,7-7.85,2.58-14.09,6.65-17.15,14.94-1.44,3.93-5.67,4-9.45,4.57-12.41,1.9-13,2.33-8.58,13.2,1.8,4.42,1.5,7-1.71,9.52-13.71,10.88-14,24.83-9.42,40a21.54,21.54,0,0,1,.71,3.06,7.88,7.88,0,0,1-.58,2.19c-4.9.76-6.87-3.68-9.31-6.36s-3.39-6.07-6.58-8.56c-10.79-8.42-11.47-21.93-.33-30.13,7.69-5.66,5.37-12,4.63-18.31-.68-5.71-6.3-4.93-10.32-4.29-4.81.77-10.93,3.8-8.71,8.8,4.58,10.27-1,9.56-7.62,9.1-1.62-.11-3.07-.19-3.78,1.35-1.7,5.48,5.58,7.92,4.12,13.26-4.7,4.13-10,1.29-15.81,1.29-1.5,4.55,2.84,8.85,1.2,13.43-1.23,3.4-1.05,6.2,3.7,6.61,3.8.33,8.09,1.33,7.82,6.07-.24,4.28-5.06,4.78-8.09,6.65-6.77-5.16-14.35-9.65-15.9-19.15-4-11-4-11-1.79-25.35-3.75,9.75-12.76,13.65-20.46,19h0c-1.13,1-2.08,2.17-3.18,3.19,0,1.06,0,2.11,0,3.17-2.25,2,.1,8.6-6.37,6.37Z"/><path id="Path_10717" data-name="Path 10717" class="cls-50" d="M622.38,143.24c0,1.93,3.65,5.19-1.35,5.3-3.73.08-7.67-6-11-1.7-4,5.17-6.65,11.64-3.58,18.67,4.83,7.81,3.65,17.12,6.34,25.46-4.91,2.87-9.71,6-14.78,8.52-2.84,1.44-6.37,1.8-8.77-.89-2.77-3.1-.18-5.34,1.66-8.06,10-14.88,8.85-21.4-6.9-37.41-1.56,6.26-2.75,11.94-4.45,17.48a4.28,4.28,0,0,1-4.9,3.11c-2.49-.51-3.1-2.55-2.75-4.79.66-4.11,1.47-8.2,2.21-12.29.81-4.42,3.43-8.73-2.44-12.36-7.24-4.47,5.91-9.5.11-15-3.68-3.51-8.77-6.55-9.34-12.3-.59-5.93,4-9.77,7.76-13,3.15-2.67,5.6.87,6.86,3.86,2.19,5.19-1.61,11.85,3.92,16.27l1.88,0a10.18,10.18,0,0,1,3.39,1.61l1.1,1.54c.21,2.1,1.24,5.6,2.62,5,7.44-3.35,13.5,7.6,20.78,1.7a13.27,13.27,0,0,1,8.58-3.4C622.87,134.2,623.43,138.53,622.38,143.24Z"/><path id="Path_10718" data-name="Path 10718" class="cls-51" d="M466.39,95.44l-3.17,0c-1.42.71-3.19,1.1-4.21,2.19-9.68,10.28-18.5,7.41-27.25-1.36-1.37-1.37-3.58-1.91-5.24-2.74.46-4.22,3.25-4.41,5.86-4.38,7.29.08,12.27-3.4,14.54-10.07,2.1-6.17,6.86-7.64,11.06-4.66,7.39,5.22,14.25,5.41,22.33,2.42,3-1.11,8-2.19,9.74,2.29,1.65,4.26-3.26,6-5.19,8.95C480.37,94.92,471.09,89.37,466.39,95.44Z"/><path id="Path_10719" data-name="Path 10719" class="cls-35" d="M612.82,191c-8.31-6.95-7.25-16.22-6.34-25.47,6.26,4.36,11.51,2.78,17.1-1.9,4.2-3.52,7.83-9,14.75-7.64.8,2.84,4.09,6,.66,8.53-5.75,4.22-9.34,9-11.24,16.28C626.11,187,616.26,185.08,612.82,191Z"/><path id="Path_10720" data-name="Path 10720" class="cls-52" d="M301.56,224.48c10.28,3.43,19.75,8.67,29.44-.51,2.24,6.45,3.19,11.41-2.41,14.88a24.57,24.57,0,0,1-22.8,1.6C299,237.67,301,231.11,301.56,224.48Z"/><path id="Path_10721" data-name="Path 10721" class="cls-51" d="M514.15,168.69c3.34-3.63,7.63-6.79,6.36-12.73,4.47-1.08,7.23-8.89,13.26-3.62,10,8.73,11.2,13.8,5.83,22.71h-3.16a41.34,41.34,0,0,0-3.2-3.15h0C527.31,168.25,519.67,174.8,514.15,168.69Z"/><path id="Path_10722" data-name="Path 10722" class="cls-53" d="M581,124.11c.52-15,1.34-16.26,10.38-15.85,3.09.13,6.59-.05,7.79,3.61,1.32,4,1.9,8.24-1.86,11.45a16.07,16.07,0,0,1-9.94,4h0c-1.66-2-4.64-1.32-6.37-3.17Z"/><path id="Path_10723" data-name="Path 10723" class="cls-54" d="M603.28,76.33a37.52,37.52,0,0,1,5.89,1.54c4.36,1.88,9.24,4.7,7.74,9.88-1.76,6.06-7,.67-10.59,1.33-2,.35-4.08-.06-6.12-.13-.05-3.14-.09-6.28-.14-9.42C599.43,76.74,600.24,75.42,603.28,76.33Z"/><path id="Path_10724" data-name="Path 10724" class="cls-55" d="M603.28,76.33l-3.22,3.2a11.67,11.67,0,0,0-2.34,2c-4.12,6.12-8.56,3.1-11.42-.54-3.14-4,1.47-6.44,4-8.72,4.49-4,8.78-1.09,13,.86C603.29,74.22,603.28,75.27,603.28,76.33Z"/><path id="Path_10725" data-name="Path 10725" class="cls-56" d="M622.38,143.24c-4.62-3.36-2.85-8.25-3-12.66l6.23-.1C627.58,135.51,632.57,141.28,622.38,143.24Z"/><path id="Path_10726" data-name="Path 10726" class="cls-57" d="M612.79,108.05l6.33.2c.9,7.22-2.57,10.08-9.48,9.51h0c-1.64-1.84-5.27-2.69-3.2-6.4Z"/><path id="Path_10727" data-name="Path 10727" class="cls-34" d="M606.45,111.36l3.2,6.4C605.59,117.13,601.68,116.41,606.45,111.36Z"/><path id="Path_10728" data-name="Path 10728" class="cls-23" d="M514.15,168.69c6.37,1,13.51-2.57,19.07,3.21-1.52.31-3.52.1-4.5,1C521.4,179.64,517,177,514.15,168.69Z"/><path id="Path_10729" data-name="Path 10729" class="cls-23" d="M532.18,179.64c2.23,1.5,7.11,1.52,5.82,6.75a3.94,3.94,0,0,1-4.57,3.18h0c-4.16-1-5.32-4.55-5.24-8.28C528.17,179.82,529.9,179,532.18,179.64Z"/><path id="Path_10730" data-name="Path 10730" class="cls-23" d="M447.29,140.05a9.7,9.7,0,0,1-9.55-6.38A9.64,9.64,0,0,1,447.29,140.05Z"/><path id="Path_10731" data-name="Path 10731" class="cls-23" d="M533.25,171.91l3.2,3.15Z"/><path id="Path_10732" data-name="Path 10732" class="cls-58" d="M673.3,159.16c-4.29-2-7.77-5.92-5.92-10,5.11-11.28-2.25-14.81-10-18.62l17.05-1.5C680.37,139.31,673.29,149.12,673.3,159.16Z"/><path id="Path_10733" data-name="Path 10733" class="cls-59" d="M705.1,149.65c.69-5,2.37-10.4,8.47-7.76,6.59,2.85,4.19,8.46,1.2,13.23-2.15-.77-4.3-1.54-6.45-2.29a18.52,18.52,0,0,0-3.19-3.19Z"/><path id="Path_10734" data-name="Path 10734" class="cls-29" d="M705.13,149.64l3.18,3.18Z"/><path id="Path_10735" data-name="Path 10735" class="cls-58" d="M657.37,130.51l-3.12-3.23Z"/><path id="Path_10736" data-name="Path 10736" class="cls-60" d="M189.42,85.9c-2.54,9-3.56,18.53-7.95,26.7-2.66,1.07-4.92.36-5.9-1.48-3.55-6.61-8.15-5.36-13-2.09a25.88,25.88,0,0,0-6,5.11c-5.14,6.44-9.72,13.4-17.22,2-1.34-2-4.79.81-7.23,1.59v-3.19c.29-7.68-6.32-8.75-11.3-11.37,8-8.53,8-8.53,23.65,1C151,92,158.56,81.05,174.8,80.81c4.76-.08,8.87-5.56,14.62-4.46Z"/><path id="Path_10737" data-name="Path 10737" class="cls-61" d="M113,149.61c-.53,1.45-.87,4.06-1.61,4.17a133.42,133.42,0,0,1-18.28,1.89c-5.76.08-8.4-3.73-8.75-9.26,9.26-5.16,18.09-6.8,25.47,3.17Z"/><path id="Path_10738" data-name="Path 10738" class="cls-33" d="M109.83,149.58c-8-4.88-16.91-2.72-25.47-3.17,3.3-5.36,6.77-10.92,14.35-8.51C104.28,139.68,111.36,140.72,109.83,149.58Z"/><path id="Path_10739" data-name="Path 10739" class="cls-62" d="M214.87,235.6l8.7,16c-2.67,3.2-5.39.47-7.52,1.05-8.34,2.29-8.3,2.52-13.46-6.36-3.47-6-11.39-7.61-14.15-15.09,4.93-4.27,9.29-.64,13.72,1.14l1.94-.2a18.6,18.6,0,0,1,7.76.95A7,7,0,0,1,214.87,235.6Z"/><path id="Path_10740" data-name="Path 10740" class="cls-63" d="M199,197.37c1.93-3.68,3.22-7.89,7.35-9.88,5-2.38,8.81-5.3,9-11.59.12-3.31,2.47-5.78,5.9-6.51,2.93-.61,6.58,1.2,4.82,3.63-7,9.63-3.2,20.52-4.85,30.7A47.77,47.77,0,0,0,199,197.37Z"/><path id="Path_10741" data-name="Path 10741" class="cls-63" d="M214.87,235.6c-1.05,0-2.11,0-3.16,0-2.54-3-7-.34-9.55-3.19h0c-3.8-7.68-5.32-16.67-12.74-22.28l6.37-6.37c9.81-.95,16.42,2.93,19.12,12.7-4.4,5.65,0,9.11,3.21,12.87C218,231.91,217.38,234.24,214.87,235.6Z"/><path id="Path_10742" data-name="Path 10742" class="cls-64" d="M218.12,229.3c-4.43-.69-9.7-1.08-10.29-6.55-.41-3.83,2.95-6.16,7.08-6.32,3.62,1.56,5.68,4.47,7,8.06S221,229,218.12,229.3Z"/><path id="Path_10743" data-name="Path 10743" class="cls-65" d="M105.42,174.8c-.52,2.79-2.5,3.28-4.66,2.92-2.67-.44-5.18-1.61-4.68-4.89.36-2.28,2.33-3.46,4.64-3.11A5.08,5.08,0,0,1,105.42,174.8Z"/><path id="Path_10744" data-name="Path 10744" class="cls-63" d="M195.8,200.56l3.17-3.2Z"/><path id="Path_10745" data-name="Path 10745" class="cls-10" d="M323.22,57.33c1,0,2.07-.09,3.1-.11C325.36,59,324.33,59.18,323.22,57.33Z"/><path id="Path_10746" data-name="Path 10746" class="cls-33" d="M71.62,219.66A11,11,0,0,1,65.26,226Q65.44,219.84,71.62,219.66Z"/><path id="Path_10747" data-name="Path 10747" class="cls-66" d="M383.6,184.6c-11.3,1.52-15.05-8-20.17-14.66-3.18-4.11,4.47-11.68,11.64-10.39,8.15,1.47,16.35,1.68,24.48,2.75,3,2.9.1,4.5-1.46,6.26C393.3,174,388.44,179.26,383.6,184.6Z"/><path id="Path_10748" data-name="Path 10748" class="cls-46" d="M332.68,168.7q4.85,3.18,0,6.36Z"/><path id="Path_10749" data-name="Path 10749" class="cls-23" d="M581,124.11c2.62.07,5,.64,6.36,3.18C584.75,127.23,582.39,126.66,581,124.11Z"/><path id="Path_10750" data-name="Path 10750" class="cls-33" d="M202.16,232.38c3.5.11,7.24-.5,9.55,3.19C208.2,235.48,204.46,236.1,202.16,232.38Z"/></g></svg>
