<svg id="Layer_1" data-name="Layer 1" xmlns="http://www.w3.org/2000/svg" viewBox="0 0 232.44 119.06"><defs><style>.cls-1{opacity:0.6;}.cls-2{fill:#ae6b7a;}.cls-3{fill:#c9aaa4;}.cls-4{fill:#c7c2ad;}.cls-5{fill:#c47992;}.cls-6{fill:#c06f8b;}.cls-7{fill:#c0778c;}.cls-8{fill:#a3596d;}.cls-9{fill:#cd99a5;}.cls-10{fill:#be6082;}.cls-11{fill:#c987a0;}.cls-12{fill:#cb879c;}.cls-13{fill:#9c576a;}.cls-14{fill:#a56371;}.cls-15{fill:#cac6af;}.cls-16{fill:#c5718f;}.cls-17{fill:#cb7996;}.cls-18{fill:#a55c75;}.cls-19{fill:#c67290;}.cls-20{fill:#bc517a;}.cls-21{fill:#be5d80;}.cls-22{fill:#ca7c98;}.cls-23{fill:#c55c86;}.cls-24{fill:#c65c86;}.cls-25{fill:#c96f8e;}.cls-26{fill:#bd537d;}.cls-27{fill:#dfdccb;}.cls-28{fill:#cf729b;}.cls-29{fill:#cb6898;}.cls-30{fill:#bf608a;}.cls-31{fill:#b56682;}.cls-32{fill:#be7590;}.cls-33{fill:#b56b85;}.cls-34{fill:#c9688f;}.cls-35{fill:#c96794;}.cls-36{fill:#d3bfb3;}.cls-37{fill:#c87b97;}.cls-38{fill:#ce7d99;}.cls-39{fill:#c96d90;}.cls-40{fill:#ac5b79;}.cls-41{fill:#a85c75;}.cls-42{fill:#a16175;}.cls-43{fill:#c35085;}.cls-44{fill:#bf517d;}.cls-45{fill:#e7d8cc;}.cls-46{fill:#be7294;}.cls-47{fill:#c3809d;}.cls-48{fill:#c67b9d;}.cls-49{fill:#d683a7;}.cls-50{fill:#d17da1;}.cls-51{fill:#cf7399;}.cls-52{fill:#c76592;}.cls-53{fill:#d377a2;}.cls-54{fill:#c76490;}.cls-55{fill:#cc7598;}.cls-56{fill:#cb799b;}.cls-57{fill:#b06884;}.cls-58{fill:#aa5f77;}.cls-59{fill:#8c4a5c;}.cls-60{fill:#d8d6c7;}.cls-61{fill:#cc80a1;}.cls-62{fill:#d07c9c;}.cls-63{fill:#cf6c9e;}.cls-64{fill:#c3568a;}.cls-65{fill:#de8bb2;}.cls-66{fill:#d885b1;}.cls-67{fill:#d38aae;}.cls-68{fill:#d07da1;}.cls-69{fill:#d78db1;}.cls-70{fill:#b46c8a;}.cls-71{fill:#ca759b;}.cls-72{fill:#e5cecc;}.cls-73{fill:#d36ba4;}.cls-74{fill:#dc93b7;}.cls-75{fill:#d791b2;}.cls-76{fill:#dd93b7;}.cls-77{fill:#d381a5;}.cls-78{fill:#d57dac;}.cls-79{fill:#ce78a3;}.cls-80{fill:#da8fb3;}.cls-81{fill:#b76f90;}.cls-82{fill:#b97295;}.cls-83{fill:#ca7299;}.cls-84{fill:#c97da3;}.cls-85{fill:#c27ea2;}.cls-86{fill:#d075a5;}.cls-87{fill:none;stroke:#4c4b4b;}.cls-88{isolation:isolate;}.cls-89{fill:#1c1c1c;}</style></defs><title>assetliste_btn</title><g id="Group_227" data-name="Group 227"><g id="Group_157" data-name="Group 157" class="cls-1"><path id="Path_10045" data-name="Path 10045" class="cls-2" d="M230.57,46.86c0-1.2-2-2.4-2.12-3.54-.34-2.56-1.8-4.54-3.41-6.42l-1.94-1.23a2,2,0,0,1-.25-.78l-.63-.63a3.07,3.07,0,0,1-.33-.82l-4.37-2.95a.88.88,0,0,0-.51-.31l-.89-.32a17.22,17.22,0,0,0-2.27-.18c-.79,0-1.57.15-2.36.24-1.27,0-2.69-1.54-3.7-.28-.78,1,.64,1.85,1.33,2.63a4.13,4.13,0,0,0,.9.56,6.56,6.56,0,0,0,2,.46c4.38-.77,7.34,1.54,10,4.59a11.62,11.62,0,0,1,1.36,1.45c.2.27.4.54.62.79a13,13,0,0,1,2.18,4.23c.36,1,1.18,1.77-.17,2.84-2.12,1.68-2.81,4.24-3.32,6.8-.13,1.06-.52,2.13.29,3.1a1.74,1.74,0,0,0,1,.37c1.78-.4.26-2.71,1.87-3.2.72-1.4-.38-3.13,1-4.5C226.82,49.75,230.56,48,230.57,46.86Z"/><path id="Path_10046" data-name="Path 10046" class="cls-3" d="M201.07,89.52l1-.27Z"/><path id="Path_10047" data-name="Path 10047" class="cls-4" d="M217.52,30.49a.79.79,0,0,1-.52-.31,2.12,2.12,0,0,1,.45.07C217.5,30.27,217.5,30.41,217.52,30.49Z"/><path id="Path_10048" data-name="Path 10048" class="cls-4" d="M222.22,34.26l-.33-.81Z"/><path id="Path_10049" data-name="Path 10049" class="cls-4" d="M223.1,35.67l-.25-.78Z"/><path id="Path_10050" data-name="Path 10050" class="cls-5" d="M196.87,21.77l.55.31c.74,1.51-1,2.27-1.2,3.28a3,3,0,0,1,3.24-1.48c.92,2,2.24,3.42,4.62,3.46,4.45,3.06-1.12,4-1.46,6.82,2.17-2.75,4.55-2.71,7.06-2.06l.63.38c.57-.18,1.08.34,1.65.15,3.69-1.32,6.49.26,9,2.77.68.68,1.31,1.43,2,2.14.12.58.78.79.9,1.37h0a20.41,20.41,0,0,1-7.54,1.31c-.75,0-1.55-.3-2,.5s.41,1.28,1,1.71a9.68,9.68,0,0,1,2.07,2.12c.4.6.93,1.74,0,1.83-2.3.22-2.13,1.8-2.4,3.32a1,1,0,0,1-1.5.62c-1.68-.72-3.67-1.06-4.18-3.26a9,9,0,0,1,0-2.59,6.54,6.54,0,0,0-1.53-5.12c-.68,1.89.59,4-1.11,5.46-.85.31-1.22-.33-1.66-.84-.94-1.71-2.8.1-3.9-1a5.82,5.82,0,0,1-1.76-1.87c-.91-1.67-1.9-2.31-3.59-.9a2,2,0,0,1-2.71.15c-1-1-.25-2.08.25-3,1-2,2.48-3.78,1.17-6.16a2.38,2.38,0,0,0-.17-.31c-.14-.24-.12-.57-.41-.72.29.2.27.56.43.84.61,2.21-.61,3.08-2.5,2.85s-2.09-1.68-2-3.33c.08-2.09,2.65-2.53,2.78-4.52a4.41,4.41,0,0,1,0-2A11.4,11.4,0,0,0,196.87,21.77Z"/><path id="Path_10051" data-name="Path 10051" class="cls-6" d="M206.32,44.85c.72-1.38.81-3.73.3-4.17-1.64-1.45-.28-1.92.47-2.36,1.1-.63,2,.19,2.35,1.11a10.1,10.1,0,0,1,.94,4.68c-.24,3.63-.22,3.63,3,5.2.21.1.4.25.65.4.8-.75,0-1.56,0-2.32,0-2.27-.05-2.26,2.4-1.27.18.07.45-.08,1.17-.24-1.6-1.1-2.2-2.85-4-3.36-1.2-.35-1.39-1.28-.76-1.93.81-.83,1.33-3,3-1.82,1.22.85,1.89,1.3,3,0,.62-.75,1.62-.45,2.45-.27s1.54.88,2.47.43a5.52,5.52,0,0,1,2.78,3.75,5.86,5.86,0,0,0,3,4.26c-3.56.19-4.46,2.4-5.32,4.54a13.44,13.44,0,0,1-1,2.76l-.4.32c-.88.5-2.12,1.13-2.78.58-4.09-3.4-6.83,1.13-10.23,1.57-.94.33-1.89.71-2.86.09-.47-1.17-.35-2.53-1.2-3.57a6.19,6.19,0,0,1-.45-.89C204.43,49.66,206.26,47.38,206.32,44.85Z"/><path id="Path_10052" data-name="Path 10052" class="cls-7" d="M209.68,32.1l-.53.52-6.05,2.73a1.36,1.36,0,0,1-1.38.22c-.6-.29-.46-.81-.33-1.28.45-1.59.38-3.62,3-3.45.59,0,.74-.52.66-1.07a2.79,2.79,0,0,0-1.31-2.14c0-.16,0-.33.07-.5a2.44,2.44,0,0,1,3.42-.47,1.19,1.19,0,0,1,.18.15,1.93,1.93,0,0,1,.7.69c.78,1.83,2.49,2.54,4.07,3.4-1.52.74-2.37-.87-3.7-1.1C208.35,30.89,209.85,31.06,209.68,32.1Z"/><path id="Path_10053" data-name="Path 10053" class="cls-8" d="M224,57.28a44.37,44.37,0,0,1-3.5,13.09c-.39.9-1.3,1.83-1.2,2.65.33,2.64-1.16,2.79-3.1,2.85-1.45,0-2.87.85-4.36.2-1.28-1.49-1.3-1.65.73-2,2.64-.44,5.12-.87,5.57-4.15,2.1-3.92,2-8.6,4.23-12.47a2.18,2.18,0,0,1,1-.56Z"/><path id="Path_10054" data-name="Path 10054" class="cls-6" d="M223.36,56.89c-.14.2-.29.4-.45.59a1.08,1.08,0,0,1-1.29-.63c-.32-1.41-.12-2.5,1.62-2.63h0C223.81,55.09,222.8,56,223.36,56.89Z"/><path id="Path_10055" data-name="Path 10055" class="cls-7" d="M212,32.63a1.57,1.57,0,0,1-1.65-.15A1.54,1.54,0,0,1,212,32.63Z"/><path id="Path_10056" data-name="Path 10056" class="cls-6" d="M223.82,38.91a1.56,1.56,0,0,1-.9-1.37A1.49,1.49,0,0,1,223.82,38.91Z"/><path id="Path_10057" data-name="Path 10057" class="cls-9" d="M207.09,81c-1.27,1.11-2.14,2.7-3.94,3.16a1.43,1.43,0,0,0-1.06,1.38,3.41,3.41,0,0,1-2,2.48c-2,1.19-4.31,1.9-4.6,4.75,0,.31-.71.65-1.14.81-3.27,1.2-6.41,3-10.11,2.27-.26-2,1.27-2.5,2.67-3,4.85-1.62,8.34-5.2,11.77-8.64,1.76-1.76,4.21-2,5.8-3.76a6.15,6.15,0,0,1,.76-.85c.62-.44,1.22-1,2-.3A1.67,1.67,0,0,0,207.09,81Z"/><path id="Path_10058" data-name="Path 10058" class="cls-10" d="M207.22,79.29a1.66,1.66,0,0,0-1.41.88,5,5,0,0,1-1.15.1c-1.6-.56-3.47-.62-4.42-2.4.41-1.51,1.56-1.32,2.69-1.18a3,3,0,0,0,4-1c1.69-1.35,1.1-3.78,2.5-5.27a2.55,2.55,0,0,1,3.6-.26,3.82,3.82,0,0,0,4.1.34,2.09,2.09,0,0,1,1.5.06c.22,2.55-1.28,3.69-3.5,4.13-1.17.23-2.43.11-3.55.45-.76.23,0,.66.23,1A5.24,5.24,0,0,0,207.22,79.29Z"/><path id="Path_10059" data-name="Path 10059" class="cls-11" d="M157.26,98.65c-1-.74-2.24.51-3.3-.22,1.23-3.47,4.57-1.87,6.83-2.85a20.89,20.89,0,0,1,3.16.32,2.84,2.84,0,0,1,1.65,1.27c0,.18.08.35.11.53l-1.42.87Z"/><path id="Path_10060" data-name="Path 10060" class="cls-12" d="M205.43,80.82c-.81,2.38-3.52,1.4-4.93,2.79s-1.72,3.7-4.08,4.06a3.46,3.46,0,0,0-2.28,1.75,10.69,10.69,0,0,1-6.32,4.13c-1.45.4-2.93.66-3.61,2.25h0c-.34,0-.66.2-1,.26-2.27,1.34-4.69.26-7,.4a73.41,73.41,0,0,0-10.44,1.23l0-.09c.15-2.22,2.11-2.08,3.5-2.62,2.89-1.14,5.84-1.92,9-1.32,4.32.52,6.6-.62,8.58-4.45,1.74-3.35,3.9-6,8.2-5.34a3.61,3.61,0,0,0,3.43-1.68,4.75,4.75,0,0,1,.75-.59,8.26,8.26,0,0,1,1.68-.55c.25-.09.51-.16.77-.24s.5-.15.75-.21l.37-.1c.25-.07.5-.12.75-.18l.38-.08a2.83,2.83,0,0,1,.77,0l.38.06A.69.69,0,0,1,205.43,80.82Z"/><path id="Path_10061" data-name="Path 10061" class="cls-9" d="M183.19,96.07l1-.26Z"/><path id="Path_10062" data-name="Path 10062" class="cls-7" d="M203.69,27.63c-1.32,1.16-2.89-1.25-4.23.26,0,0-.41-.69-.12-.9,1.12-.83.34-1.78.26-2.68a.9.9,0,0,1,1.08-.3c1.28,1.32,2.94,1.13,4.55,1.16.43,1.41-1.68,1.2-1.54,2.43Z"/><path id="Path_10063" data-name="Path 10063" class="cls-13" d="M200.69,24l-1.09.3-4.14,1.42,2-3.65h.06l1-.16C199.44,22.34,200.46,22.75,200.69,24Z"/><path id="Path_10064" data-name="Path 10064" class="cls-14" d="M203.69,27.6c-.47-.37-1-.79-.15-1.25a4.57,4.57,0,0,0,1.7-1.18l0,0a1.7,1.7,0,0,1,1.9,1.05l.6.43a.52.52,0,0,1-.3.65A3.63,3.63,0,0,0,203.69,27.6Z"/><path id="Path_10065" data-name="Path 10065" class="cls-7" d="M207.17,26.2l-1.91-1.05C206.37,24.64,207,25.06,207.17,26.2Z"/><path id="Path_10066" data-name="Path 10066" class="cls-5" d="M198.45,21.91l-1,.16Z"/><path id="Path_10067" data-name="Path 10067" class="cls-15" d="M207.47,27.28c.09-.22.19-.44.3-.65l.3.87A5.31,5.31,0,0,1,207.47,27.28Z"/><path id="Path_10068" data-name="Path 10068" class="cls-15" d="M211.6,28.91l1-.24Z"/><path id="Path_10069" data-name="Path 10069" class="cls-16" d="M193.58,25.85c.9,1.39,0,2.12-1.11,2.49a2.79,2.79,0,0,0-1.92,2.41c-.24,1.08-.08,2,1.06,2.41a1.66,1.66,0,0,0,2.19-.85,1.93,1.93,0,0,0,.11-.34,7.91,7.91,0,0,0,.2-1.45h0c2.74,2.43,2.7,2.45,1.25,5.16-.72,1.35-2.73,3-1.8,4,1.13,1.22,2.49-1.18,4-1.48.24,0,.47-.12.87-.22.55,1.87,2.48,2.87,3.07,4.78a7.22,7.22,0,0,0,0,2.74c.09.85-.67,1.82,0,2.51,3.39,3.67.47,7.77,1.42,12.13.7.3,2.27-1.32,3.43,0,0,2.15.5,4.9-1.49,6-2.52,1.34-3.9-1.7-5.81-2.8a15.63,15.63,0,0,0-10.6-5.94c-2.3-.28-3.59-2-4.29-4-.31-.9-.44-1.66-1.56-1.63a.52.52,0,0,0-.51.45c-.2,1.13.65,1.47,1.44,1.83,2,.91,2.55,2.5,2.28,4.56-.3,2.21-1.33,3.67-3.71,3.88-1.09-.3-1.27-1.11-1.15-2.08s2.4-2.37-.49-2.86a2.6,2.6,0,0,1-.74-.66c-.56-1-.75-2.16-1.7-2.92-2.51-2.27-3.56-5-2.5-8.34.83-2.6-1-4.46-1.85-6.58-.66-1.71-2-3.2-1.1-6.16-1.95,3.28-4.17,4.59-6.86,3.36-2.27-1-1.46-3.36-1.09-5.37-.64,2.21-1.7,4-3.93,4.7-2,.63-4,1.42-6.16,1a2.28,2.28,0,0,1-1.88-2.05c-.32-1.94-4-6.37-5.76-7A5.14,5.14,0,0,0,145,27.3c-2.11-.2-4.16-.69-4.27,2.72,0,1.6-2.13,1.9-3.24,1.14-1.73-1.2-3.72-.86-5.5-1.53a2.44,2.44,0,0,1,.39-2,4,4,0,0,1,.7-.78,7.39,7.39,0,0,1,1.8-.95,3.79,3.79,0,0,1,1,0c2.56-.09,3.62-3.16,6.23-3.15,3-.11,5.71-.22,8.34,2.29,2.34,2.24,5.32,1.33,8-1.21,1.09-.48,2.13-1.16,3.41-.89,5.34,0,10.67.34,16,.37a16.28,16.28,0,0,1,8.46,2.14C189.09,27.19,191.15,26.55,193.58,25.85Z"/><path id="Path_10070" data-name="Path 10070" class="cls-17" d="M205.76,60.16a13.77,13.77,0,0,1-1.37.46c-1.15.25-2.29,1.7-3.36.78-1.27-1.1.79-2,.77-3.16,0-.66.79-1.42.38-2.07-1.3-2.08-.75-4,.67-5.56a5.89,5.89,0,0,0-.79-.71c-2.68-1.48-2.68-1.48-1.26-4.09a2.2,2.2,0,0,0,.15-.72c1.9.55,2.76-1.7,4.48-1.65l.89,1.41c1,.73,1.5,1.49.64,2.73-1,1.47-1,3.21-.93,4.92-.83.25-.49,1.35-1.21,1.67.73-.32.49-1.34,1.21-1.67,1.34,1.11,2.3,2.32,1,4.09a2.85,2.85,0,0,1-.12,2C206.68,59.2,206.47,59.87,205.76,60.16Z"/><path id="Path_10071" data-name="Path 10071" class="cls-18" d="M193.59,25.85c-1.33,2.15-3.19,2-5.18,1.18-4.91-2.11-9.9-3.56-15.37-2.78-1.27.18-2.65-.62-4-.64a18.76,18.76,0,0,0-7.47,1.52c-.39-.82.08-1.32.28-1.87,2.12-1.84,4.75-1.6,7.28-1.76,2.75,1.67,5.81.81,8.73,1,3.7.27,7.18.89,10.29,3.23,1.68,1.27,3.15-.33,4.51-1.31A1.59,1.59,0,0,1,193.59,25.85Z"/><path id="Path_10072" data-name="Path 10072" class="cls-6" d="M205.43,43.44a5.68,5.68,0,0,0-1,1c-1.32,2.26-1.3,2.27-3.47.63-.79-1-.51-1.72.52-2.3a2.69,2.69,0,0,0,2-.57C205.24,40.84,205.43,42,205.43,43.44Z"/><path id="Path_10073" data-name="Path 10073" class="cls-16" d="M194.11,30.52l-.66-.72c.8-.3.58.35.67.72Z"/><path id="Path_10074" data-name="Path 10074" class="cls-19" d="M217.59,70.79c-2.67,1.83-2.8,2-5,0-1-.92-1.78-.32-2.68-.31-1.46-1,0-1.93.2-2.83.46-2,2.05-3.63,2-5.83.09-.83.32-1.63.42-2.45.12-1.1-.73-1.25-1.49-1.48a1.9,1.9,0,0,1-1.28-1.48,44.09,44.09,0,0,1,7.56-4.23c.35,0,1,0,1,.18.78,3,3.2,1.49,4.93,1.82-1.15.47-1,1.7-1.52,2.54-.15.08-.3.16-.44.25-3-.06-2.89,1.79-2.37,3.87C219.83,64.37,218.46,67.54,217.59,70.79Z"/><path id="Path_10075" data-name="Path 10075" class="cls-20" d="M209.74,56.45l1.91,1.17c1.37-.14,1.45.82,1.52,1.79.43.91-.12,1.59-.53,2.3-1,1.37-2,3-4,2.33-1.69-.58-2.17-2.1-2.11-3.83a4.55,4.55,0,0,0-.57-1.71l1.12-1.91C208,56.58,208.81,55.8,209.74,56.45Z"/><path id="Path_10076" data-name="Path 10076" class="cls-21" d="M217.59,70.79c.43-1.6-1.07-3.62-.12-4.6,1.73-1.78.37-3.64.91-5.35.21-2.1,2.23-2.71,3.33-4.08h0l1.2.72c-1.61,4.28-1.54,9.13-4.28,13.05Z"/><path id="Path_10077" data-name="Path 10077" class="cls-22" d="M205.43,80.82l-.63-.38a.44.44,0,0,1,.2-.56l.16,0,.65.33Z"/><path id="Path_10078" data-name="Path 10078" class="cls-23" d="M205.93,58.51c.94.61.92,1.63,1.22,2.57.9,2.78,2,3,4.2.76a1,1,0,0,1,1.29-.12,2.3,2.3,0,0,1,.07,2.71c-1.26,1.88-1.77,4.1-2.78,6.08l-1,4.14A1.49,1.49,0,0,1,207.48,76c-2.6-2.21-1.88-4.76-.78-7.34-3.16.29-6.13,1.62-9.47.8-2-.48-1,1.31-.87,2.28-3.09,1.37-3.8,4.36-4.84,7.12a10.75,10.75,0,0,1-.43,2,2.69,2.69,0,0,1-.63.83c-.77.45-1.54,1-2.33,0,.22-2.54-1.52-4.39-2.26-6.62,1.48,2.77.43,5.63.39,8.45-2.2,3.12-2.44,2.92-4.58,0-1.78-2.47-3.26-4.7-2.2-7.83A4.18,4.18,0,0,1,182.16,72c4.36-1.58,6.24-4.74,7-9.09.32-1.81,2.37-1.69,3.26-.69,1.71,1.94,3,2.31,4.7.15.51-.65,1.39.17,2.1,0,1.68.64,2.42,2.42,4,3.22.87.45,2.31.17,1.85-.55-1.21-1.92.42-2.8.84-4.1.07-.2-.08-.47-.13-.71Z"/><path id="Path_10079" data-name="Path 10079" class="cls-24" d="M190.76,80.65A1.58,1.58,0,0,1,190.9,79c.19-2.2,2-2.68,3.6-3.09a18.29,18.29,0,0,0,7.14-3.54,1.82,1.82,0,0,1,1.14.26c1.35,1.61,2.77,3.22.24,5a2.25,2.25,0,0,0-2.68.13C198.79,80.24,194.2,81.62,190.76,80.65Z"/><path id="Path_10080" data-name="Path 10080" class="cls-25" d="M190.76,80.65c3.14-1.15,6.74-.76,9.58-2.9,1.48,1,3.47.83,4.83,2.09q-.19.3-.36.6h0l-1,.25h0l-1,.25h-.05c-.33.07-.65.15-1,.24h0a4.89,4.89,0,0,1-2,.5h0c-1.24,1.65-2.83,2.81-4.86,1.8s-4.1,1.35-6.13,0a3.1,3.1,0,0,1,1.69-2.22l.38-.64Z"/><path id="Path_10081" data-name="Path 10081" class="cls-26" d="M203,77.62c1.43-1.78-.08-3.18-.62-4.71,1.08-2.36,2.47-4.35,5.37-4.58.3-.08.62.1.52.31-1.43,2.88-1.49,3.3-.8,7.35C205.67,78.66,205.67,78.66,203,77.62Z"/><path id="Path_10082" data-name="Path 10082" class="cls-27" d="M106.05,117.25c.1-.06.26-.18.28-.16C106.51,117.26,106.4,117.32,106.05,117.25Z"/><path id="Path_10083" data-name="Path 10083" class="cls-28" d="M121.43,100.44a35,35,0,0,1-12.72.9,1.43,1.43,0,0,1-.47-1.44c2.49-1.65,4.86-3.4,4.8-6.58-1.26,3.14-6.86,4.59-9.38,2.22-1.44-1.36-5.93,0-7.14,2.26-.42.76-.29,1.72-.84,2.43a1.9,1.9,0,0,1-2.51-.61c-.24-2.64,1.54-5.1.26-8-.55-1.23,1.38-2.1,2.85-1.87a41,41,0,0,1,5,.88c2.66,1,5.31-.25,8-.1,1.32.08,1.81-1.81,2.52-2.93s1.14-2.4,2.67-2.1c1.33.25,1.83,1.52,2.3,2.67.79,2,.29,3.87,0,5.92,1.36-3.82,3.07-7.16,7.86-6.92,1.89-1,4.07-.77,6-2.12a3.13,3.13,0,0,1,4.31,1,3.64,3.64,0,0,1,.3.63c.94,2.28,2.9,4.47,1.18,7.2-.41.46-1,1.15-1.44,1-3-.68-4.62,1.26-6.38,3.08-.58.6-1.33.43-1.93-.18.23-2-1.07-2.33-2.61-2.48-1.76-.16-3.73-.23-4.6,1.47s1.85,1.68,2,3.07Z"/><path id="Path_10084" data-name="Path 10084" class="cls-29" d="M95.77,99.74c-.54-1.6-.09-4.17,1.12-4.28,2.15-.18,3.49-2.15,5.67-2,1.2.06,2.34-.05,2.09,1.67-.2,1.38.61,1.4,1.58,1.22,1.77-.34,3-2.18,5.15-1.64.47.12.72-.59.87-1.05a8.13,8.13,0,0,1,.53-1.76c.38-.66.66-1.9,1.8-1.17.71.45.27,1.17,0,1.92-.84,2.09-2.25,4.06-2,6.54-1.37-.11-3-.4-4.12,1.19-1.44.85-2.93-.08-4.39.09l-6-.16C97.2,100.58,96.27,101.09,95.77,99.74Z"/><path id="Path_10085" data-name="Path 10085" class="cls-30" d="M161.11,96.62c-2.47.29-5.06,0-7.15,1.8-1.44.91-2.9.41-4.36.09a1.45,1.45,0,0,1,.12-1.1c3.08-2.22,7.05-2.71,9.95-5.45a2.68,2.68,0,0,1,4.54,1.18C165.29,96.13,162.43,95.71,161.11,96.62Z"/><path id="Path_10086" data-name="Path 10086" class="cls-31" d="M150,97.75l-.4.75c-2.1,1.29-4.5.82-6.71.89-4.14.15-8.29.33-12.43.49l-.9.17a1.83,1.83,0,0,1-1.77-.09.54.54,0,0,1-.6-.15c-.13-.17-.18-.28-.14-.34a1.15,1.15,0,0,1,.64-.77c5.91-2.49,12.18-1.41,18.3-1.75,1.14.17,2.3-.27,3.43.07A1,1,0,0,1,150,97.75Z"/><path id="Path_10087" data-name="Path 10087" class="cls-32" d="M94.59,101.6c-4.2-.69-8.33-1.85-12.64-1.69a4,4,0,0,1-2.47-.54A1.33,1.33,0,0,1,80,97.94c1.15-.71,2.41-.24,3.62-.35,2.77-.4,5.37.65,8.06,1,.68,0,1.1.78,1.84.69.71.4,1.39,1,2.29.51l2.31.53C97.29,101.72,95.76,101.19,94.59,101.6Z"/><path id="Path_10088" data-name="Path 10088" class="cls-33" d="M104.05,100.44c1.43-1.63,2.93-.22,4.39-.1l.27,1C107.1,101.34,105.3,102.29,104.05,100.44Z"/><path id="Path_10089" data-name="Path 10089" class="cls-28" d="M125.13,100.15a2.51,2.51,0,0,1-2.71.06c-.1-.14-.2-.29-.31-.43-.21-.94-.07-1.78,1-1.89s1.64.78,2,1.73C125.14,99.79,125.13,100,125.13,100.15Z"/><path id="Path_10090" data-name="Path 10090" class="cls-28" d="M126.77,100.19a1.61,1.61,0,0,1-1.63,0l0-.13c.34-.89.9-.69,1.49-.28Z"/><path id="Path_10091" data-name="Path 10091" class="cls-28" d="M122.43,100.21l-1,.23v-.08c.21-.55.53-.63,1-.23Z"/><path id="Path_10092" data-name="Path 10092" class="cls-28" d="M127.14,99.6l.64.37-1,.22,0-.06a.41.41,0,0,1,.28-.51Z"/><path id="Path_10093" data-name="Path 10093" class="cls-28" d="M129.55,100.05l.9-.17Z"/><path id="Path_10094" data-name="Path 10094" class="cls-34" d="M190.38,81.28l-1.54,2.55c-.54.64-1.38,1.09-1.46,2-.54,5.73-4,8.24-9.42,8.77-1.43-.89-2.93-.21-4.25.08-2.78.61-5.66,1.09-8,2.89l-1.89-1.1c.77-1.68,1.19-3.26-.11-5A10.09,10.09,0,0,1,162,85.17c0-1-.09-1.71-1.25-1.81-1.57-.32-1.9-1.34-1.56-2.73.25-1,.88-2.15,1.9-1.82,3.68,1.2,5.23-1.46,7.14-3.58a6,6,0,0,1,6.21,2.2c1.8,2.51,2.82,1.45,4.09-.22.37-.53.62-1.18,1.31-1.44.51.2,1.56.29,1,1-1.74,2.35-.95,3.75,1.43,4.81A1.44,1.44,0,0,1,183,83.5c-.15.6-.26,1.34.39,1.61.82.35,1.35-.3,1.78-.93.27-.41.51-.84.77-1.26a.83.83,0,0,1,.12-.76,2.7,2.7,0,0,1,1.12-.5,1.75,1.75,0,0,1,1.19.14Z"/><path id="Path_10095" data-name="Path 10095" class="cls-35" d="M161.54,83c1.17-1.32,1.5-.17,1.42.65a13.94,13.94,0,0,0,.38,5,9.66,9.66,0,0,0,1.13,2.69c1.68,2.65,1.67,2.65-.68,5.17l-2.68.1a4.68,4.68,0,0,1,.76-.78c2-1.3,2-1.3.71-3.72-1.9.35-3.86.5-4.81,2.68-.44,1-1.72.78-2.57,1.23-1.63.87-3.61.74-5.2,1.73l-.62-.37c-1.38-1.33-2.13.05-3.06.7-1.3-.65-2.6-.25-3.94-.17-4.94.3-9.92,0-14.81,1.06-.54.23-1.19.44-1.53-.11s0-1.06.63-1.32c.71.32,1.63.49,1.8-.4.3-1.74,2.19-1.75,2.9-3,.24-.44.79-.72,1.17-.24,1.34,1.71,2.3-.23,3.45-.3a2.12,2.12,0,0,0,1.68-1.26c1.11-2.19,2.62-2.47,4.37-.69s3.31,1.4,4.46-.61a3.71,3.71,0,0,1,4-1.93c6.23.63,7.34,0,9.92-5.23A1.57,1.57,0,0,1,161.54,83Z"/><path id="Path_10096" data-name="Path 10096" class="cls-22" d="M178,94.63a14.51,14.51,0,0,1,2.25-1.25c4.7-1.65,5.78-3.26,5.78-8.16,0-2,1.4-1.94,2.85-1.39,1.82-1.6,3.56-2.33,6.12-1.09,2,1,2.45.47,4.72-1-1.1,2.34-2.57,3.63-5.53,3.1-3.52-.65-5.17,2-6.44,4.72C185.75,93.72,182.73,95.37,178,94.63Z"/><path id="Path_10097" data-name="Path 10097" class="cls-22" d="M199.7,81.7a2.53,2.53,0,0,1,2-.5,1.34,1.34,0,0,1-1.8.63A1,1,0,0,1,199.7,81.7Z"/><path id="Path_10098" data-name="Path 10098" class="cls-22" d="M201.75,81.2l1-.24Z"/><path id="Path_10099" data-name="Path 10099" class="cls-22" d="M202.78,80.94l1-.24Z"/><path id="Path_10100" data-name="Path 10100" class="cls-22" d="M203.78,80.69l1-.25Z"/><path id="Path_10101" data-name="Path 10101" class="cls-36" d="M164.8,21.49l-1,.25Z"/><path id="Path_10102" data-name="Path 10102" class="cls-37" d="M181.38,60.21a2.62,2.62,0,0,0,.51,2c1.6,1.58.09,2.64-.7,3.72a7.67,7.67,0,0,1-2.95,2.76c-.87.16-1.35.36-1.43,1.58-.19,2.62-2.38,3.64-4.56,4.16a3,3,0,0,1-3.59-4.13,11,11,0,0,0,.78-2.87c-1-.43-1.46.77-2.29.74A11.42,11.42,0,0,0,157.24,65a2.85,2.85,0,0,0-2.78,2.82,2.16,2.16,0,0,1-2.53-.09c-2.26-1.89-2.06-3.65.6-4.75,2.09-.87,3.34-2.8,5.5-3.66,1.2-.49.73-2.68.08-4-1.29-2.63-4.42-4.72-2.28-8.28.16-.27,0-.1-.18-.22-4.45-2.25-6.26-3.86-8.15-7.27a7.31,7.31,0,0,0,3.6,4.6c1.35.85,1,2.79,1.52,2.91,2.13.47,1.6,2.33,2.16,3.5a2.59,2.59,0,0,1-.66,3.37c-1.16.79-2.36.45-3.42-.7.9,2.16.48,3.83-1.29,5a3.28,3.28,0,0,1-4.14-.27,4.39,4.39,0,0,1-1.19-5.09c.68-2.1,1.45-4.16.9-6.45-1.3.06-1.21,1.19-1.64,1.83a2.87,2.87,0,0,1-3.54,1.24A2.34,2.34,0,0,1,138,46.71h0s0-.05,0-.07A3.11,3.11,0,0,0,136.37,43a3.13,3.13,0,0,1-1.26-3.63,5.18,5.18,0,0,0-.21-4.4c-1-2,1.27-1.62,2.47-1.5,4.54.47,5.22,0,6-4.21.28-.77,1.1-1.17,1.39-1.94l.26-.4c2.25-.8,4.89.2,5.5,2.07.75,2.31.75,2.31,3,1.43,1-.41,1.32.25,1.36,1.07s-.71,1.22-1.13,1.8c-.93,1.29-.36,2.85,1,2.61,2.89-.51,6.2-.13,8.12-3.26.41-.66.88-1.12.6-1.94-.16-.48-.84-1.21.42-1.22.78,0,1.48.17,1.69,1.09a2.84,2.84,0,0,1-.35,1.78,2.67,2.67,0,0,0,.6,3.35c.79.65,3.5-.32,4.4-1.39a7.09,7.09,0,0,1,4-2.8c-1.71,2.68-1.53,4.62.2,6.73,1.2,1.46,1.63,3.56,2.41,5.36a1.91,1.91,0,0,1,.06,1.71c-1.6,3.82-1.1,5.44,2.39,8.4a5.94,5.94,0,0,0,.75,3.06h0C180.05,58.07,181.3,58.91,181.38,60.21Z"/><path id="Path_10103" data-name="Path 10103" class="cls-38" d="M143.85,28.83c.67,1.54.91,2.94-.54,4.31s-2.8,2.29-4.93,1.63c-1-.31-1.93-1.28-3.15-.62-.2.91.5,1,1.05,1.06,1.52.33,1.82.86.84,2.29-2.38,3.46-1.69,4.88,2.6,5.83.3,1.1-.74,1.78-.86,2.75s-.43,2.27,1.1,2.73,2.58-.11,3-1.8c.19-.77-.36-1.73.85-2.18,1.41-.51,2.79.14,2.52,1.53-.41,2.14,0,4.38-1.24,6.45-1.11,1.8-.36,4.23,1,4.86A2.84,2.84,0,0,0,150,56.62a2.91,2.91,0,0,0,.37-1.41c.13-1.19-.48-2.5.93-3.79.09,1.22.24,2.47,1.8,2.14.36-.08.87-.06.92-.45.1-.72,0-1.47.06-2.18.16-1.16-2-1.58-.9-3a.7.7,0,0,0-1,.15,2.23,2.23,0,0,1-3,.14c.18-1.76,2.23-.88,2.85-2.37-2.9-1.39-4.56-4.07-6.3-6.67a1.06,1.06,0,0,1,0-1.36c.42-.48.92-.25,1.34,0s1.07.53,1.14.89c.7,3.73,4.93,4.78,5.66,8.12,2,.06,1.3-2,2.48-2.25a1.62,1.62,0,0,1,1,0,.62.62,0,0,1,.24.84h0a1.47,1.47,0,0,1-.1.13c-3,3-1.82,5.66.73,8,2.14,2,.65,4.66,1.76,6.82.32.64-.73,1.18-1.48.45s-1.4-.84-1.8,0c-.9,1.86-2.68,2.57-4.31,3.21-2.31.91-1.46,1.76-.34,2.85.3,2.1-.74,3.6-2.19,4.91-1.66.67-3.53-.37-5.18.58-1.31-2.31-4.14-1.57-6-2.94-.94-.7-1.85.85-2.66,1.55s-1.5,1.93-2.8,1.29-.47-2-.6-3,.47-2.17-.1-3.54c-1.29,1-.65,2-.57,3a5,5,0,0,1-5,5h-.15c-.37,0-1,0-1.06-.2-1.16-3.45-2.82.18-4.17-.32a2.92,2.92,0,0,1-.94-.45c-2-3-1.78-5,1.36-6,3.8-1.3,5.65-5,9.21-6.62,1.65-.75,1.59-3.2.09-4.83-.65-.71-2-1-2.08-2-.43-3.95-1.31-4.72-4.13-1.2-1.56,1.95-3,.72-3.66-1.38-1-5.44,3.54-6.91,6.77-9.31.83-.76,2.16-.6,2.94-1.63-1.84-1.12-5.57.78-5.45-3.28.08-3,1.11-5.45,3.93-5.63.23,0-.25,0-.73-.23a2.74,2.74,0,0,1-1.42-2.19c1.12-.42,2.14.5,3.24.25a1.07,1.07,0,0,1,1.29.76h0v0c1.93-.5,3.9-1.65,5.39,1,.29.5,1.63.48,2.39-.11s.22-1.08,0-1.65c-.63-1.85.26-2.38,2-2.48a4.49,4.49,0,0,1,3.13.67h0C145,27.76,144.23,28.19,143.85,28.83Z"/><path id="Path_10104" data-name="Path 10104" class="cls-39" d="M177.41,68.24c2.61-2,4.08-4,4.48-6,2.56-1,3.31-3,3.08-5.58-.09-1-.53-2-1.45-1.75-3,.85-2.47-1.38-2.79-2.91a1.87,1.87,0,0,1,.33-2l4.55,1.48c-1.08,2.78.14,4.77,3.26,5.16a22.68,22.68,0,0,1,4.22.91c2.71.86,4.28,2.92,6.15,4.72-.81.43-1.84.21-2.44,1.36-1,1.92-2.91,1.87-4.22,0-.34-.49-.38-1.21-1.12-1.25s-2-.45-1.57,1.12,1,3.1-1.47,3.51c-.69.12-.8,1-.65,1.56.6,2.08-.87,2.81-2.28,3-2.77.35-4.36,2-5.68,4.18l-.14,1.65c-.54.11-1.18,0-1.22-.53a25.6,25.6,0,0,0-1.62-8.29C176.78,68.49,177.15,68.3,177.41,68.24Z"/><path id="Path_10105" data-name="Path 10105" class="cls-40" d="M158.23,22.6l.62,1.47c-.94,1.2-1.1,3.46-3.11,3.23-2.48-.28-5.25-.15-7.15-2.28-.88-1-1.24-2.36-3.12-1.1-.73.49-2.32-.3-3.51-.52a.84.84,0,0,1,0-.84,1.29,1.29,0,0,1,.73-.48h0a7.34,7.34,0,0,0,1-.31h0a2,2,0,0,0,1-.31c1.67-.94,3-.79,3.86,1.11a4.55,4.55,0,0,0,3,2.89c3.1.77,3.27.71,3.81-2.7A3.45,3.45,0,0,1,158.23,22.6Z"/><path id="Path_10106" data-name="Path 10106" class="cls-41" d="M142.34,22.69l-.38.71a13.48,13.48,0,0,0-4.17,3.25c-.48.57-1.53,1.57-2.11-.15-.09-.36.06-.55.44-.55,1.46-1.84,3-3.52,5.58-3.67a.46.46,0,0,1,.53.12C142.34,22.55,142.37,22.64,142.34,22.69Z"/><path id="Path_10107" data-name="Path 10107" class="cls-39" d="M181.38,60.21c-1.38-.78-2.78-1.55-1.39-3.45,1,.75,2.06.14,3.27-.13C183.18,58.22,182.89,59.51,181.38,60.21Z"/><path id="Path_10108" data-name="Path 10108" class="cls-42" d="M132.09,29.51l-1.29-.78c.51-.7.92-1.52,1.94-1.6a.66.66,0,0,1,.58.43Z"/><path id="Path_10109" data-name="Path 10109" class="cls-39" d="M180,56.75a2.09,2.09,0,0,1-.89-2.83,1.76,1.76,0,0,1,.14-.23A4.67,4.67,0,0,1,180,56.75Z"/><path id="Path_10110" data-name="Path 10110" class="cls-38" d="M133.32,27.56a2.19,2.19,0,0,1-.58-.43l.88-.06Z"/><path id="Path_10111" data-name="Path 10111" class="cls-38" d="M136.11,26a4.61,4.61,0,0,1-.44.55l-.52-.31A.83.83,0,0,1,136.11,26Z"/><path id="Path_10112" data-name="Path 10112" class="cls-6" d="M206,52.5a10.62,10.62,0,0,1-1.42,4.62C204.07,54.76,203.84,53.23,206,52.5Z"/><path id="Path_10113" data-name="Path 10113" class="cls-6" d="M221.71,56.76c.48,2.66-2.32,2.64-3.33,4.07-1.44-1.09-.36-2.68-.76-4-.16-.55.63-.92,1.32-.76C219.86,56.28,220.79,56.52,221.71,56.76Z"/><path id="Path_10114" data-name="Path 10114" class="cls-6" d="M213.18,59.41l-1.53-1.79c.63-.34,1.34-.84,1.94-.15S213.44,58.78,213.18,59.41Z"/><path id="Path_10115" data-name="Path 10115" class="cls-43" d="M207.77,68.33c-2.22,1-3.18,3.51-5.37,4.58l-.64-.39c-2.32,2.92-3.94.85-5.62-.79-.78-.54-2-1-1.55-2.14a2.14,2.14,0,0,1,2.7-1.31,9.42,9.42,0,0,0,8-.68,1.64,1.64,0,0,1,2.28.4A1.74,1.74,0,0,1,207.77,68.33Z"/><path id="Path_10116" data-name="Path 10116" class="cls-44" d="M196.14,71.74a1.53,1.53,0,0,1,2,.44c1.11,2,2.36.9,3.63.35-1.09,2.5-3.22,3.5-5.72,3.91-2,.33-3.84.87-5.14,2.54-.38-.69-.46-1.81-.07-2.07,2.14-1.4,1.48-3.65,1.73-5.26C194,70.21,194.79,73.56,196.14,71.74Z"/><path id="Path_10117" data-name="Path 10117" class="cls-44" d="M188.34,81.8l-1,.25-1,.25c-.12.21-.26.42-.39.62-.9-1.4-.36-2.81-.12-4.26.28-1.71.09-3.26-2.33-3.56,1.29-.75,2.64-.86,4-1.85.18,2-.47,3.55,1.34,4.8C189.76,78.76,188.68,80.53,188.34,81.8Z"/><path id="Path_10118" data-name="Path 10118" class="cls-45" d="M74.35,100.68l1-.24Z"/><path id="Path_10119" data-name="Path 10119" class="cls-45" d="M75.37,100.43l1-.24Z"/><path id="Path_10120" data-name="Path 10120" class="cls-46" d="M80.2,98.17l-.72,1.2c-.9.08-1.8-.32-2.69.08A170.55,170.55,0,0,1,54,93.79c-2.67-.84-4.4-3.05-6.77-4.31a.84.84,0,0,1,.53-.91c2-.46,3.12,1.2,4.58,2a13.63,13.63,0,0,0,4,1.75c1.4.4,2.81.8,4.19,1.27,3.63.08,7,1.85,10.6,1.93a7.78,7.78,0,0,1,1.55.5C74.92,97.72,78,96.3,80.2,98.17Z"/><path id="Path_10121" data-name="Path 10121" class="cls-47" d="M47.57,88.86l-.36.62C43,88.07,38.7,87.16,34.52,85.67a46.87,46.87,0,0,1-9.38-4.25c1.08-1.7,2.48-.34,3.74-.42,5.24,1.67,10.28,3.93,15.68,5.13a6.32,6.32,0,0,1,2.54,1.62A2.05,2.05,0,0,1,47.57,88.86Z"/><path id="Path_10122" data-name="Path 10122" class="cls-48" d="M28.47,81.65c-1.16.69-2.16-1-3.33-.23h0c-1.14.2-2.21-.28-3.33-.29a16,16,0,0,1-5.22-1.38,2.52,2.52,0,0,1-2.19-.67A1.76,1.76,0,0,1,14,78c1.31-1.4,2.71-.27,4-.07,2,.3,4,1,6,.85C26,79.06,27.78,79.49,28.47,81.65Z"/><path id="Path_10123" data-name="Path 10123" class="cls-47" d="M21.83,81.13a3.9,3.9,0,0,1,3.33.29A2.58,2.58,0,0,1,21.83,81.13Z"/><path id="Path_10124" data-name="Path 10124" class="cls-49" d="M93.48,99.23a1.58,1.58,0,0,1-1.65-.11c-3.32-2.73-6.58-4.89-11.43-4.44-3.3.31-6.82-.23-10.26-.24a2.49,2.49,0,0,1-.57-.86,7.17,7.17,0,0,1-.13-1.79c0-4.44,0-4.44-4.11-4.15.16-3.18,1.16-3.82,4.91-3.12-.21-.89-1-1-1.66-1.14-5.9-1-6-1.18-3.94-6.63.28-.67.77-1.7,1.31-1.56,2.65.67,3.13-1.63,4.35-2.92,3.11-1.31,6-2.94,9.65-3,2.41,0,2.7.61,2.6,2.6-.11,2.4-2.25,4.5-.88,7.29,1.56-.36,2.92-1.6,4.76-1.53-1.74-.35-4.14.32-4.43-2.18-.26-2.28,1.2-3.6,3.51-3.87,1.58-.08,3.13,1.31,4.75.12a3.51,3.51,0,0,1,2.41,2.9c1,3.67,1,3.71,4.67,2.5a14.52,14.52,0,0,1,2-.72c1.76.15,2.75,1.09,2.67,2.87a54.33,54.33,0,0,0,.82,10.65c.16,1.13-.06,2-1.45,2-1.84-1-4-.46-5.93-1.29-1-.41-2,1.23-1.31,1.85,2.95,2.46.95,4.23-.61,6.14C93.44,98.69,93.5,99,93.48,99.23Z"/><path id="Path_10125" data-name="Path 10125" class="cls-50" d="M101.41,91.84c.36-.31.93-.58.79-1.12a30,30,0,0,1-1-12.07c.14-1.15-1.18-1.42-1.94-2a.51.51,0,0,1,.29-.61c-.13,0,.62,0,0,0-.48,0,.2-.13-.32,0a2.55,2.55,0,0,1-1.36-1.93,2.59,2.59,0,0,1,.53-1.74c1.44-1.53,2.2-2.52-.46-3.95a5.12,5.12,0,0,1-1.8-6.8c1.52-2.45,3.69-2.4,5.1.1.75,1.33.77,2.83,1.17,4.25.2.7.56,1.51,1.5,1.24.66-.19.65-1,.74-1.56,0-.24.13-.57,0-.72-2.67-3.1-.34-6.4-.39-9.61a4.67,4.67,0,0,1,3.58.84c.64.4.86,1.2,1.78,1.76A10.89,10.89,0,0,0,110.5,52a1.27,1.27,0,0,1,1.38-.49c.61.19,1.33.48,1.48,1,1.19,4.21,4.57,7.44,5.29,11.86a5.16,5.16,0,0,1-.87,3.14c-1.06,2.29-1.4,4.17,2.14,4a1.07,1.07,0,0,1,1.08.83l.63.39c.26,1.22-.58,2.19-.72,3.32-1.33,2.72-3.56,4.06-5.6,4,1.9-1.62,4.68,1.17,7.54.37,1.11-.31,1.75.76,1.86,1.83.18,1.81.68,3.63.06,5.46-.29.39-.57,1.09-.89,1.11-3.63.23-4.66.91-5.49,4.22a8,8,0,0,1-2,3.77c-1.34-1.4-.93-3-.46-4.37a5.25,5.25,0,0,0,.25-3.23c-.34-1.2-.65-2.73-1.87-3-1.4-.26-1.32,1.36-1.76,2.32-.33.74-1.32,1.26-1.5,2-.47,1.9-1.3,2.1-2.84,1.1-1-.68-2.16-.13-3.24.09S102.63,92.59,101.41,91.84Z"/><path id="Path_10126" data-name="Path 10126" class="cls-51" d="M124.77,87.71c-.94-1.3-.67-2.82-.8-4.28-.23-2.78-.33-2.84-2.72-1.74-.22.1-.42.26-.64.36-1.73.73-1.8.67-2.2-1.81a6.94,6.94,0,0,0-3.54,1.8,1.23,1.23,0,0,1-1.69.06,1.27,1.27,0,0,1-.34-1.66c.74-.87.57-4,3.08-1.37.54.57,1.91-.15,2.49-1a6.35,6.35,0,0,1,2.32-2.31c2.53.07,4.9,1,7.56.83,2.35-.17,1.67,2.41,1.86,4.16,1.53-1.91,2.6-4.08,5.45-3.76.7.07,1.15-.86,1.54-1.49a7.38,7.38,0,0,1,7.58-3.5c.12,0,.29,0,.35-.06,1.36-1.67,2.68-1.3,4,.08,1.5,1.07,1.91,3.48,4.74,3,1.11-.18.86,2.63,2.56,3.69.6-3.8,3-3.67,5.63-2.41,1.64.78,2.71.36,3.89-.83.8-.81,1.85-2,3-.2L167.7,77.1c-2,3.29-2.14,3.36-6.08,2.49-.91-.2-1.23,0-1.57.88-.65,1.6.24,2.12,1.48,2.51a19.57,19.57,0,0,1-1.06,3.9c-.61,1.25-.83,3.33-3.21,2.52a2.13,2.13,0,0,0-1.72.53c-1.45.93-2.7,2-4.5.16-1-1-3,0-3.59,1.6s-1.71,1.93-3.08,2.31c-1.72.48-2.25-.47-3.05-1.75-1-1.64-2.22-1.48-2.78.4s-1.26,1.84-2.56,1c1-3-1.15-5.07-2.12-7.45-.4-1-3.6-.61-4.31.44a10.83,10.83,0,0,1-2.06,1.94c-.85-.11.66-2.07-.91-1.25C125.92,87.65,125.52,88.09,124.77,87.71Z"/><path id="Path_10127" data-name="Path 10127" class="cls-52" d="M126.66,97.54c-.72,1.12,0,1.3.9,1.43l-.42.63a5.17,5.17,0,0,1-.39.53,1.89,1.89,0,0,0-1.64-.1,5.08,5.08,0,0,1-.81-.66c-1.57-2-1.66-.45-1.92.76l-1,.23a2.19,2.19,0,0,0-1.84-.91c-1.35-.06-1.74-1.25-1.78-2.36a1.84,1.84,0,0,1,1.62-2h.06c2-.26,3.84-1.84,5.87-.15.78.64,1.38-1,2.26-.38C128.09,95.8,127.1,96.58,126.66,97.54Z"/><path id="Path_10128" data-name="Path 10128" class="cls-30" d="M146.31,98.08c1.34-2,1.34-2,3.06-.7Z"/><path id="Path_10129" data-name="Path 10129" class="cls-53" d="M69.89,93.65c.87.53,1.67.95,2.65.07a3.25,3.25,0,0,1,4.08-.36,7.55,7.55,0,0,0,5.33.41c2.08-.39,3.87-.55,5.35,1.25.22.27.6.65.85.61,2.8-.47,3.13,1.6,3.68,3.48-1.37.51-2.66,0-4-.34a11.56,11.56,0,0,0-4.34-.34s-1.8-.75-1.86-.74c-3.2.39-6.22-1.09-9.4-.9l-1.23-.68C69.43,95.87,69,95.09,69.89,93.65Z"/><path id="Path_10130" data-name="Path 10130" class="cls-54" d="M72.28,96.78c.66-1,1.4-1.78,2.67-.91,1.5,1,3.18.94,4.88,1.14,2.13.24,3.5-.16,4.08-3.27.34,1.6,2.31,2,.25,2.88a1.2,1.2,0,0,0-.75,1.53.84.84,0,0,0,.13.27c-1.16.47-2.2-.4-3.34-.26C77.52,98,74.69,98.59,72.28,96.78Z"/><path id="Path_10131" data-name="Path 10131" class="cls-55" d="M168.83,75.22c-2-.88-2.66,1.1-3.41,2-1,1.21-1.58,1.1-2.65.43a9.4,9.4,0,0,0-2.32-1.07c-2.34-.71-2.91-.23-2.89,2.34,0,.59.41,1.32-.26,1.67-.86.46-1.24-.36-1.76-.85a5,5,0,0,1-1.76-4.38c-1.25-.13-2.31,1.62-3.61,0-.87-1.1-.63-2.31-1.1-3.4l3.08-5.09c.71.4,1.39,1,2.3.52a1.53,1.53,0,0,1,1.37.45c3.66,5.28,7.44,3.32,11.26.22.79-1.16,1.86-3.2,2.88-2.71,1.86.89.18,2.75.07,4.22-.09,1.08-.93,1.67-1.23,2.56,2.82,2,3.55,2.11,5.64.5,1-.78,2.63-1.73.94-3.46a.9.9,0,0,1,0-1.28l0,0c.75-.59,1.33.1,2,.39-.86,1.36.63,1.65,1.16,2.25.89,1,1.37,1.92.74,3.27s-1,2.57.36,3.66a7.09,7.09,0,0,1-1,1c-.95.64-.92,2.28-2.55,2.26-1.85,0-1.5-1.61-2-2.58a2.06,2.06,0,0,0-1.65-1.26A9.28,9.28,0,0,1,168.83,75.22Z"/><path id="Path_10132" data-name="Path 10132" class="cls-23" d="M186.29,82.3l1-.25Z"/><path id="Path_10133" data-name="Path 10133" class="cls-56" d="M129.07,30.32c.69.22,1.46-.37,2.13.22C131,31.84,130,31.94,129,32a1.78,1.78,0,0,0-1.78,1.56c-.21,1.51-1.61,3.36-.3,4.45,1,.81,2.86.84,4.44.1,1.1-.51,1.85.28,1.44,1.42s-.85,2.4-2.53,2a1.53,1.53,0,0,0-1.56.73,18.18,18.18,0,0,0-6.8,1.55c-1.89.94-3.61.36-5-1.18-1.24-1.38-1.74-2.67.2-4,1-.65,2.37-1.48,1.58-2.91s-2.16-1.5-3.62-1.14c-.48.12.13,0-.36.1-1.63.27-3.78,1.36-4.36-1.08-.49-2.07-.63-4.57,2.26-5.54.35-.12.65-.34.56-1-2.19,2.28-4.16,2.81-5.63-.58-.61-1.4-1.51-1.51-2.47-.2-.66.91-1.4,1.52-2.24.14-.39-1-.42-2.2-1.3-3a3.1,3.1,0,0,1-.7-1.25c.13-.85.75-.91,1.42-.93.45,0,.91.05,1.37,0l1.37-.12c.92,0,1.91-.49,2.7.4,1.55,1.45,3.53-.43,5.2.74a11.76,11.76,0,0,1,3.58,3l2.42,1.58c.21,2.18,2.09,1.68,3.38,2.09a11.12,11.12,0,0,0,3.93.49C127.28,29.43,128.32,29.4,129.07,30.32Z"/><path id="Path_10134" data-name="Path 10134" class="cls-57" d="M107.41,21.59l1-.26a7.44,7.44,0,0,1,6.81,1.47,2.92,2.92,0,0,1,1.24,2.49c-.75.2-1.05-.44-1.52-.79-1.6-1.17-3.2-2.32-5.41-1.64C108.56,23.17,107.57,23,107.41,21.59Z"/><path id="Path_10135" data-name="Path 10135" class="cls-57" d="M126.35,30.42a23.66,23.66,0,0,1-9.91-3c.79-1.2,1.78,0,2.48-.59l4.88,1.91a4.39,4.39,0,0,1,1.07.2A1.74,1.74,0,0,1,126.35,30.42Z"/><path id="Path_10136" data-name="Path 10136" class="cls-58" d="M126.35,30.42l-1.92-1.17a.45.45,0,0,1,.26-.58.27.27,0,0,1,.12,0l2.74-.16c.68.47,1.51.82,1.52,1.85A5.69,5.69,0,0,0,126.35,30.42Z"/><path id="Path_10137" data-name="Path 10137" class="cls-59" d="M158.23,22.6a2.41,2.41,0,0,1-2.76.16c.18-.92.66-1.6,1.64-1.65S158.2,21.84,158.23,22.6Z"/><path id="Path_10138" data-name="Path 10138" class="cls-38" d="M124.81,28.64c-.12.21-.24.41-.38.61l-.63-.46Z"/><path id="Path_10139" data-name="Path 10139" class="cls-16" d="M142.34,22.69l-.64-.41,1-.2Z"/><path id="Path_10140" data-name="Path 10140" class="cls-16" d="M143.74,21.76l-1,.31Z"/><path id="Path_10141" data-name="Path 10141" class="cls-16" d="M144.75,21.45l-1,.31Z"/><path id="Path_10142" data-name="Path 10142" class="cls-60" d="M93.25,1.78l-1,.21Z"/><path id="Path_10143" data-name="Path 10143" class="cls-38" d="M167.07,68.07c-.12.71,0,2-.55,2-2.5,0-3.38,1.86-4.71,3.37-.69.78-1.91.17-2.24-.46-1.23-2.36-3.66-3.51-5.13-5.59-.78-2.48-.51-2,1.36-3,3.67-2,6.56.7,9.82,1C167,65.45,166.62,67.12,167.07,68.07Z"/><path id="Path_10144" data-name="Path 10144" class="cls-39" d="M171.39,58.88c.76-1.27,4.5-2.57,5.56-1.92.7.43,1,3.07.4,4.11-.64,1.2-3,2.08-4.14,1.51S170.89,59.73,171.39,58.88Z"/><path id="Path_10145" data-name="Path 10145" class="cls-16" d="M143.85,28.83c-1.17-1.59.21-1.61,1.16-1.91C145.77,29,145.73,29.05,143.85,28.83Z"/><path id="Path_10146" data-name="Path 10146" class="cls-61" d="M103,25.89c.48.52,1,1.37,1.36-.08.22-1,.41-2.15,1.63-2.1a2.65,2.65,0,0,1,2.59,2.23,6.68,6.68,0,0,0,.17,1.09c.66,1.43,1.82,1.62,2.82.41.61-.75,1.09-1.6,1.78-2.63a7.14,7.14,0,0,1,1.32,3.75c-.54.8-1.2.47-1.77.47-1.2,0-2,.39-1.65,1.73a4,4,0,0,1-.22,2.15c-.32,1.14.3,1.8,1.34,1.44,1.5-.5,3.18-1.3,4.48-1.23s2.34,1.94,4.51,2c-1.54,2.11-2.48,4.15-4.85,4.85,2,4,2.57,4.11,6.3,2.29a6.61,6.61,0,0,1,5.91,0c-2.32.72-3.59,2.89-5.6,4.07-1.45.85-.75,2.69-1.05,4.08.6,5.37-.55,6.58-6,6.43-2.69-.07-1.6-2.21-1.6-3.3,0-2.68-1.1-2.6-2.91-1.63l-1,.25c-.65,1.63,0,4-2.7,4.46a6.27,6.27,0,0,1-3.57-1.29c-.67-.12-.74-.6-.7-1.15-.5-1.22,3.49-1.39.72-3.12-1.48-1.15-3.82-1-4.66-3.13-.5-3.55-2.62-6.53-3.32-10.18.08-.28-.72.33-.23.22.25-.06.24,0,.19.31-.25,1.4-1.15,2.46-2.46,2a3.72,3.72,0,0,1-2.48-4.08c.14-1.94.93-3.82.64-5.81a9,9,0,0,1-.16-2.59,3.11,3.11,0,0,1,.5-.93c1.31-1.26,2.68-2.35,4.69-1.68,1.61,2.95,3.7-.19,5.5.42Z"/><path id="Path_10147" data-name="Path 10147" class="cls-62" d="M111.62,51.94c.08-1.86,1.67-2,2.88-2.22.89-.19,1.15.68,1.15,1.5,0,1.59-1,3.08-.39,5,1.12.11,1.87-1.19,3.2-1,2.61.47,3.12-.06,3.29-2.65a4.62,4.62,0,0,1,.34-2.14c.61.55.33,1.92,1.48,1.9s1.7-1.08,2-2c.4-1.55.88-2.37,2.75-1.81,1.63.49,2.5,1.22,1.84,2.88s-.08,2.45,1.4,2.7c1.83.32,2.1,1.56,2,3a11.56,11.56,0,0,0-.23,2.56c.14,1.22-.46,1.8-1.71,1.88a5.32,5.32,0,0,0-4.45,3c-.87,2-2.35,2.25-4,2.74-3.13.94-3.53,1.95-2.12,5.11-1.36-.81-2.71,1.34-4.3-.21-1-1-1.32-1.57-.85-2.74a10.09,10.09,0,0,1,1-2.36c1.19-1.54,1.52-2.92-.11-4.36a1.15,1.15,0,0,1-.33-1c.65-2.23-.27-3.44-2.4-4.08-.67-.2-1.6-1-1.08-1.61C114.56,53.91,112.59,53.13,111.62,51.94Z"/><path id="Path_10148" data-name="Path 10148" class="cls-62" d="M144.72,72c-.8.3-1.6.65-2.42.89-2.07.62-3.8,1.55-4.75,3.71-.63,1.43-1.46,3.1-3.55,1.37a.85.85,0,0,0-1.18.2.87.87,0,0,0-.16.52,3.42,3.42,0,0,1-.49,1.7c-.75,1.16-1.43,2.62-3,1.82-1.33-.66-.53-1.87-.14-2.92.55-1.53-.18-2.69-1.17-2.09-2.94,1.74-4.9-.17-7.08-1.44-2-1.69.75-1.91.9-2.94,1.26-.35,2.26-1,2.35-2.43.06-1,.46-1.4,1.38-1.16,1.16.3,1.15,1.1.68,2-.22.43-.41.88-.64,1.34,3.89.6,3.83.57,5.7-2.62.35-.59.25-.77-.06-1.12a2.91,2.91,0,0,1-.53-2.45,2.07,2.07,0,0,1,2-2.14,2,2,0,0,1,.49,0c1.43.2,1.46,1.22,1.06,2.53a10.65,10.65,0,0,0-.2,5.11c1.1-1.08,2.28-2.1,3.26-3.27s2.19-1.27,3,0,1.1,1.71,2.3.37c.8-.89,1.59-.25,1.74.85A4.57,4.57,0,0,0,144.72,72Z"/><path id="Path_10149" data-name="Path 10149" class="cls-62" d="M137,64.66l-2.36-2.58c1.88-1.24,3.59-.64,5.3-.33.2,2.33-2.29,1.63-2.94,2.9Z"/><path id="Path_10150" data-name="Path 10150" class="cls-62" d="M137,64.65c.06.1.18.27.16.29C137,65.12,136.9,65,137,64.65Z"/><path id="Path_10151" data-name="Path 10151" class="cls-16" d="M193.59,60.69a1.88,1.88,0,0,1,2.32-.09,1.14,1.14,0,0,1,.53,1.52,1,1,0,0,1-.25.34,1.62,1.62,0,0,1-2.6-1.77Z"/><path id="Path_10152" data-name="Path 10152" class="cls-63" d="M69.89,93.65a2.33,2.33,0,0,0,1.16,2.46,10.24,10.24,0,0,1-5.34-.53c-1.68-.57-3.38-1.37-5.25-.74A3,3,0,0,1,60,90.78a1.47,1.47,0,0,1,.83-.49c1.17-.12,2.51.64,3.44-.7a8.7,8.7,0,0,1,.68-.8c3.55-2.05,4.37-1.65,4.77,2.32C69.76,92,69.86,92.8,69.89,93.65Z"/><path id="Path_10153" data-name="Path 10153" class="cls-63" d="M47.57,88.86c-.2-.13-.41-.27-.62-.39.53-2.54,2.44-1.86,3.71-1.22,2.33,1.19,4.44,2.18,7.2,1.19,1.14-.41,3.13-.3,2.6,2.12h0c-1.52.69-2.5,2.22-4.19,2.65-2.76-.14-4.7-2-6.78-3.42A4.43,4.43,0,0,0,47.57,88.86Z"/><path id="Path_10154" data-name="Path 10154" class="cls-64" d="M56.27,93.21c.94-1.6,1.81-3.32,4.18-2.65-.15,1.43-.62,2.86,0,4.28C59.21,93.91,57.65,93.79,56.27,93.21Z"/><path id="Path_10155" data-name="Path 10155" class="cls-65" d="M28.47,81.65c-1.54-.87-2.93-2.08-4.85-2.06-1.24-.16-2.45-.36-2.57-2,4.26-5,9.1-7.25,15.24-3.1,1.32.9,2.93.1,4.29.74A3.87,3.87,0,0,1,42,76.87c1.83,2.31,5.31,2.33,6.89,5a2.29,2.29,0,0,1,0,3.08,1.82,1.82,0,0,1-1.35.65c-.38,0-.41-.53-.78-.6A9.79,9.79,0,0,1,47,86c-.57,1.19-1.69.84-2.63,1a43.88,43.88,0,0,1-12.18-3.85A38.4,38.4,0,0,0,28.47,81.65Z"/><path id="Path_10156" data-name="Path 10156" class="cls-53" d="M44.39,86.94l2.43-1.15c-.15-.38,0-.58.39-.64l1-.25c3.44,2.8,7.8,1.5,11.64,2.57,1.7,1,3.62,1.53,4.92,3.1-1.44,1.59-2.89.74-4.33,0-1.35-1.48-3.1-2.06-4.5-.72-1.57,1.5-2.13.51-3.2-.35-1.31-1.06-2.76-2.1-4.62-1.79-.43.07-.79.5-1.19.77Z"/><path id="Path_10157" data-name="Path 10157" class="cls-66" d="M21.46,77.42c.12,1.32,1.33,1.56,2.16,2.17-2.77.61-5.23-.73-7.8-1.28a2.77,2.77,0,0,0-1.75-.15c-.29.33-.69.17-1,.25h0a5.82,5.82,0,0,1-1,.24l-.64-.37c.13-1.47.15-3,1.83-3.7a51.21,51.21,0,0,0,7.26,1.54A2,2,0,0,1,21.46,77.42Z"/><path id="Path_10158" data-name="Path 10158" class="cls-65" d="M13,78.41l1-.25.61.4A1.59,1.59,0,0,1,13,78.41Z"/><path id="Path_10159" data-name="Path 10159" class="cls-65" d="M12,78.65l1-.24c-.12.2-.24.41-.35.62Z"/><path id="Path_10160" data-name="Path 10160" class="cls-67" d="M70.6,72.35a6.35,6.35,0,0,0-1,3.14c-.19,1.34-1,1.8-2,.8-1.39-1.45-1.82-.28-2.44.63l-6.75-9.6c-.53,1-.69,2.14-1.57,2.9a2.52,2.52,0,0,1-2.72.6c-.9-.36-1.62-1.2-1.33-2,1.38-3.64-1.37-4.78-3.58-6.28-1-1.79-.2-3.55.08-5.32a7.45,7.45,0,0,1,1.3-3c2.19-2.2,1.92-3.7-.72-5.25-1.36-.8-1.06-2.36-.59-3.71s1.19-2.45,1.54-3.77c.28-1,.53-2.19-1.16-1.85-3.37.67-3.64-1.33-3.69-3.86C46,33,44.7,32.13,42.35,33c-4.08,1.55-6.55-.15-6.56-4.53,0-1.23.4-2.44.43-3.67.05-2.28-1-2.94-2.92-1.73-1.59,1-3.08,2.05-5,2.06a2.81,2.81,0,0,1-1-.31c-.55-.38-1-.88-1.54-1.29-1.62-.82-1.74.68-2.29,1.5-.71,1.06-1.06,2.77-2.67,2.56-1.86-.24-1.74-2-2-3.43a9.82,9.82,0,0,1-.06-1.09,2.47,2.47,0,0,1,1.07-2.3c.25,0,.56.07.73,0,3.06-1.9,6.67-3,9-5.93a13.81,13.81,0,0,0,.16-1.92,1.48,1.48,0,0,1,.6-.75,3.89,3.89,0,0,1,3.28.21,1.12,1.12,0,0,1-.08,1.27c-.25.25-.66.44-.33.91a4.29,4.29,0,0,0,1,.76,44.78,44.78,0,0,0,17.37,1.85c1.19-.1,2.35-.82,3.48.16a3.66,3.66,0,0,1,.56.9c.06.17.1.34.16.51.38,1.85-.28,3.68-.17,5.52,0,.72.05,1.63,1.12,1.53.88-.08,1.16-.81,1.19-1.61a14.23,14.23,0,0,0-.2-1.46c-.13-1.67-.83-3.67,1.45-4.39s5,1.16,5.6,3.29c.28,1,.25,2.21,1.28,3.25,1-1,.79-3.65,3.07-2.64a4.55,4.55,0,0,1,2.64,4.52c0,3.17-1.88,4.93-5.28,6.33,3.9,1.28,2.25,3.62,2,5.67,0,.31,0,.62,0,.92a5.44,5.44,0,0,0,.86,2.08,3.2,3.2,0,0,1,.18,1c0,.5-.13-.09,0,.37,1.13,4.09-.2,6.47-4.6,7-1.87.21-2.21,1.71-2.13,4,.84-1.87,1.49-3.23,3-3.77,1.74-.6,3.15.25,4.58.94,3.06,1.49,3.61,2.62,1.84,5.48-1.6,2.57-.4,5.3-1.14,7.94C70,68.9,70.29,69,65.94,68.8a4,4,0,0,0-1.42.16,3.11,3.11,0,0,1,2.07.57c.53.14.13,1.6,1.28.88a1.59,1.59,0,0,1,.7-.43,1.93,1.93,0,0,1,.82.19,2.54,2.54,0,0,1,.65.57,3.9,3.9,0,0,1,.45.76A1.89,1.89,0,0,1,70.6,72.35Z"/><path id="Path_10161" data-name="Path 10161" class="cls-68" d="M70.6,72.35,70,72c-.06-.35-.18-.68-.26-1h0c-.08-.34-.14-.69-.2-1,0-.84.63-1.27,1-1.88,1.6-2.56,5.82.06,6.29-2.25.63-3.05,2.41-3.53,4.75-4A1.62,1.62,0,0,0,80,61.21c-1.77-.07-3.34-.54-3.22-2.68a2.92,2.92,0,0,1,2.74-3.07h.3c1.33,0,2.47-.23,3-1.83-2.83.65-4.6-.53-5.87-3a28.41,28.41,0,0,1-2.1-4.72c-1.26-4.25-1.77-4.68-5.88-4.08h0c-.15-.9-1.35-.91-1.52-1.79l.38-.64c1.07-2.8,4.84-3.43,7.32-.93A10,10,0,0,0,79.52,41a4.19,4.19,0,0,1,1,.36A26.06,26.06,0,0,0,85.21,44c-3.32-4-2.71-8.94-4.93-13-1.51-2.76,1.48-2.92,3.32-3.37.31.07.7.25.93.1s.29-.32.1-.11-.33.16-.57,0c-.61-1.47.51-1.94,1.46-2.51a1.56,1.56,0,0,1,1,0,1.89,1.89,0,0,1,.66.74,20.78,20.78,0,0,1,1,3.39c-.3.83-1.36,1.09-1.58,2.28,1.16.36,2.27-.17,3.45-.1-.42-1-1.5-1.12-1.82-2-.34-1.06-.11-2.2-.48-3.26a2.76,2.76,0,0,1-.16-1l.21-.48.4-.36a3.24,3.24,0,0,1,1.05-.3,3.79,3.79,0,0,1,1.11.18c1.13.79,3.19.9,2.27,3.15l-.38.64c-.54.85.37,1.35.5,2,1.17,1.49.52,3.45,0,4.55-1,2.27-.26,3.64,1.14,5.15,2.36,0,1.3-2.32,2.13-3.4,2.12,2.47,2.12,5.8,4.12,8.14.82,1-.38,2.15.16,3.19,0,.5-.08-.06.11.34.57,1.17-1.3,2.72.37,3.51,1.46.7,2.74-.45,4-1.15a4.2,4.2,0,0,1,2.18,2.51c-.9.49-2.32.23-2.83,1.44-2.56,3.54-6.45,4.93-10.17,2.95-2.23-1.19-2.79.78-2.54,1.31.6,1.28,0,3,1.34,3.89,3.75,2.39,3.49,5.86,2.74,9.52a7.57,7.57,0,0,0-.35,2.63c1.1.62,2-1,3-.42L99.68,76l-.38.64c-1.4,2.3-3.82,1.94-5.93,2.09-1.33.1-2-1.06-1.6-2.33.6-2-.43-3.3-1.77-4.5l-.26-.45C89.17,69,85.89,67.85,87.19,64c-2.35,2.85-1,5.25-1.37,7.43,0,.16-.1.33-.16.49-.5.86-1.54.73-2.21,1.23a2,2,0,0,0-.73,2.62c.54,1.12,1.54,1.13,2.54.8a3.6,3.6,0,0,0,1.18-.81.7.7,0,0,1,1-.1.69.69,0,0,1,.22.33,3.45,3.45,0,0,1,.16,2.86c-.41.8-1.31.45-2,.12-1.73-.84-2.39.84-3.47,1.48-.54.32-1,.81-1.64.46s-.56-1-.43-1.63c.36-1.8-1-3.81,1.19-5.45,1-.71-.57-2.6.28-4.13a4.42,4.42,0,0,1-4.6.78c-2-.74-3.21,1.42-4.8,2.21C71.41,73.12,71.09,73,70.6,72.35Z"/><path id="Path_10162" data-name="Path 10162" class="cls-69" d="M49.71,62.33a5.22,5.22,0,0,1,1.95.88c2.73,1.43,2.72,1.37,2.09,4.22-.23,1-.67,2.39.83,2.8s2.22-.68,2.59-2a10.45,10.45,0,0,0,.2-1.46c.12-.84.11-2,1.42-1.45.85.35,2.5.67,1.18,2.26-.61.75-.72,1.35.36,1.54,2.9.52,3.68,2.56,3.78,5.09a5.41,5.41,0,0,0,1.12,2.68c.38.93-.23,1.62-.56,2.4-.87,2,0,3.26,2.25,3.09,3.58-.28,3.58-.28,4.5,3.76-1.27-.46-2.19-1.71-3.47-1.24s-2.74.78-2.26,2.71a1.33,1.33,0,0,1-.5,1.35c-2.24,1.67-3.75-1.62-5.86-.86a14.78,14.78,0,0,0-5,0c-2.62.59-4.61-1.09-6.08-3.24.57-.92,1.1-1.84-.13-2.68-.7-3.68-3-5.17-6.61-4.87L40.61,76c-.13-.54.11-1.25.5-1.2,5.66.71,6-5.69,9.89-7.34.42-.18-.13.08.26-.4-.91-.59-2.22.34-2.92-.75a9.35,9.35,0,0,1-1.2-2.77C47.58,62.19,48.73,62.46,49.71,62.33Z"/><path id="Path_10163" data-name="Path 10163" class="cls-53" d="M64.93,88.91l.76-1.27a3.1,3.1,0,0,1,2.48-1.35c1.18-.11,2,.45,2.06,1.58,0,1.92.61,3.91-.34,5.78-.31-.91-.63-1.82-.92-2.74s.26-2.38-1.28-2.68c-1.31-.25-1.94.75-2.51,1.7C64.5,89.74,64.39,89.41,64.93,88.91Z"/><path id="Path_10164" data-name="Path 10164" class="cls-68" d="M90,71.9c-1.45,1.49-2.89.57-4.33,0h0c-.57-1.15-.13-1.89,1-2.08A2.83,2.83,0,0,1,90,71.9Z"/><path id="Path_10165" data-name="Path 10165" class="cls-49" d="M98.15,74.22a6.78,6.78,0,0,0-1.93,1.69c-.43.64-1.07,1.16-1.84.67s-1.15-1.23-.68-1.9c1.06-1.53.68-3.31,1.08-5,1-3.87-.7-6.21-4.68-6.83-.36-1,.71-1.14,1-1.73s.54-1.24-.43-1.31-1-.37-.58-1.09c.73-1.25,1.68-2.4,1.85-4.15,1.05,2.17,3.23,1.94,4.79,2.84,1.59-1.87,5.21.46,6.1-3,.15-.58.78-.37,1.23-.15l.26,1c1.14,1.82,2.21,3.61-.35,5.22a.83.83,0,0,0-.13,1.17l.14.14c3.17,2,1.46,4.57,1,7-3.54-1-3.58-1-3.7-3.92a4.43,4.43,0,0,0-.63-2.44c-.62-.9-.51-2.74-2.41-2-1.34.54-2.39,2.8-1.72,4,1,1.68,1.2,4.06,4.13,4,1.16,0,1.5,1.87.4,2.41C99.52,71.71,99,73,98.15,74.22Z"/><path id="Path_10166" data-name="Path 10166" class="cls-49" d="M107.91,56.65c.53-.87,1.67-1.37,1.33-2.75a1.34,1.34,0,0,1,.89-1.66,1.48,1.48,0,0,1,.47-.05c.79.48,1.59,1.54,1.21,2-1.19,1.5,0,3.41-1.15,4.82a1.22,1.22,0,0,1-2.19-.3A13.9,13.9,0,0,1,107.91,56.65Z"/><path id="Path_10167" data-name="Path 10167" class="cls-49" d="M99.68,76a2.22,2.22,0,0,1,1.4-1,1,1,0,0,1,1.32.68.83.83,0,0,1,0,.15,1.26,1.26,0,0,1-.21,1c-.38.47-.87.19-1.3,0S100.1,76.26,99.68,76Z"/><path id="Path_10168" data-name="Path 10168" class="cls-37" d="M177.11,73.91c-.18.12-.38.37-.54.34s-.26-.32-.38-.5c.18-.12.38-.37.53-.34S177,73.73,177.11,73.91Z"/><path id="Path_10169" data-name="Path 10169" class="cls-70" d="M101,22l1.26.8c-.72,2-2.49,2.18-4.16,2.22a31.57,31.57,0,0,1-9-.6h0c-.34.07-.68.15-1,.24h0c-1.19.36-2.17-.48-3.28-.57L83.89,24c-.64-.07-1.29,0-1.93,0a4.72,4.72,0,0,1-1-.13c-2.32-.93-4.79-.37-7.16-.8-3.53-.57-6.87-1.6-9.64-4a1.85,1.85,0,0,0-1.75-.24,1.36,1.36,0,0,1-1.57-1.09,1.49,1.49,0,0,1,.09-.78c1-1.81,2.59-2.06,4-.93,5.49,4.32,12.23,3.68,18.49,5,5.15,1.06,10.28,1.95,15.51.6C99.7,21.46,100.48,21.26,101,22Z"/><path id="Path_10170" data-name="Path 10170" class="cls-71" d="M89.14,24.45a14.93,14.93,0,0,1,5.41-.24,12,12,0,0,0,7.74-1.38,2.1,2.1,0,0,1,.87,2.85,1.37,1.37,0,0,1-.13.2h0c-2,0-4,1.25-6-.14-1.85-.43-3,1.19-4.48,1.64C92.14,25.56,90.3,25.41,89.14,24.45Z"/><path id="Path_10171" data-name="Path 10171" class="cls-61" d="M102.6,22.12l1.33-1.75a1.7,1.7,0,0,1-.23,1.56Z"/><path id="Path_10172" data-name="Path 10172" class="cls-72" d="M101.13,20.39l-1,.25Z"/><path id="Path_10173" data-name="Path 10173" class="cls-49" d="M104.74,50.39c.08,1.75-1,2.44-2.5,2.37-1.19,0-2.33-.55-4-.06l2.07-5c1.06.79,1.7,2.34,3.5,1.79C104,49.41,104.41,50.06,104.74,50.39Z"/><path id="Path_10174" data-name="Path 10174" class="cls-56" d="M97,25.74c2,.38,4-.61,6,.15-1.17.84-2.68.83-3.87,1.82-1.52,1.26-1.84,1-2-1.28A3.85,3.85,0,0,0,97,25.74Z"/><path id="Path_10175" data-name="Path 10175" class="cls-71" d="M92.68,30.06c-.51-.34-1.05-.66-1.53-1-.3-.23-.56-.6-.29-1s.86-.25,1.32-.06A2.58,2.58,0,0,1,92.68,30.06Z"/><path id="Path_10176" data-name="Path 10176" class="cls-73" d="M10.73,77.89a5.48,5.48,0,0,0-2-2.11C7.38,75.1,6.52,74.18,7,72.52c.27-1.06-.51-1.56-1.27-2L1.88,68.2v-.52l.34-.4a3.14,3.14,0,0,1,1.53-.42,6.51,6.51,0,0,1,1.07.08,4.1,4.1,0,0,1,1,.35c1.87,1.3,3.4,3.07,5.52,4.07a2.38,2.38,0,0,1,1.59,2.9l-.27.46a3.32,3.32,0,0,1-1.27,3.57Z"/><path id="Path_10177" data-name="Path 10177" class="cls-49" d="M64.92,88.91l.25,1c-.12.21-.25.42-.38.63-2.2,0-3.7-1.5-5.47-2.44.86-.22,1.38-2.51,2.65-.34C62.57,88.82,63.82,88.83,64.92,88.91Z"/><path id="Path_10178" data-name="Path 10178" class="cls-74" d="M48.42,65.9c1.53.89,2.5.2,2.79-1.49,1.38,1,1.67,2,1.24,2.86A6.53,6.53,0,0,1,50,70.13c-2.73,1.34-2.81,1.2-2.51,3.92.07.6.3,1.19-.19,1.81-2.21-1-4.46-1.33-6.66.09-.46-.16-1-.46-1.4-.1-1.36,1.24-2.5.54-3.54-.41a8.57,8.57,0,0,0-5.35-2.08c-2-.15-4.23-.44-5.15,2.21-.61,1.75-2.34,1.49-3.7,1.84l-1.27-.77c-2.38-4.65-6.14-8.57-7.48-13.79-.18-.7-.34-1.28-1.27-1.54-1.86-.53-1.79-2.07-1.52-3.6,1.56-2.24,1.29-5.8,4.78-6.63,1.89.59,1.62,3.3,3.72,3.81,1.07-1.18.33-2.93,1.35-4.06a1.31,1.31,0,0,1,.89-.45c2.24.24,4.75,3.64,6.6-.57.95-.83,1.63-2,3-2.2,1.85,3.94,5.83,7.19,3.77,12.54,2,.19,3-1.51,4.61-1.48,2.22.1,4.3,1,6.77,1.25.76-1.8-.84-5.55,3.39-4.85a2.12,2.12,0,0,1,1.25,2.28l-.4,5c-.5,1-1.63.73-2.43,1.14C46.84,64.66,48.41,64.91,48.42,65.9Z"/><path id="Path_10179" data-name="Path 10179" class="cls-74" d="M41.49,77.36c1.43-.58,2.7-1.37,4.44-.56,2.56,1.2,2.36,3.26,2.18,5.43-1.74-1-2.58-3.49-5.38-2.71C41.73,79.79,41.44,78.37,41.49,77.36Z"/><path id="Path_10180" data-name="Path 10180" class="cls-69" d="M47.21,85.15l-.39.64c-.44-.84-1.24-1.52-1.24-2.59C47,83.63,47,83.63,47.21,85.15Z"/><path id="Path_10181" data-name="Path 10181" class="cls-65" d="M10.3,58.5c.47.85,0,2.52,1.73,2.27.87-.12,1,.22,1.17.87,1.1,3.91,3.29,7.23,5.52,10.56a6.26,6.26,0,0,1,1.46,4.45c-2.73.25-5.35,0-7.52-1.94h0c.33-1.8,1.56-3.69-1.14-5-1.06-.5-.52-2-.4-3.08.23-2-.12-3.73-2.76-3.61-.8.26-1.44.91-2.33.88-1.37-1.37-.3-2.58.25-3.82a2.15,2.15,0,0,1,.81-.59C8.22,59.38,9.14,58.58,10.3,58.5Z"/><path id="Path_10182" data-name="Path 10182" class="cls-75" d="M38.62,59.1c-1.35.82-2.4,2.11-4,2.53-.61.16-1.15.4-1.68-.14a1.08,1.08,0,0,1-.08-1.36c2-3.68.94-6.55-2.32-8.86-.65-.46-.36-1.08-.11-1.64a1.44,1.44,0,0,0-.56-1.92c-1.31-2.78-1.33-2.79-.15-5.27.08-.18.11-.07,0-.31-2.93-4.79,1.28-7.45,3.22-11.08-1.87-1.37-4.92-.9-6.45-3.39-1-1.63-1.29-2.68.94-3.18,2.3-.33,4.47-.63,5.78-3.12.7-1.32,1.94.77,3.23.33.88-.3,1.69.65,1.14,1.67-.77,1.4-.14,2.91-.69,4.35a4.73,4.73,0,0,0,1,4.51c1.09,1.48,2.28,1.61,3.54.13,1.47-1.73,2.86-.83,4.29-.24s2.28,1.48,1.38,3.17a3.24,3.24,0,0,0-.12,1.45c0,2.36.47,2.69,2.6,2a6.64,6.64,0,0,0,1-.52c1.4-.73,1.82.16,1.87,1.28a8.39,8.39,0,0,1-1.31,4.15,21.15,21.15,0,0,1-.91,2c-1.18,1.77-.09,2.74,1.24,3.55.61.37,1.48.37,2,.79.92.7,1.17,2.12.21,2.5-2.37.93-2.39,3.27-3.56,4.87l-1.52-1.79c-.27-1.29-.2-2.87-1.87-3.2A3.41,3.41,0,0,0,43.27,54c-.92,1.33-1.81,2.53-3.61,2.75C38.22,56.93,38.76,58.22,38.62,59.1Z"/><path id="Path_10183" data-name="Path 10183" class="cls-76" d="M27.37,24.49c-.24.65-1.52,1.18-.92,1.75,1.19,1.14,1.89,3,3.94,3.08a20.37,20.37,0,0,1,2.21,0,3.11,3.11,0,0,1,1.95,3.1c-.23.73-.81.85-1.48.72s-1.55,0-1.5.61c.12,1.84-1.19,2.92-1.83,4.35C28.8,40.2,29.27,40.85,32,43c-1,.69-2.14-.47-3.17.33,1.45,1.18,1.21,2.78,1,4.36.18,1.63-1,1.9-2.17,2.17-.3.23-.85.49-1,.3-2.38-3.07-4.43-1.8-6.42.44h0c-1.54.28-1.77-1.6-3-1.84-2.83-.23-.19-3.53-2.36-4.16-2.4-.69-2.18-2.6-2.09-4.49a4.18,4.18,0,0,0-1.06-2.48c-.86.72-.37,2.25-1.62,2.58-2.09-2.14-3.52-4.54-3-7.71a10.24,10.24,0,0,1,2.3-2.3,2.62,2.62,0,0,1,1.74-.45c2.76.48,3.94-.35,3.93-3.43A3.28,3.28,0,0,1,18.33,23a3.37,3.37,0,0,1,1.14.19c.59,1.25-.26,3,1.55,4a18.35,18.35,0,0,0,2.19-3.95c.9-2.43,1.27-2.41,3.28-.2C26.57,23.68,27.25,23.91,27.37,24.49Z"/><path id="Path_10184" data-name="Path 10184" class="cls-77" d="M59,16.71l2.34.49.27,1.05c0,.24.17.37.34.39s.26,0,.3-.05c.41-.47,1-1,1.55-.63,3.28,2.32,7.06,3.44,10.8,4.64,2.41,0,3.42,1.53,3.75,3.58,2.08,0,2.22-2.05,3.53-2.67h0a4.48,4.48,0,0,0,2-.46l.63.33c1.25,0,1.59.73,1.53,1.8-.3,1-2.15,1-1.54,2.55l-4.13,1.83c1,2.09,1.88,4.1,2.86,6.07.47,1,1.15,1.7.3,3a1.92,1.92,0,0,0,.72,2.61,2,2,0,0,0,.33.15c1.37.53,1.2,1.74,1.47,2.76a1.3,1.3,0,0,1-.57,1.62c-.86.37-.91-.47-1.14-1s-1-.7-1.53-.86a5,5,0,0,1-3.07-2.52c-.05-.36.09-.73.06-1.1a2.56,2.56,0,0,0-.06,1.1c-.3.39-.8,1-1.15.67a4.94,4.94,0,0,0-3.21-1.4c-.11,0-.33-.07-.33-.11C75,37.6,72.36,39,71.12,38.15c-2.05-1.4-2.46.1-3.22,1.27-1.28-1.64,1-2.94.44-4.5-.44-.64-1.08-.43-1.67-.37a1.23,1.23,0,0,1-1.46-.93,1.16,1.16,0,0,1,0-.32c-.06-.73.45-1.08,1.09-1.3s1.41-.46,2.09-.76c2-.87,2.52-2.51,2.59-4.53s-1.08-3.29-2.72-4.18c-1.11,1-.24,2.08-.7,3-.29.57-.57,1.17-1.26,1.24a1.33,1.33,0,0,1-1.38-1,12.11,12.11,0,0,1-.52-1.78,32.35,32.35,0,0,0-.72-3.63c-.6-1.83-2.25.63-3.11-.66A1.36,1.36,0,0,0,58.79,19c-1,2.13,0,4.2.66,6.19a2.69,2.69,0,0,1-.64.62c-1.09.47-1.74,2.18-3.09,1.64-1.8-.73-1-2.63-1.08-4a25.37,25.37,0,0,1,.57-4.76,7.27,7.27,0,0,1,2.3-1.9A2.25,2.25,0,0,1,59,16.71Z"/><path id="Path_10185" data-name="Path 10185" class="cls-77" d="M69,41.85a1.23,1.23,0,0,0,1.2-.72c.38-1.24.93-1.54,2.11-.79,1.42.91,2.38,2.5,4.23,2.79.32,0,.54.75.21.89-3.4,1.38,1.37,2.92-.11,4.3.91,1,1.21,2.3,1.9,3.32,1.33,2,3.35,1.72,5.47.51-.17,1.06-.22,1.77-.4,2.45-.44,1.68-1.42,2.66-3.24,1.9-1.4-.6-2.09,0-2.63,1.16-.8,1.63-.21,2.56,1.63,2.7A5.32,5.32,0,0,0,81.57,60c1.54-.54,1.58.7,1.74,1.63.2,1.13-.5,1.48-1.52,1.56-4,.33-4,.34-3.71,4.63-1.46-.45-2.89-.08-4.32-.22a3,3,0,0,0-3.6,2.32,2.57,2.57,0,0,0-.06.4c-.57.22-1.09-.34-1.66-.14h0a1.22,1.22,0,0,1-.67.2,1.5,1.5,0,0,1-.69-.14l-.3-.19c-1.37-.69-3.31.78-4.41-1.24,1.55-1.34,3.39-.74,5.13-.72,2.45,0,1.72-.17,2.29-2.52a23.57,23.57,0,0,0,.61-7.67c0-.64,1-1.33,1.47-2s1-1.26.55-2c-1.08-2-3.35-2.19-5.1-2.86s-3,.8-3.23,2.7a2.52,2.52,0,0,1-.17.72c-.3.65-.53,1.6-1.46,1.32a1.66,1.66,0,0,1-1.12-2h0a.54.54,0,0,1,.21-.3c1.41-.88-.86-3.48,1.64-3.73,1.59-.15,2.67-1.82,4.46-1.29a2,2,0,0,0,1.87-.81C68.16,45.8,67.6,43.88,69,41.85Z"/><path id="Path_10186" data-name="Path 10186" class="cls-78" d="M30.85,14.41c-.37,2.28-1.38,4-4,3.89-2.06-.09-2.63,1.43-3.52,2.73C22,23,22,23,20,20.9c-2.2.62-4.58.53-6.63,1.71-.86.45-1.6,1.6-2.72.48-.2-4.08,2.34-6.22,5.58-7.85a4,4,0,0,1,1.91-.86l.52,0a7,7,0,0,1,1,.05c3.33,0,6.26-2.73,9.77-1.46C29.84,13.49,30.63,13.68,30.85,14.41Z"/><path id="Path_10187" data-name="Path 10187" class="cls-79" d="M58,17c-.6,1.12-1.37,2-2.8,1.75h0c0-.35-.19-.67-.25-1-.47-.06-1.13-.36-1.39-.15-2.5,2-5.8-.5-8.29,1.54-.33.28-.82-.33-1.24-.57-1.64-1-3.27-2.13-5.28-.67-.46.33-1.18.11-1.76-.18-1.4-.71-2.81-1.39-4.23-2.09,0-.34-.2-.67-.25-1-.23-.43-.1-.65.38-.65C38.58,11.2,44.1,11.47,49.33,15c1.31.88,2.29.29,3.46,0C54.89,14.58,57,14.25,58,17Z"/><path id="Path_10188" data-name="Path 10188" class="cls-80" d="M13.22,22a2.69,2.69,0,0,1,.16-.68c2.22.07,4.29-2.11,6.6-.44l-.51,2.29c-2.25.55-3.71,2.07-3.65,3.83,0,.73.14,1.45.14,2.18,0,1.39-.66,2-2.09,1.79s-2.66-.38-4-.56C11.51,27.83,10.86,24.33,13.22,22Z"/><path id="Path_10189" data-name="Path 10189" class="cls-81" d="M33.67,12.7l.38-.59c1.92-.25,4.19-1.2,5.69-.73,3.34,1,7.52-.6,10.08,3,.5.69,1.28.57,2,.21A6.83,6.83,0,0,1,54.67,14c2.94-.13,2.93-.15,4.31,2.72L58,17a5.43,5.43,0,0,0-5.81-1c-1.49.58-2.87.53-3.85-1.05a2.42,2.42,0,0,0-1.83-1.12c-4.18-.43-8.37-1.88-12.54.1a3.06,3.06,0,0,1-1.09.08Z"/><path id="Path_10190" data-name="Path 10190" class="cls-75" d="M49.27,31.79c1.59-.78,2.49-2,1.79-4a1.32,1.32,0,0,1,.85-1.67,1.47,1.47,0,0,1,.55-.05c1,.06.8.93.87,1.68.11,1.26,0,2.83,2,2.86a.71.71,0,0,1,.78.63c0,1.35,2.28,2.12,1.14,3.58s-2.2,0-3.31-.31C52.23,34,50.12,34.26,49.27,31.79Z"/><path id="Path_10191" data-name="Path 10191" class="cls-82" d="M19.47,14.42c2.85-2,6.3-2.05,9.47-3,.72-.22,1.06.46,1.39,1L30,13c-.28.36-.7.12-1,.23A21,21,0,0,0,21.85,15a2.75,2.75,0,0,1-2.77.11A.59.59,0,0,1,19.47,14.42Z"/><path id="Path_10192" data-name="Path 10192" class="cls-69" d="M67.8,69.79l.64.39c0,.36-.07.73-.13,1.1-.17.75-.46,1.51-1.43,1.2s-.82-1.06-.46-1.79c.11-.22.24-.43.36-.64h0A9.54,9.54,0,0,0,67.8,69.79Z"/><path id="Path_10193" data-name="Path 10193" class="cls-75" d="M29,22.49a2.86,2.86,0,0,1-.78-.49c-.33-.48-.85-.95-.56-1.62a.65.65,0,0,1,.58-.24,2.18,2.18,0,0,1,1.08,1.79C29.35,22,29.23,22.14,29,22.49Z"/><path id="Path_10194" data-name="Path 10194" class="cls-77" d="M67.51,40.06c.69.44,1.51.78,1.53,1.79C68.35,41.41,67.54,41.07,67.51,40.06Z"/><path id="Path_10195" data-name="Path 10195" class="cls-79" d="M28.94,13.26,30,13a1.52,1.52,0,0,1,.87,1.39Z"/><path id="Path_10196" data-name="Path 10196" class="cls-75" d="M27.37,24.48a1.54,1.54,0,0,1-.88-1.4A1.56,1.56,0,0,1,27.37,24.48Z"/><path id="Path_10197" data-name="Path 10197" class="cls-49" d="M68.44,70.17a1.6,1.6,0,0,1,1.66.13l-.39.64Z"/><path id="Path_10198" data-name="Path 10198" class="cls-78" d="M32.51,14.56l.25,1Z"/><path id="Path_10199" data-name="Path 10199" class="cls-77" d="M55,17.69l.25,1Z"/><path id="Path_10200" data-name="Path 10200" class="cls-49" d="M69.71,70.94,70,72Z"/><path id="Path_10201" data-name="Path 10201" class="cls-49" d="M90,71.9a19.48,19.48,0,0,0-2.49-1.38c-1.23-.5-1.75.21-1.84,1.37-1.6-2.61-1.17-5.28-.23-8a1.49,1.49,0,0,1,1.7-1.11c1,.18.84,1.11.75,1.79-.26,1.92-.32,3.5,2,4.41C91.12,69.49,90.69,70.9,90,71.9Z"/><path id="Path_10202" data-name="Path 10202" class="cls-77" d="M88.09,29a13.8,13.8,0,0,0,2,.82c1.46.33,1.56,1.32,1.47,2.63-1.78.23-3.63-.72-5.31.66-.76.63-1.38-.3-1.33-1.1.13-1.88,1.36-2.76,3.13-3Z"/><path id="Path_10203" data-name="Path 10203" class="cls-71" d="M88.09,29c-1.66-.66-1.59-2-1.39-3.45.58-.32,1.08.38,1.66.14,1.56,1.23.23,2.24-.27,3.31Z"/><path id="Path_10204" data-name="Path 10204" class="cls-49" d="M92.33,67.38a1,1,0,0,1,1.21.1.65.65,0,0,1,.15.91h0a.08.08,0,0,1,0,0,.91.91,0,0,1-1.19.46.81.81,0,0,1-.3-.21C91.9,68.45,91.68,68.13,92.33,67.38Z"/><path id="Path_10205" data-name="Path 10205" class="cls-71" d="M86.06,25.19l-1.53-1.8c1.52-.47,2.42.78,3.58,1.3l-.38.63c-.58.27-1.09-.37-1.67-.13Z"/><path id="Path_10206" data-name="Path 10206" class="cls-77" d="M86.06,25.19a1.56,1.56,0,0,1,1.66.13l.63.39a1.58,1.58,0,0,1-1.65-.13Z"/><path id="Path_10207" data-name="Path 10207" class="cls-77" d="M84.52,27.74l.3-.17.05.18Z"/><path id="Path_10208" data-name="Path 10208" class="cls-71" d="M88.11,24.69l1-.24Z"/><path id="Path_10209" data-name="Path 10209" class="cls-67" d="M48.42,65.9c-.44-.15-.86-.33-1.31-.44s-1.18-.23-1.07-1,.62-.91,1.24-1C48.21,64,49.12,64.58,48.42,65.9Z"/><path id="Path_10210" data-name="Path 10210" class="cls-83" d="M81.86,23.51c.06,2.6-1.54,3.64-3.94,4-1.16-1.58-.6-4.43-3.34-5C77.1,22.13,79.6,21.82,81.86,23.51Z"/><path id="Path_10211" data-name="Path 10211" class="cls-83" d="M83.9,23.05a1.38,1.38,0,0,1-1.86.58h0a.94.94,0,0,1-.18-.12A2.48,2.48,0,0,1,83.9,23.05Z"/><path id="Path_10212" data-name="Path 10212" class="cls-79" d="M62.22,18.6a3.88,3.88,0,0,1-.59,0s0-.21-.05-.32C61.8,18.37,62,18.48,62.22,18.6Z"/><path id="Path_10213" data-name="Path 10213" class="cls-66" d="M8,62.31c1-1.29,2-.67,2.86.09a4.35,4.35,0,0,1,1.54,3.94c-.08.58-.57,1.1-.73,1.68-.22.8,0,1.25,1,1.55,2.52.77,2.76,1.75,1.16,3.68-.39.47-.76,1-1.13,1.46-.38-1-.25-2.28-1.59-2.61-2.75-.68-4.21-3-6.17-4.71C5.14,65.22,7.41,64.28,8,62.31Z"/><path id="Path_10214" data-name="Path 10214" class="cls-84" d="M8,62.31c.42,2.58-1.81,3.55-3.08,5.09h0c-.34.08-.68.16-1,.26L2.2,67.48q2-1.82,4-3.62C6.64,63.18,7,62.34,8,62.31Z"/><path id="Path_10215" data-name="Path 10215" class="cls-66" d="M3.89,67.66l1-.26Z"/><path id="Path_10216" data-name="Path 10216" class="cls-66" d="M8.05,49.36a10.78,10.78,0,0,1,1.29-5,6.33,6.33,0,0,0,.74-4.26,3.57,3.57,0,0,0,.14-2.88c-.15-.74-.24-1.52.74-1.8s1,.46,1.25,1c.67,1.8,2.95,3,1.39,5.62-.62,1,1.05,2,2.09,1.94,1.84-.1,2.13.65,1.2,1.84-1.47,1.9.55,1.86,1.22,2.58.25,2.2-1,3.12-2.94,3.44-.75-.31-1.47-.4-1.7.59-.52,2.3-2.13,4-3.17,6-.6,1.11-1.37,2-2.8,1.78-1.44-2.43-.62-4.95-.17-7.4A16.39,16.39,0,0,0,8.05,49.36Z"/><path id="Path_10217" data-name="Path 10217" class="cls-67" d="M38.62,59.11c-1.06-.62-1.85-1.32-1-2.65.48-.76.87-1.44,2-.82a1.47,1.47,0,0,0,2-.51,1.38,1.38,0,0,0,.2-.61c.2-2,1.69-2.28,3-2.89,2.5-1.17,4.48-.12,4.93,2.65.11.69-.76.88-1.2,1.28-2.32-.18-2.19,1.32-2,2.9.26,2.74.21,2.84-2.31,2.25C42.35,60.27,40.33,60.19,38.62,59.11Z"/><path id="Path_10218" data-name="Path 10218" class="cls-75" d="M20.27,50.62a16.33,16.33,0,0,0,.94-2.34,2.44,2.44,0,0,1,3.18-1.35,2.38,2.38,0,0,1,1.1.88c.65.78.66,2.21,2.18,2.07-.65,3.17-2.33,3.95-4.88,2.29C22,51.63,21.11,51.14,20.27,50.62Z"/><path id="Path_10219" data-name="Path 10219" class="cls-75" d="M15.16,51.88c1-1.15,2.36-2,2.95-3.44.72-.3,1.16,0,1.26.7a2.08,2.08,0,0,0,.9,1.48c.05,1.43-.79,2.76-.16,4.32s-.62,1.68-1.65,1.37C16.31,55.68,15.49,53.94,15.16,51.88Z"/><path id="Path_10220" data-name="Path 10220" class="cls-75" d="M27.92,60l-1.48-3.23a38.14,38.14,0,0,0,3.84-2.42c.67-.61,1.4.44,1.23.64C30.23,56.54,30.87,59.34,27.92,60Z"/><path id="Path_10221" data-name="Path 10221" class="cls-85" d="M8.05,49.36c1,2.38-.71,4.58-.52,7a25.91,25.91,0,0,1,0,3.94l-.76-.35c-1.24-2.28-2-4.55-.16-7C7.38,51.93,7.1,50.38,8.05,49.36Z"/><path id="Path_10222" data-name="Path 10222" class="cls-86" d="M7.61,32.63l-1.17-.88C5.83,28.52,8.1,24,10.79,23.16c1,.1,1.4-1.24,2.43-1.14-.35.62-.94,1.29-.72,2,1,2.94-.59,4.77-2.62,6.44C9.25,31.29,9,32.51,7.61,32.63Z"/><path id="Path_10223" data-name="Path 10223" class="cls-68" d="M79.76,41.37a3.11,3.11,0,0,1-.28-.23,1.84,1.84,0,0,1-.19-2.59,1.66,1.66,0,0,1,.27-.26c.4-.35.94.09,1.22.5.9,1.33,0,2-1,2.58Z"/><path id="Path_10224" data-name="Path 10224" class="cls-67" d="M73.62,23.59c.54.08.71.29.56.55a.63.63,0,0,1-.86.21l-.08-.06a1.68,1.68,0,0,1-.41-.54Z"/><path id="Path_10225" data-name="Path 10225" class="cls-67" d="M67.8,69.79l-1,.25Z"/><path id="Path_10226" data-name="Path 10226" class="cls-80" d="M10.79,23.16c-1.71,2.73-3.73,5.31-4.35,8.59L5.25,31c-.93-2.8.89-5,1.68-7.4.59-1.75,1.31-3.47,1.8-5.26a3.64,3.64,0,0,1,.57-1C11,16,12.75,14.63,15.11,14.56l2.33.45c-.2.3-.33.8-.6.9C13.42,17.17,11.85,19.94,10.79,23.16Z"/><path id="Path_10227" data-name="Path 10227" class="cls-80" d="M17.45,15l1-.27Z"/><path id="Path_10228" data-name="Path 10228" class="cls-80" d="M19.47,14.42l-.4.71c-.2-.13-.41-.26-.6-.4Z"/></g><path id="Line_14" data-name="Line 14" class="cls-87" d="M34.08,60.57l147.3.63"/><g id="Se_stilart_site" data-name="Se stilart site"><g id="Se_dokumentationssite" data-name="Se dokumentationssite"><g id="Se_assetliste" data-name="Se assetliste" class="cls-88"><g class="cls-88"><path class="cls-89" d="M63.22,54.63a7.52,7.52,0,0,1-2.56-.4,6.29,6.29,0,0,1-2.14-1.32,1,1,0,0,1-.33-.39,1.12,1.12,0,0,1-.11-.47,1,1,0,0,1,.28-.68.92.92,0,0,1,.7-.3,1,1,0,0,1,.6.22,5.73,5.73,0,0,0,1.59,1.06,4.92,4.92,0,0,0,2,.36,3.85,3.85,0,0,0,1.47-.26,2.59,2.59,0,0,0,1.07-.7,1.44,1.44,0,0,0,.4-1,1.72,1.72,0,0,0-.41-1.19,3,3,0,0,0-1.18-.78,11.61,11.61,0,0,0-1.85-.53,8.78,8.78,0,0,1-1.79-.5,4.75,4.75,0,0,1-1.35-.81,3.24,3.24,0,0,1-.86-1.17,3.87,3.87,0,0,1-.3-1.58,3.53,3.53,0,0,1,.64-2.1,4.24,4.24,0,0,1,1.74-1.36,6.16,6.16,0,0,1,2.48-.48,7,7,0,0,1,2.36.39,4.75,4.75,0,0,1,1.78,1.05,1.2,1.2,0,0,1,.48.9.93.93,0,0,1-.29.67.87.87,0,0,1-.67.31.75.75,0,0,1-.48-.16,3.11,3.11,0,0,0-.86-.61,6.87,6.87,0,0,0-1.15-.45,4.06,4.06,0,0,0-1.17-.18,4.4,4.4,0,0,0-1.54.25,2.42,2.42,0,0,0-1,.68,1.64,1.64,0,0,0-.34,1,1.61,1.61,0,0,0,.39,1.12,2.72,2.72,0,0,0,1.09.71,12.21,12.21,0,0,0,1.6.49,17.16,17.16,0,0,1,2,.54,5.09,5.09,0,0,1,1.47.77,3.17,3.17,0,0,1,.92,1.17,4.1,4.1,0,0,1,.32,1.74,3.35,3.35,0,0,1-.68,2.1,4.47,4.47,0,0,1-1.79,1.4A5.83,5.83,0,0,1,63.22,54.63Z"/><path class="cls-89" d="M75.2,54.63a5.78,5.78,0,0,1-2.87-.69,4.82,4.82,0,0,1-1.9-1.9,5.68,5.68,0,0,1-.67-2.77,6.06,6.06,0,0,1,.71-3,5.2,5.2,0,0,1,1.86-1.92,4.84,4.84,0,0,1,2.43-.67,4.55,4.55,0,0,1,1.85.39,4.89,4.89,0,0,1,1.57,1.08,5,5,0,0,1,1.08,1.62,5.22,5.22,0,0,1,.42,2,.88.88,0,0,1-.32.66,1,1,0,0,1-.7.26H70.9L70.42,48h7.52l-.38.36v-.5a2.28,2.28,0,0,0-.48-1.23,2.95,2.95,0,0,0-2.32-1.11,3.81,3.81,0,0,0-1.16.19,2.57,2.57,0,0,0-1,.61,3.17,3.17,0,0,0-.68,1.11,5,5,0,0,0-.26,1.71,3.9,3.9,0,0,0,.46,1.92,3.29,3.29,0,0,0,1.24,1.27,3.42,3.42,0,0,0,1.74.45,4.08,4.08,0,0,0,1.2-.15,2.83,2.83,0,0,0,.8-.37,4.53,4.53,0,0,0,.56-.42,1.27,1.27,0,0,1,.6-.18.82.82,0,0,1,.6.25.84.84,0,0,1,.24.59,1,1,0,0,1-.44.8,4.58,4.58,0,0,1-1.49.92A5,5,0,0,1,75.2,54.63Z"/><path class="cls-89" d="M95.94,43.75a1,1,0,0,1,1,1v8.64a1,1,0,0,1-.29.73,1,1,0,0,1-1.43,0,1,1,0,0,1-.28-.73V52l.4.06a1.43,1.43,0,0,1-.29.8,3.46,3.46,0,0,1-.79.85,4.1,4.1,0,0,1-1.18.68,3.91,3.91,0,0,1-1.46.27,4.44,4.44,0,0,1-2.48-.71,5,5,0,0,1-1.74-2,6.1,6.1,0,0,1-.64-2.82,6.17,6.17,0,0,1,.64-2.85,5.06,5.06,0,0,1,1.73-1.93,4.6,4.6,0,0,1,4-.42,4.72,4.72,0,0,1,1.27.72,4,4,0,0,1,.84.93,1.81,1.81,0,0,1,.3.93l-.62.06V44.77a1,1,0,0,1,.28-.72A1,1,0,0,1,95.94,43.75Zm-4.08,9a2.86,2.86,0,0,0,1.65-.48A3.1,3.1,0,0,0,94.62,51a4.5,4.5,0,0,0,0-3.71A3.2,3.2,0,0,0,93.51,46a2.86,2.86,0,0,0-1.65-.48,2.9,2.9,0,0,0-1.64.48,3.3,3.3,0,0,0-1.12,1.3,4.5,4.5,0,0,0,0,3.71,3.25,3.25,0,0,0,1.11,1.31A2.91,2.91,0,0,0,91.86,52.79Z"/><path class="cls-89" d="M99.1,52.79a1.07,1.07,0,0,1-.16-.65.86.86,0,0,1,.42-.63.92.92,0,0,1,.59-.15,1,1,0,0,1,.59.31,4.44,4.44,0,0,0,1.25,1,3.58,3.58,0,0,0,1.67.36,3.41,3.41,0,0,0,.82-.13,1.51,1.51,0,0,0,.72-.4,1.11,1.11,0,0,0,.3-.85,1,1,0,0,0-.32-.8,2.42,2.42,0,0,0-.84-.49c-.34-.12-.72-.24-1.12-.35s-.85-.25-1.29-.4a4.54,4.54,0,0,1-1.17-.57,2.75,2.75,0,0,1-.85-.91,2.66,2.66,0,0,1-.33-1.38,2.6,2.6,0,0,1,.53-1.62,3.75,3.75,0,0,1,1.38-1.06,4.57,4.57,0,0,1,1.85-.38,5.28,5.28,0,0,1,1.22.15,5.19,5.19,0,0,1,1.24.47,3.7,3.7,0,0,1,1,.84,1.12,1.12,0,0,1,.23.62.71.71,0,0,1-.33.64.74.74,0,0,1-.58.18.85.85,0,0,1-.56-.22,2.55,2.55,0,0,0-1-.75,3.29,3.29,0,0,0-2.15-.16,1.68,1.68,0,0,0-.69.39,1.15,1.15,0,0,0-.28.82,1,1,0,0,0,.33.8,2.59,2.59,0,0,0,.87.5,9.1,9.1,0,0,0,1.18.36c.42.11.83.24,1.23.38a4.57,4.57,0,0,1,1.1.57,2.62,2.62,0,0,1,1.11,2.29,2.52,2.52,0,0,1-.57,1.67,3.64,3.64,0,0,1-1.44,1.05,4.74,4.74,0,0,1-1.83.36,6.49,6.49,0,0,1-2.27-.41A4.16,4.16,0,0,1,99.1,52.79Z"/><path class="cls-89" d="M108.66,52.79a1.07,1.07,0,0,1-.16-.65.86.86,0,0,1,.42-.63.92.92,0,0,1,.59-.15,1,1,0,0,1,.59.31,4.44,4.44,0,0,0,1.25,1A3.58,3.58,0,0,0,113,53a3.41,3.41,0,0,0,.82-.13,1.51,1.51,0,0,0,.72-.4,1.11,1.11,0,0,0,.3-.85,1,1,0,0,0-.32-.8,2.42,2.42,0,0,0-.84-.49c-.34-.12-.72-.24-1.12-.35s-.85-.25-1.29-.4a4.54,4.54,0,0,1-1.17-.57,2.75,2.75,0,0,1-.85-.91,2.66,2.66,0,0,1-.33-1.38,2.6,2.6,0,0,1,.53-1.62,3.75,3.75,0,0,1,1.38-1.06,4.57,4.57,0,0,1,1.85-.38,5.28,5.28,0,0,1,1.22.15,5.19,5.19,0,0,1,1.24.47,3.7,3.7,0,0,1,1,.84,1.12,1.12,0,0,1,.23.62.71.71,0,0,1-.33.64.74.74,0,0,1-.58.18.85.85,0,0,1-.56-.22,2.55,2.55,0,0,0-1-.75,3.29,3.29,0,0,0-2.15-.16,1.68,1.68,0,0,0-.69.39,1.15,1.15,0,0,0-.28.82,1,1,0,0,0,.33.8,2.59,2.59,0,0,0,.87.5,9.1,9.1,0,0,0,1.18.36c.42.11.83.24,1.23.38a4.57,4.57,0,0,1,1.1.57,2.62,2.62,0,0,1,1.11,2.29,2.52,2.52,0,0,1-.57,1.67,3.64,3.64,0,0,1-1.44,1.05,4.74,4.74,0,0,1-1.83.36,6.49,6.49,0,0,1-2.27-.41A4.16,4.16,0,0,1,108.66,52.79Z"/><path class="cls-89" d="M123.64,54.63a5.78,5.78,0,0,1-2.87-.69,4.82,4.82,0,0,1-1.9-1.9,5.68,5.68,0,0,1-.67-2.77,6.06,6.06,0,0,1,.71-3,5.2,5.2,0,0,1,1.86-1.92,4.84,4.84,0,0,1,2.43-.67,4.55,4.55,0,0,1,1.85.39,4.89,4.89,0,0,1,1.57,1.08,5,5,0,0,1,1.08,1.62,5.22,5.22,0,0,1,.42,2,.88.88,0,0,1-.32.66,1,1,0,0,1-.7.26h-7.76l-.48-1.7h7.52l-.38.36v-.5a2.28,2.28,0,0,0-.48-1.23,2.95,2.95,0,0,0-2.32-1.11,3.81,3.81,0,0,0-1.16.19,2.57,2.57,0,0,0-1,.61,3.17,3.17,0,0,0-.68,1.11,5,5,0,0,0-.26,1.71,3.9,3.9,0,0,0,.46,1.92,3.29,3.29,0,0,0,1.24,1.27,3.42,3.42,0,0,0,1.74.45,4.08,4.08,0,0,0,1.2-.15,2.83,2.83,0,0,0,.8-.37,4.53,4.53,0,0,0,.56-.42,1.27,1.27,0,0,1,.6-.18.82.82,0,0,1,.6.25.84.84,0,0,1,.24.59,1,1,0,0,1-.44.8,4.58,4.58,0,0,1-1.49.92A5,5,0,0,1,123.64,54.63Z"/><path class="cls-89" d="M130.14,44h4.7a.9.9,0,0,1,.67.27.92.92,0,0,1,.27.67.84.84,0,0,1-.27.64.9.9,0,0,1-.67.26h-4.7a.92.92,0,0,1-.67-.27.88.88,0,0,1-.27-.65.9.9,0,0,1,.27-.66A1,1,0,0,1,130.14,44Zm2.1-2.6a1,1,0,0,1,.72.29,1,1,0,0,1,.28.73v9.28a1.19,1.19,0,0,0,.12.58.6.6,0,0,0,.33.3,1.09,1.09,0,0,0,.43.08.8.8,0,0,0,.39-.08,1,1,0,0,1,.41-.08.61.61,0,0,1,.44.22.84.84,0,0,1,.2.6.88.88,0,0,1-.52.78,2.19,2.19,0,0,1-1.12.3,6.43,6.43,0,0,1-.8-.06,2.54,2.54,0,0,1-.89-.3,1.84,1.84,0,0,1-.71-.77,3.32,3.32,0,0,1-.28-1.49V42.45a1,1,0,0,1,.29-.73A1,1,0,0,1,132.24,41.43Z"/><path class="cls-89" d="M140.16,53.41a1,1,0,0,1-.29.73.94.94,0,0,1-.71.29,1,1,0,0,1-.71-.29,1,1,0,0,1-.29-.73V40.65a1,1,0,0,1,.3-.73,1,1,0,0,1,.72-.29.93.93,0,0,1,.71.29,1,1,0,0,1,.27.73Z"/><path class="cls-89" d="M144,42.51a1.37,1.37,0,0,1-.84-.21.86.86,0,0,1-.26-.71v-.32a.83.83,0,0,1,.28-.7,1.49,1.49,0,0,1,.84-.2,1.37,1.37,0,0,1,.86.21.82.82,0,0,1,.26.69v.32a.83.83,0,0,1-.27.72A1.43,1.43,0,0,1,144,42.51Zm1,10.9a1,1,0,0,1-.28.73.91.91,0,0,1-.72.29,1,1,0,0,1-.71-.29,1,1,0,0,1-.29-.73V44.85a1,1,0,0,1,.29-.73,1,1,0,0,1,.71-.29,1,1,0,0,1,.72.29,1,1,0,0,1,.28.73Z"/><path class="cls-89" d="M147.1,52.79a1.07,1.07,0,0,1-.16-.65.83.83,0,0,1,.42-.63.92.92,0,0,1,.59-.15,1,1,0,0,1,.59.31,4.44,4.44,0,0,0,1.25,1,3.58,3.58,0,0,0,1.67.36,3.41,3.41,0,0,0,.82-.13,1.51,1.51,0,0,0,.72-.4,1.11,1.11,0,0,0,.3-.85,1,1,0,0,0-.32-.8,2.42,2.42,0,0,0-.84-.49c-.34-.12-.72-.24-1.12-.35s-.85-.25-1.29-.4a4.54,4.54,0,0,1-1.17-.57,2.75,2.75,0,0,1-.85-.91,2.66,2.66,0,0,1-.33-1.38,2.6,2.6,0,0,1,.53-1.62,3.75,3.75,0,0,1,1.38-1.06,4.57,4.57,0,0,1,1.85-.38,5.28,5.28,0,0,1,1.22.15,5.19,5.19,0,0,1,1.24.47,3.7,3.7,0,0,1,1,.84,1.12,1.12,0,0,1,.23.62.71.71,0,0,1-.33.64.74.74,0,0,1-.58.18.85.85,0,0,1-.56-.22,2.55,2.55,0,0,0-1-.75,3.29,3.29,0,0,0-2.15-.16,1.68,1.68,0,0,0-.69.39,1.15,1.15,0,0,0-.28.82,1,1,0,0,0,.33.8,2.59,2.59,0,0,0,.87.5,9.1,9.1,0,0,0,1.18.36c.41.11.83.24,1.23.38a4.57,4.57,0,0,1,1.1.57,2.62,2.62,0,0,1,1.11,2.29,2.52,2.52,0,0,1-.57,1.67,3.64,3.64,0,0,1-1.44,1.05,4.74,4.74,0,0,1-1.83.36,6.49,6.49,0,0,1-2.27-.41A4.16,4.16,0,0,1,147.1,52.79Z"/><path class="cls-89" d="M157.14,44h4.7a.9.9,0,0,1,.67.27.92.92,0,0,1,.27.67.84.84,0,0,1-.27.64.9.9,0,0,1-.67.26h-4.7a.92.92,0,0,1-.67-.27.88.88,0,0,1-.27-.65.9.9,0,0,1,.27-.66A1,1,0,0,1,157.14,44Zm2.1-2.6a1,1,0,0,1,.72.29,1,1,0,0,1,.28.73v9.28a1.19,1.19,0,0,0,.12.58.6.6,0,0,0,.33.3,1.09,1.09,0,0,0,.43.08.8.8,0,0,0,.39-.08,1,1,0,0,1,.41-.08.61.61,0,0,1,.44.22.84.84,0,0,1,.2.6.88.88,0,0,1-.52.78,2.19,2.19,0,0,1-1.12.3,6.43,6.43,0,0,1-.8-.06,2.54,2.54,0,0,1-.89-.3,1.84,1.84,0,0,1-.71-.77,3.32,3.32,0,0,1-.28-1.49V42.45a1,1,0,0,1,.29-.73A1,1,0,0,1,159.24,41.43Z"/><path class="cls-89" d="M169.7,54.63a5.78,5.78,0,0,1-2.87-.69,4.82,4.82,0,0,1-1.9-1.9,5.57,5.57,0,0,1-.67-2.77,6.06,6.06,0,0,1,.71-3,5.13,5.13,0,0,1,1.86-1.92,4.84,4.84,0,0,1,2.43-.67,4.55,4.55,0,0,1,1.85.39,5,5,0,0,1,1.57,1.08,5.34,5.34,0,0,1,1.08,1.62,5.22,5.22,0,0,1,.42,2,.88.88,0,0,1-.32.66,1,1,0,0,1-.7.26H165.4l-.48-1.7h7.52l-.38.36v-.5a2.28,2.28,0,0,0-.48-1.23,3,3,0,0,0-1-.82,3,3,0,0,0-1.29-.29,3.76,3.76,0,0,0-1.16.19,2.57,2.57,0,0,0-1,.61,3,3,0,0,0-.68,1.11,5,5,0,0,0-.26,1.71,3.79,3.79,0,0,0,.46,1.92,3.29,3.29,0,0,0,1.24,1.27,3.42,3.42,0,0,0,1.74.45,4.08,4.08,0,0,0,1.2-.15,2.83,2.83,0,0,0,.8-.37,5.44,5.44,0,0,0,.56-.42,1.21,1.21,0,0,1,.6-.18.82.82,0,0,1,.6.25.84.84,0,0,1,.24.59,1,1,0,0,1-.44.8,4.69,4.69,0,0,1-1.49.92A5,5,0,0,1,169.7,54.63Z"/></g></g></g></g><path id="Path_11" data-name="Path 11" class="cls-89" d="M122,80.05h0a1.45,1.45,0,0,0-.44-1h0l-8.63-8.63h0a1.44,1.44,0,0,0-2,2.1l0,0h0l7.54,7.54-7.64,7.63h0a1.44,1.44,0,0,0,2,2h0l8.63-8.63h0a1.43,1.43,0,0,0,.44-1Z"/></g></svg>
