<svg id="Layer_1" data-name="Layer 1" xmlns="http://www.w3.org/2000/svg" viewBox="0 0 364.97 637.11"><defs><style>.cls-1{fill:#e0eaf3;}.cls-2{fill:#e8eef4;}.cls-3{fill:#d7e8f2;}.cls-4{fill:#cce2f3;}.cls-5{fill:#c5e0f3;}.cls-6{fill:#c0dcef;}.cls-7{fill:#bdd9ec;}.cls-8{fill:#f2f1f5;}.cls-9{fill:#ddeaf4;}.cls-10{fill:#ddebf4;}.cls-11{fill:#dee9f3;}.cls-12{fill:#cbe4f5;}.cls-13{fill:#cae3f4;}.cls-14{fill:#cfe5f5;}.cls-15{fill:#d4e8f4;}.cls-16{fill:#d6e9f5;}.cls-17{fill:#cfe5f3;}.cls-18{fill:#e5edf4;}.cls-19{fill:#cfe6f5;}.cls-20{fill:#c0dcee;}.cls-21{fill:#b8d6e6;}.cls-22{fill:#c5dae9;}.cls-23{fill:#c6d9e7;}.cls-24{fill:#f0f2f5;}.cls-25{fill:#c2e0f3;}.cls-26{fill:#b7dcf0;}.cls-27{fill:#b5d7e9;}.cls-28{fill:#bcd5e7;}.cls-29{fill:#b1d1e4;}.cls-30{fill:#c8e0f4;}.cls-31{fill:#c4e1f3;}.cls-32{fill:#c1d8ec;}.cls-33{fill:#b2d9ec;}</style></defs><title>burger_menu_dropdown</title><path class="cls-1" d="M39.28,189.52c-14-14.46-20.28-31.45-29.52-47.46-2.23-3.87.2-8.68-3.55-12.48C3,120.82.75,109.6,5.12,103.43c9.11-12.85,11.11-31.16,37-35.23,5.57-.87,9.49-3.89,13.9-6.26s8.91-4.88,15-3.41c4.31,2.26,1.78,4.7,0,6.88-2.3,2.88-5.75,5.09-9,7.38C46.35,83.62,46.29,84.33,63.88,92.45c6.42,3,7.17,4.26.6,8.24-9.57,5.82-18.37,12.11-30.75,14.62-3.7,8.67.92,17.14,1,25.7.05,4.24,2,8.5-1.78,12.55-2,2.16-1.05,4.71,1.35,6.42,11.86,8.44,8.44,18.59,6.43,28.61Z"/><path class="cls-2" d="M72.37,59.64a4.67,4.67,0,0,0-1.36,0C57,65.16,42.76,70.43,29,76.25,20.18,80,19.32,87,17.35,93.46c-.56,1.83.66,5-2.59,5.08-11.38.25-7.85,4.82-6.2,9.43,2.61,7.33-2.46,14.34-2.35,21.61C-2.32,115.93-1.32,102,4.72,88.18c2.48-5.66,8.69-9.55,14.42-13.94,8.93-6.82,21.56-9.36,30-16.36,4.4-3.65,12.48-3.21,18.41-5.89,6.17-2.78,13.34-4.62,17.51-9.12,3.23-3.49,7.55-3.17,12.07-3.21h0C97.45,47.83,87.3,56,72.37,59.64Z"/><path class="cls-3" d="M50.3,279.41c-3-7.13.25-14.25.09-21.39-.29-13.51-.08-27-.08-40.53a3.71,3.71,0,0,1,4.21.73,134.27,134.27,0,0,1,2.32,55.63,9,9,0,0,1-2.33,4.95A3.82,3.82,0,0,1,50.3,279.41Z"/><path class="cls-4" d="M50.3,279.41h2.77c1,.69,2.3,1.4,2.3,2.36,0,11-2.23,21.72-9.58,31.59l-2.17.5a3.6,3.6,0,0,1-3.19-2,6.25,6.25,0,0,1-.28-3.2A129.87,129.87,0,0,0,42.4,293c1.53-2.42.14-5.32,2.4-7.62C47.88,284,48.68,281.52,50.3,279.41Z"/><path class="cls-1" d="M53.05,217.48H50.31a18.59,18.59,0,0,0-4.66-14.82c-2.33-2.76-4.07-5.76-3.61-9.15l1.4-.46A7.45,7.45,0,0,1,48,195.89a14.64,14.64,0,0,1,1.51,2c.73,1,1.43,2.05,2.21,3.06a25,25,0,0,1,1.64,2.15A16.28,16.28,0,0,1,55.9,208C56.42,211.4,57.07,214.81,53.05,217.48Z"/><path class="cls-1" d="M42,193.52a4,4,0,0,1-2.76-4l0,0c4.64,0,4.49,1.71,2.75,4Z"/><path class="cls-5" d="M20,503.19c6.74-15.4,3.87-31.42,6-47.09,2.23-16.12.65-32.46,5.51-48.39.27-.89,1.46-1.63,2.23-2.44l1.4.93c2.09,2.33.28,4.69,0,7.44,2-4.59,1.15-9,1.79-13.23,1.09-2.84,1.9-5.7.88-8.66a8.18,8.18,0,0,1,0-2.47c.38-1.94.85-3.89-.12-5.83a15.84,15.84,0,0,1-1.18-2.17,16,16,0,0,1,.18-2c1.32-1,1.74-2.34,2.39-3.59,4.51-12.88,4.94-26.06,5.52-39.24.15-3.46-2.79-6.18-3.34-9.42,2.47-4.47-3.54-9.25.94-13.64,2-.78,4.71-1.9,4.53-3.38-1.32-10.63,8-20,6.44-30.63l0-4c12.2.57,16.6,5.94,12,14.47-10.05,18.47-9.42,37.14-1.61,55.87,1.35,3.22,4,6.63-1.34,8.8-11.19,4.51-10.81,12-8.82,19.11,2.8,10,2.54,19.34-4.66,28.45-5,6.28,3.75,12,2.44,18.3-4.48,8.12-2.07,16.12.87,24.11-.78,4.69-8.76,2.07-10.7,5.6,4.28,8.44,5.25,16.78-1,25-.1,2.26.5,4.5.42,6.76C36.6,487.81,30.25,493,30,500.22c-.14,3.36-3.55,5.07-8.56,3.91Z"/><path class="cls-6" d="M42.11,327.39c6.44,3.81,7.61,8.35,4.27,13.85-1.52,2.51-2.91,4.7,1.51,7.63,3.56,2.35,0,7.28-.81,10.84-1,4.55-4.82,8.7-4,13.73.18,1.18-2.41,2.58-3.72,3.88-2-.95-.91-3-2.72-4l-.42-4.09a2.51,2.51,0,0,1,0-3.82q1.56-6,3.11-12.07C43.28,344.86,38.11,335.87,42.11,327.39Z"/><path class="cls-4" d="M42.11,327.39c0,6.23,0,12.46-.08,18.69,0,2.58.65,5.32-2.7,7.27q0-18-.1-36c-1.55-2.24-2.34-4.2,2.78-4l.09.06C40.42,318.08,46.58,322.73,42.11,327.39Z"/><path class="cls-7" d="M36.41,381.28l2.88,0a6.08,6.08,0,0,1,0,8c0,.66,0,1.33,0,2,1.36,1.39.22,2.53-.72,3.69l-1.47.85a3.88,3.88,0,0,1-3.36-.54l-2.73-4C32.16,387.78,32.94,384.15,36.41,381.28Z"/><path class="cls-4" d="M36.6,373.33a4,4,0,0,1,2.72,4l-2.74,2Q36.6,376.34,36.6,373.33Z"/><path class="cls-8" d="M36.22,365.42c0,1.28,0,2.55,0,3.82C33.64,368,33.68,366.68,36.22,365.42Z"/><path class="cls-3" d="M42.07,193.5a4,4,0,0,0-2.75-4c1.51-7.47-2.74-14.88-.48-22.38.41-1.34-.55-2.77-2.68-2.89-8.19-.49-6-6.37-9.36-9.34-.43-.38-.29-1.3,0-1.88,5.55-12.09,4.72-12.86,1.7-24.72-1.14-4.47-1.2-10.07,2.55-14.69,8.78-2.6,14.59.27,19.82,5.21,8.81,8.3,14.89,7.91,22.4-1.38,6-7.47,11.41-15.26,22.59-19.19-.5-3.65-4.48-4.64-6.84-6.52-6.06-4.83-5.74-8.24,1.06-13.4,11.38-8.65,22.39-11,36.37-4a10.16,10.16,0,0,0,11.23-.91c3.6-2.88,9.61-3,13-5.22,10.68-7.11,25.27-9,36.36-15.25,5.25-3,10.55-4,16.59-1.92,10,3.39,19.64,2.32,29.09-1.23a39.2,39.2,0,0,1,12-.25c8.83,1.66,13.63,6.51,17.22,12,3.71,5.7,3.94,12.76,15.23,14.9,5,1,1.31,5,.65,7.85,4.7-1.27,10.17-.91,11.48-5.78.84-3.1,4.76-3.27,8.77-3.39,15.37-.44,20.49-3.75,22.13-14.5.5-3.32-.82-7.08,5.3-8,7.08-1,9.54,2.74,11.52,6.7,2.09,8.08-1.2,15.93-2.64,23.75-2.11,11.47-7.7,22.51-9.36,34.12-.4,2.81-1.65,6-6.69,6.82-7.68-5.87.73-10.89.87-15.59-5.74,7.77-5,17.41-7.51,26.53-5.05,4.09-28.72,9.2-34.54,7.43s-6.22-6.17-7.5-9.47a4.65,4.65,0,0,0-5.34.51c-3.44,2.27-7.16,5-11.91,2.57-5.25-2.66-3-6.21-.92-9.75,4.53-7.62-5.89-13.37-5.38-20.55,4.46-12.91-9.46-16.07-20.88-20.24-6.86-2.49-12.71-1.4-14.53,4.78-5.26,17.84-16.63,30.15-45.27,30.43-9.87.09-20.35,2.14-28.86,7.81-4.69,3.13-12.54,3.76-19.18,5-13.94,2.68-11.58,2.43-9.64,12.53,2.44,12.8,7.07,25.94,1.72,39.07-2.64,6.48-9.8,8.22-17.94,8.87-9.91.79-18.35-.45-21.89-8.39-10.93-8.1-12.76-19.67-20.78-27.13,5.25,12,4.09,25.54-1.29,39.06Z"/><path class="cls-9" d="M232.26,51.65C223.94,58,213.58,57,204.61,53.9c-7.22-2.5-11.82-2.34-16.64,1.86-.29.25-.73.41-1,.66-5.54,4.81-15,3.32-20.8,6.27-6,3-9.37,8.87-18.28,9-3.74,0-5.08,1.76-7.18,3.7-5.4,5-8.51,5-16.1,1.45-4.06-1.88-7.12-6.18-13.65-1.87-3.26,2.15-4.71-1.83-7.15-3.9-3.53,4.06-5.36,8.72-13,10.29-5.74,1.19-5.86,4.3-1.2,7.63,4.47,3.19,9.48,6,15.57,9.79-18,2.67-23.59,12.72-30.17,22.13-4.22,6-9,7.81-17.61,6.62-3.91-.54-7.5-2-8.19-4.62-2-7.62-9.75-8.65-18.19-9.26,1.54-5.34,8.26-2,12.2-3.67,2.87-1.23,8-.62,8.84-3.59,1.68-6.22,9-7.4,17.33-10.22C57.3,95,51.94,88.46,41.55,86c8.39-5.72,11.9-12.88,21.09-17.1,4.17-1.92,8-5.33,9.73-9.27,6.27-4.2,12.57-8.38,18.78-12.63,2.95-2,6.11-4,6-7.34,9.2.15,16.63-5.13,26.19-4.35,3.57.3,4.5-2.9,6.7-4.46s3-5.05,6.33-4.78c11.47.93,18.46-5,26.49-8.85,6.29-3,14-2.21,19.73-5.53,1-.6,1.84-1.34,2.76-2,10.9.8,16.38,6.4,13.34,13.86-.9,2.21-2.84,4.17-3.44,6.5-2.2,8.53,3.67,13.15,15.52,12.24C221.2,41.5,230,42.7,232.26,51.65Z"/><path class="cls-10" d="M334.26,57.65c-2.5-.85-3.1-3.56-6.21-3.63-3.34-.08-7.49.41-4.31,3.71,2.78,2.88,1.77,4.78-.64,7.06a14.53,14.53,0,0,0-2.82,3.38c-1.73,3.2.65,7.73-8.22,8.17-4.82.25-9.25,4-14.89,1a4.31,4.31,0,0,0-4.93.37c-1.85,1.68-.78,3,1,4.26,1,.71,1.37,1.64.06,3-3.6,1.34-8.52-1.45-12.51,1.06-3.67,2.32-7.6,3.91-11.46.25-.13-1.83,1.56-2.3,3.32-2.72,3-.71,4.85-2.44,4.34-4.46s-4-3.26-6.36-3c-6.9.78-7.8-1.26-8.4-5.81-1-7.86-6.55-14.35-16.21-18.6.13-6.21,1.8-12.38.48-18.64-.8-3.78.2-8,5-9.64,10.43-3.5,12.58-8.77,9.24-16.13-.58-1.27.37-2.57,1.78-3.55,5.53,4.28,11.78,3.58,18.1,1.23,3.11-1.16,5.53-3.34,9.47-3.23.55.07,1.09.15,1.64.21a13.53,13.53,0,0,1,2.79,1.32c.41.27.79.56,1.2.83.77.56,1.48,1.17,2.18,1.78a39,39,0,0,0,4.66,3.26,27.49,27.49,0,0,1,2.44,1.57c.82.54,1.57,1.11,2.32,1.7.39.29.74.59,1.12.88a13.31,13.31,0,0,1,1.95,1.95,7.69,7.69,0,0,1,1,2.29c.28,2.2,2.36,3.6,4.36,5.06,8.37,6.76,11.84,15.57,18.42,23.1C337.29,49.15,339.24,53.65,334.26,57.65Z"/><path class="cls-11" d="M262.59,3.7c-1.73,4.08,4.61,6.66,3.27,11.18-1.39,4.71-.45,9-10,9.22-5.24.11-8,4.41-6.24,7.45,2.36,4-.48,7.9,1.41,11.65,2,3.94-2,6.07-5,8.46H232.26c-7.11-5-13.52-11.59-25.19-5.18-2.63,1.45-5.29.21-7.56-.89-8.33-4-11.36-13.89-6.29-20.36,1.64-2.08,6.52-3.4,3-6.61S193.88,9.55,185.4,9.7c.68-.44,1.4-1.28,2-1.25,14.37.73,27.14-5.59,41.57-4.92,3.46.16,7.26-.89,10.54-2A27.73,27.73,0,0,1,262.59,3.7Z"/><path class="cls-11" d="M185.4,9.7l-2.76,2Z"/><path class="cls-4" d="M47.56,197.51c-2-5.55-1.4-11,.59-16.52,2.63-7.28-.5-14.35-2.12-21.42-.67-2.9-1.71-5.58-.42-8.46a28.32,28.32,0,0,1,3.24.59c6.16,2.1.7,7.69,6,10.31,4.27,2.09,6.56,5.21,6.63,9.33.08,5.5,7,8.19,10.84,12.19-5.07,10.45,6.26,19.1,6.75,29.38.27,5.45,11.11,11.17,3.76,18.74-2.44,1.93-5.38,3.53-7.39,5.75C74,239,71.86,241,74.57,242.6c3.34,2.05,5.73,0,7.86-1.8.62-.78,1.31-1.53,2-2.28a16.85,16.85,0,0,1,3.5-3.26,8.94,8.94,0,0,1,3.61-.84c4.52,4.26,3,16.93-2.48,21.32-9.47,7.53-9.47,7.53,3.39,13.11,3.07-.52,2.48-2.47,2.78-4,.51-2.56,1.94-4.51,5.8-4.77,4-.27,9.38,1.45,9,3.38-1.86,9.86,13.79,18.36,3,29.15-5.29,5.28-1,13.18-6.17,19.8-2.57,3.28-4.28,5.78-8.92,7.36-14.28,4.86-16.66,7.89-10,17.49,5.11,7.34-2.09,10-7.35,14.29A65.89,65.89,0,0,1,91.77,355c3.52,1.62,4.72.93,6.61-2.09,8-12.68,28.07-20.82,46.64-18.48,6.43.81,9.41-.79,12.65-3.84-7.51,2.67-18.71,1-21.95-3.13-1.66-2.14-.88-3.85,1.66-5.17,10.9-5.64,13.77-13.22,10.65-22.39-1-3-1.42-7.1,2.28-8.32,11.57-3.79,11.82-12.6,17.58-18.86.83-1.35,1.28-2.72,0-4.1a16.52,16.52,0,0,1-2.61-2.69,2.91,2.91,0,0,1-.14-2.22c.43-.64,1.85-.81,2-1.27.32-1.29.74.17-1.06-.12a15.24,15.24,0,0,1-2.91-.94c-1-.38-1.89-.79-2.84-1.19-3.48-1.38-7.5-2.48-6.72-6.25a5.8,5.8,0,0,1,1.57-2.1c.37-.26.78-.51,1.14-.77,1.79-.69.4-1.92.83-2.86,1-1.62,3-2.28,5.15-2.8,3.86-.43,4.8-2.75,6-4.94a16.11,16.11,0,0,1,6.66-4.54c8.17-3.53,17.41-5.47,25.76-8.2,9.17-3,18.67,4.89,25.91-2.76-6.67,2.84-12.42,1.94-17.25-1.73s-12.67-4.77-15.75-9.36c-3.22-4.82,2.31-6.7,6.88-5.09,13.13,4.62,23.78,2.69,35.68-2.86,8-3.71,15.56,2.25,16.1,7.1,1.38,12.17,15.09,21.41,12.59,34.69,7.33-.34,18.54-10.19,18.19,3.58,3,6.16-2.33,11.89-1.7,17.93a7.35,7.35,0,0,1-.08,5.36c-.85,2.09-3,3.79-3.59,6-1.09,4.9,4.75,5.15,8.6,6.73,5.94,4.42,4.57,9.59,3.17,14.9-2.31,8.78-1.59,16.88,9.29,23.1,4.78,2.73,11.86,6.52,6.57,11.29-6.75,6.07-11.4-1-17.53-4.2-2.26,8-7.1,14.14-14.95,18.51,2.51,3.37,6.37,2.09,9.1,3.07,3.43,1.23,5.8,3.69,3,5.41-11.06,6.77-15.29,19.67-33.61,20-4.67.4-9.12-.56-13.63-1.14-15.59-2-18.94-4.76-17.74-15.85.69-6.31.11-11.25-10.6-12.41-7-.76-9.2-7-18.77-10,5.79,10.41-2.35,20.86,10.94,28,2.66,1.42,3,4.08,1.56,6.46-7.06,12-20.91,16.94-38.94,13-8.09-1.78-13.19.32-15.77,4.84-6.24,10.95-15.93,14.7-31.32,9.94-1.6-.49-3.64-.17-5.47-.26-18.6-3.1-31.23-14.75-28.42-26,.59-2.37,4.52-5.2-.15-7.11a20.85,20.85,0,0,0-13.37-.31c-4.21,1.23-6,4-6,7.25.07,3.07,2.17,5.77,3.73,8.51,3.08,5.4,5.45,10.38-1.4,15.56-3.64,2.75-4.42,6.56.46,9.74,5.34,3.48,11,2.54,16.71.78,3.67-1.13,3.45-2.88.78-4.52-4-2.43-4.8-4.86-.31-7.3,4.85-2.64,9.44-2.1,13.41,1.12a33.94,33.94,0,0,1,6.69,7.53c.43,4.17,2.08,8.37-.32,12.51-12,3.25-24.87,2.83-37.25,2.81a154.82,154.82,0,0,1-18.56-1.11c-.15-2,.57-4.3-.59-5.91-5.07-7.09-7.61-13.7,3.37-19.2-2.22-5.24,4.42-9.93,1.22-15.49-3.73-6.47-3.64-13.23-1.67-20.34,1.31-4.72,2.58-7.46,9.73-7.19A3.34,3.34,0,0,0,63,351c-10.48-11.23-8.9-24.64-9-37.6-.05-4.06,3.78-7.68,0-12.39-2.59-3.19,3.48-6.5,5.64-9.63,6.46-9.42,6.52-10.27-6.46-15.9.17-6.24-.85-12.52,2.26-18.62a7.28,7.28,0,0,0,.2-5.87c-4.59-11-1.57-22.33-2.51-33.47,0-4,0-8,0-12-1.65-1.06-1-2.95-2.73-4h0c-1.61-1.08-1-3-2.76-4Z"/><path class="cls-8" d="M42,309.37c1.18-5.28-2.65-11,2.67-15.92C43.58,298.74,47.44,304.46,42,309.37Z"/><path class="cls-3" d="M47.56,197.51a4,4,0,0,1,2.76,4A4,4,0,0,1,47.56,197.51Z"/><path class="cls-3" d="M50.33,201.5a3.94,3.94,0,0,1,2.73,4A3.92,3.92,0,0,1,50.33,201.5Z"/><path class="cls-6" d="M36.54,395.31c.92-1.33,1.84-2.67,2.77-4,3.86,2.67,3.87,5.33,0,8-3.56,1.17,1.7,6.56-5.46,6l-.13,0q0-5,0-10Z"/><path class="cls-12" d="M17.2,507.18a4,4,0,0,1,2.75-4l.09,0c2.14,1.76,1.45,3.15-1.06,4.3Z"/><path class="cls-12" d="M17.2,507.18l.06,0"/><path class="cls-13" d="M17.26,507.21a4.11,4.11,0,0,0,2.78-4c3.76.07,7.22.11,7-3.87-.48-7.61,5.08-13.18,12.28-18.12,7.91-4.54,13.22.23,19.14,2.77.54-10.3-2.76-12.3-15.54-9.28-2.11.5-4.06,1.47-6.35.52,0-2.28-.36-4.81,2.28-6.4,6.4-3.86,4.55-8,1-12-2.25-2.56-5-4.85-.48-7.54,4.39.8,8.45-.5,12.64-1,4.11.33,8.51.72,10.13,3.91s-1.75,4.68-5.23,5.78c-.52.72-4.88-1.69-2.36,1.55.58.7,1.14,1.38,1.79,2,8,4.14,16.63,1.46,24.69.64,5.27-.54,7.18-4,2-7-2.84-1.6-6.08-2.72-7.21-5.45-1.55-5.43,2.36-8.37,9.11-9,7.91-.75,12.45-3.47,13.63-9.18a5.51,5.51,0,0,1,1.78-2.65c4-3.77,4.73-6.64,2.47-9.57-.71-4-4.67-8,0-12a40.39,40.39,0,0,1,8.27-8c5,.15,9.89-.14,14.84,1.33,8.52,2.52,11.46,1.59,15.46-4.8a43.8,43.8,0,0,1,8.72-10c4.48-3.89,10.4-4.53,14.19-1.49,7.23,5.8,14.91-1.14,21.94,1.45,1.15.42,2-1.86,2.63-3.05,2-3.6,2.88-7.43,10.21-8.12,3.91-.36,3.11-3.64.57-5.54a21.1,21.1,0,0,0-5.72-2.67c-5-1.69-6.74-4.41-4.75-8.1,2.52-4.65,2.58-8.83-1.87-13.08-3.05-2.92-1.65-6.12,3.1-7.19,3.76-.84,8.67-2.6,10.89,2.58,1.88,4.38,5.72,7.41,13.58,7.2,6.2-.16,9.78,3,9.27,7.95a60.61,60.61,0,0,1-1.3,9.84c-1.44,5.38,2.54,9.37,10,9.49,6.55.11,12.37,2.51,18.85,2.23,4.21,3.42-.78,6.06-1.69,9.75,6,.11,11.33,1.37,15.83,4.35,3.47,2.3,7.41,3.95,12.41,2,4.27-1.71,9.47-4.81,12,.93,2.2,4.93-2,8-8.15,9.94-2.42.78-7.14-1.14-7.08,2.06,0,2.82-4.89,5.8-.47,8.27,3.52,2,6.82-.38,10-1.59,2.72-1,5.64-3.13,8.61-1,2.6,1.83,1.33,4.4.26,6.59-2.47,5.06-7.12,8.45-14.65,9.37-7.28.88-8.82,4.23-5.87,8.4,2.4,3.4.9,5.73-2,8-3.37,2.7-7.25,1.88-11.31.64-8.5-2.58-14.95-6.31-15.89-13.51-5.55,7.69-1.23,15.4,10.12,17.72,3,.63,6.39.37,9.23,1.68,4.84,2.23,7.8,5.72,11.38,8.8,4.22-4.15,9.51-2.22,14.95-.86-1.54-3.15-5.63-6.08-1.17-8.53,5.37-3,11.57-3.55,17.41-.09,2.24,4,.43,8.09-1.4,11.61-9.36,18-2.3,36.56-4.16,54.79-.35,3.45,2.57,6.45,6.76,8.16,13.1,5.34,20.08,14.17,25.13,23.76,2.21,4.21,5.81,5.45,11,6a88.91,88.91,0,0,1,13.1,25.84c-15.67,7.43-24.14,17.55-22.78,31.52.18,1.91-1.93,3.92-4.3,4.83-11.17,4.31-19.93,11.5-32.4,14.25a31.62,31.62,0,0,1-6,.19c-5.68-1.21-11.83.76-17.41-1.28-2-.81-3.44-3-5.54-2.73-11.29,1.38-16.77-2.66-21.83-9.54-2.91-4-9.5-6.71-6.28-12,3.72-6.08,11.69-3.68,20.82-4-10.33-4.8-18.43-4.62-25.56.21-6,4-12.61,4.88-20.17,4.8-13-.14-15.67-3.25-9.37-11.32,1.34-1.72,3.23-3.27,2.58-6.23-4.88.75-6.09,4.52-9.66,6-4.34,1.79-8,1.1-11.11-1.35s-2.76-4.61-.07-7.83c10-12,26.4-12.39,42.61-13.21,4.34-.22,7.3,2.38,10.55,4.26,8.73,5,17.87,8.37,28.4,2.23a12.49,12.49,0,0,1,6.48-1.43c10.58.27,10.47-2.5,5.43-8.19-6.89-7.78-5.31-10,9.6-17-3.89-2-6.92,0-9.87.78-5.25,1.41-10.31,1.41-13.76-1.93-4.38-4.24-8.62-7.6-17-6-3.17.62-5.8-1.58-5.07-3.57,5.14-14-12-10.21-19-10.89-20.05-1.92-39.28,3.32-58.55,6.93-4.44.83-4.78,2.65-2.85,5.18a65.91,65.91,0,0,0,14.23,13.31c6,4.28,13.81,8.46,10.83,16-2.36,6-20.81,17.63-28.62,17.35-13.06-.46-2.95-6.7-4.49-11-10.59,3-21.2,4.18-32.38.73-6.38-2-11.94,1.06-16,4.93-4.24,1-8.12.89-11.07-2-2.74-7.37-4.23-14.93-1.12-22.3,2.15-5.08-.63-8.14-5.21-11.16-2.31-1.53-4.38-3.89-7.85-3.27-3.86.68-3.2,3.59-3.66,5.77-1,4.82-3.32,8.87-10.72,10.12-4-1.46-4.27-4.31-3.64-6.78,1.63-6.41-2.53-10.62-8.93-14.14-.44-.25-.64-.83-1.5-.78a5.25,5.25,0,0,1,2,2.34c2,8.7-3.75,12.13-15.13,11.67-3.13-.9-4.12-3.06-3.24-4.87,3.26-6.68,6.54-12.82-3.71-18.42-3.34-1.82.3-5.95,4-5.63,12.76,1.08,10.84-4.32,9.26-9.82-.67-2.35-4.88-4.83-.09-6.94a12.77,12.77,0,0,1,12.66,1.1c7.89,5.63,13.17,12.68,19.09,19.35,1.93,2.19.83,4.56-2,6.21-3.41,2-6.41,1.47-8.81-.83a5,5,0,0,0,6.32,2.09c6.93-2.65,10-8,11.72-12.76,1.12-3.13-2.55-7.1-7.48-9.76-9.74-5.24-20.54-9.42-28.82-16.21-5.12-4.19-7.27.19-9.46,3.13-4.88,6.55-8.67,14.5-22.83,10.59"/><path class="cls-14" d="M53.08,461.24v-2c-.87-.66-.87-1.33,0-2,1.17-.44,2.39-.83,3.51-1.33,3.76-1.66,6.15-3.29-.2-4.79-2.08-.5-4-1.24-6.07-1.88-1.77-1.33-1.54-2.66,0-4,0-.33.07-.73-.16-1-7.16-7.3-7.73-15-2.58-23,5.16-2.38,10-6.17,16.42-1.36,2,1.52,5,1.53,7.58.66,10.16-3.37,20.74-1.1,31.13-1.3,1.33,1.85,2.82,3.43,6.32,2.69,3-.64,6.19-1.4,8.75.87,0,2.69-3.2,3.49-5.49,3.73-8,.82-11.41,4.42-12.2,9.67-.72,4.78-3.21,6.44-10.51,6.18-4.61-.16-13-.05-11.68,6.83-1.11,4.05,2.46,9.61-6.17,11.28C65.66,461.7,59.75,467.86,53.08,461.24Z"/><path class="cls-12" d="M36.54,475.23A25.59,25.59,0,0,0,40.91,473c4.68-3.83,9.31-4.59,15.18-1.06,2.22,1.34,5.78,1.52,9.75,2.48-4.07,4.51-7.67,9.1,3.49,14.13-14.4-.26-19.23-9.55-30-7.3C36.08,479.78,36.62,477.43,36.54,475.23Z"/><path class="cls-7" d="M33.84,405.3c3.42-1.23,2-4.8,5.46-6-.1,5.43.92,11-4.45,16.37C33,412,34.11,408.59,33.84,405.3Z"/><path class="cls-12" d="M50.31,445.26c0,1.33,0,2.66,0,4-3.68,2.82-7.35,5.12-11,0,.4-2-1.57-6,4.86-2.8C46.06,447.39,48.26,445.75,50.31,445.26Z"/><path class="cls-6" d="M39.3,389.32v-8C43.19,384,43.17,386.65,39.3,389.32Z"/><path class="cls-15" d="M174.37,237.47a8.73,8.73,0,0,1-5.5,4c-1.19,2.31-1.94,4.83-5.52,6-2.27,0-4.32.4-5.52,2,.87.66.87,1.33,0,2h0c-1,.63-1.79,1.37-2.75,2-.53,4.38,6.33,3.4,8.27,6,1,.63,1.78,1.36,2.75,2h0c.87.66.87,1.33,0,2,0,.67,0,1.33,0,2,.87.7,1.88,1.3,2.75,2,3.47.4,6.92.82,2.76,4-2.81,1.95-5.77,1.67-8.69.21-1.87-.94-3.56-3.31-5.2-3-17,2.89-21.44-8-29.72-14.25-5.7-4.32-10.19-5.34-15.52-.28a7.74,7.74,0,0,1-8.26,2.08c-3-1-4-3.28-2.8-5,2.65-3.91-6.36-10.07,1.72-11.42,8.89-1.49,19.52-8.6,28.38.73,2.08,2.19,5.19,2.54,8.55,1.68,1.87-.48,3.32-1.47,3.12-2.9-.41-3-4.38-3.07-7.15-3.83-6.81-1.89-14.59-2.84-14.87-9.83-.11-2.65,1.91-4.46,5.1-5.35,8-2.23,12.74,2,18,5.07,2.13,1.24,4,2.7,6.66,3.43a6.48,6.48,0,0,0,5.84.67c1.37-.46,1.52-.57.44-.3a9.15,9.15,0,0,1-4.9.37c-9.21-5.38-6.75-10.25,2.65-15.2-28,5.92-29.36,5.68-31.54-5.26-10.15,7.13-10.37,7.19-5.17,16.67,2.4,4.38-2.08,8.3-5,6.69-10.68-5.94-16.36,2.35-24.39,3.09h0c-1.71,1.05-1.08,2.94-2.75,4v2c-10.9-.11-11.93-2-5.52-10,2-2.67,3.11-5.49,2.75-8.59-.19-1.65,0-4.12-2.08-4.43-11.13-1.62-9.44-6.18-6.47-11.91,1.36-2.63.28-5.71-3.18-8.15-7.56-5.35-7.33-5.46-1.43-11.31a15.53,15.53,0,0,0,2.14-3.55c4.36,1.62.94,7.29,7.11,7.66,5.9.36,12.14.72,17.75-.3,4.86-.89,8.52-3,9.09-8.27.92-8.57,4.76-16.91-2.92-24.88-.68-.69-.93-2.4-.31-2.84,7.85-5.63.5-9.14-3-13.4-4.44-5.33-3.23-7.13,5.72-9,7.85-1.6,15.93-2.15,23.61-4.79,4.81-1.64,10.17-1.88,12.34-6.13a2.81,2.81,0,0,1,1.93-1.28c11.07.61,20.84-4.32,31.56-4.12,11.94.22,21.26-2.87,24.17-10.79,2.45-6.65,8.67-12.42,8.3-19.69-.15-2.93,2.66-4.1,6.33-4,6.27.11,13.59-2.81,17.56,3.85,1.58,2.66,6.61,1.72,10,2.59,9.38,2.42,10.69,4.37,7,11.65-1.07,2.13.52,3.87.24,5.8-5.28,6.13-14.33,9.64-20.31,15.35-1.78,1.7-3.26,2.93-2.36,5,1.16,5.62,2.12,11.16-9.84,10.63,4.65,3.11,9.71,1.55,14.64,1,17.37,0,29.47,6.19,32.95,16.86-10.82,1.17-22.39,6-31.08-3.36-2.81-3-5.27-1.81-8.95-.26-11.19,4.71-22.49,9.39-35.13,11.86-2.66-1.41-3.72-.65-3.73,1.53-15.67,11-11.85,18,6.5,29.16,2.95,1.78,8.7,1.84,7.73,5.84-.86,3.51-5.55,3.81-9.57,4.64-8.6,1.77-15.91,13.49-12.43,20.8C179.56,229.58,179.59,233.7,174.37,237.47Z"/><path class="cls-16" d="M224,125.58c-4.71-2.09-7.85-4.26.23-6,2.66-.56,6.13-.8,6.61-2.77,1.85-7.43,10.37-8.88,18-11.26,4.47,4.68,1.9,11.65,10,15.36,2.08,1,.5,3.7-1.65,5.22-1.61,1.14-3.79,2.08-4.72,3.45-1.19,1.78-1.3,4,1.66,5.2,2.38,1,4.22,0,5.76-1.49,3-2.82,5.58-6,11.58-7,3.7,2.67,1.73,6.18,2.26,9.24.43,2.43,1.2,4.66,5,5.25a7.61,7.61,0,0,0,3.92-.5c8.23-3.83,19.09.31,26.88-4.71,2.51,8.81.19,17.5-1.62,26.15-1.17,5.58-1.43,10.6,1.15,16.32,3.25,7.2.46,15.33,4.38,22.9,1.47,2.83-2.49,6.81-6.6,8.05-13,3.92-10.95,9.28-3.87,15.55-.55,5.32-4.72,7.06-11.56,6.16-3.91-1.66-7.48-3.7-11.35-5.44-6.25-2.81-10.19-7.25-8.15-12.57,1.64-4.26,2.51-5.75-5.1-4.86-3.13.37-4.18-3.41-3.27-5.64,2.55-6.22-1.64-11.16-3.8-16.84-3.71-9.71-2.77-20.11,2.93-29.8-5.87-10.94-17-16.12-33.08-16-3.87-5.25,2.62-7.51,5.84-10.71,1.57-1.75,5.43-2.87,2.92-5.7a5.55,5.55,0,0,0-2.39-.84,13.22,13.22,0,0,0-2.6.19c-.81.23-1.63.43-2.43.67s-1.52.56-2.26.86c0,0-1.08.5-1.07.52a9.94,9.94,0,0,1-2.24.92Z"/><path class="cls-17" d="M301.19,223.48c-1.87-.94-3.85-1.78-5.58-2.84-7.76-4.76-7.46-7.87,1.91-10.52,5.43-1.53,9.75-3.3,12.3-7.17,1.46-2.24,2.85-4.64-.65-6.15-5.77-2.5-4.63-5.49-3.09-9.3s3.59-8.35-2.69-11.66c-2.07-1.09-1.08-2.88-.8-4.57,1.62-9.66,2.85-19.36,4.43-29,.37-2.26,1.6-4.45,2.43-6.67-2.32-10.94,3.82-20.42,9.89-31.27,2.89,7.49-3.84,13.22-1.56,19.35,0,7.54,0,15.09-.12,22.64,0,2.58.63,5.33-2.66,7.3-2.52-5.42-1.38-10.89-1-16.38-1.83,10.48,1.9,21.3-3.08,31.61a1.18,1.18,0,0,0,.61,1.69,1.2,1.2,0,0,1-.42-1.14c.26-1.62,1.64-2.12,3.72-1.84.84,9.58,2.52,19.07,7.15,28.12,2.9,5.68,3.72,11.46,4.14,17.49.9,12.83,2,25.67,5.31,38.34-2.9,7.6,4.94,14.63,2.27,22.2-1.76,3.38-6.23,3.07-10.1,3.86,2.14,1.83,5.74,1.32,8,2.76,2.17,1.13,3.55,2.61,3.93,4.55-.75,3.61-.85,7.1,3.4,9.81.89,2.31,1,4.58-.84,6.71-11.22-1-23,1.52-33.41-4.46-6.18-3.54-11.6-8.36-20.09-9.49-10.24,1.88-10.31,1.82-11-8a14,14,0,0,0,5.51-4v-6c3.18-7.27,12-10.66,19.68-14.67,5.21-2.71,10.81-5.08,15.48-8.25,7.82-5.31,6.77-8.52-3.8-10.39C300.26,234.32,304,227.8,301.19,223.48Z"/><path class="cls-4" d="M53.77,149.49l.77-.67c.2.26.57.53.54.78s-.47.45-.72.67Z"/><path class="cls-18" d="M301.18,5.7c1.15,2,2.91,3.74,2.77,6-3.54-1.43-8.15-2.08-8.3-6l1.13-.83C298.4,4.74,300,4.68,301.18,5.7Z"/><path class="cls-18" d="M309.46,15.69c3.21,1.45,2.68,3.8,2.74,6C305,21.21,310.43,17.68,309.46,15.69Z"/><path class="cls-3" d="M272.53,57.17c-.32-.53-1.08-1.21-.86-1.57.49-.82,1.34-.68,1.65.23a11.15,11.15,0,0,1,.3,1.82Z"/><path class="cls-18" d="M306.71,13.69l2.75,2Z"/><path class="cls-18" d="M304,11.69l2.76,2Z"/><path class="cls-18" d="M292.92,3.7h2.75c1.27.67,1.27,1.34,0,2h0Z"/><path class="cls-18" d="M290.17,1.71l2.75,2Z"/><polygon class="cls-3" points="273.62 57.65 274.74 58.1 274.24 58.46 273.62 57.65"/><path class="cls-19" d="M284.64,287.42c1.9-1.91,5-2.68,7.05-1.15,6.92,5.1,16.69,7.66,22.59,13.59,7.8-4.89,7.78-4.88,16.2.52,1.86,1.19,4.27.93,6.52,1,6.36,3.6,6.05,8.84,5.38,13.66-3.14,22.59-1.86,45.59-10.22,67.67-3.35,8.86-8.48,17.35-8.94,26.7a11.34,11.34,0,0,1-.66,3.05c-11.16,8.86-9.72,20.43-12.62,31.08-.85,2.53-2.12,4.84-6,5.69l-5,1.66c-3.23,1.07-7.76-2.42-9.93,1-2.3,3.6,4,3.67,5.73,5.73.92,1.1,2.75,1.94,1.63,3.44s-3.34,2.16-5.8,1.89a5.26,5.26,0,0,1-2.52-.68c-5.87-5.48-10.5-2.2-15.17,1.31-5.61-5.22-7.52-13.61-21-11.14-4.28.78-6.81-2.91-9.42-5.12s-2.14-5.87-7.47-6.57a1.9,1.9,0,0,1-1.18-3.32,43.58,43.58,0,0,0,8.82-12.05c.41-.87,1.93-1.44,3.47-1.12,2.22.47,2.76,1.86,2.08,3.1-2,3.65-1.52,6.53,1.54,10.15,3.69,4.35,10.61,3.42,14.93,6.52,2.11,1.52,4.67-.92,6.06-2.72,1.65-2.13,1.29-3.67-2-4.81s-6.06-1.95-.23-4.05c4.47-1.62-2.72-5.53,1.19-8,14.38,2.69,18.11.73,21.75-11.52-4.12.1-5.49,3.25-8.84,4.13-3.65,1-7.38,3.81-11.07.5-2.94-2.62-5.56-4.4-1.07-9,3.31-3.4,3.82-6.25,10.85-6.83,5.11-.43,9.34-3.8,5.72-8.58-1-.07-2.2-.41-2.65-.13-11.11,6.68-11.46,7-21.77-.17-4.3-3-8-4.14-13.31-2.6-2.31.67-4.79,1-6.22-.58-2.25-2.45,1.07-3.34,3.11-4.51a10.06,10.06,0,0,0,5.38-7.77c10.46-1.05,16.46-6,21.45-12.23,1.63-2,2.94-5,7.78-4.89a2.57,2.57,0,0,0,2.74-2.92c-.39-1.61-2.47-1.63-4.29-1.86-4.11-.5-9.43,3.83-12.19-.7s3.86-6.13,7.24-8.43c7-4.77,11.36-10,7.22-18.07,7.95,0,12.35,1.76,14.43,6.48,1.06,2.39,3.62,3,6.49,1.92,4.07-1.5,1.48-3-.19-4.6s-1.91-3.45-4.7-4.62c-7-2.92-14.39-5.88-10.78-13.55.5-1.06-1.77-2.89-2.95-4.27-1.56-1.85-2.15-3.66-.11-5.48C289.74,298.7,288.17,293.09,284.64,287.42Z"/><path class="cls-17" d="M262.59,155.55l-.75,25.64c0,1.92-1.66,4.39,1.3,5.51,10,3.79,5.5,9.32,3.69,14.52-.56,1.6-1.68,3.1-.31,4.7,4,1.58,4.45-1.38,6.23-2.49,2-1.22,3.88-1.83,6.07-.59,2.61,1.48.83,2.86-.36,4.28-2.85,3.38-6.33,6.56-3.06,11,2.72,3.69,5.35,6.54,12.27,6.35,3.26-.09,2.13,3.15,2.49,5,1.4,3.1,2.39,6.28,4.09,9.33C300.51,250,297,253,279.13,251.45c-.62-1.83,2.77-4-.29-5.42-2.18-1-4.09.39-5.5,1.88a36,36,0,0,1-4.47,3.76,5.46,5.46,0,0,1-5,.86c-2.32-.73-3.48-2.12-3.07-4,1.84-8.58-.05-16.28-9.43-22.41-2.35-1.54-1.91-3.5-.77-5.5,2-3.49.15-6.31-2.83-9.17-5.94-5.71-7.07-5.88-14.84-1.51-7.61,4.28-15.3,7.53-25.21,2.85-3.48-1.65-8.24-1.87-12.37-2.73-1,2.92.52,4.37,2.78,4.74,5.77.93,9.75,3.6,13.34,6.64,4.41,3.73,8.6,4.68,13.48.43,1.76-1.53,4.1-2.69,8.3-1.58-.5,4.93-6.48,8.27-8.37,12.83-.79,1.91-4.29,2.57-6.12-.2-3.33-5.07-7.56-5.85-13.86-2.26-1.83,1-5.28.7-8,.76-5,.12-9.84-.42-12.5,4.18-1.61,2.78-6.5,1.64-10,1.85-.19-4.91,5-10.26-3.21-14.51-3.43-1.76-.59-4.44,1.41-6,2.91-2.3,4.43-4.6,4.7-7.83.59-6.93.93-6.89,11.12-7.61a58.75,58.75,0,0,0,6.66-.77c1.29-.25,2.4-1,2.31-2.15a2.28,2.28,0,0,0-2.48-2c-14.92-.27-16.79-10.74-23.67-16.83C166.94,176,176,166,185.4,161.54c6.23-3.33,16.24-1.82,20.1-8.24a3,3,0,0,1,2-1.12c9.43,2.57,13.41-2.21,18.23-6.57,3-2.72,6.47-1.58,8.54,1.34,1.23,1.72,1.85,3.73,3.37,5.28,2.23,2.28,5.4,3.9,9.24,1.9C252.89,151,257.76,152.76,262.59,155.55Z"/><path class="cls-17" d="M152.32,229.48c-5.82.11-10.81-1.06-14.27-4.72-3-3.21-7.15-4-12-2.45-1.68.54-2.72,1.64-2.32,3.22.9,3.55,2.59,6.54,8.67,5.93,4.08-.41,5.88,3,9.94,2.67,4.65-.41,7.09,1.71,6.67,4.75s-2.11,6.05-7.13,6.41c-6.12.43-12.87,1.63-14.39-5.23-.5-2.25-4.44-3.29-6.53-1.86-5.6,3.82-12.29,3.07-19.89,2.58,4.69,3.5,4.92,4.59,2.85,11.05-.46,1.45-.51,2.72,1.77,3.15,1.94.36,3.49.05,3.49-1.86,0-5.69,8.51-3.81,11.84-6.8,1.23-1.09,4.25.45,5.45,2,2.68,3.44,4.91,6.76,11,8.25,5.82,1.42,2.37,6.67,5.1,9.53,3.1,1.37,5.48-.1,7.76-.95,5.61-2.08,10.15-1,12.54,2.82,2,3.13,4.9,3.54,8.73,3.49-5.76,10-6.44,12-6,17.55-2.1,2.31-5,.08-7.48.7-7.7,1.94-9.91,5.87-5.62,12.72,2.35,3.75,4,6.7-1.5,9.47-1.56.78-3.17,2-2.48,3.25,4.45,8.25-5,8-13.92,9.67,6.91,2.88,11,6,17,6.18,6.33.23,5.55-6.94,13.38-6.74-1.33,7.29-9.32,10.84-15.14,15.4a3.31,3.31,0,0,1-2.25-.27c-4.92-8.88-12.21-.52-18.25-1.3-8.24-1.05-12.25,2.87-17.71,6.85-6.36,4.65-12.71,8.15-9.4,15.84-11.75-.81-17.45-9.11-29.16-8.55,7.48-1.25,7.7-7.77,14.62-8.49,1.17-2.46-2-3.51-3.38-5C74.43,328.3,83.19,320.88,96,317.49c2.11-.56,4.6-.61,6.41-1.45,1.57-.74,4.17-2.56-.19-3.25-5.85-.93-4.44-2.21-.71-3.88,2.7-1.21,5.82-2,7.21-4.4.88-1.51,2.62-3.58,0-4.35-8.86-2.59-3.69-5.06-.43-7.82,4.89-4.13,4.82-4.18,6.21-13.6-1.8-1.76-4-.56-6.13-.46-5.15.25-6.65-1.37-4.17-4.44,1.14-1.41,3.16-2.44,4.34-3.84,2.77-3.28-1.41-8.21-6.94-8.29-2.12,0-3.36.81-3.48,2.37s-.18,3.25-.22,4.88c0,1.25,0,2.51,0,4.38-10.16-1.16-16.46-6.27-22.89-10.5-4.69-3.09,1.43-5,4.4-6.62,2.71-1.51,8.76,0,8.84-3.5.12-5.7,5.91-10.45,4.33-16.21-.14-.5-2.36-.7-3.62-1,2-2.79,8.6-2.44,9-5.49.39-3.3,1-5.74,6-7.17,1.56,2.24,2.93,4.56,4.72,6.69s4.48,2.23,7.07,1c2.93-1.43.9-2.64-.63-3.92s-2.55-2.75-4-4c-3.12-2.7-3.6-5.52.06-7.93,5.09-3.35,8.56-7.33,10-14,5.11,5.67,11.18,9,3.85,15.24,11.67.07,21.05-2.16,30.46-3.88,2.64-.48,4.94-2.25,6.63.44,1.42,2.25-1.59,2.44-3.44,3.31C148.12,220.62,148.17,220.67,152.32,229.48Z"/><path class="cls-14" d="M111,399.3c.26,4.31-1.16,7.7-8.27,8-4.08,0-4.63-2.36-6.22-4.44-4-5.24-4.59-5.15-13.64-1.51-.65,1.44.91,1.69,2.15,2,4.2.9,8.31,2.6,8,5.84s-5.88,2.35-8.85,3.69c-11.45,5.14-19.35.1-27.92-5.76,6-3,2.21-10.2,10.95-12.45,2.11-.54,1.79-2.48.5-3.38C63,388,64.86,383,60.74,379.51c-3.86-3.26-1.9-6.62,1.29-10,3-3.13,5.19-6.25,11.72-4.41,2,.57,4.54.13,6.83.2,11.82.36,12.28.67,7.12,8-3.53,5-3.26,9.7,1.36,13.92C94.86,392.6,99.37,399.43,111,399.3Z"/><path class="cls-19" d="M279.13,251.45c4.34-3.23,13,.29,15.53-4.38,2.16-4.06-5.15-6.55-6.37-10.41-.84-2.68-1.68-5.18,1.87-7.18,5.93.18,10.62-.84,11-6,2.16.71,3.66,1.67,4.13,3.56,1.91,7.71,2,7.68,12.56,5.56a24.76,24.76,0,0,1,4.26,0c2.53,7.47,1.55,13.14-8.75,17.82-12.14,5.52-24,11.61-34.26,19.05l-6.18-4c.49-3.64,9.57-.7,8.47-5.42C280.76,257.13,278.6,254.48,279.13,251.45Z"/><path class="cls-17" d="M73.42,275.14c3.08-.57,4.77,2.27,7.34,1.89,7.45-1.1,11.91.49,14.07,6.08,1.64,4.23,3.81,8.13-1,12-3,2.41-1.45,5.73-2.76,8.49a4.57,4.57,0,0,1-4.81,2.87c-2.08-.12-2.83-1.43-3.72-2.55-1.4-1.79-2-3.59-.83-5.63,1.77-3.17,1.37-5-1.1-7.14C74,285.58,72.69,282.57,73.42,275.14Z"/><path class="cls-17" d="M80.64,231.47c-2.51,7.73-2.51,7.73,5.52,10-7.82,6.67-11.73,7.3-16.68,2.78-1.49-1.36-2.86-3.07-1-4.34C72.48,237.07,73.91,232.22,80.64,231.47Z"/><path class="cls-17" d="M164.83,300.53c2.88,1.2,3.87,2.33,3.66,3.7-.41,2.62-1.3,5.18-5.11,6.35a3.58,3.58,0,0,1-2.43-.48c-3.6-2.67.19-4.74,1.33-7C162.72,302.25,163.79,301.56,164.83,300.53Z"/><path class="cls-17" d="M163.35,247.46c1.62-2.1,2.42-4.6,5.52-6C171.63,246.83,171.53,246.94,163.35,247.46Z"/><path class="cls-19" d="M279.13,275.43c-.11,2.58-1.95,3.92-5.51,4A8.69,8.69,0,0,1,279.13,275.43Z"/><path class="cls-17" d="M86.16,239.47a4,4,0,0,1,2.75-4A4,4,0,0,1,86.16,239.47Z"/><path class="cls-17" d="M166.1,263.44v-2C167.67,262.11,167.67,262.78,166.1,263.44Z"/><path class="cls-17" d="M168.86,267.44l-2.75-2Z"/><path class="cls-17" d="M166.1,261.44l-2.75-2Z"/><path class="cls-17" d="M157.83,251.45v-2C159.4,250.12,159.4,250.79,157.83,251.45Z"/><path class="cls-17" d="M155.08,253.45l2.75-2Z"/><path class="cls-20" d="M320.47,411.29c0-4.32-.09-8.65.06-13,.06-2-.42-4.86,1.1-5.73,9-5.15,6.41-13.43,10.51-19.91,2.38-3.77,1.79-9.48,1.83-14.25.13-13.3,2.59-26.34,5.71-39.37,1.45-6.07-2.05-11.76-2.68-17.67q0-4,0-8c-1.69-1.17-1.67-2.5-.71-3.93a3.05,3.05,0,0,1,2.3-.52q1.17.21,1.17.45l.05,0c1.55,1.11,1,2.95,2.65,4,4.21,15.8,2.67,31.78,2.91,47.71.17,10.68-2.48,21.06-5.27,31.51-3.92,14.64-9,29-16.78,42.79C321.08,414.5,322.38,412.31,320.47,411.29Z"/><path class="cls-21" d="M320.47,411.29a4.25,4.25,0,0,1,2.86,4.11l-.18,7.75c-7.54,9.36-7.85,19.78-8.39,30.17-2,4.59-1.77,9.19-.12,13.8l0,4.19c-1.22,1.27-.91,3.64-3.42,3.81-3.25.23-4.29-2-4.77-3.84-1.8-6.78-.57-13.54.43-20.3.57-2.61,3-4.91,2.53-7.7,2.21-10.29.86-21.27,11-30C320.43,412.58,320.44,411.94,320.47,411.29Z"/><path class="cls-22" d="M339.77,289.41h-2.71c-2.45-.77-4.39-1.73-2.8-4l-2.75-4c-2.2-2-2.38-4,0-6-.28-5.26.7-10.53-2-15.71-1.41-2.68-1.86-5.91,2-8.24A166.27,166.27,0,0,1,339.77,289.41Z"/><path class="cls-23" d="M314.87,167.53l-3.8,3.89c2.42-11.69.71-23.53,1.24-35.31L315,136v17.56Q314.94,160.57,314.87,167.53Z"/><path class="cls-24" d="M301.18,5.7h-5.51v-2"/><path class="cls-19" d="M342.47,293.39a3.83,3.83,0,0,1-2.65-4A3.81,3.81,0,0,1,342.47,293.39Z"/><path class="cls-25" d="M295.66,629.08c11.52-3.44,19.75-10.74,31.44-14.06a4.92,4.92,0,0,0,3.67-5,98.1,98.1,0,0,1,.74-9.81c.95-11.47,3.68-14,18.84-17.41a13,13,0,0,0,3.22-1.73c5.69-1.6,2.4,3.64,5.66,3.89,9.76,14.68,7.13,26.72-8.33,38.12-15,1.66-25.63,11.79-41.92,11.1C303.19,634,296.69,635.48,295.66,629.08Z"/><path class="cls-26" d="M309.44,449.26c0,7.46-.73,15,.31,22.36.56,4,3.17-.34,4.93-.31a185.16,185.16,0,0,0,5.77,37.9c-2.49,4.26,5.5,8.95-1.05,13-13.68-1-23.62-11.2-20.25-22.08,1.45-4.65.77-8.63-.07-13.2C296.64,473.74,301.4,461.17,309.44,449.26Z"/><path class="cls-27" d="M295.66,629.08c2.79,2.35,6.47,4.41,10.5,3,6.94-2.41,15.3,1.09,21.75-3.7,6-4.51,13.1-8.66,23-5.26h0a14.6,14.6,0,0,0-2.77,2h0c-.95.62-1.87,1.27-2.79,1.92-14.78,7.92-31.64,10.44-49.62,10.05-2-2.27-5.3-1.82-8.28-2-1.2-.84-3-1.25-3.51-2.57.25-2.93,4.25-2.22,6.29-3.42Z"/><path class="cls-28" d="M359.23,585c-1,.77-2.14,1.06-2.68-.18-.61-1.43-.87-2.94-3-3.71-.05-1,.37-2.17-.23-3-5.56-7.19-7.91-15.16-10.83-23-9.21-4.72-12.48-11.83-14.86-19.3.55-1.54,1.91-2.49,4-2.87,12.23,13.29,18.8,28.42,26.37,43.2C359.43,578.87,358.89,582.06,359.23,585Z"/><path class="cls-29" d="M331.69,533l-2.9,2.17c-7-3.33-9.59-8-8.3-14a11.41,11.41,0,0,0-1.79-6.74c-1.25-2-.91-3.86,1.75-5.24Z"/><path class="cls-26" d="M314.64,467.12c-3.64-4.62-3.77-9.22.12-13.8Z"/><path class="cls-25" d="M348.08,625.1l2.77-2Z"/><path class="cls-25" d="M345.29,627l2.79-1.92Z"/><path class="cls-30" d="M108.21,583.11c2.14-1.66.1-5.87,3.83-5.64,5.75.36,11.37-4,17-.16,7.14,4.85,14.49,2.17,21.35-.11,3.49-1.16,5.73-4.68,10.18-1.06,4.12,3.36.69,5.32-2.06,7.57-1.44,1.17-3.49,2.33-1.39,4.48,11.59-1.71,19.35-7.63,26.84-13.58,3.55-2.82,4.58-5.85.18-9.64-8.43-7.26-19-13.18-25.23-21.86-3.71-5.14-3.19-7.91,4.57-7.71a60.86,60.86,0,0,0,31.83-7.69c3.78-2.05,8.27-3.39,11.71.74,2.45,2.95,5.68,3.07,9.26,1.17,5.88-3.12,11.53-3.73,17.18.35a5.29,5.29,0,0,0,6.16-.14c2.15-1.48,4.22-2.85,6.91-.84,2.26,1.68,4,3.66,3.3,6.22s-3.92,4.58-3.29,7.45c1.91,2.07,4.1.81,5.89.14,6.91-2.59,10.47-1.27,13.48,4.12,3.57,6.39,6,6.55,14.82,3.67,2.09-.68,4.11-1.49,6.19-2.19,3.07-1,6.22-1.8,8.18,1.1,2.09,3.1-.29,6.47-5.1,7.55-12.87,2.9-13.69,4.64-5.22,12.21a10.49,10.49,0,0,1,3.06,4.33c1.86,5.12-1.19,8.29-8.22,7.06-5.78-1-9.74-.6-13.18,2.7-3.77,3.61-7.93,3.52-13.2,1.51-6.2-2.36-14.06-2.08-18-7.91-1.92-2.84-7.21-4.18-11.53-.64-2.77,2.27-5.81,3.13-9.47.77-5.14-3.32-8.65-.74-13.13,1.42-5.92,2.85-5.65,9.75-14.32,10.74-1.07.13,1.29,2.73,2.89,3.81,2.23,1.5,4.94,2.25,7.18.29a110.54,110.54,0,0,0,8-8.09,5.13,5.13,0,0,1,4.59-1.66c2.71.37,3.33,2,3.46,3.75.32,4.26-1.69,7.94-6,10.7-2.39,1.53-3.81,2.77-1.89,5a5.44,5.44,0,0,0,5.86,1.6,21.45,21.45,0,0,1,11.95-.27c3.53.86,5.58-1.63,7.84-3.26,10.37-7.47,25-8,35.32-1.09,2.12,1.42,1,3.6-1.49,3.79-4.38.34-8.73,2.07-13.37.27-3.72-1.44-7.5-.9-9.32,2-2.25,3.62,0,7.14,4.42,8.32,5.43,1.47,8.63,2.22,6.93,7.44-1.31,4.07,4.45,3.5,7.58,2.67,6.89-1.84,11.77-1.65,12.92,4.58-1.28,1.8-3.54,2.66-6,3.32a22.26,22.26,0,0,1-11.33-.89,17.64,17.64,0,0,1-4.69-2.36c-17.83-1.88-32.06-9-43.73-18.08-8.28-6.45-15.3-13-28.76-12.69-.68,0-1.38-.78-2.07-1.2,1.26-1.14,3.05-1.21,4.86-1.23-.82-.8-2.1-.48-3.13-.58-16.42-1.61-32.73-3.72-49.06-5.77C124.52,583.94,114,587.58,108.21,583.11Z"/><path class="cls-31" d="M108.21,583.11c4.47,0,8.94,0,13.41.06,5.33.07,8.24,2.06,8.65,5.93-4.59,3-9.23-.57-13.84,0l-38.54,0c-3-.11-6.28.28-8.42-1.91,4.33-7.49-8-7-10.69-11.45-1.92-3.24-6-.53-8.45,1.36a8.66,8.66,0,0,1-5.54-4,13.7,13.7,0,0,1-2.71-2l0-2c-.38-5.37-6.58-10.22-2.76-16,.41-.13.82-.28,1.24-.39C53,549.57,53,549.57,53.08,539.16c14.61,3.54,15.77,4.85,14,15.09a48,48,0,0,0-.23,6.89c-1.58,9,5.92,12.92,16.26,15.16,5,1.1,10.85,1,14.06,4.82C100.09,584,104.4,582.85,108.21,583.11Z"/><path class="cls-32" d="M116.43,589.15c4.59-3.66,9.23,1.29,13.84,0,5.31-1,10.32-1.43,15.93,0,12.77,3.31,27.1,1.59,40.35,6.34-2.65,2.64-6.49,1.26-9.54,1.69-14.56-.26-28.61-3-42.8-4.87C128.27,591.49,121.27,593.3,116.43,589.15Z"/><path class="cls-30" d="M273.66,635c0-.63,0-1.26-.05-1.9,3.66-2.38,7.35-2.24,11.05-.05l2.73,2Z"/><path class="cls-33" d="M50.33,577.12c.48-1.84-2.64-4.31.39-5.4,3.76-1.34,8.92-1.35,11.23,1.45,3.9,4.75,7.82,8.43,16.33,9,2.75.17,2.46,3.46-.69,4.41-2.41.73-5.39.49-8.11.68l-2.61-.11c-1.44-1.24-4-.81-5.49-2l-2.78-2c-1.6-1.07-1.07-2.94-2.83-3.94h0c-1.39-1.28-4-.9-5.46-2Z"/><path class="cls-31" d="M50.32,577.12c2.28,0,4.33.41,5.46,2C53.52,579.1,51.48,578.73,50.32,577.12Z"/><path class="cls-31" d="M55.77,579.16a3.86,3.86,0,0,1,2.83,3.94A4,4,0,0,1,55.77,579.16Z"/><path class="cls-31" d="M61.38,585.1c2.26,0,4.29.41,5.49,2C64.59,587.08,62.55,586.72,61.38,585.1Z"/><path class="cls-12" d="M42.08,571.12l2.71,2"/><path class="cls-12" d="M26.25,533.93c-.9-2.7-4.65-3.19-6.55-5.09-4-4-6.92-7.74-3.35-12.76,1-1.37.63-3.24.89-4.88,11.78-1.51,14-3,18.45-11.28.93-1.75,3.07-3.17,4.69-4.72,1.86-1.79,3.17-4.49,7.24-3.57,3.55.8,6.76,2.28,6.56,5.52-.08,1.33-.58,3.21,1.53,3.21,10.38,0,13.75,7.61,21.65,10.3,1.89.65,3.08,2.12,5.72,1.62,5.18-1,6,.07,2.83,3.21-2,1.93.63,3.29,2.33,4,5.14,2,4.55,4.11,1.24,6.94-3.81,3.25-6.8,7-10.85,10.11a9.23,9.23,0,0,1-11,.44c-3.7-2.22-8-3.83-2.21-8.44,1.63,1.71,3.1,3.47,4.87,5,1.35,1.2,3.2,1.05,4.81.15s2.64-2.38,1.59-3.46C70,523.33,63.3,516.41,55.92,509.9c-1.59-1.41-5.93-1.33-8.85.24,7,6.63,6.73,11.8-.86,19.67-.44,0-.88-.06-1.31-.13-3.2-.52-5.36-5.43-8.81-2.41-4.32,3.78,2.64,3.42,4.93,4.75,5.57,3.24,6.52,6.38,2.85,10.93-2.58,3.19-5,6.33-4.58,10.2.06,5.4,4.17,10.44,2.76,16-5.11-4.75-7.79-10.71-9.9-16"/><polygon class="cls-7" points="36.53 395.31 37.66 395.76 37.16 396.12 36.53 395.31"/><path class="cls-12" d="M88.05,496.54a10.91,10.91,0,0,0,13.49,4.13c7.31-3.35,15.45.25,22.34-2.88a5.12,5.12,0,0,1,6,1.34c2.17,2.92,5.23,3.08,9.27,2.38,2.86-.49,5.75.43,5.91,2.88.12,1.75-2.36,3.6-4.15,3.61-12.76.05-22.32,5.39-32.48,9.77-3.17,1.37-5.1,0-6.93-1.63-5.57-4.89-11.53-9.24-20.49-11-5.33-1-6.34-4.65-5.82-8.12.45-2.93-6.21-3.88-3.61-6.79,2.1-2.36,5.84-2.82,9.84-2.24,1.91.28,3.58-.85,3.63-2.33s-1.94-1.82-3.61-2.42c-8-2.88-9.08-4.55-5.81-8.54,2.94-3.6,6.74-4.26,11.38-1.69,7.51,4.16,9.42,11.13,15,16.3,1.38,1.28-.39,3.21-3.11,3.62C94.91,493.53,90.67,493.62,88.05,496.54Z"/><path class="cls-25" d="M320.49,521.19l8.3,14q6.87,10,13.72,20c-12,2.77-12.19,2.78-13.72-5.41-.57-3.08-1.53-6-4.84-8-3.82-2.3-8.13-3.89-7.46-8.58.36-2.54-4.31-3.26-7.11-4-11.39-2.92-14.48-8.68-13.95-17.06.64-10.13,2.23-20.37.11-30.47-2-9.61,4.48-17.79,7.1-26.62.57-1.92.88-3.89,1.31-5.84l2.76-6a4.64,4.64,0,0,1,5.45,0c0,2.2.5,4.54-2.72,6-5.3,5.46-2.79,12.1-5,18.13-3,8-7.1,16.6.95,24.87,2.18,2.25-1.56,4.95-3,7.31-3.93,6.34,2.36,10.59,5.58,15.55C310.53,519.13,313.9,521.76,320.49,521.19Z"/><path class="cls-12" d="M97.18,581.12c-4.93-.37-9.45-1.91-14.53-2.21-8.82-.5-14.49-5.17-19.48-9.86-3.65-3.43-1-6.11,3.69-7.91,6.21-3.42,9.37-7.73,8.39-13.58-.36-2.16-.69-4.82,3.25-5.88s6.87.34,9.88,2.08c4.21,2.42,5.89,6.68,11.72,8,2.51.57,3,2.83,1.63,4.19-7.08,7.26-4.94,14.94-2.68,22.73C99.25,579.37,97.84,580.3,97.18,581.12Z"/><path class="cls-12" d="M53.08,461.24c2.1.46,4.46,1.61,6.27,1.26,5-1,7.54-4.86,13.93-5.1,4.08-.15-.25-6.24,4.61-8.15A8.58,8.58,0,0,0,83.75,453c.39.08,5.4,6.22,5.59,6.41,2.83,2.74.56,5-2.63,5.14-11,.51-22.14,2.94-33.18.31C50.44,464.14,51.06,462.6,53.08,461.24Z"/><path class="cls-12" d="M108.6,532c4.09-.11,5.56-2.44,7.93-3.82,2.09-1.22,4.14-3,6.69-.57,1.89,1.78,1.61,3.73-.23,5.42-4.92,4.48-20.95,4.5-25.55,0-1.34-1.31-2.29-2.89-.18-4.4a5.82,5.82,0,0,1,6.1-.69A34.48,34.48,0,0,1,108.6,532Z"/><path class="cls-25" d="M284.66,633l-11.05.05,0,0c-1.15-1-2.79-1-4.36-1.17l-1.19-.78c1.22-1.61,3.29-2,5.59-2.06,5.52.69,11-3.14,16.55,0Z"/><path class="cls-30" d="M227.56,590.4c-3,0-4-1.66-4.37-3.18-.79-3.21,2.51-3.8,5.88-4,2.39-.11,5.14.38,4.75,2.42C233.38,588,230.78,589.6,227.56,590.4Z"/><path class="cls-4" d="M219.54,377.82l-.34-.83c.34-.07.9-.25,1-.18C220.91,377.54,220.67,377.9,219.54,377.82Z"/><path class="cls-12" d="M53.08,457.25v2C51.51,458.58,51.5,457.91,53.08,457.25Z"/><polygon class="cls-31" points="53.08 539.16 51.95 538.71 52.46 538.35 53.08 539.16"/><path class="cls-17" d="M229.51,121.59h2.76c.81-.74,2-1.18,2.75-2h2.76q4.75,5,0,10c-2,3.67-8.53,5.35-8.27,10-7.46,2-16.88.89-20.48-2.36-1.21-1.1-1.58-2.48-.8-3.66.88-1.33,2.69-1.52,4.56-.92,1.23.39,2.51.73,3.69,1.19,5.18,2,7.55.76,7.49-3.36,0-1.62,0-3.25,0-4.88,1-.6,1.83-1.33,2.75-2h0C227.67,122.91,228.68,122.32,229.51,121.59Z"/><path class="cls-17" d="M152.78,230c1.51-1.31,2.63-2.9,4.43-3.69,2.19-1,5.63-1.58,6.59.84.75,1.89-1.3,3.67-4.38,4.12C156.62,231.64,154.09,231.34,152.78,230Z"/><path class="cls-17" d="M163.83,154.66c4.25.7,7.61.28,9.14,2.71.21.33-.5,1.37-1,1.5C167.8,159.84,165.27,158.63,163.83,154.66Z"/><polygon class="cls-17" points="185.4 161.54 184.28 161.09 184.78 160.73 185.4 161.54"/><path class="cls-15" d="M237.78,129.58v-10C246.72,124.58,246.72,124.58,237.78,129.58Z"/><path class="cls-15" d="M235,119.59l-2.75,2Z"/><path class="cls-15" d="M229.51,121.59l-2.75,2Z"/><path class="cls-15" d="M226.75,123.59l-2.75,2Z"/><path class="cls-19" d="M298.73,268c3.93,2.85,5.57,5.48,4.93,8.66-.43,2.1-1.81,3.91-5,4s-4.84-1.66-5.34-3.73C292.45,273.4,294.07,270.54,298.73,268Z"/><path class="cls-19" d="M331.5,275.43c0,2,0,4,0,6-5.17.32-9.59-1.39-15.24-2.91C320.9,275,325.5,273.59,331.5,275.43Z"/><path class="cls-19" d="M318.13,259.88c.89,1,1.4,1.28,1.33,1.49-1,2.79-1.26,6-6.22,6.72-.73.11-2.58-1.14-2.67-1.84C310.09,262.62,313.57,261.19,318.13,259.88Z"/><path class="cls-19" d="M334.26,285.42l2.8,4c0,1.34,0,2.67-.05,4-2.59.6-5.42,1.54-5.46-1.82C331.52,289.33,331.09,287,334.26,285.42Z"/><path class="cls-26" d="M312.16,443.27l-5.45,0c2.8-7.87.81-16.34,5.8-23.95,1.76-2.68,2.74-5.77,7.91-6.06C315.76,423,311.74,432.8,312.16,443.27Z"/><path class="cls-30" d="M268.11,633.06c0-.64,0-1.29-.07-1.94,2.3,0,4.35.33,5.54,2Z"/></svg>
