<svg id="Layer_1" data-name="Layer 1" xmlns="http://www.w3.org/2000/svg" viewBox="0 0 16 16"><defs><style>.cls-1{fill:#323232;}</style></defs><title>favicon</title><path class="cls-1" d="M11.59,10.34a9.61,9.61,0,0,0,1.48-1.28,13,13,0,0,0,1.28-1.55,11.46,11.46,0,0,0,1-1.62,4.83,4.83,0,0,0,.6-2.37,1.31,1.31,0,0,0-.37-.84,1.29,1.29,0,0,0-.92-.32c-.68,0-1.38.48-2.11,1.44a9.27,9.27,0,0,0-.88,1.42A11.47,11.47,0,0,0,11,6.85a6.59,6.59,0,0,0-.4,3.09,2.12,2.12,0,0,0,.1.4,3.24,3.24,0,0,1-.42.33.25.25,0,0,1-.21.05s-.09-.05-.13-.13a1.27,1.27,0,0,0-.18-.27.21.21,0,0,0-.16-.06h0a.2.2,0,0,0-.15.06,6.74,6.74,0,0,1-3.34,2A3.45,3.45,0,0,1,3.6,12a5.44,5.44,0,0,1-.5-.36c-.26-.2-.39-.39-.39-.56a.34.34,0,0,1,0-.16l0-.08,0-.06,0-.07.06,0s.05,0,.07,0l.09,0a.2.2,0,0,1,.11,0h.55a5.58,5.58,0,0,0,1.81-.35,7.62,7.62,0,0,0,1.93-1,8.84,8.84,0,0,0,1.61-1.5A6.75,6.75,0,0,0,10.16,6a3.2,3.2,0,0,0,.3-1.54,1.6,1.6,0,0,0-.67-1.23A2.93,2.93,0,0,0,8,2.76a6.77,6.77,0,0,0-2.75.56l-.56.26-.27.13-.21.09A.55.55,0,0,1,4,3.86H3.89a.17.17,0,0,1-.13,0,.53.53,0,0,1-.09-.11.62.62,0,0,1-.1-.16c0-.07,0-.15-.07-.25a.22.22,0,0,0-.1-.13.26.26,0,0,0-.17,0,.21.21,0,0,0-.15.27,3.34,3.34,0,0,1,.07.33,2.51,2.51,0,0,1,0,.27.87.87,0,0,1,0,.23.9.9,0,0,1-.06.22A.86.86,0,0,1,3,4.71c0,.07-.1.16-.17.25a2.74,2.74,0,0,1-.23.31l-.3.38-.11.13A9.46,9.46,0,0,0,1.05,7.62,9.31,9.31,0,0,0,.38,9.38,6.51,6.51,0,0,0,.13,11a2.47,2.47,0,0,0,.21,1.18,1,1,0,0,0,.34.38.8.8,0,0,0,.47.15,1,1,0,0,0,.67-.3A4,4,0,0,1,2.19,12a.38.38,0,0,1,.34-.09,2.52,2.52,0,0,1,.6.27l.26.14a3.84,3.84,0,0,0,2.73.45,6.25,6.25,0,0,0,2.67-1.35.89.89,0,0,0,.6.29.62.62,0,0,0,.28-.09.53.53,0,0,0,.2-.22.31.31,0,0,1,.14-.11,3.28,3.28,0,0,0,.83-.56,1.7,1.7,0,0,0,.23.3,1.62,1.62,0,0,0,1.18.43,3.9,3.9,0,0,0,1.3-.21,4.85,4.85,0,0,0,1.19-.62.19.19,0,0,0,.09-.14.22.22,0,0,0,0-.16.22.22,0,0,0-.14-.09.21.21,0,0,0-.17,0,4.47,4.47,0,0,1-1.08.56,3.28,3.28,0,0,1-1.16.19,1.2,1.2,0,0,1-.76-.22.23.23,0,0,1-.06-.25A.4.4,0,0,1,11.59,10.34ZM3.74,6.65v-.6c0-.14,0-.3,0-.48a2.5,2.5,0,0,1,0-.4c0-.09.07-.2.12-.32a.83.83,0,0,1,.17-.28,3.33,3.33,0,0,1,.26-.24,2.16,2.16,0,0,1,.35-.24l.48-.25A6.34,6.34,0,0,1,8,3.19a2.53,2.53,0,0,1,1.51.38,1.2,1.2,0,0,1,.5.91,2.85,2.85,0,0,1-.29,1.36,6.12,6.12,0,0,1-1,1.53A7.92,7.92,0,0,1,7.25,8.79a7.16,7.16,0,0,1-1.82,1,5.69,5.69,0,0,1-1.38.3l-.26,0H3.43l-.12,0A.22.22,0,0,1,3.24,10s0,0,0-.08a.36.36,0,0,1,0-.1.93.93,0,0,1,0-.14.85.85,0,0,1,0-.17c0-.06,0-.13,0-.21A15.14,15.14,0,0,0,3.74,6.65Zm-1.35,4c-.05.09-.1.12-.15.12s-.12-.07-.19-.16-.14-.29,0-.29h.11C2.38,10.34,2.46,10.45,2.39,10.61Zm.19-.89a.53.53,0,0,1-.15.08.5.5,0,0,1-.19,0A.68.68,0,0,1,2,9.78a4.6,4.6,0,0,1-.59-.28.22.22,0,0,0-.22,0,.2.2,0,0,0-.11.19.76.76,0,0,0,0,.21l.12.25a5.88,5.88,0,0,0,.44.68c.36.36.31.77-.18,1.21a.57.57,0,0,1-.37.19.43.43,0,0,1-.24-.06.54.54,0,0,1-.18-.23,2,2,0,0,1-.16-1A5.76,5.76,0,0,1,.8,9.49a8.89,8.89,0,0,1,.64-1.68,9.23,9.23,0,0,1,1-1.65c.33-.48.56-.72.7-.73a.14.14,0,0,1,.12.09.69.69,0,0,1,0,.26,2.28,2.28,0,0,1,0,.37c0,.13,0,.3,0,.49a14.3,14.3,0,0,1-.43,2.55l0,.12s0,.08-.06.14a.64.64,0,0,1-.08.14A.49.49,0,0,1,2.58,9.72ZM9.48,11a.29.29,0,0,1-.17.1h-.1l.29-.27A.22.22,0,0,1,9.48,11Zm1.67-1c-.12,0-.19-.19-.21-.44A5,5,0,0,1,11,8.35,9,9,0,0,1,11.36,7,11.34,11.34,0,0,1,12,5.42a9.47,9.47,0,0,1,.83-1.35,4.58,4.58,0,0,1,.92-.94,1.5,1.5,0,0,1,.85-.33.85.85,0,0,1,.62.19.84.84,0,0,1,.24.57,3.21,3.21,0,0,1-.11.95,6.41,6.41,0,0,1-.46,1.19,12.09,12.09,0,0,1-1.4,2.21,11,11,0,0,1-1.88,1.86C11.44,10,11.28,10,11.15,10Z"/></svg>
