<svg id="Layer_1" data-name="Layer 1" xmlns="http://www.w3.org/2000/svg" viewBox="0 0 1757.48 56.69"><defs><style>.cls-1{fill:#323232;}</style></defs><title>footer</title><g id="Group_171" data-name="Group 171"><g id="Group_170" data-name="Group 170"><g id="Path_10043" data-name="Path 10043"><rect x="50.99" y="26.75" width="746.96" height="1"/></g><g id="Path_10044" data-name="Path 10044"><rect x="936.86" y="26.75" width="763.63" height="1" transform="translate(-0.05 2.46) rotate(-0.11)"/></g><path class="cls-1" d="M879.86,37.31a35,35,0,0,0,5.21-4.7,46.44,46.44,0,0,0,4.53-5.75,44,44,0,0,0,3.36-6q2.43-5.31,2.13-8.76A4.79,4.79,0,0,0,893.79,9a4.42,4.42,0,0,0-3.27-1.18q-3.57,0-7.44,5.33a35.29,35.29,0,0,0-3.1,5.25,42.35,42.35,0,0,0-2.41,6q-2.16,6.86-1.4,11.42a10.25,10.25,0,0,0,.35,1.45,9.69,9.69,0,0,1-1.47,1.21,1,1,0,0,1-.73.22.81.81,0,0,1-.48-.51,3.26,3.26,0,0,0-.64-1,.71.71,0,0,0-.55-.24h-.1a.71.71,0,0,0-.54.24q-6.07,6.36-11.79,7.53a11.83,11.83,0,0,1-8.59-1.46c-1-.72-1.57-1.17-1.77-1.34a3.1,3.1,0,0,1-1.36-2.07,1.54,1.54,0,0,1,.12-.58c.1-.17.15-.28.17-.31l.15-.24a1.43,1.43,0,0,1,.17-.23l.19-.16a.53.53,0,0,1,.25-.15,1.78,1.78,0,0,0,.31-.09,1.14,1.14,0,0,1,.4-.08l.52,0,.64,0h.79a19.59,19.59,0,0,0,6.39-1.28,26.42,26.42,0,0,0,6.79-3.79,32,32,0,0,0,5.68-5.53,25.39,25.39,0,0,0,3.72-6.13,12.32,12.32,0,0,0,1.07-5.72A6.1,6.1,0,0,0,873.48,11a10.08,10.08,0,0,0-6.23-1.7,23.12,23.12,0,0,0-9.71,2.09q-.75.34-2,1c-.43.23-.75.39-.95.48s-.45.21-.76.34a2.32,2.32,0,0,1-.66.22,3.74,3.74,0,0,1-.52,0,.62.62,0,0,1-.46-.15c-.1-.1-.21-.23-.34-.39a2.12,2.12,0,0,1-.33-.62c-.09-.25-.18-.56-.27-.91a.76.76,0,0,0-.95-.58.74.74,0,0,0-.47.38.83.83,0,0,0-.06.62c.12.46.21.86.27,1.19a8.89,8.89,0,0,1,.12,1,3.61,3.61,0,0,1,0,.88,5.31,5.31,0,0,1-.2.81,4.81,4.81,0,0,1-.4.87c-.17.29-.37.6-.6.95s-.5.72-.82,1.14-.66.88-1,1.38l-.38.5a36.16,36.16,0,0,0-4.09,6.78,37.39,37.39,0,0,0-2.36,6.51,25.59,25.59,0,0,0-.87,5.86,9.65,9.65,0,0,0,.75,4.36,3.66,3.66,0,0,0,1.19,1.41,2.79,2.79,0,0,0,1.67.53,3.48,3.48,0,0,0,2.34-1.11,15.19,15.19,0,0,1,1.32-1.3,1.48,1.48,0,0,1,1.21-.33,9.12,9.12,0,0,1,2.11,1l.9.54a13.22,13.22,0,0,0,9.65,1.63,21.32,21.32,0,0,0,9.41-5,3,3,0,0,0,2.15,1.08,1.78,1.78,0,0,0,1-.33,2.33,2.33,0,0,0,.7-.8,1.31,1.31,0,0,1,.47-.43,11.41,11.41,0,0,0,3-2,6,6,0,0,0,.81,1.1,5.52,5.52,0,0,0,4.15,1.62,13.1,13.1,0,0,0,4.6-.79,17.9,17.9,0,0,0,4.2-2.28.82.82,0,0,0,.32-.52.78.78,0,0,0-.11-.6.75.75,0,0,0-.5-.33.72.72,0,0,0-.58.13,16.46,16.46,0,0,1-3.81,2.09,11.71,11.71,0,0,1-4.12.69,4.23,4.23,0,0,1-2.68-.81,1,1,0,0,1-.22-.93A1.51,1.51,0,0,1,879.86,37.31ZM852.12,23.7c0-1,0-1.71,0-2.23s0-1.12.09-1.77a10.18,10.18,0,0,1,.2-1.49,8.31,8.31,0,0,1,.39-1.16,3.29,3.29,0,0,1,.62-1,11.28,11.28,0,0,1,.91-.88,8.84,8.84,0,0,1,1.25-.9c.46-.26,1-.57,1.67-.91a21.46,21.46,0,0,1,10-2.41,8.69,8.69,0,0,1,5.33,1.38,4.53,4.53,0,0,1,1.74,3.39,10.86,10.86,0,0,1-1,5,23.54,23.54,0,0,1-3.41,5.67,30.46,30.46,0,0,1-5.39,5.24,25,25,0,0,1-6.42,3.59,18.63,18.63,0,0,1-4.86,1.14l-.92.08c-.25,0-.49,0-.72,0a4.28,4.28,0,0,1-.56,0,.89.89,0,0,1-.4-.12,1.91,1.91,0,0,1-.28-.19.7.7,0,0,1-.14-.3,1.87,1.87,0,0,1,0-.4,4.39,4.39,0,0,1,.05-.52c0-.22.08-.43.13-.63s.11-.45.19-.77A55.41,55.41,0,0,0,852.12,23.7Zm-4.76,14.64c-.17.3-.35.44-.54.41s-.41-.22-.67-.58q-.72-1.08,0-1.08a1.83,1.83,0,0,1,.42.07C847.34,37.35,847.61,37.74,847.36,38.34Zm.69-3.32a1.87,1.87,0,0,1-.53.33,1.93,1.93,0,0,1-.67.1,2.32,2.32,0,0,1-.82-.19,15.79,15.79,0,0,1-2.1-1,.66.66,0,0,0-.76,0,.75.75,0,0,0-.38.69,2.35,2.35,0,0,0,.18.78,8.76,8.76,0,0,0,.41.92,19.25,19.25,0,0,0,1.54,2.52c1.29,1.35,1.09,2.85-.62,4.49a2.07,2.07,0,0,1-1.3.71,1.47,1.47,0,0,1-.87-.25,2.05,2.05,0,0,1-.62-.82,8.09,8.09,0,0,1-.59-3.59,24.16,24.16,0,0,1,.84-5.5,36.61,36.61,0,0,1,5.82-12.28c1.16-1.78,2-2.68,2.48-2.69a.43.43,0,0,1,.4.31,2.6,2.6,0,0,1,.18,1c0,.44,0,.9,0,1.38s0,1.08-.1,1.81a53.77,53.77,0,0,1-1.5,9.39l-.12.45a3.58,3.58,0,0,1-.2.52,3.09,3.09,0,0,1-.29.54A2.09,2.09,0,0,1,848.05,35Zm24.33,4.59a.82.82,0,0,1-.59.37l-.32,0c.33-.31.66-.64,1-1A.77.77,0,0,1,872.38,39.61ZM878.3,36c-.45-.13-.7-.68-.76-1.64a20.86,20.86,0,0,1,.28-4.39,34.91,34.91,0,0,1,1.2-5,42.56,42.56,0,0,1,2.33-5.8,32.78,32.78,0,0,1,2.95-5,16,16,0,0,1,3.24-3.45,5.1,5.1,0,0,1,3-1.24,3,3,0,0,1,2.22.73,3.18,3.18,0,0,1,.82,2.08,10.66,10.66,0,0,1-.39,3.51,26,26,0,0,1-1.59,4.4,43.08,43.08,0,0,1-5,8.16,38.63,38.63,0,0,1-6.61,6.9C879.3,35.87,878.74,36.13,878.3,36Z"/></g></g></svg>
