<svg id="Layer_1" data-name="Layer 1" xmlns="http://www.w3.org/2000/svg" viewBox="0 0 453.54 311.81"><defs><style>.cls-1{fill:#323232;}</style></defs><title>forside_logo1</title><path class="cls-1" d="M327.33,232.6a276.13,276.13,0,0,0,41.6-35.84,359.64,359.64,0,0,0,36.16-43.88,328.8,328.8,0,0,0,26.8-45.64q19.37-40.48,17-66.72-1.44-15.2-10.32-23.6-9.43-9-26.08-9Q384,8,353.09,48.6a266.94,266.94,0,0,0-24.8,40,319.8,319.8,0,0,0-19.2,46q-17.28,52.32-11.2,87a77.69,77.69,0,0,0,2.78,11.13A82.21,82.21,0,0,1,289,241.88c-2.4,1.44-4.36,2-5.88,1.64s-2.79-1.64-3.8-3.88a25,25,0,0,0-5.12-7.44,5.67,5.67,0,0,0-4.4-1.84l-.41,0-.39,0a5.91,5.91,0,0,0-4.32,1.84q-48.41,48.41-94,57.36-36.08,7-68.56-11.12Q90.45,270.19,88,268.2q-10.73-8.64-10.8-15.76a11.1,11.1,0,0,1,1-4.4c.75-1.33,1.2-2.12,1.36-2.36l1.2-1.84A7.57,7.57,0,0,1,82,242.12c.24-.16.75-.57,1.52-1.24a4.23,4.23,0,0,1,2-1.12A12.91,12.91,0,0,0,88,239a10,10,0,0,1,3.24-.64c1.09,0,2.45-.12,4.08-.28s3.35-.26,5.16-.28,3.92,0,6.32,0a161.58,161.58,0,0,0,51-9.76,214,214,0,0,0,54.2-28.88A252.07,252.07,0,0,0,257.25,157q19.44-23.2,29.68-46.72t8.48-43.6q-1.92-22.16-19-34.64-17.76-13-49.68-13A191.75,191.75,0,0,0,149.25,35q-6,2.64-15.76,7.36-5.2,2.56-7.56,3.64t-6.08,2.6a22.89,22.89,0,0,1-5.32,1.68c-1.07.11-2.44.17-4.12.2a4.91,4.91,0,0,1-3.68-1.12c-.77-.77-1.68-1.77-2.72-3a15.2,15.2,0,0,1-2.6-4.72q-1-2.88-2.16-7a5.53,5.53,0,0,0-2.84-3.76,6.22,6.22,0,0,0-4.76-.64,5.76,5.76,0,0,0-3.72,2.88,5.94,5.94,0,0,0-.52,4.72q1.44,5.28,2.16,9.12a70,70,0,0,1,1,7.56,28.37,28.37,0,0,1-.2,6.68,37.08,37.08,0,0,1-1.6,6.2A33.82,33.82,0,0,1,85.61,74q-2,3.31-4.8,7.24T74.29,90q-3.77,4.8-8.4,10.56l-3,3.76A277.5,277.5,0,0,0,30.21,156a273.88,273.88,0,0,0-18.8,49.6q-6.55,24.56-7,44.72-.39,20.8,6,33.2a28.08,28.08,0,0,0,9.48,10.76,23.49,23.49,0,0,0,13.32,4q9.2,0,18.64-8.48a134.1,134.1,0,0,1,10.56-9.92,12,12,0,0,1,9.68-2.48q4.64.87,16.8,7.68l7.2,4.08q36.41,20.4,77,12.48,36.91-7.18,75.13-38.09,8.63,8.4,17.11,8.17a14.41,14.41,0,0,0,7.92-2.52,17.53,17.53,0,0,0,5.6-6,9.5,9.5,0,0,1,3.76-3.28,93,93,0,0,0,23.46-15.51,43.54,43.54,0,0,0,6.54,8.23q12.56,12.32,33.12,12.32a109.2,109.2,0,0,0,36.72-6,144.12,144.12,0,0,0,33.44-17.4,6.15,6.15,0,0,0,2.6-4,5.72,5.72,0,0,0-.92-4.6,5.83,5.83,0,0,0-4-2.52,6,6,0,0,0-4.6,1,134.84,134.84,0,0,1-30.4,15.92,97.33,97.33,0,0,1-32.88,5.28q-13.12,0-21.44-6.16a7.25,7.25,0,0,1-1.72-7.08A11.39,11.39,0,0,1,327.33,232.6ZM106.05,128.84q0-11,.12-17t.72-13.48A70.11,70.11,0,0,1,108.49,87a67.85,67.85,0,0,1,3.12-8.88,25.25,25.25,0,0,1,4.92-7.92q2.81-2.88,7.32-6.68a63.9,63.9,0,0,1,10-6.84q5.44-3,13.28-7a178.24,178.24,0,0,1,79.68-18.4q28.08,0,42.48,10.56Q281.73,51,283.17,67.72q1.44,16.4-8,38.28t-27.24,43.16a240.43,240.43,0,0,1-43,40,202,202,0,0,1-51.24,27.4,153.43,153.43,0,0,1-38.8,8.64c-2.83.27-5.25.47-7.28.6s-3.95.17-5.76.12-3.31-.13-4.48-.24a8.43,8.43,0,0,1-3.2-.92,10.27,10.27,0,0,1-2.2-1.48A4.43,4.43,0,0,1,90.81,221a13.34,13.34,0,0,1-.36-3,24.89,24.89,0,0,1,.44-4c.29-1.68.63-3.28,1-4.8s.88-3.48,1.52-5.88A406.85,406.85,0,0,0,106.05,128.84Zm-38,111.6q-2.08,3.44-4.32,3.12c-1.49-.21-3.28-1.71-5.36-4.48q-5.76-8.16,0-8.16a14.1,14.1,0,0,1,3.36.48Q71,233.56,68.05,240.44Zm5.48-25.32a14.57,14.57,0,0,1-4.2,2.48,14.29,14.29,0,0,1-5.36.76,19,19,0,0,1-6.56-1.44A119.37,119.37,0,0,1,40.69,209a5.7,5.7,0,0,0-6.08,0,5.71,5.71,0,0,0-3,5.28A16.76,16.76,0,0,0,33,220.2a62.37,62.37,0,0,0,3.28,7,145.42,145.42,0,0,0,12.32,19.2q15.44,15.44-5,34.24Q37.73,286,33.25,286a12,12,0,0,1-7-1.88,16.66,16.66,0,0,1-5-6.28q-5-9.76-4.64-27.36.31-18.4,6.64-41.88A276,276,0,0,1,69.81,115Q83.73,94.68,89.57,94.52a3.57,3.57,0,0,1,3.24,2.36,20.41,20.41,0,0,1,1.44,7.4q.28,5,.12,10.52t-.8,13.8a387.84,387.84,0,0,1-12,71.6c-.27,1.12-.57,2.25-.92,3.4a31.34,31.34,0,0,1-1.56,4,27.47,27.47,0,0,1-2.32,4.08A18.07,18.07,0,0,1,73.53,215.12Zm194.16,35a6.62,6.62,0,0,1-4.68,2.84c-1,.16-1.89.28-2.77.36q4.06-3.66,8.15-7.6A5.6,5.6,0,0,1,267.69,250.08Zm47.2-27.56q-5.33-1.52-6-12.48a150.22,150.22,0,0,1,2.24-33.52,258.09,258.09,0,0,1,9.6-38.16,319.05,319.05,0,0,1,18.52-44.24A253.1,253.1,0,0,1,362.77,56q12.72-16.8,25.84-26.28t23.84-9.48q11.83,0,17.68,5.6,5.69,5.36,6.56,15.84,1,10.88-3.12,26.72A187.38,187.38,0,0,1,420.85,102q-14.88,31-39.68,62.2t-52.8,52.52Q320.21,224,314.89,222.52Z"/></svg>
