<svg id="Layer_1" data-name="Layer 1" xmlns="http://www.w3.org/2000/svg" viewBox="0 0 1757.48 688.69"><defs><style>.cls-1{fill:#323232;}</style></defs><title>forside_logo</title><path class="cls-1" d="M969.41,403.07a276.62,276.62,0,0,0,41.6-35.84,360.56,360.56,0,0,0,36.16-43.88,329.38,329.38,0,0,0,26.8-45.64q19.35-40.48,17-66.72-1.44-15.21-10.32-23.6-9.45-9-26.08-9-28.48,0-59.36,40.64a266.13,266.13,0,0,0-24.8,40,319.33,319.33,0,0,0-19.2,46q-17.28,52.32-11.2,87a75.94,75.94,0,0,0,2.77,11.12,81.37,81.37,0,0,1-11.65,9.2c-2.4,1.44-4.36,2-5.88,1.64s-2.79-1.64-3.8-3.88a25,25,0,0,0-5.12-7.44,5.67,5.67,0,0,0-4.4-1.84l-.41,0-.39,0a5.88,5.88,0,0,0-4.32,1.84q-48.4,48.39-94,57.36-36.09,7-68.56-11.12-11.69-8.25-14.16-10.24-10.72-8.64-10.8-15.76a11.1,11.1,0,0,1,1-4.4c.74-1.34,1.2-2.12,1.36-2.36l1.2-1.84a7.57,7.57,0,0,1,1.32-1.72c.24-.16.74-.58,1.52-1.24a4.23,4.23,0,0,1,2-1.12,12.91,12.91,0,0,0,2.44-.72,9.62,9.62,0,0,1,3.24-.64c1.09,0,2.45-.12,4.08-.28s3.34-.26,5.16-.28,3.92,0,6.32,0a161.92,161.92,0,0,0,51-9.76A214.48,214.48,0,0,0,854,369.63a252.76,252.76,0,0,0,45.32-42.16q19.44-23.21,29.68-46.72t8.48-43.6q-1.92-22.17-19-34.64-17.76-13-49.68-13a191.59,191.59,0,0,0-77.52,15.92q-6,2.64-15.76,7.36c-3.47,1.7-6,2.92-7.56,3.64s-3.6,1.58-6.08,2.6a23,23,0,0,1-5.32,1.68c-1.07.1-2.44.17-4.12.2a5,5,0,0,1-3.68-1.12c-.78-.78-1.68-1.78-2.72-3a15.2,15.2,0,0,1-2.6-4.72q-1.05-2.88-2.16-7a5.56,5.56,0,0,0-2.84-3.76,6.18,6.18,0,0,0-4.76-.64,5.65,5.65,0,0,0-3.72,2.88,5.94,5.94,0,0,0-.52,4.72q1.44,5.28,2.16,9.12a70,70,0,0,1,1,7.56,28.93,28.93,0,0,1-.2,6.68,38.07,38.07,0,0,1-1.6,6.2,33.82,33.82,0,0,1-3.16,6.56q-2,3.32-4.8,7.24t-6.52,8.72q-3.76,4.8-8.4,10.56l-3,3.76a277.5,277.5,0,0,0-32.64,51.68,273.6,273.6,0,0,0-18.8,49.6q-6.57,24.56-7,44.72-.4,20.79,6,33.2A28.08,28.08,0,0,0,662,464.71a23.45,23.45,0,0,0,13.32,4q9.2,0,18.64-8.48a130.44,130.44,0,0,1,10.56-9.92,12,12,0,0,1,9.68-2.48q4.63.87,16.8,7.68l7.2,4.08q36.39,20.4,77,12.48,36.9-7.19,75.13-38.09,8.63,8.39,17.11,8.17a14.41,14.41,0,0,0,7.92-2.52,17.62,17.62,0,0,0,5.6-6,9.36,9.36,0,0,1,3.76-3.28,93,93,0,0,0,23.45-15.51,43.58,43.58,0,0,0,6.55,8.23q12.55,12.31,33.12,12.32a109.2,109.2,0,0,0,36.72-6A145.09,145.09,0,0,0,1058,412a6.19,6.19,0,0,0,2.6-4,5.75,5.75,0,0,0-.92-4.6,5.83,5.83,0,0,0-4-2.52,6,6,0,0,0-4.6,1,135.05,135.05,0,0,1-30.4,15.92,97.33,97.33,0,0,1-32.88,5.28q-13.12,0-21.44-6.16a7.22,7.22,0,0,1-1.72-7.08A11.35,11.35,0,0,1,969.41,403.07ZM748.13,299.31q0-11,.12-17t.72-13.48a70.11,70.11,0,0,1,1.6-11.32,65,65,0,0,1,3.12-8.88,25.25,25.25,0,0,1,4.92-7.92,98,98,0,0,1,7.32-6.68,62.55,62.55,0,0,1,10-6.84q5.43-3,13.28-7a178.24,178.24,0,0,1,79.68-18.4q28.08,0,42.48,10.56,12.48,9.12,13.92,25.84,1.44,16.4-8,38.28T890,319.63a240.77,240.77,0,0,1-43,40A202,202,0,0,1,795.73,387a153.43,153.43,0,0,1-38.8,8.64q-4.24.39-7.28.6t-5.76.12c-1.82-.06-3.31-.14-4.48-.24a8.56,8.56,0,0,1-3.2-.92,10,10,0,0,1-2.2-1.48,4.43,4.43,0,0,1-1.12-2.28,13.34,13.34,0,0,1-.36-3,23.76,23.76,0,0,1,.44-4c.29-1.68.62-3.28,1-4.8s.88-3.48,1.52-5.88A406.85,406.85,0,0,0,748.13,299.31Zm-38,111.6q-2.08,3.43-4.32,3.12c-1.5-.22-3.28-1.71-5.36-4.48q-5.76-8.16,0-8.16a14.1,14.1,0,0,1,3.36.48Q713.08,404,710.13,410.91Zm5.48-25.32a14.57,14.57,0,0,1-4.2,2.48,14.32,14.32,0,0,1-5.36.76,19.5,19.5,0,0,1-6.56-1.44,118.84,118.84,0,0,1-16.72-7.92,6.08,6.08,0,0,0-9.12,5.28,16.81,16.81,0,0,0,1.44,5.92,60.67,60.67,0,0,0,3.28,7,145.42,145.42,0,0,0,12.32,19.2q15.43,15.43-5,34.24-5.93,5.36-10.4,5.36a12,12,0,0,1-7-1.88,16.57,16.57,0,0,1-5-6.28q-5-9.77-4.64-27.36.32-18.4,6.64-41.88a265.54,265.54,0,0,1,17.92-47.32,269,269,0,0,1,28.56-46.32q13.92-20.33,19.76-20.48a3.57,3.57,0,0,1,3.24,2.36,20.41,20.41,0,0,1,1.44,7.4c.18,3.36.22,6.86.12,10.52s-.38,8.25-.8,13.8a389.53,389.53,0,0,1-12,71.6c-.27,1.12-.58,2.25-.92,3.4a32.57,32.57,0,0,1-1.56,4,28.39,28.39,0,0,1-2.32,4.08A18.72,18.72,0,0,1,715.61,385.59Zm194.16,35a6.66,6.66,0,0,1-4.68,2.84c-1,.16-1.89.28-2.77.35q4.06-3.66,8.14-7.59A5.56,5.56,0,0,1,909.77,420.55ZM957,393q-5.33-1.53-6-12.48A150.18,150.18,0,0,1,953.17,347a257.47,257.47,0,0,1,9.6-38.16,317.33,317.33,0,0,1,18.52-44.24,252.3,252.3,0,0,1,23.56-38.16q12.72-16.8,25.84-26.28t23.84-9.48q11.84,0,17.68,5.6,5.67,5.35,6.56,15.84,1,10.88-3.12,26.72a188.92,188.92,0,0,1-12.72,33.6q-14.88,31-39.68,62.2t-52.8,52.52Q962.29,394.5,957,393Z"/></svg>
