<svg id="Layer_1" data-name="Layer 1" xmlns="http://www.w3.org/2000/svg" viewBox="0 0 56.69 34.02"><defs><style>.cls-1{fill:#5e5e5e;}</style></defs><title>logo</title><path id="Path_10231" data-name="Path 10231" class="cls-1" d="M37.88,24.41a26,26,0,0,0,3.9-3.36A34.89,34.89,0,0,0,45.16,17a30.36,30.36,0,0,0,2.5-4.27,12.74,12.74,0,0,0,1.6-6.36A3.64,3.64,0,0,0,48.2,3.91,3.7,3.7,0,0,0,45.53,3c-1.87,0-3.81,1.31-5.78,3.9a26.25,26.25,0,0,0-2.33,3.74,31,31,0,0,0-1.8,4.3,17.48,17.48,0,0,0-1,8.23,6,6,0,0,0,.2.84,8.81,8.81,0,0,1-.85.66.81.81,0,0,1-.27.11.32.32,0,0,1-.1-.16,2.6,2.6,0,0,0-.54-.78.91.91,0,0,0-.7-.29h0a.91.91,0,0,0-.66.28c-2.92,2.91-5.78,4.66-8.5,5.2a8.74,8.74,0,0,1-6.05-1c-.88-.62-1.19-.85-1.29-.93-.71-.57-.86-.95-.86-1.17a.62.62,0,0,1,0-.23c.06-.11.1-.17.11-.2l.11-.17.06-.08a.8.8,0,0,0,.13-.13,1.71,1.71,0,0,0,.3-.09.57.57,0,0,1,.18,0l.4,0c.14,0,.29,0,.44,0h.59A15.32,15.32,0,0,0,22.1,24a20.18,20.18,0,0,0,5.1-2.72,23.81,23.81,0,0,0,4.25-4,18.25,18.25,0,0,0,2.8-4.4,8.62,8.62,0,0,0,.81-4.21,4.54,4.54,0,0,0-1.9-3.47A8.06,8.06,0,0,0,28.36,4,18.23,18.23,0,0,0,21,5.5q-.55.24-1.47.69l-.69.33c-.14.07-.32.14-.55.23a1.32,1.32,0,0,1-.38.13l-.35,0h0c-.05,0-.07,0-.07,0a3.09,3.09,0,0,1-.23-.25,1.09,1.09,0,0,1-.17-.32c-.06-.17-.13-.38-.19-.6a.85.85,0,0,0-.44-.59.93.93,0,0,0-.71-.1.9.9,0,0,0-.58.44,1,1,0,0,0-.08.72,7.54,7.54,0,0,1,.19.81,5,5,0,0,1,.09.66,2.36,2.36,0,0,1,0,.53,4.77,4.77,0,0,1-.13.51,3.26,3.26,0,0,1-.26.53c-.13.2-.27.42-.43.65s-.37.5-.6.79l-.77,1-.28.34a26.59,26.59,0,0,0-3.06,4.85A25.12,25.12,0,0,0,8.1,21.5a17.76,17.76,0,0,0-.66,4.22A6.79,6.79,0,0,0,8,29,3.05,3.05,0,0,0,9,30.1a2.66,2.66,0,0,0,3.42-.46c.3-.31.61-.6.93-.88A.74.74,0,0,1,14,28.6a5.9,5.9,0,0,1,1.44.67l.67.37A10.46,10.46,0,0,0,21.34,31a10.83,10.83,0,0,0,2.13-.21,16.18,16.18,0,0,0,6.86-3.4,2.41,2.41,0,0,0,1.6.65,1.71,1.71,0,0,0,.93-.3,1.9,1.9,0,0,0,.62-.67.48.48,0,0,1,.19-.16,9.17,9.17,0,0,0,1.95-1.23,3.72,3.72,0,0,0,.41.48,4.56,4.56,0,0,0,3.32,1.25,10.52,10.52,0,0,0,3.52-.58,13.53,13.53,0,0,0,3.18-1.65,1,1,0,0,0,.39-.6A.92.92,0,0,0,45,23.68a11.82,11.82,0,0,1-2.73,1.42,8.49,8.49,0,0,1-2.91.47,3,3,0,0,1-1.74-.47.36.36,0,0,1,0-.3A.7.7,0,0,1,37.88,24.41ZM43.55,5.65a3.51,3.51,0,0,1,2-.8,1.91,1.91,0,0,1,1.38.41,1.84,1.84,0,0,1,.49,1.23,6.83,6.83,0,0,1-.27,2.34,17.13,17.13,0,0,1-1.15,3,29.93,29.93,0,0,1-3.63,5.68,27.49,27.49,0,0,1-4.83,4.81c-.39.35-.71.51-.9.46h0c-.16,0-.26-.35-.29-.82a13.31,13.31,0,0,1,.2-3,23.49,23.49,0,0,1,.87-3.47,29.6,29.6,0,0,1,1.69-4A23.9,23.9,0,0,1,41.23,8,11.23,11.23,0,0,1,43.55,5.65ZM13,24.35c.24.06.34.13.36.17a.17.17,0,0,1,0,.14.43.43,0,0,0,0,.07,1.26,1.26,0,0,1-.22-.24.8.8,0,0,1-.09-.14Zm.3-1.93a1.66,1.66,0,0,1-.49-.11,10.68,10.68,0,0,1-1.49-.71.92.92,0,0,0-1.27.34.85.85,0,0,0-.13.47,1.74,1.74,0,0,0,.16.68,5.42,5.42,0,0,0,.32.69,13.41,13.41,0,0,0,1.2,1.86,1.44,1.44,0,0,1,.5,1.05,2.37,2.37,0,0,1-1,1.58c-.38.35-.61.4-.71.4a.8.8,0,0,1-.43-.1,1.25,1.25,0,0,1-.34-.45,5,5,0,0,1-.39-2.35A16.11,16.11,0,0,1,9.92,22a24.34,24.34,0,0,1,1.63-4.31,24.81,24.81,0,0,1,2.61-4.23c1.09-1.59,1.48-1.73,1.49-1.73h0a1.49,1.49,0,0,1,.1.55c0,.29,0,.61,0,.94s0,.75-.07,1.26A36.42,36.42,0,0,1,14.6,21l-.08.29a3.05,3.05,0,0,1-.13.32,2,2,0,0,1-.18.32,1.39,1.39,0,0,1-.23.25h0a1.17,1.17,0,0,1-.28.17,1.12,1.12,0,0,1-.36.05Zm2.8.33c0-.1,0-.2,0-.3s.05-.28.09-.42.08-.32.14-.53a39.09,39.09,0,0,0,1.18-7v0c0-.68,0-1.2,0-1.57s0-.77.06-1.22a6.43,6.43,0,0,1,.14-1,5,5,0,0,1,.27-.77,2.07,2.07,0,0,1,.38-.62,8.44,8.44,0,0,1,.65-.59,5.53,5.53,0,0,1,.86-.6l1.21-.63a16.21,16.21,0,0,1,7.2-1.66,6.27,6.27,0,0,1,3.71.9A2.76,2.76,0,0,1,33.21,8.9a7.09,7.09,0,0,1-.71,3.36A16.15,16.15,0,0,1,30,16.16a21.36,21.36,0,0,1-3.91,3.63,18.19,18.19,0,0,1-4.64,2.48,13.64,13.64,0,0,1-3.5.78l-.66.06h-.5l-.4,0a.44.44,0,0,1-.15-.05c-.08,0-.11-.07-.12-.1a1.23,1.23,0,0,1,0-.2Z"/></svg>
