<svg id="Layer_1" data-name="Layer 1" xmlns="http://www.w3.org/2000/svg" viewBox="0 0 623.62 62.36"><defs><style>.cls-1{fill:#323232;}.cls-2{fill:none;stroke:#323232;stroke-linecap:round;stroke-miterlimit:10;}</style></defs><title>mobile footer</title><path class="cls-1" d="M329.52,45.56a51.7,51.7,0,0,0,7.8-6.72,67.09,67.09,0,0,0,6.78-8.23,61.28,61.28,0,0,0,5-8.55q3.63-7.59,3.18-12.51a6.74,6.74,0,0,0-1.94-4.43,6.82,6.82,0,0,0-4.89-1.68q-5.34,0-11.13,7.62a50.34,50.34,0,0,0-4.65,7.49,60.4,60.4,0,0,0-3.6,8.62Q322.86,37,324,43.49a13.29,13.29,0,0,0,.54,2.07,14.81,14.81,0,0,1-2.2,1.74,1.61,1.61,0,0,1-1.1.31,1.15,1.15,0,0,1-.72-.73,4.67,4.67,0,0,0-1-1.39,1.06,1.06,0,0,0-.82-.35l-.08,0-.07,0a1.11,1.11,0,0,0-.81.35q-9.07,9.07-17.63,10.75a18.35,18.35,0,0,1-12.85-2.08c-1.46-1-2.35-1.67-2.66-1.92-1.34-1.08-2-2.07-2-3a2.06,2.06,0,0,1,.18-.82l.25-.45.23-.34a1.15,1.15,0,0,1,.25-.32s.14-.11.28-.24a.92.92,0,0,1,.38-.21,2.37,2.37,0,0,0,.45-.13,1.66,1.66,0,0,1,.61-.12l.77,0q.45,0,1-.06h1.19a30.27,30.27,0,0,0,9.55-1.83,40.29,40.29,0,0,0,10.17-5.42,47.38,47.38,0,0,0,8.49-7.9A36.34,36.34,0,0,0,322,22.63a16.84,16.84,0,0,0,1.59-8.18A8.58,8.58,0,0,0,320,8q-3.33-2.43-9.31-2.43a36,36,0,0,0-14.54,3c-.75.33-1.73.79-2.95,1.38-.65.32-1.12.55-1.42.68s-.67.3-1.14.49a4.26,4.26,0,0,1-1,.32c-.2,0-.45,0-.77,0a.9.9,0,0,1-.69-.21c-.14-.14-.31-.33-.51-.56a2.93,2.93,0,0,1-.49-.88c-.13-.36-.26-.8-.4-1.31a1,1,0,0,0-.53-.7,1.19,1.19,0,0,0-.9-.12,1,1,0,0,0-.69.54,1.09,1.09,0,0,0-.1.88c.18.66.31,1.23.4,1.71a11.78,11.78,0,0,1,.19,1.42,5.08,5.08,0,0,1,0,1.25,6.85,6.85,0,0,1-.3,1.16,5.75,5.75,0,0,1-.59,1.23c-.25.42-.55.87-.9,1.36s-.75,1-1.22,1.64-1,1.26-1.58,2l-.57.7a52.05,52.05,0,0,0-6.12,9.69,51.37,51.37,0,0,0-3.52,9.3A35.57,35.57,0,0,0,269,48.88a13.06,13.06,0,0,0,1.13,6.22,5.27,5.27,0,0,0,1.78,2,4.4,4.4,0,0,0,2.49.76,5.31,5.31,0,0,0,3.5-1.59,25.3,25.3,0,0,1,2-1.86,2.26,2.26,0,0,1,1.81-.47,13.33,13.33,0,0,1,3.15,1.44l1.35.77a20.58,20.58,0,0,0,14.43,2.34q6.93-1.35,14.1-7.15a4.48,4.48,0,0,0,3.2,1.54,2.64,2.64,0,0,0,1.48-.48,3.24,3.24,0,0,0,1.05-1.13,1.79,1.79,0,0,1,.71-.61,17.68,17.68,0,0,0,4.41-2.94,8.29,8.29,0,0,0,1.21,1.57A8.49,8.49,0,0,0,333,51.62a20.36,20.36,0,0,0,6.89-1.12,26.88,26.88,0,0,0,6.27-3.26,1.18,1.18,0,0,0,.49-.74,1.09,1.09,0,0,0-.18-.86,1.11,1.11,0,0,0-.74-.48,1.14,1.14,0,0,0-.86.19,25.3,25.3,0,0,1-5.7,3,18.27,18.27,0,0,1-6.17,1,6.58,6.58,0,0,1-4-1.16,1.37,1.37,0,0,1-.32-1.33A2.16,2.16,0,0,1,329.52,45.56ZM288,26.11c0-1.38,0-2.45,0-3.2s.06-1.59.13-2.53a14.55,14.55,0,0,1,.3-2.12,12.6,12.6,0,0,1,.59-1.66,4.69,4.69,0,0,1,.92-1.49c.35-.36.81-.78,1.37-1.25a11.86,11.86,0,0,1,1.87-1.28c.68-.38,1.51-.82,2.49-1.31a33.43,33.43,0,0,1,14.94-3.45q5.26,0,8,2a6.38,6.38,0,0,1,2.61,4.85,15.09,15.09,0,0,1-1.5,7.17,33.58,33.58,0,0,1-5.11,8.1,45.43,45.43,0,0,1-8.06,7.49A38.09,38.09,0,0,1,297,42.55a28.8,28.8,0,0,1-7.28,1.62l-1.36.11c-.38,0-.74,0-1.08,0l-.84,0a1.5,1.5,0,0,1-.6-.18,1.61,1.61,0,0,1-.41-.27.79.79,0,0,1-.21-.43,2.26,2.26,0,0,1-.07-.56,5.33,5.33,0,0,1,.08-.75c.06-.31.12-.61.19-.9s.16-.65.28-1.1A76.17,76.17,0,0,0,288,26.11ZM280.91,47c-.26.43-.53.63-.81.59s-.62-.32-1-.84q-1.08-1.53,0-1.53a2.64,2.64,0,0,1,.63.09C280.88,45.61,281.28,46.17,280.91,47Zm1-4.75a2.45,2.45,0,0,1-1.8.61,3.6,3.6,0,0,1-1.23-.27,22.14,22.14,0,0,1-3.13-1.48,1.14,1.14,0,0,0-1.71,1,3.15,3.15,0,0,0,.27,1.11,11.59,11.59,0,0,0,.61,1.32,27.33,27.33,0,0,0,2.31,3.6q2.89,2.9-.93,6.42a3.14,3.14,0,0,1-1.95,1,2.27,2.27,0,0,1-1.3-.35,3.16,3.16,0,0,1-.93-1.18,11.07,11.07,0,0,1-.87-5.13,32.73,32.73,0,0,1,1.24-7.85,49.82,49.82,0,0,1,3.36-8.87,50.5,50.5,0,0,1,5.36-8.69q2.61-3.81,3.7-3.84a.67.67,0,0,1,.61.44,3.64,3.64,0,0,1,.27,1.39c0,.63,0,1.29,0,2s-.07,1.55-.15,2.59a72.87,72.87,0,0,1-2.25,13.43c-.05.21-.1.42-.17.63a4.92,4.92,0,0,1-.29.75,5,5,0,0,1-.44.76A3.31,3.31,0,0,1,281.94,42.28Zm36.4,6.56a1.25,1.25,0,0,1-.88.53,4.4,4.4,0,0,1-.49,0c.5-.44,1-.91,1.5-1.39A1.06,1.06,0,0,1,318.34,48.84Zm8.85-5.17c-.66-.19-1-1-1.13-2.34a28.16,28.16,0,0,1,.42-6.28,48.41,48.41,0,0,1,1.8-7.16,60.33,60.33,0,0,1,3.47-8.29,47.93,47.93,0,0,1,4.42-7.16A23.66,23.66,0,0,1,341,7.51a7.9,7.9,0,0,1,4.47-1.77,4.64,4.64,0,0,1,3.32,1,4.43,4.43,0,0,1,1.23,3,14.76,14.76,0,0,1-.59,5,35.19,35.19,0,0,1-2.38,6.3,61.75,61.75,0,0,1-7.44,11.66,56.84,56.84,0,0,1-9.9,9.85C328.7,43.5,327.86,43.86,327.19,43.67Z"/><line class="cls-2" x1="0.11" y1="31.18" x2="258.56" y2="31.18"/><line class="cls-2" x1="365.06" y1="31.18" x2="623.51" y2="31.18"/></svg>